<?xml version="1.0" encoding="utf-8"?>
<svg xmlns="http://www.w3.org/2000/svg" xmlns:xlink="http://www.w3.org/1999/xlink" width="600" height="400" viewBox="0 0 2400 1600">
<defs>
  <clipPath id="clip990">
    <rect x="0" y="0" width="2400" height="1600"/>
  </clipPath>
</defs>
<path clip-path="url(#clip990)" d="M0 1600 L2400 1600 L2400 0 L0 0  Z" fill="#ffffff" fill-rule="evenodd" fill-opacity="1"/>
<defs>
  <clipPath id="clip991">
    <rect x="480" y="0" width="1681" height="1600"/>
  </clipPath>
</defs>
<path clip-path="url(#clip990)" d="M172.015 1423.18 L2352.76 1423.18 L2352.76 47.2441 L172.015 47.2441  Z" fill="#ffffff" fill-rule="evenodd" fill-opacity="1"/>
<defs>
  <clipPath id="clip992">
    <rect x="172" y="47" width="2182" height="1377"/>
  </clipPath>
</defs>
<polyline clip-path="url(#clip992)" style="stroke:#000000; stroke-linecap:round; stroke-linejoin:round; stroke-width:2; stroke-opacity:0.1; fill:none" points="233.734,1423.18 233.734,47.2441 "/>
<polyline clip-path="url(#clip992)" style="stroke:#000000; stroke-linecap:round; stroke-linejoin:round; stroke-width:2; stroke-opacity:0.1; fill:none" points="748.06,1423.18 748.06,47.2441 "/>
<polyline clip-path="url(#clip992)" style="stroke:#000000; stroke-linecap:round; stroke-linejoin:round; stroke-width:2; stroke-opacity:0.1; fill:none" points="1262.39,1423.18 1262.39,47.2441 "/>
<polyline clip-path="url(#clip992)" style="stroke:#000000; stroke-linecap:round; stroke-linejoin:round; stroke-width:2; stroke-opacity:0.1; fill:none" points="1776.71,1423.18 1776.71,47.2441 "/>
<polyline clip-path="url(#clip992)" style="stroke:#000000; stroke-linecap:round; stroke-linejoin:round; stroke-width:2; stroke-opacity:0.1; fill:none" points="2291.04,1423.18 2291.04,47.2441 "/>
<polyline clip-path="url(#clip990)" style="stroke:#000000; stroke-linecap:round; stroke-linejoin:round; stroke-width:4; stroke-opacity:1; fill:none" points="172.015,1423.18 2352.76,1423.18 "/>
<polyline clip-path="url(#clip990)" style="stroke:#000000; stroke-linecap:round; stroke-linejoin:round; stroke-width:4; stroke-opacity:1; fill:none" points="233.734,1423.18 233.734,1404.28 "/>
<polyline clip-path="url(#clip990)" style="stroke:#000000; stroke-linecap:round; stroke-linejoin:round; stroke-width:4; stroke-opacity:1; fill:none" points="748.06,1423.18 748.06,1404.28 "/>
<polyline clip-path="url(#clip990)" style="stroke:#000000; stroke-linecap:round; stroke-linejoin:round; stroke-width:4; stroke-opacity:1; fill:none" points="1262.39,1423.18 1262.39,1404.28 "/>
<polyline clip-path="url(#clip990)" style="stroke:#000000; stroke-linecap:round; stroke-linejoin:round; stroke-width:4; stroke-opacity:1; fill:none" points="1776.71,1423.18 1776.71,1404.28 "/>
<polyline clip-path="url(#clip990)" style="stroke:#000000; stroke-linecap:round; stroke-linejoin:round; stroke-width:4; stroke-opacity:1; fill:none" points="2291.04,1423.18 2291.04,1404.28 "/>
<path clip-path="url(#clip990)" d="M211.118 1454.1 Q207.507 1454.1 205.679 1457.66 Q203.873 1461.2 203.873 1468.33 Q203.873 1475.44 205.679 1479.01 Q207.507 1482.55 211.118 1482.55 Q214.753 1482.55 216.558 1479.01 Q218.387 1475.44 218.387 1468.33 Q218.387 1461.2 216.558 1457.66 Q214.753 1454.1 211.118 1454.1 M211.118 1450.39 Q216.928 1450.39 219.984 1455 Q223.063 1459.58 223.063 1468.33 Q223.063 1477.06 219.984 1481.67 Q216.928 1486.25 211.118 1486.25 Q205.308 1486.25 202.229 1481.67 Q199.174 1477.06 199.174 1468.33 Q199.174 1459.58 202.229 1455 Q205.308 1450.39 211.118 1450.39 Z" fill="#000000" fill-rule="nonzero" fill-opacity="1" /><path clip-path="url(#clip990)" d="M231.28 1479.7 L236.164 1479.7 L236.164 1485.58 L231.28 1485.58 L231.28 1479.7 Z" fill="#000000" fill-rule="nonzero" fill-opacity="1" /><path clip-path="url(#clip990)" d="M256.35 1454.1 Q252.738 1454.1 250.91 1457.66 Q249.104 1461.2 249.104 1468.33 Q249.104 1475.44 250.91 1479.01 Q252.738 1482.55 256.35 1482.55 Q259.984 1482.55 261.789 1479.01 Q263.618 1475.44 263.618 1468.33 Q263.618 1461.2 261.789 1457.66 Q259.984 1454.1 256.35 1454.1 M256.35 1450.39 Q262.16 1450.39 265.215 1455 Q268.294 1459.58 268.294 1468.33 Q268.294 1477.06 265.215 1481.67 Q262.16 1486.25 256.35 1486.25 Q250.539 1486.25 247.461 1481.67 Q244.405 1477.06 244.405 1468.33 Q244.405 1459.58 247.461 1455 Q250.539 1450.39 256.35 1450.39 Z" fill="#000000" fill-rule="nonzero" fill-opacity="1" /><path clip-path="url(#clip990)" d="M719.796 1481.64 L736.115 1481.64 L736.115 1485.58 L714.171 1485.58 L714.171 1481.64 Q716.833 1478.89 721.416 1474.26 Q726.023 1469.61 727.203 1468.27 Q729.449 1465.74 730.328 1464.01 Q731.231 1462.25 731.231 1460.56 Q731.231 1457.8 729.287 1456.07 Q727.365 1454.33 724.263 1454.33 Q722.064 1454.33 719.611 1455.09 Q717.18 1455.86 714.402 1457.41 L714.402 1452.69 Q717.226 1451.55 719.68 1450.97 Q722.134 1450.39 724.171 1450.39 Q729.541 1450.39 732.736 1453.08 Q735.93 1455.77 735.93 1460.26 Q735.93 1462.39 735.12 1464.31 Q734.333 1466.2 732.226 1468.8 Q731.648 1469.47 728.546 1472.69 Q725.444 1475.88 719.796 1481.64 Z" fill="#000000" fill-rule="nonzero" fill-opacity="1" /><path clip-path="url(#clip990)" d="M745.93 1479.7 L750.814 1479.7 L750.814 1485.58 L745.93 1485.58 L745.93 1479.7 Z" fill="#000000" fill-rule="nonzero" fill-opacity="1" /><path clip-path="url(#clip990)" d="M761.046 1451.02 L779.402 1451.02 L779.402 1454.96 L765.328 1454.96 L765.328 1463.43 Q766.347 1463.08 767.365 1462.92 Q768.384 1462.73 769.402 1462.73 Q775.189 1462.73 778.569 1465.9 Q781.948 1469.08 781.948 1474.49 Q781.948 1480.07 778.476 1483.17 Q775.004 1486.25 768.685 1486.25 Q766.509 1486.25 764.24 1485.88 Q761.995 1485.51 759.587 1484.77 L759.587 1480.07 Q761.671 1481.2 763.893 1481.76 Q766.115 1482.32 768.592 1482.32 Q772.597 1482.32 774.934 1480.21 Q777.272 1478.1 777.272 1474.49 Q777.272 1470.88 774.934 1468.77 Q772.597 1466.67 768.592 1466.67 Q766.717 1466.67 764.842 1467.08 Q762.99 1467.5 761.046 1468.38 L761.046 1451.02 Z" fill="#000000" fill-rule="nonzero" fill-opacity="1" /><path clip-path="url(#clip990)" d="M1229.55 1451.02 L1247.91 1451.02 L1247.91 1454.96 L1233.83 1454.96 L1233.83 1463.43 Q1234.85 1463.08 1235.87 1462.92 Q1236.89 1462.73 1237.91 1462.73 Q1243.69 1462.73 1247.07 1465.9 Q1250.45 1469.08 1250.45 1474.49 Q1250.45 1480.07 1246.98 1483.17 Q1243.51 1486.25 1237.19 1486.25 Q1235.01 1486.25 1232.74 1485.88 Q1230.5 1485.51 1228.09 1484.77 L1228.09 1480.07 Q1230.17 1481.2 1232.4 1481.76 Q1234.62 1482.32 1237.1 1482.32 Q1241.1 1482.32 1243.44 1480.21 Q1245.78 1478.1 1245.78 1474.49 Q1245.78 1470.88 1243.44 1468.77 Q1241.1 1466.67 1237.1 1466.67 Q1235.22 1466.67 1233.35 1467.08 Q1231.49 1467.5 1229.55 1468.38 L1229.55 1451.02 Z" fill="#000000" fill-rule="nonzero" fill-opacity="1" /><path clip-path="url(#clip990)" d="M1259.67 1479.7 L1264.55 1479.7 L1264.55 1485.58 L1259.67 1485.58 L1259.67 1479.7 Z" fill="#000000" fill-rule="nonzero" fill-opacity="1" /><path clip-path="url(#clip990)" d="M1284.73 1454.1 Q1281.12 1454.1 1279.29 1457.66 Q1277.49 1461.2 1277.49 1468.33 Q1277.49 1475.44 1279.29 1479.01 Q1281.12 1482.55 1284.73 1482.55 Q1288.37 1482.55 1290.17 1479.01 Q1292 1475.44 1292 1468.33 Q1292 1461.2 1290.17 1457.66 Q1288.37 1454.1 1284.73 1454.1 M1284.73 1450.39 Q1290.54 1450.39 1293.6 1455 Q1296.68 1459.58 1296.68 1468.33 Q1296.68 1477.06 1293.6 1481.67 Q1290.54 1486.25 1284.73 1486.25 Q1278.92 1486.25 1275.85 1481.67 Q1272.79 1477.06 1272.79 1468.33 Q1272.79 1459.58 1275.85 1455 Q1278.92 1450.39 1284.73 1450.39 Z" fill="#000000" fill-rule="nonzero" fill-opacity="1" /><path clip-path="url(#clip990)" d="M1743.03 1451.02 L1765.25 1451.02 L1765.25 1453.01 L1752.71 1485.58 L1747.82 1485.58 L1759.63 1454.96 L1743.03 1454.96 L1743.03 1451.02 Z" fill="#000000" fill-rule="nonzero" fill-opacity="1" /><path clip-path="url(#clip990)" d="M1774.37 1479.7 L1779.26 1479.7 L1779.26 1485.58 L1774.37 1485.58 L1774.37 1479.7 Z" fill="#000000" fill-rule="nonzero" fill-opacity="1" /><path clip-path="url(#clip990)" d="M1789.49 1451.02 L1807.85 1451.02 L1807.85 1454.96 L1793.77 1454.96 L1793.77 1463.43 Q1794.79 1463.08 1795.81 1462.92 Q1796.83 1462.73 1797.85 1462.73 Q1803.63 1462.73 1807.01 1465.9 Q1810.39 1469.08 1810.39 1474.49 Q1810.39 1480.07 1806.92 1483.17 Q1803.45 1486.25 1797.13 1486.25 Q1794.95 1486.25 1792.68 1485.88 Q1790.44 1485.51 1788.03 1484.77 L1788.03 1480.07 Q1790.11 1481.2 1792.34 1481.76 Q1794.56 1482.32 1797.04 1482.32 Q1801.04 1482.32 1803.38 1480.21 Q1805.72 1478.1 1805.72 1474.49 Q1805.72 1470.88 1803.38 1468.77 Q1801.04 1466.67 1797.04 1466.67 Q1795.16 1466.67 1793.29 1467.08 Q1791.43 1467.5 1789.49 1468.38 L1789.49 1451.02 Z" fill="#000000" fill-rule="nonzero" fill-opacity="1" /><path clip-path="url(#clip990)" d="M2243.11 1481.64 L2250.75 1481.64 L2250.75 1455.28 L2242.44 1456.95 L2242.44 1452.69 L2250.7 1451.02 L2255.38 1451.02 L2255.38 1481.64 L2263.02 1481.64 L2263.02 1485.58 L2243.11 1485.58 L2243.11 1481.64 Z" fill="#000000" fill-rule="nonzero" fill-opacity="1" /><path clip-path="url(#clip990)" d="M2282.46 1454.1 Q2278.85 1454.1 2277.02 1457.66 Q2275.22 1461.2 2275.22 1468.33 Q2275.22 1475.44 2277.02 1479.01 Q2278.85 1482.55 2282.46 1482.55 Q2286.09 1482.55 2287.9 1479.01 Q2289.73 1475.44 2289.73 1468.33 Q2289.73 1461.2 2287.9 1457.66 Q2286.09 1454.1 2282.46 1454.1 M2282.46 1450.39 Q2288.27 1450.39 2291.33 1455 Q2294.4 1459.58 2294.4 1468.33 Q2294.4 1477.06 2291.33 1481.67 Q2288.27 1486.25 2282.46 1486.25 Q2276.65 1486.25 2273.57 1481.67 Q2270.52 1477.06 2270.52 1468.33 Q2270.52 1459.58 2273.57 1455 Q2276.65 1450.39 2282.46 1450.39 Z" fill="#000000" fill-rule="nonzero" fill-opacity="1" /><path clip-path="url(#clip990)" d="M2302.62 1479.7 L2307.51 1479.7 L2307.51 1485.58 L2302.62 1485.58 L2302.62 1479.7 Z" fill="#000000" fill-rule="nonzero" fill-opacity="1" /><path clip-path="url(#clip990)" d="M2327.69 1454.1 Q2324.08 1454.1 2322.25 1457.66 Q2320.45 1461.2 2320.45 1468.33 Q2320.45 1475.44 2322.25 1479.01 Q2324.08 1482.55 2327.69 1482.55 Q2331.33 1482.55 2333.13 1479.01 Q2334.96 1475.44 2334.96 1468.33 Q2334.96 1461.2 2333.13 1457.66 Q2331.33 1454.1 2327.69 1454.1 M2327.69 1450.39 Q2333.5 1450.39 2336.56 1455 Q2339.64 1459.58 2339.64 1468.33 Q2339.64 1477.06 2336.56 1481.67 Q2333.5 1486.25 2327.69 1486.25 Q2321.88 1486.25 2318.8 1481.67 Q2315.75 1477.06 2315.75 1468.33 Q2315.75 1459.58 2318.8 1455 Q2321.88 1450.39 2327.69 1450.39 Z" fill="#000000" fill-rule="nonzero" fill-opacity="1" /><path clip-path="url(#clip990)" d="M1261.45 1522.27 L1261.45 1532.4 L1273.51 1532.4 L1273.51 1536.95 L1261.45 1536.95 L1261.45 1556.3 Q1261.45 1560.66 1262.62 1561.9 Q1263.83 1563.14 1267.49 1563.14 L1273.51 1563.14 L1273.51 1568.04 L1267.49 1568.04 Q1260.71 1568.04 1258.14 1565.53 Q1255.56 1562.98 1255.56 1556.3 L1255.56 1536.95 L1251.26 1536.95 L1251.26 1532.4 L1255.56 1532.4 L1255.56 1522.27 L1261.45 1522.27 Z" fill="#000000" fill-rule="nonzero" fill-opacity="1" /><polyline clip-path="url(#clip992)" style="stroke:#000000; stroke-linecap:round; stroke-linejoin:round; stroke-width:2; stroke-opacity:0.1; fill:none" points="172.015,1384.24 2352.76,1384.24 "/>
<polyline clip-path="url(#clip992)" style="stroke:#000000; stroke-linecap:round; stroke-linejoin:round; stroke-width:2; stroke-opacity:0.1; fill:none" points="172.015,1059.73 2352.76,1059.73 "/>
<polyline clip-path="url(#clip992)" style="stroke:#000000; stroke-linecap:round; stroke-linejoin:round; stroke-width:2; stroke-opacity:0.1; fill:none" points="172.015,735.212 2352.76,735.212 "/>
<polyline clip-path="url(#clip992)" style="stroke:#000000; stroke-linecap:round; stroke-linejoin:round; stroke-width:2; stroke-opacity:0.1; fill:none" points="172.015,410.699 2352.76,410.699 "/>
<polyline clip-path="url(#clip992)" style="stroke:#000000; stroke-linecap:round; stroke-linejoin:round; stroke-width:2; stroke-opacity:0.1; fill:none" points="172.015,86.1857 2352.76,86.1857 "/>
<polyline clip-path="url(#clip990)" style="stroke:#000000; stroke-linecap:round; stroke-linejoin:round; stroke-width:4; stroke-opacity:1; fill:none" points="172.015,1423.18 172.015,47.2441 "/>
<polyline clip-path="url(#clip990)" style="stroke:#000000; stroke-linecap:round; stroke-linejoin:round; stroke-width:4; stroke-opacity:1; fill:none" points="172.015,1384.24 190.912,1384.24 "/>
<polyline clip-path="url(#clip990)" style="stroke:#000000; stroke-linecap:round; stroke-linejoin:round; stroke-width:4; stroke-opacity:1; fill:none" points="172.015,1059.73 190.912,1059.73 "/>
<polyline clip-path="url(#clip990)" style="stroke:#000000; stroke-linecap:round; stroke-linejoin:round; stroke-width:4; stroke-opacity:1; fill:none" points="172.015,735.212 190.912,735.212 "/>
<polyline clip-path="url(#clip990)" style="stroke:#000000; stroke-linecap:round; stroke-linejoin:round; stroke-width:4; stroke-opacity:1; fill:none" points="172.015,410.699 190.912,410.699 "/>
<polyline clip-path="url(#clip990)" style="stroke:#000000; stroke-linecap:round; stroke-linejoin:round; stroke-width:4; stroke-opacity:1; fill:none" points="172.015,86.1857 190.912,86.1857 "/>
<path clip-path="url(#clip990)" d="M67.9133 1382.88 Q71.2698 1383.6 73.1448 1385.87 Q75.0429 1388.14 75.0429 1391.47 Q75.0429 1396.59 71.5244 1399.39 Q68.0059 1402.19 61.5245 1402.19 Q59.3486 1402.19 57.0338 1401.75 Q54.7421 1401.33 52.2884 1400.48 L52.2884 1395.96 Q54.2328 1397.1 56.5477 1397.68 Q58.8625 1398.25 61.3856 1398.25 Q65.7837 1398.25 68.0754 1396.52 Q70.3902 1394.78 70.3902 1391.47 Q70.3902 1388.42 68.2374 1386.7 Q66.1078 1384.97 62.2884 1384.97 L58.2606 1384.97 L58.2606 1381.12 L62.4735 1381.12 Q65.9226 1381.12 67.7513 1379.76 Q69.58 1378.37 69.58 1375.78 Q69.58 1373.12 67.6819 1371.7 Q65.8069 1370.27 62.2884 1370.27 Q60.3671 1370.27 58.168 1370.69 Q55.969 1371.1 53.3301 1371.98 L53.3301 1367.81 Q55.9921 1367.07 58.3069 1366.7 Q60.6449 1366.33 62.705 1366.33 Q68.0291 1366.33 71.1309 1368.76 Q74.2327 1371.17 74.2327 1375.29 Q74.2327 1378.16 72.5892 1380.15 Q70.9457 1382.12 67.9133 1382.88 Z" fill="#000000" fill-rule="nonzero" fill-opacity="1" /><path clip-path="url(#clip990)" d="M93.9086 1370.04 Q90.2975 1370.04 88.4688 1373.6 Q86.6632 1377.14 86.6632 1384.27 Q86.6632 1391.38 88.4688 1394.94 Q90.2975 1398.49 93.9086 1398.49 Q97.5428 1398.49 99.3483 1394.94 Q101.177 1391.38 101.177 1384.27 Q101.177 1377.14 99.3483 1373.6 Q97.5428 1370.04 93.9086 1370.04 M93.9086 1366.33 Q99.7187 1366.33 102.774 1370.94 Q105.853 1375.52 105.853 1384.27 Q105.853 1393 102.774 1397.61 Q99.7187 1402.19 93.9086 1402.19 Q88.0984 1402.19 85.0197 1397.61 Q81.9642 1393 81.9642 1384.27 Q81.9642 1375.52 85.0197 1370.94 Q88.0984 1366.33 93.9086 1366.33 Z" fill="#000000" fill-rule="nonzero" fill-opacity="1" /><path clip-path="url(#clip990)" d="M124.07 1370.04 Q120.459 1370.04 118.631 1373.6 Q116.825 1377.14 116.825 1384.27 Q116.825 1391.38 118.631 1394.94 Q120.459 1398.49 124.07 1398.49 Q127.705 1398.49 129.51 1394.94 Q131.339 1391.38 131.339 1384.27 Q131.339 1377.14 129.51 1373.6 Q127.705 1370.04 124.07 1370.04 M124.07 1366.33 Q129.881 1366.33 132.936 1370.94 Q136.015 1375.52 136.015 1384.27 Q136.015 1393 132.936 1397.61 Q129.881 1402.19 124.07 1402.19 Q118.26 1402.19 115.182 1397.61 Q112.126 1393 112.126 1384.27 Q112.126 1375.52 115.182 1370.94 Q118.26 1366.33 124.07 1366.33 Z" fill="#000000" fill-rule="nonzero" fill-opacity="1" /><path clip-path="url(#clip990)" d="M67.9133 1058.37 Q71.2698 1059.09 73.1448 1061.36 Q75.0429 1063.63 75.0429 1066.96 Q75.0429 1072.07 71.5244 1074.88 Q68.0059 1077.68 61.5245 1077.68 Q59.3486 1077.68 57.0338 1077.24 Q54.7421 1076.82 52.2884 1075.96 L52.2884 1071.45 Q54.2328 1072.58 56.5477 1073.16 Q58.8625 1073.74 61.3856 1073.74 Q65.7837 1073.74 68.0754 1072.01 Q70.3902 1070.27 70.3902 1066.96 Q70.3902 1063.9 68.2374 1062.19 Q66.1078 1060.45 62.2884 1060.45 L58.2606 1060.45 L58.2606 1056.61 L62.4735 1056.61 Q65.9226 1056.61 67.7513 1055.25 Q69.58 1053.86 69.58 1051.26 Q69.58 1048.6 67.6819 1047.19 Q65.8069 1045.76 62.2884 1045.76 Q60.3671 1045.76 58.168 1046.17 Q55.969 1046.59 53.3301 1047.47 L53.3301 1043.3 Q55.9921 1042.56 58.3069 1042.19 Q60.6449 1041.82 62.705 1041.82 Q68.0291 1041.82 71.1309 1044.25 Q74.2327 1046.66 74.2327 1050.78 Q74.2327 1053.65 72.5892 1055.64 Q70.9457 1057.61 67.9133 1058.37 Z" fill="#000000" fill-rule="nonzero" fill-opacity="1" /><path clip-path="url(#clip990)" d="M83.9549 1042.45 L102.311 1042.45 L102.311 1046.38 L88.2373 1046.38 L88.2373 1054.85 Q89.2558 1054.51 90.2743 1054.34 Q91.2928 1054.16 92.3113 1054.16 Q98.0984 1054.16 101.478 1057.33 Q104.858 1060.5 104.858 1065.92 Q104.858 1071.5 101.385 1074.6 Q97.9132 1077.68 91.5938 1077.68 Q89.4178 1077.68 87.1493 1077.31 Q84.904 1076.94 82.4966 1076.19 L82.4966 1071.5 Q84.5799 1072.63 86.8021 1073.19 Q89.0243 1073.74 91.5012 1073.74 Q95.5058 1073.74 97.8437 1071.63 Q100.182 1069.53 100.182 1065.92 Q100.182 1062.31 97.8437 1060.2 Q95.5058 1058.09 91.5012 1058.09 Q89.6262 1058.09 87.7512 1058.51 Q85.8993 1058.93 83.9549 1059.81 L83.9549 1042.45 Z" fill="#000000" fill-rule="nonzero" fill-opacity="1" /><path clip-path="url(#clip990)" d="M124.07 1045.52 Q120.459 1045.52 118.631 1049.09 Q116.825 1052.63 116.825 1059.76 Q116.825 1066.87 118.631 1070.43 Q120.459 1073.97 124.07 1073.97 Q127.705 1073.97 129.51 1070.43 Q131.339 1066.87 131.339 1059.76 Q131.339 1052.63 129.51 1049.09 Q127.705 1045.52 124.07 1045.52 M124.07 1041.82 Q129.881 1041.82 132.936 1046.43 Q136.015 1051.01 136.015 1059.76 Q136.015 1068.49 132.936 1073.09 Q129.881 1077.68 124.07 1077.68 Q118.26 1077.68 115.182 1073.09 Q112.126 1068.49 112.126 1059.76 Q112.126 1051.01 115.182 1046.43 Q118.26 1041.82 124.07 1041.82 Z" fill="#000000" fill-rule="nonzero" fill-opacity="1" /><path clip-path="url(#clip990)" d="M66.5939 722.006 L54.7884 740.455 L66.5939 740.455 L66.5939 722.006 M65.367 717.932 L71.2466 717.932 L71.2466 740.455 L76.1772 740.455 L76.1772 744.344 L71.2466 744.344 L71.2466 752.492 L66.5939 752.492 L66.5939 744.344 L50.9921 744.344 L50.9921 739.83 L65.367 717.932 Z" fill="#000000" fill-rule="nonzero" fill-opacity="1" /><path clip-path="url(#clip990)" d="M93.9086 721.011 Q90.2975 721.011 88.4688 724.575 Q86.6632 728.117 86.6632 735.247 Q86.6632 742.353 88.4688 745.918 Q90.2975 749.46 93.9086 749.46 Q97.5428 749.46 99.3483 745.918 Q101.177 742.353 101.177 735.247 Q101.177 728.117 99.3483 724.575 Q97.5428 721.011 93.9086 721.011 M93.9086 717.307 Q99.7187 717.307 102.774 721.913 Q105.853 726.497 105.853 735.247 Q105.853 743.973 102.774 748.58 Q99.7187 753.163 93.9086 753.163 Q88.0984 753.163 85.0197 748.58 Q81.9642 743.973 81.9642 735.247 Q81.9642 726.497 85.0197 721.913 Q88.0984 717.307 93.9086 717.307 Z" fill="#000000" fill-rule="nonzero" fill-opacity="1" /><path clip-path="url(#clip990)" d="M124.07 721.011 Q120.459 721.011 118.631 724.575 Q116.825 728.117 116.825 735.247 Q116.825 742.353 118.631 745.918 Q120.459 749.46 124.07 749.46 Q127.705 749.46 129.51 745.918 Q131.339 742.353 131.339 735.247 Q131.339 728.117 129.51 724.575 Q127.705 721.011 124.07 721.011 M124.07 717.307 Q129.881 717.307 132.936 721.913 Q136.015 726.497 136.015 735.247 Q136.015 743.973 132.936 748.58 Q129.881 753.163 124.07 753.163 Q118.26 753.163 115.182 748.58 Q112.126 743.973 112.126 735.247 Q112.126 726.497 115.182 721.913 Q118.26 717.307 124.07 717.307 Z" fill="#000000" fill-rule="nonzero" fill-opacity="1" /><path clip-path="url(#clip990)" d="M66.5939 397.493 L54.7884 415.942 L66.5939 415.942 L66.5939 397.493 M65.367 393.419 L71.2466 393.419 L71.2466 415.942 L76.1772 415.942 L76.1772 419.831 L71.2466 419.831 L71.2466 427.979 L66.5939 427.979 L66.5939 419.831 L50.9921 419.831 L50.9921 415.317 L65.367 393.419 Z" fill="#000000" fill-rule="nonzero" fill-opacity="1" /><path clip-path="url(#clip990)" d="M83.9549 393.419 L102.311 393.419 L102.311 397.354 L88.2373 397.354 L88.2373 405.826 Q89.2558 405.479 90.2743 405.317 Q91.2928 405.132 92.3113 405.132 Q98.0984 405.132 101.478 408.303 Q104.858 411.474 104.858 416.891 Q104.858 422.47 101.385 425.571 Q97.9132 428.65 91.5938 428.65 Q89.4178 428.65 87.1493 428.28 Q84.904 427.909 82.4966 427.169 L82.4966 422.47 Q84.5799 423.604 86.8021 424.159 Q89.0243 424.715 91.5012 424.715 Q95.5058 424.715 97.8437 422.608 Q100.182 420.502 100.182 416.891 Q100.182 413.28 97.8437 411.173 Q95.5058 409.067 91.5012 409.067 Q89.6262 409.067 87.7512 409.484 Q85.8993 409.9 83.9549 410.78 L83.9549 393.419 Z" fill="#000000" fill-rule="nonzero" fill-opacity="1" /><path clip-path="url(#clip990)" d="M124.07 396.498 Q120.459 396.498 118.631 400.062 Q116.825 403.604 116.825 410.734 Q116.825 417.84 118.631 421.405 Q120.459 424.946 124.07 424.946 Q127.705 424.946 129.51 421.405 Q131.339 417.84 131.339 410.734 Q131.339 403.604 129.51 400.062 Q127.705 396.498 124.07 396.498 M124.07 392.794 Q129.881 392.794 132.936 397.4 Q136.015 401.984 136.015 410.734 Q136.015 419.46 132.936 424.067 Q129.881 428.65 124.07 428.65 Q118.26 428.65 115.182 424.067 Q112.126 419.46 112.126 410.734 Q112.126 401.984 115.182 397.4 Q118.26 392.794 124.07 392.794 Z" fill="#000000" fill-rule="nonzero" fill-opacity="1" /><path clip-path="url(#clip990)" d="M53.793 68.9057 L72.1494 68.9057 L72.1494 72.8408 L58.0754 72.8408 L58.0754 81.313 Q59.0939 80.9658 60.1124 80.8038 Q61.131 80.6186 62.1495 80.6186 Q67.9365 80.6186 71.3161 83.7899 Q74.6957 86.9611 74.6957 92.3778 Q74.6957 97.9564 71.2235 101.058 Q67.7513 104.137 61.4319 104.137 Q59.256 104.137 56.9875 103.767 Q54.7421 103.396 52.3347 102.655 L52.3347 97.9564 Q54.418 99.0907 56.6402 99.6462 Q58.8625 100.202 61.3393 100.202 Q65.3439 100.202 67.6819 98.0953 Q70.0198 95.9889 70.0198 92.3778 Q70.0198 88.7667 67.6819 86.6602 Q65.3439 84.5537 61.3393 84.5537 Q59.4643 84.5537 57.5893 84.9704 Q55.7375 85.3871 53.793 86.2667 L53.793 68.9057 Z" fill="#000000" fill-rule="nonzero" fill-opacity="1" /><path clip-path="url(#clip990)" d="M93.9086 71.9844 Q90.2975 71.9844 88.4688 75.5492 Q86.6632 79.0908 86.6632 86.2204 Q86.6632 93.3268 88.4688 96.8916 Q90.2975 100.433 93.9086 100.433 Q97.5428 100.433 99.3483 96.8916 Q101.177 93.3268 101.177 86.2204 Q101.177 79.0908 99.3483 75.5492 Q97.5428 71.9844 93.9086 71.9844 M93.9086 68.2807 Q99.7187 68.2807 102.774 72.8871 Q105.853 77.4704 105.853 86.2204 Q105.853 94.9472 102.774 99.5537 Q99.7187 104.137 93.9086 104.137 Q88.0984 104.137 85.0197 99.5537 Q81.9642 94.9472 81.9642 86.2204 Q81.9642 77.4704 85.0197 72.8871 Q88.0984 68.2807 93.9086 68.2807 Z" fill="#000000" fill-rule="nonzero" fill-opacity="1" /><path clip-path="url(#clip990)" d="M124.07 71.9844 Q120.459 71.9844 118.631 75.5492 Q116.825 79.0908 116.825 86.2204 Q116.825 93.3268 118.631 96.8916 Q120.459 100.433 124.07 100.433 Q127.705 100.433 129.51 96.8916 Q131.339 93.3268 131.339 86.2204 Q131.339 79.0908 129.51 75.5492 Q127.705 71.9844 124.07 71.9844 M124.07 68.2807 Q129.881 68.2807 132.936 72.8871 Q136.015 77.4704 136.015 86.2204 Q136.015 94.9472 132.936 99.5537 Q129.881 104.137 124.07 104.137 Q118.26 104.137 115.182 99.5537 Q112.126 94.9472 112.126 86.2204 Q112.126 77.4704 115.182 72.8871 Q118.26 68.2807 124.07 68.2807 Z" fill="#000000" fill-rule="nonzero" fill-opacity="1" /><polyline clip-path="url(#clip992)" style="stroke:#009af9; stroke-linecap:round; stroke-linejoin:round; stroke-width:4; stroke-opacity:1; fill:none" points="233.734,1384.24 235.791,1382.94 237.849,1381.64 239.906,1380.34 241.963,1379.05 244.02,1377.75 246.078,1376.45 248.135,1375.15 250.192,1373.85 252.25,1372.56 254.307,1371.26 256.364,1369.96 258.422,1368.66 260.479,1367.36 262.536,1366.07 264.593,1364.77 266.651,1363.47 268.708,1362.17 270.765,1360.87 272.823,1359.58 274.88,1358.28 276.937,1356.98 278.995,1355.68 281.052,1354.38 283.109,1353.09 285.166,1351.79 287.224,1350.49 289.281,1349.19 291.338,1347.89 293.396,1346.59 295.453,1345.3 297.51,1344 299.568,1342.7 301.625,1341.4 303.682,1340.1 305.74,1338.81 307.797,1337.51 309.854,1336.21 311.911,1334.91 313.969,1333.61 316.026,1332.32 318.083,1331.02 320.141,1329.72 322.198,1328.42 324.255,1327.12 326.313,1325.83 328.37,1324.53 330.427,1323.23 332.484,1321.93 334.542,1320.63 336.599,1319.34 338.656,1318.04 340.714,1316.74 342.771,1315.44 344.828,1314.14 346.886,1312.85 348.943,1311.55 351,1310.25 353.057,1308.95 355.115,1307.65 357.172,1306.36 359.229,1305.06 361.287,1303.76 363.344,1302.46 365.401,1301.16 367.459,1299.86 369.516,1298.57 371.573,1297.27 373.631,1295.97 375.688,1294.67 377.745,1293.37 379.802,1292.08 381.86,1290.78 383.917,1289.48 385.974,1288.18 388.032,1286.88 390.089,1285.59 392.146,1284.29 394.204,1282.99 396.261,1281.69 398.318,1280.39 400.375,1279.1 402.433,1277.8 404.49,1276.5 406.547,1275.2 408.605,1273.9 410.662,1272.61 412.719,1271.31 414.777,1270.01 416.834,1268.71 418.891,1267.41 420.948,1266.12 423.006,1264.82 425.063,1263.52 427.12,1262.22 429.178,1260.92 431.235,1259.63 433.292,1258.33 435.35,1257.03 437.407,1255.73 439.464,1254.43 441.522,1253.13 443.579,1251.84 445.636,1250.54 447.693,1249.24 449.751,1247.94 451.808,1246.64 453.865,1245.35 455.923,1244.05 457.98,1242.75 460.037,1241.45 462.095,1240.15 464.152,1238.86 466.209,1237.56 468.266,1236.26 470.324,1234.96 472.381,1233.66 474.438,1232.37 476.496,1231.07 478.553,1229.77 480.61,1228.47 482.668,1227.17 484.725,1225.88 486.782,1224.58 488.839,1223.28 490.897,1221.98 492.954,1220.68 495.011,1219.39 497.069,1218.09 499.126,1216.79 501.183,1215.49 503.241,1214.19 505.298,1212.9 507.355,1211.6 509.412,1210.3 511.47,1209 513.527,1207.7 515.584,1206.41 517.642,1205.11 519.699,1203.81 521.756,1202.51 523.814,1201.21 525.871,1199.91 527.928,1198.62 529.986,1197.32 532.043,1196.02 534.1,1194.72 536.157,1193.42 538.215,1192.13 540.272,1190.83 542.329,1189.53 544.387,1188.23 546.444,1186.93 548.501,1185.64 550.559,1184.34 552.616,1183.04 554.673,1181.74 556.73,1180.44 558.788,1179.15 560.845,1177.85 562.902,1176.55 564.96,1175.25 567.017,1173.95 569.074,1172.66 571.132,1171.36 573.189,1170.06 575.246,1168.76 577.303,1167.46 579.361,1166.17 581.418,1164.87 583.475,1163.57 585.533,1162.27 587.59,1160.97 589.647,1159.68 591.705,1158.38 593.762,1157.08 595.819,1155.78 597.877,1154.48 599.934,1153.18 601.991,1151.89 604.048,1150.59 606.106,1149.29 608.163,1147.99 610.22,1146.69 612.278,1145.4 614.335,1144.1 616.392,1142.8 618.45,1141.5 620.507,1140.2 622.564,1138.91 624.621,1137.61 626.679,1136.31 628.736,1135.01 630.793,1133.71 632.851,1132.42 634.908,1131.12 636.965,1129.82 639.023,1128.52 641.08,1127.22 643.137,1125.93 645.194,1124.63 647.252,1123.33 649.309,1122.03 651.366,1120.73 653.424,1119.44 655.481,1118.14 657.538,1116.84 659.596,1115.54 661.653,1114.24 663.71,1112.95 665.768,1111.65 667.825,1110.35 669.882,1109.05 671.939,1107.75 673.997,1106.46 676.054,1105.16 678.111,1103.86 680.169,1102.56 682.226,1101.26 684.283,1099.96 686.341,1098.67 688.398,1097.37 690.455,1096.07 692.512,1094.77 694.57,1093.47 696.627,1092.18 698.684,1090.88 700.742,1089.58 702.799,1088.28 704.856,1086.98 706.914,1085.69 708.971,1084.39 711.028,1083.09 713.085,1081.79 715.143,1080.49 717.2,1079.2 719.257,1077.9 721.315,1076.6 723.372,1075.3 725.429,1074 727.487,1072.71 729.544,1071.41 731.601,1070.11 733.659,1068.81 735.716,1067.51 737.773,1066.22 739.83,1064.92 741.888,1063.62 743.945,1062.32 746.002,1061.02 748.06,1059.73 750.117,1058.43 752.174,1057.13 754.232,1055.83 756.289,1054.53 758.346,1053.23 760.403,1051.94 762.461,1050.64 764.518,1049.34 766.575,1048.04 768.633,1046.74 770.69,1045.45 772.747,1044.15 774.805,1042.85 776.862,1041.55 778.919,1040.25 780.976,1038.96 783.034,1037.66 785.091,1036.36 787.148,1035.06 789.206,1033.76 791.263,1032.47 793.32,1031.17 795.378,1029.87 797.435,1028.57 799.492,1027.27 801.55,1025.98 803.607,1024.68 805.664,1023.38 807.721,1022.08 809.779,1020.78 811.836,1019.49 813.893,1018.19 815.951,1016.89 818.008,1015.59 820.065,1014.29 822.123,1013 824.18,1011.7 826.237,1010.4 828.294,1009.1 830.352,1007.8 832.409,1006.5 834.466,1005.21 836.524,1003.91 838.581,1002.61 840.638,1001.31 842.696,1000.01 844.753,998.717 846.81,997.419 848.867,996.121 850.925,994.822 852.982,993.524 855.039,992.226 857.097,990.928 859.154,989.63 861.211,988.332 863.269,987.034 865.326,985.736 867.383,984.438 869.441,983.14 871.498,981.842 873.555,980.544 875.612,979.246 877.67,977.948 879.727,976.65 881.784,975.352 883.842,974.054 885.899,972.756 887.956,971.458 890.014,970.159 892.071,968.861 894.128,967.563 896.185,966.265 898.243,964.967 900.3,963.669 902.357,962.371 904.415,961.073 906.472,959.775 908.529,958.477 910.587,957.179 912.644,955.881 914.701,954.583 916.758,953.285 918.816,951.987 920.873,950.689 922.93,949.391 924.988,948.093 927.045,946.795 929.102,945.496 931.16,944.198 933.217,942.9 935.274,941.602 937.332,940.304 939.389,939.006 941.446,937.708 943.503,936.41 945.561,935.112 947.618,933.814 949.675,932.516 951.733,931.218 953.79,929.92 955.847,928.622 957.905,927.324 959.962,926.026 962.019,924.728 964.076,923.43 966.134,922.132 968.191,920.833 970.248,919.535 972.306,918.237 974.363,916.939 976.42,915.641 978.478,914.343 980.535,913.045 982.592,911.747 984.649,910.449 986.707,909.151 988.764,907.853 990.821,906.555 992.879,905.257 994.936,903.959 996.993,902.661 999.051,901.363 1001.11,900.065 1003.17,898.767 1005.22,897.469 1007.28,896.17 1009.34,894.872 1011.39,893.574 1013.45,892.276 1015.51,890.978 1017.57,889.68 1019.62,888.382 1021.68,887.084 1023.74,885.786 1025.8,884.488 1027.85,883.19 1029.91,881.892 1031.97,880.594 1034.02,879.296 1036.08,877.998 1038.14,876.7 1040.2,875.402 1042.25,874.104 1044.31,872.806 1046.37,871.507 1048.43,870.209 1050.48,868.911 1052.54,867.613 1054.6,866.315 1056.66,865.017 1058.71,863.719 1060.77,862.421 1062.83,861.123 1064.88,859.825 1066.94,858.527 1069,857.229 1071.06,855.931 1073.11,854.633 1075.17,853.335 1077.23,852.037 1079.29,850.739 1081.34,849.441 1083.4,848.143 1085.46,846.844 1087.51,845.546 1089.57,844.248 1091.63,842.95 1093.69,841.652 1095.74,840.354 1097.8,839.056 1099.86,837.758 1101.92,836.46 1103.97,835.162 1106.03,833.864 1108.09,832.566 1110.14,831.268 1112.2,829.97 1114.26,828.672 1116.32,827.374 1118.37,826.076 1120.43,824.778 1122.49,823.48 1124.55,822.181 1126.6,820.883 1128.66,819.585 1130.72,818.287 1132.78,816.989 1134.83,815.691 1136.89,814.393 1138.95,813.095 1141,811.797 1143.06,810.499 1145.12,809.201 1147.18,807.903 1149.23,806.605 1151.29,805.307 1153.35,804.009 1155.41,802.711 1157.46,801.413 1159.52,800.115 1161.58,798.817 1163.63,797.518 1165.69,796.22 1167.75,794.922 1169.81,793.624 1171.86,792.326 1173.92,791.028 1175.98,789.73 1178.04,788.432 1180.09,787.134 1182.15,785.836 1184.21,784.538 1186.27,783.24 1188.32,781.942 1190.38,780.644 1192.44,779.346 1194.49,778.048 1196.55,776.75 1198.61,775.452 1200.67,774.154 1202.72,772.855 1204.78,771.557 1206.84,770.259 1208.9,768.961 1210.95,767.663 1213.01,766.365 1215.07,765.067 1217.12,763.769 1219.18,762.471 1221.24,761.173 1223.3,759.875 1225.35,758.577 1227.41,757.279 1229.47,755.981 1231.53,754.683 1233.58,753.385 1235.64,752.087 1237.7,750.789 1239.76,749.491 1241.81,748.192 1243.87,746.894 1245.93,745.596 1247.98,744.298 1250.04,743 1252.1,741.702 1254.16,740.404 1256.21,739.106 1258.27,737.808 1260.33,736.51 1262.39,735.212 1264.44,733.914 1266.5,732.616 1268.56,731.318 1270.61,730.02 1272.67,728.722 1274.73,727.424 1276.79,726.126 1278.84,724.828 1280.9,723.529 1282.96,722.231 1285.02,720.933 1287.07,719.635 1289.13,718.337 1291.19,717.039 1293.24,715.741 1295.3,714.443 1297.36,713.145 1299.42,711.847 1301.47,710.549 1303.53,709.251 1305.59,707.953 1307.65,706.655 1309.7,705.357 1311.76,704.059 1313.82,702.761 1315.88,701.463 1317.93,700.165 1319.99,698.866 1322.05,697.568 1324.1,696.27 1326.16,694.972 1328.22,693.674 1330.28,692.376 1332.33,691.078 1334.39,689.78 1336.45,688.482 1338.51,687.184 1340.56,685.886 1342.62,684.588 1344.68,683.29 1346.73,681.992 1348.79,680.694 1350.85,679.396 1352.91,678.098 1354.96,676.8 1357.02,675.502 1359.08,674.203 1361.14,672.905 1363.19,671.607 1365.25,670.309 1367.31,669.011 1369.37,667.713 1371.42,666.415 1373.48,665.117 1375.54,663.819 1377.59,662.521 1379.65,661.223 1381.71,659.925 1383.77,658.627 1385.82,657.329 1387.88,656.031 1389.94,654.733 1392,653.435 1394.05,652.137 1396.11,650.839 1398.17,649.54 1400.22,648.242 1402.28,646.944 1404.34,645.646 1406.4,644.348 1408.45,643.05 1410.51,641.752 1412.57,640.454 1414.63,639.156 1416.68,637.858 1418.74,636.56 1420.8,635.262 1422.85,633.964 1424.91,632.666 1426.97,631.368 1429.03,630.07 1431.08,628.772 1433.14,627.474 1435.2,626.176 1437.26,624.877 1439.31,623.579 1441.37,622.281 1443.43,620.983 1445.49,619.685 1447.54,618.387 1449.6,617.089 1451.66,615.791 1453.71,614.493 1455.77,613.195 1457.83,611.897 1459.89,610.599 1461.94,609.301 1464,608.003 1466.06,606.705 1468.12,605.407 1470.17,604.109 1472.23,602.811 1474.29,601.513 1476.34,600.214 1478.4,598.916 1480.46,597.618 1482.52,596.32 1484.57,595.022 1486.63,593.724 1488.69,592.426 1490.75,591.128 1492.8,589.83 1494.86,588.532 1496.92,587.234 1498.98,585.936 1501.03,584.638 1503.09,583.34 1505.15,582.042 1507.2,580.744 1509.26,579.446 1511.32,578.148 1513.38,576.85 1515.43,575.551 1517.49,574.253 1519.55,572.955 1521.61,571.657 1523.66,570.359 1525.72,569.061 1527.78,567.763 1529.83,566.465 1531.89,565.167 1533.95,563.869 1536.01,562.571 1538.06,561.273 1540.12,559.975 1542.18,558.677 1544.24,557.379 1546.29,556.081 1548.35,554.783 1550.41,553.485 1552.47,552.187 1554.52,550.889 1556.58,549.59 1558.64,548.292 1560.69,546.994 1562.75,545.696 1564.81,544.398 1566.87,543.1 1568.92,541.802 1570.98,540.504 1573.04,539.206 1575.1,537.908 1577.15,536.61 1579.21,535.312 1581.27,534.014 1583.32,532.716 1585.38,531.418 1587.44,530.12 1589.5,528.822 1591.55,527.524 1593.61,526.226 1595.67,524.927 1597.73,523.629 1599.78,522.331 1601.84,521.033 1603.9,519.735 1605.95,518.437 1608.01,517.139 1610.07,515.841 1612.13,514.543 1614.18,513.245 1616.24,511.947 1618.3,510.649 1620.36,509.351 1622.41,508.053 1624.47,506.755 1626.53,505.457 1628.59,504.159 1630.64,502.861 1632.7,501.563 1634.76,500.264 1636.81,498.966 1638.87,497.668 1640.93,496.37 1642.99,495.072 1645.04,493.774 1647.1,492.476 1649.16,491.178 1651.22,489.88 1653.27,488.582 1655.33,487.284 1657.39,485.986 1659.44,484.688 1661.5,483.39 1663.56,482.092 1665.62,480.794 1667.67,479.496 1669.73,478.198 1671.79,476.9 1673.85,475.601 1675.9,474.303 1677.96,473.005 1680.02,471.707 1682.08,470.409 1684.13,469.111 1686.19,467.813 1688.25,466.515 1690.3,465.217 1692.36,463.919 1694.42,462.621 1696.48,461.323 1698.53,460.025 1700.59,458.727 1702.65,457.429 1704.71,456.131 1706.76,454.833 1708.82,453.535 1710.88,452.237 1712.93,450.938 1714.99,449.64 1717.05,448.342 1719.11,447.044 1721.16,445.746 1723.22,444.448 1725.28,443.15 1727.34,441.852 1729.39,440.554 1731.45,439.256 1733.51,437.958 1735.57,436.66 1737.62,435.362 1739.68,434.064 1741.74,432.766 1743.79,431.468 1745.85,430.17 1747.91,428.872 1749.97,427.574 1752.02,426.275 1754.08,424.977 1756.14,423.679 1758.2,422.381 1760.25,421.083 1762.31,419.785 1764.37,418.487 1766.42,417.189 1768.48,415.891 1770.54,414.593 1772.6,413.295 1774.65,411.997 1776.71,410.699 1778.77,409.401 1780.83,408.103 1782.88,406.805 1784.94,405.507 1787,404.209 1789.05,402.911 1791.11,401.612 1793.17,400.314 1795.23,399.016 1797.28,397.718 1799.34,396.42 1801.4,395.122 1803.46,393.824 1805.51,392.526 1807.57,391.228 1809.63,389.93 1811.69,388.632 1813.74,387.334 1815.8,386.036 1817.86,384.738 1819.91,383.44 1821.97,382.142 1824.03,380.844 1826.09,379.546 1828.14,378.248 1830.2,376.949 1832.26,375.651 1834.32,374.353 1836.37,373.055 1838.43,371.757 1840.49,370.459 1842.54,369.161 1844.6,367.863 1846.66,366.565 1848.72,365.267 1850.77,363.969 1852.83,362.671 1854.89,361.373 1856.95,360.075 1859,358.777 1861.06,357.479 1863.12,356.181 1865.18,354.883 1867.23,353.585 1869.29,352.286 1871.35,350.988 1873.4,349.69 1875.46,348.392 1877.52,347.094 1879.58,345.796 1881.63,344.498 1883.69,343.2 1885.75,341.902 1887.81,340.604 1889.86,339.306 1891.92,338.008 1893.98,336.71 1896.03,335.412 1898.09,334.114 1900.15,332.816 1902.21,331.518 1904.26,330.22 1906.32,328.922 1908.38,327.623 1910.44,326.325 1912.49,325.027 1914.55,323.729 1916.61,322.431 1918.66,321.133 1920.72,319.835 1922.78,318.537 1924.84,317.239 1926.89,315.941 1928.95,314.643 1931.01,313.345 1933.07,312.047 1935.12,310.749 1937.18,309.451 1939.24,308.153 1941.3,306.855 1943.35,305.557 1945.41,304.259 1947.47,302.96 1949.52,301.662 1951.58,300.364 1953.64,299.066 1955.7,297.768 1957.75,296.47 1959.81,295.172 1961.87,293.874 1963.93,292.576 1965.98,291.278 1968.04,289.98 1970.1,288.682 1972.15,287.384 1974.21,286.086 1976.27,284.788 1978.33,283.49 1980.38,282.192 1982.44,280.894 1984.5,279.596 1986.56,278.297 1988.61,276.999 1990.67,275.701 1992.73,274.403 1994.79,273.105 1996.84,271.807 1998.9,270.509 2000.96,269.211 2003.01,267.913 2005.07,266.615 2007.13,265.317 2009.19,264.019 2011.24,262.721 2013.3,261.423 2015.36,260.125 2017.42,258.827 2019.47,257.529 2021.53,256.231 2023.59,254.933 2025.64,253.634 2027.7,252.336 2029.76,251.038 2031.82,249.74 2033.87,248.442 2035.93,247.144 2037.99,245.846 2040.05,244.548 2042.1,243.25 2044.16,241.952 2046.22,240.654 2048.28,239.356 2050.33,238.058 2052.39,236.76 2054.45,235.462 2056.5,234.164 2058.56,232.866 2060.62,231.568 2062.68,230.27 2064.73,228.971 2066.79,227.673 2068.85,226.375 2070.91,225.077 2072.96,223.779 2075.02,222.481 2077.08,221.183 2079.13,219.885 2081.19,218.587 2083.25,217.289 2085.31,215.991 2087.36,214.693 2089.42,213.395 2091.48,212.097 2093.54,210.799 2095.59,209.501 2097.65,208.203 2099.71,206.905 2101.76,205.607 2103.82,204.308 2105.88,203.01 2107.94,201.712 2109.99,200.414 2112.05,199.116 2114.11,197.818 2116.17,196.52 2118.22,195.222 2120.28,193.924 2122.34,192.626 2124.4,191.328 2126.45,190.03 2128.51,188.732 2130.57,187.434 2132.62,186.136 2134.68,184.838 2136.74,183.54 2138.8,182.242 2140.85,180.944 2142.91,179.645 2144.97,178.347 2147.03,177.049 2149.08,175.751 2151.14,174.453 2153.2,173.155 2155.25,171.857 2157.31,170.559 2159.37,169.261 2161.43,167.963 2163.48,166.665 2165.54,165.367 2167.6,164.069 2169.66,162.771 2171.71,161.473 2173.77,160.175 2175.83,158.877 2177.89,157.579 2179.94,156.281 2182,154.982 2184.06,153.684 2186.11,152.386 2188.17,151.088 2190.23,149.79 2192.29,148.492 2194.34,147.194 2196.4,145.896 2198.46,144.598 2200.52,143.3 2202.57,142.002 2204.63,140.704 2206.69,139.406 2208.74,138.108 2210.8,136.81 2212.86,135.512 2214.92,134.214 2216.97,132.916 2219.03,131.618 2221.09,130.319 2223.15,129.021 2225.2,127.723 2227.26,126.425 2229.32,125.127 2231.38,123.829 2233.43,122.531 2235.49,121.233 2237.55,119.935 2239.6,118.637 2241.66,117.339 2243.72,116.041 2245.78,114.743 2247.83,113.445 2249.89,112.147 2251.95,110.849 2254.01,109.551 2256.06,108.253 2258.12,106.955 2260.18,105.656 2262.23,104.358 2264.29,103.06 2266.35,101.762 2268.41,100.464 2270.46,99.1662 2272.52,97.8681 2274.58,96.5701 2276.64,95.272 2278.69,93.974 2280.75,92.6759 2282.81,91.3779 2284.86,90.0798 2286.92,88.7818 2288.98,87.4837 2291.04,86.1857 "/>
<path clip-path="url(#clip990)" d="M244.706 196.789 L492.016 196.789 L492.016 93.1086 L244.706 93.1086  Z" fill="#ffffff" fill-rule="evenodd" fill-opacity="1"/>
<polyline clip-path="url(#clip990)" style="stroke:#000000; stroke-linecap:round; stroke-linejoin:round; stroke-width:4; stroke-opacity:1; fill:none" points="244.706,196.789 492.016,196.789 492.016,93.1086 244.706,93.1086 244.706,196.789 "/>
<polyline clip-path="url(#clip990)" style="stroke:#009af9; stroke-linecap:round; stroke-linejoin:round; stroke-width:4; stroke-opacity:1; fill:none" points="268.937,144.949 414.319,144.949 "/>
<path clip-path="url(#clip990)" d="M438.55 127.669 L467.786 127.669 L467.786 131.604 L455.517 131.604 L455.517 162.229 L450.818 162.229 L450.818 131.604 L438.55 131.604 L438.55 127.669 Z" fill="#000000" fill-rule="nonzero" fill-opacity="1" /></svg>
