<?xml version="1.0" encoding="UTF-8"?>
<svg id="Layer_1" data-name="Layer 1" xmlns="http://www.w3.org/2000/svg" viewBox="0 0 310.84 205.57">
  <defs>
    <style>
      .cls-1, .cls-2, .cls-3, .cls-4, .cls-5, .cls-6 {
        font-size: 8px;
      }

      .cls-1, .cls-2, .cls-3, .cls-4, .cls-5, .cls-6, .cls-7, .cls-8, .cls-9, .cls-10 {
        font-family: LibertinusSerif-Regular, 'Libertinus Serif';
      }

      .cls-1, .cls-11, .cls-12 {
        fill: #d39129;
      }

      .cls-2, .cls-13, .cls-14 {
        fill: #c278b2;
      }

      .cls-3, .cls-15, .cls-16 {
        fill: #9dba3b;
      }

      .cls-17 {
        stroke: #9dba3b;
      }

      .cls-17, .cls-18, .cls-19, .cls-20, .cls-21, .cls-22, .cls-23, .cls-13, .cls-24, .cls-25, .cls-11, .cls-16 {
        stroke-miterlimit: 10;
      }

      .cls-17, .cls-18, .cls-20, .cls-22, .cls-25 {
        fill: none;
      }

      .cls-18 {
        stroke: #379e72;
      }

      .cls-26, .cls-7 {
        fill: #231f20;
      }

      .cls-27 {
        letter-spacing: -.06em;
      }

      .cls-19, .cls-21, .cls-23, .cls-13, .cls-24, .cls-11, .cls-16 {
        stroke: #231f20;
      }

      .cls-19, .cls-28, .cls-5 {
        fill: #379e72;
      }

      .cls-29 {
        letter-spacing: -.06em;
      }

      .cls-20 {
        stroke: #c96128;
      }

      .cls-30 {
        fill: #26588b;
      }

      .cls-31 {
        letter-spacing: 0em;
      }

      .cls-21, .cls-32 {
        fill: #3373b3;
      }

      .cls-22 {
        stroke: #d39129;
      }

      .cls-33 {
        letter-spacing: .02em;
      }

      .cls-4, .cls-24, .cls-34 {
        fill: #c96128;
      }

      .cls-23 {
        fill: #d1d3d4;
      }

      .cls-6, .cls-10 {
        fill: #808285;
      }

      .cls-35 {
        letter-spacing: 0em;
      }

      .cls-7, .cls-8, .cls-9, .cls-10 {
        font-size: 10px;
      }

      .cls-25 {
        stroke: #c278b2;
      }

      .cls-36 {
        letter-spacing: 0em;
      }

      .cls-8 {
        letter-spacing: 0em;
      }

      .cls-8, .cls-9 {
        fill: #fff;
      }

      .cls-37 {
        letter-spacing: 0em;
      }

      .cls-38 {
        letter-spacing: 0em;
      }

      .cls-39 {
        letter-spacing: 0em;
      }

      .cls-40 {
        letter-spacing: -.06em;
      }
    </style>
  </defs>
  <g>
    <g>
      <path class="cls-32" d="M124.58,129.74c-8.51,0-17.55-1.93-17.55-5.49s9.04-5.49,17.55-5.49,17.55,1.93,17.55,5.49-9.04,5.49-17.55,5.49Z"/>
      <path class="cls-26" d="M124.58,119.25c9.42,0,17.05,2.24,17.05,4.99s-7.63,4.99-17.05,4.99-17.05-2.24-17.05-4.99,7.63-4.99,17.05-4.99M124.58,118.25c-8.97,0-18.05,2.06-18.05,5.99s9.08,5.99,18.05,5.99,18.05-2.06,18.05-5.99-9.08-5.99-18.05-5.99h0Z"/>
    </g>
    <rect class="cls-32" x="107.53" y="115.34" width="34.1" height="8.83"/>
    <g>
      <path class="cls-30" d="M124.58,120.83c-8.51,0-17.55-1.93-17.55-5.49s9.04-5.49,17.55-5.49,17.55,1.93,17.55,5.49-9.04,5.49-17.55,5.49Z"/>
      <path class="cls-26" d="M124.58,110.34c9.42,0,17.05,2.24,17.05,4.99s-7.63,4.99-17.05,4.99-17.05-2.24-17.05-4.99,7.63-4.99,17.05-4.99M124.58,109.34c-8.97,0-18.05,2.06-18.05,5.99s9.08,5.99,18.05,5.99,18.05-2.06,18.05-5.99-9.08-5.99-18.05-5.99h0Z"/>
    </g>
    <g>
      <path class="cls-32" d="M124.58,117.61c-8.51,0-17.55-1.93-17.55-5.49s9.04-5.49,17.55-5.49,17.55,1.93,17.55,5.49-9.04,5.49-17.55,5.49Z"/>
      <path class="cls-26" d="M124.58,107.12c9.42,0,17.05,2.24,17.05,4.99s-7.63,4.99-17.05,4.99-17.05-2.24-17.05-4.99,7.63-4.99,17.05-4.99M124.58,106.12c-8.97,0-18.05,2.06-18.05,5.99s9.08,5.99,18.05,5.99,18.05-2.06,18.05-5.99-9.08-5.99-18.05-5.99h0Z"/>
    </g>
    <rect class="cls-32" x="107.53" y="103.29" width="34.1" height="8.83"/>
    <g>
      <path class="cls-30" d="M124.58,110.84c-8.51,0-17.55-1.93-17.55-5.49s9.04-5.49,17.55-5.49,17.55,1.93,17.55,5.49-9.04,5.49-17.55,5.49Z"/>
      <path class="cls-26" d="M124.58,100.36c9.42,0,17.05,2.24,17.05,4.99s-7.63,4.99-17.05,4.99-17.05-2.24-17.05-4.99,7.63-4.99,17.05-4.99M124.58,99.36c-8.97,0-18.05,2.06-18.05,5.99s9.08,5.99,18.05,5.99,18.05-2.06,18.05-5.99-9.08-5.99-18.05-5.99h0Z"/>
    </g>
    <g>
      <path class="cls-32" d="M124.58,107.62c-8.51,0-17.55-1.93-17.55-5.49s9.04-5.49,17.55-5.49,17.55,1.93,17.55,5.49-9.04,5.49-17.55,5.49Z"/>
      <path class="cls-26" d="M124.58,97.13c9.42,0,17.05,2.24,17.05,4.99s-7.63,4.99-17.05,4.99-17.05-2.24-17.05-4.99,7.63-4.99,17.05-4.99M124.58,96.13c-8.97,0-18.05,2.06-18.05,5.99s9.08,5.99,18.05,5.99,18.05-2.06,18.05-5.99-9.08-5.99-18.05-5.99h0Z"/>
    </g>
    <rect class="cls-32" x="107.53" y="93.3" width="34.1" height="8.83"/>
    <g>
      <path class="cls-32" d="M124.58,98.8c-8.51,0-17.55-1.93-17.55-5.49s9.04-5.49,17.55-5.49,17.55,1.93,17.55,5.49-9.04,5.49-17.55,5.49Z"/>
      <path class="cls-26" d="M124.58,88.31c9.42,0,17.05,2.24,17.05,4.99s-7.63,4.99-17.05,4.99-17.05-2.24-17.05-4.99,7.63-4.99,17.05-4.99M124.58,87.31c-8.97,0-18.05,2.06-18.05,5.99s9.08,5.99,18.05,5.99,18.05-2.06,18.05-5.99-9.08-5.99-18.05-5.99h0Z"/>
    </g>
  </g>
  <rect class="cls-23" x="2.65" y="2.8" width="117.93" height="39.6" rx="9.43" ry="9.43"/>
  <text class="cls-10" transform="translate(109.58 139.14)"><tspan x="0" y="0">S</tspan><tspan class="cls-36" x="4.85" y="0">pe</tspan><tspan x="14.65" y="0">cies</tspan><tspan x="2.43" y="12">Cache</tspan></text>
  <g>
    <g>
      <path class="cls-32" d="M189.35,130.85c-8.51,0-17.55-1.93-17.55-5.49s9.04-5.49,17.55-5.49,17.55,1.93,17.55,5.49-9.04,5.49-17.55,5.49Z"/>
      <path class="cls-26" d="M189.35,120.36c9.42,0,17.05,2.24,17.05,4.99s-7.63,4.99-17.05,4.99-17.05-2.24-17.05-4.99,7.63-4.99,17.05-4.99M189.35,119.36c-8.97,0-18.05,2.06-18.05,5.99s9.08,5.99,18.05,5.99,18.05-2.06,18.05-5.99-9.08-5.99-18.05-5.99h0Z"/>
    </g>
    <rect class="cls-32" x="172.3" y="116.45" width="34.1" height="8.83"/>
    <g>
      <path class="cls-30" d="M189.35,121.94c-8.51,0-17.55-1.93-17.55-5.49s9.04-5.49,17.55-5.49,17.55,1.93,17.55,5.49-9.04,5.49-17.55,5.49Z"/>
      <path class="cls-26" d="M189.35,111.45c9.42,0,17.05,2.24,17.05,4.99s-7.63,4.99-17.05,4.99-17.05-2.24-17.05-4.99,7.63-4.99,17.05-4.99M189.35,110.45c-8.97,0-18.05,2.06-18.05,5.99s9.08,5.99,18.05,5.99,18.05-2.06,18.05-5.99-9.08-5.99-18.05-5.99h0Z"/>
    </g>
    <g>
      <path class="cls-32" d="M189.35,118.72c-8.51,0-17.55-1.93-17.55-5.49s9.04-5.49,17.55-5.49,17.55,1.93,17.55,5.49-9.04,5.49-17.55,5.49Z"/>
      <path class="cls-26" d="M189.35,108.23c9.42,0,17.05,2.24,17.05,4.99s-7.63,4.99-17.05,4.99-17.05-2.24-17.05-4.99,7.63-4.99,17.05-4.99M189.35,107.23c-8.97,0-18.05,2.06-18.05,5.99s9.08,5.99,18.05,5.99,18.05-2.06,18.05-5.99-9.08-5.99-18.05-5.99h0Z"/>
    </g>
    <rect class="cls-32" x="172.3" y="104.4" width="34.1" height="8.83"/>
    <g>
      <path class="cls-30" d="M189.35,111.95c-8.51,0-17.55-1.93-17.55-5.49s9.04-5.49,17.55-5.49,17.55,1.93,17.55,5.49-9.04,5.49-17.55,5.49Z"/>
      <path class="cls-26" d="M189.35,101.46c9.42,0,17.05,2.24,17.05,4.99s-7.63,4.99-17.05,4.99-17.05-2.24-17.05-4.99,7.63-4.99,17.05-4.99M189.35,100.46c-8.97,0-18.05,2.06-18.05,5.99s9.08,5.99,18.05,5.99,18.05-2.06,18.05-5.99-9.08-5.99-18.05-5.99h0Z"/>
    </g>
    <g>
      <path class="cls-32" d="M189.35,108.73c-8.51,0-17.55-1.93-17.55-5.49s9.04-5.49,17.55-5.49,17.55,1.93,17.55,5.49-9.04,5.49-17.55,5.49Z"/>
      <path class="cls-26" d="M189.35,98.24c9.42,0,17.05,2.24,17.05,4.99s-7.63,4.99-17.05,4.99-17.05-2.24-17.05-4.99,7.63-4.99,17.05-4.99M189.35,97.24c-8.97,0-18.05,2.06-18.05,5.99s9.08,5.99,18.05,5.99,18.05-2.06,18.05-5.99-9.08-5.99-18.05-5.99h0Z"/>
    </g>
    <rect class="cls-32" x="172.3" y="94.41" width="34.1" height="8.83"/>
    <g>
      <path class="cls-32" d="M189.35,99.9c-8.51,0-17.55-1.93-17.55-5.49s9.04-5.49,17.55-5.49,17.55,1.93,17.55,5.49-9.04,5.49-17.55,5.49Z"/>
      <path class="cls-26" d="M189.35,89.42c9.42,0,17.05,2.24,17.05,4.99s-7.63,4.99-17.05,4.99-17.05-2.24-17.05-4.99,7.63-4.99,17.05-4.99M189.35,88.42c-8.97,0-18.05,2.06-18.05,5.99s9.08,5.99,18.05,5.99,18.05-2.06,18.05-5.99-9.08-5.99-18.05-5.99h0Z"/>
    </g>
  </g>
  <text class="cls-10" transform="translate(183.94 141.26)"><tspan x="0" y="0">TS</tspan><tspan x="-7.17" y="12">Cache</tspan></text>
  <path class="cls-21" d="M49.07,35.45H14.4c-3.32,0-5.55-3.67-4.21-6.94l1.75-4.27c.74-1.79,2.39-2.95,4.21-2.95h34.67c3.32,0,5.55,3.67,4.21,6.94l-1.75,4.27c-.74,1.79-2.39,2.95-4.21,2.95Z"/>
  <text class="cls-9" transform="translate(17.6 31.34)"><tspan x="0" y="0">S</tspan><tspan class="cls-31" x="4.85" y="0">pe</tspan><tspan class="cls-35" x="14.65" y="0">cies</tspan></text>
  <path class="cls-21" d="M107.53,35.45h-38.23c-3.66,0-6.12-3.67-4.64-6.94l1.93-4.27c.81-1.79,2.63-2.95,4.64-2.95h38.23c3.66,0,6.12,3.67,4.64,6.94l-1.93,4.27c-.81,1.79-2.63,2.95-4.64,2.95Z"/>
  <text class="cls-9" transform="translate(69.67 31.52)"><tspan x="0" y="0">Reactions</tspan></text>
  <text class="cls-7" transform="translate(32.8 14.95)"><tspan x="0" y="0">F</tspan><tspan class="cls-39" x="4.85" y="0">r</tspan><tspan x="8.49" y="0">om Kinetica</tspan></text>
  <rect class="cls-11" x="7.65" y="65.5" width="55.53" height="32.11" rx="8.11" ry="8.11"/>
  <text class="cls-9" transform="translate(12.98 78.56)"><tspan x="0" y="0">Conformer</tspan><tspan x="-1.56" y="12">Generation</tspan></text>
  <text class="cls-9" transform="translate(57.25 87.23) scale(.58)"><tspan x="0" y="0">*</tspan></text>
  <rect class="cls-11" x="4.68" y="120.2" width="61.46" height="32.11" rx="8.11" ry="8.11"/>
  <text class="cls-9" transform="translate(14.92 133.26)"><tspan x="0" y="0">G</tspan><tspan class="cls-36" x="6.85" y="0">e</tspan><tspan x="11.39" y="0">omet</tspan><tspan class="cls-33" x="31.96" y="0">r</tspan><tspan x="35.83" y="0">y</tspan><tspan x="-7.97" y="12">Optimisation</tspan></text>
  <text class="cls-9" transform="translate(60.44 141.93) scale(.58)"><tspan x="0" y="0">†</tspan></text>
  <g>
    <path class="cls-22" d="M32.32,45.17c-.05,2.25.28,4.03.6,5.27.85,3.29,2.12,4.5,2.61,7.47.01.07.02.13.03.2"/>
    <polygon class="cls-12" points="32.42 55.87 35.39 57.12 38.34 55.85 35.41 62.89 32.42 55.87"/>
  </g>
  <g>
    <line class="cls-22" x1="31.41" y1="100.03" x2="31.41" y2="113.38"/>
    <polygon class="cls-12" points="28.45 111.14 31.41 112.39 34.37 111.14 31.41 118.16 28.45 111.14"/>
  </g>
  <g>
    <path class="cls-22" d="M69.05,136.96c7.45.21,10.91-1.63,12.66-3.53,4.46-4.82-.04-12.14,4.72-16.55,2.5-2.31,6.33-2.7,9.35-2.64.94.02,1.87.03,2.81.05"/>
    <polygon class="cls-12" points="96.13 117.43 97.53 114.27 96.24 111.07 103.73 114.38 96.13 117.43"/>
  </g>
  <g>
    <path class="cls-17" d="M103.25,104.28c-7.45.18-10.91-1.38-12.66-2.99-4.53-4.15.05-10.4-4.72-14.03-2.67-2.03-6.82-2.22-12.35-2.46-.72-.03-1.41-.05-2.07-.05"/>
    <polygon class="cls-15" points="73.75 81.54 72.51 84.78 73.99 87.91 66.32 85.01 73.75 81.54"/>
  </g>
  <g>
    <path class="cls-17" d="M88.04,45.3c-.06,14.28-3.99,26.25-10.67,30.23-1.31.78-3.03,1.44-5.21,1.46-.24,0-.48,0-.71,0"/>
    <polygon class="cls-15" points="73.8 73.82 72.5 76.99 73.87 80.12 66.37 77.05 73.8 73.82"/>
  </g>
  <path class="cls-16" d="M53.56,203.64H15.33c-3.66,0-6.12-7.23-4.64-13.66l1.93-8.4c.81-3.53,2.63-5.8,4.64-5.8h38.23c3.66,0,6.12,7.23,4.64,13.66l-1.93,8.4c-.81,3.53-2.63,5.8-4.64,5.8Z"/>
  <text class="cls-9" transform="translate(17.65 185.99)"><tspan x="0" y="0">Reaction</tspan><tspan x="-3.01" y="12">End</tspan><tspan class="cls-36" x="13.04" y="12">p</tspan><tspan x="18.3" y="12">oints</tspan></text>
  <g>
    <line class="cls-17" x1="35.41" y1="154.98" x2="35.41" y2="168.33"/>
    <polygon class="cls-15" points="32.45 166.08 35.41 167.34 38.37 166.08 35.41 173.11 32.45 166.08"/>
  </g>
  <rect class="cls-19" x="83.95" y="181.6" width="61.46" height="16.22" rx="8.11" ry="8.11"/>
  <text class="cls-9" transform="translate(87.9 192.96)"><tspan x="0" y="0">Inter</tspan><tspan class="cls-36" x="19.74" y="0">p</tspan><tspan x="25" y="0">olation</tspan></text>
  <rect class="cls-19" x="168.37" y="181.92" width="41.96" height="16.22" rx="8.11" ry="8.11"/>
  <text class="cls-9" transform="translate(172.01 193.29)"><tspan x="0" y="0">CI-NEB</tspan></text>
  <text class="cls-9" transform="translate(203.26 189.96) scale(.58)"><tspan x="0" y="0">†</tspan></text>
  <g>
    <line class="cls-18" x1="62.7" y1="190.03" x2="76.05" y2="190.03"/>
    <polygon class="cls-28" points="73.8 193 75.06 190.03 73.8 187.07 80.82 190.03 73.8 193"/>
  </g>
  <g>
    <line class="cls-18" x1="148.55" y1="190.03" x2="161.9" y2="190.03"/>
    <polygon class="cls-28" points="159.65 193 160.91 190.03 159.65 187.07 166.67 190.03 159.65 193"/>
  </g>
  <g>
    <line class="cls-18" x1="189.35" y1="180" x2="189.35" y2="161.73"/>
    <polygon class="cls-28" points="192.31 163.97 189.35 162.71 186.39 163.97 189.35 156.95 192.31 163.97"/>
  </g>
  <rect class="cls-24" x="129.52" y="48.12" width="54.84" height="32.11" rx="8.11" ry="8.11"/>
  <text class="cls-9" transform="translate(133.94 61.18)"><tspan x="0" y="0">Vibrational</tspan><tspan x="3.66" y="12">Analysis</tspan></text>
  <text class="cls-8" transform="translate(172.84 69.85) scale(.58)"><tspan x="0" y="0">†</tspan></text>
  <g>
    <path class="cls-20" d="M156.86,87.47s0,.04,0,.06c-.27,14.7-.76,17.51-2.81,19.37-.89.8-2.49,1.81-5.44,1.96"/>
    <polygon class="cls-34" points="153.66 89.8 156.83 88.52 159.96 89.91 156.94 82.39 153.66 89.8"/>
    <polygon class="cls-34" points="150.94 105.61 149.66 108.77 151.05 111.9 143.54 108.88 150.94 105.61"/>
  </g>
  <g>
    <path class="cls-20" d="M156.97,84.51c0,.69.02,1.74.05,3.01.33,16.15,1.32,18.19,2.81,19.37,1.55,1.22,3.79,1.66,5.44,1.88"/>
    <polygon class="cls-34" points="162.76 111.72 164.22 108.63 163.01 105.43 170.34 108.88 162.76 111.72"/>
  </g>
  <rect class="cls-13" x="223.57" y="74.37" width="84.78" height="28.36" rx="8.11" ry="8.11"/>
  <text class="cls-9" transform="translate(231.13 85.42)"><tspan x="0" y="0">Disc</tspan><tspan class="cls-37" x="17.9" y="0">r</tspan><tspan class="cls-35" x="21.54" y="0">ete </tspan><tspan class="cls-40" x="36.14" y="0">V</tspan><tspan x="42.06" y="0">ariable</tspan><tspan x="-3.08" y="12">k(</tspan><tspan class="cls-27" x="5.02" y="12">T</tspan><tspan x="10.36" y="12">, P) Calculation</tspan></text>
  <rect class="cls-23" x="235.84" y="131.56" width="60.25" height="18.87" rx="9.43" ry="9.43"/>
  <text class="cls-7" transform="translate(242.68 144.28)"><tspan class="cls-29" x="0" y="0">T</tspan><tspan x="5.34" y="0">o Kinetica</tspan></text>
  <g>
    <path class="cls-25" d="M124.58,84.74c0-1.74,0-4.33,0-7.46-.07-27.5-.84-30.01,1.64-32.59,2.39-2.48,4.86-1.96,29.92-1.86,4.9.02,9.81-.09,14.71,0,11.35.22,17.11.34,54.07,0,2.35,0,6.58.01,11.88,0,21.07-.05,24.45-.34,26.81,2.44,1.77,2.09,1.89,7.69,2.11,18.91.02.78.03,1.52.03,2.23"/>
    <polygon class="cls-14" points="262.53 64.01 265.72 65.36 268.9 64.01 265.72 71.56 262.53 64.01"/>
  </g>
  <path class="cls-25" d="M189.51,84.78c0-1.67,0-4.27,0-7.46-.03-27.12-.38-29.18,1.67-31.53,2.74-3.13,24.07-2.94,31.24-2.94"/>
  <g>
    <line class="cls-25" x1="265.72" y1="105.59" x2="265.72" y2="123.86"/>
    <polygon class="cls-14" points="262.75 121.61 265.72 122.87 268.68 121.61 265.72 128.63 262.75 121.61"/>
  </g>
  <text class="cls-6" transform="translate(222.42 187.72)"><tspan x="0" y="0">* aut</tspan><tspan class="cls-38" x="15.38" y="0">o</tspan><tspan x="19.47" y="0">dE using GFN2-xTB</tspan></text>
  <text class="cls-6" transform="translate(222.42 194.66) scale(.58)"><tspan x="0" y="0">†</tspan></text>
  <text class="cls-6" transform="translate(225.16 197.32)"><tspan x="0" y="0" xml:space="preserve"> ASE using chosen ESM</tspan></text>
  <g>
    <line class="cls-17" x1="38.95" y1="100.03" x2="38.95" y2="113.38"/>
    <polygon class="cls-15" points="35.99 111.14 38.95 112.39 41.91 111.14 38.95 118.16 35.99 111.14"/>
  </g>
  <text class="cls-1" transform="translate(23.39 56.36)"><tspan x="0" y="0">1.</tspan></text>
  <text class="cls-3" transform="translate(74.73 68.05)"><tspan x="0" y="0">2.</tspan></text>
  <text class="cls-5" transform="translate(68.05 185.9)"><tspan x="0" y="0">3.</tspan></text>
  <text class="cls-4" transform="translate(148.55 98.24)"><tspan x="0" y="0">4.</tspan></text>
  <text class="cls-2" transform="translate(193.12 40.21)"><tspan x="0" y="0">5.</tspan></text>
</svg>