<?xml version="1.0" encoding="utf-8"?>
<svg xmlns="http://www.w3.org/2000/svg" xmlns:xlink="http://www.w3.org/1999/xlink" width="600" height="400" viewBox="0 0 2400 1600">
<defs>
  <clipPath id="clip190">
    <rect x="0" y="0" width="2400" height="1600"/>
  </clipPath>
</defs>
<path clip-path="url(#clip190)" d="M0 1600 L2400 1600 L2400 0 L0 0  Z" fill="#ffffff" fill-rule="evenodd" fill-opacity="1"/>
<defs>
  <clipPath id="clip191">
    <rect x="480" y="0" width="1681" height="1600"/>
  </clipPath>
</defs>
<path clip-path="url(#clip190)" d="M259.607 1423.18 L2352.76 1423.18 L2352.76 47.2441 L259.607 47.2441  Z" fill="#ffffff" fill-rule="evenodd" fill-opacity="1"/>
<defs>
  <clipPath id="clip192">
    <rect x="259" y="47" width="2094" height="1377"/>
  </clipPath>
</defs>
<polyline clip-path="url(#clip192)" style="stroke:#000000; stroke-linecap:round; stroke-linejoin:round; stroke-width:2; stroke-opacity:0.1; fill:none" points="259.607,1423.18 259.607,47.2441 "/>
<polyline clip-path="url(#clip192)" style="stroke:#000000; stroke-linecap:round; stroke-linejoin:round; stroke-width:2; stroke-opacity:0.1; fill:none" points="782.894,1423.18 782.894,47.2441 "/>
<polyline clip-path="url(#clip192)" style="stroke:#000000; stroke-linecap:round; stroke-linejoin:round; stroke-width:2; stroke-opacity:0.1; fill:none" points="1306.18,1423.18 1306.18,47.2441 "/>
<polyline clip-path="url(#clip192)" style="stroke:#000000; stroke-linecap:round; stroke-linejoin:round; stroke-width:2; stroke-opacity:0.1; fill:none" points="1829.47,1423.18 1829.47,47.2441 "/>
<polyline clip-path="url(#clip192)" style="stroke:#000000; stroke-linecap:round; stroke-linejoin:round; stroke-width:2; stroke-opacity:0.1; fill:none" points="2352.76,1423.18 2352.76,47.2441 "/>
<polyline clip-path="url(#clip192)" style="stroke:#000000; stroke-linecap:round; stroke-linejoin:round; stroke-width:2; stroke-opacity:0.1; fill:none" points="259.607,1384.24 2352.76,1384.24 "/>
<polyline clip-path="url(#clip192)" style="stroke:#000000; stroke-linecap:round; stroke-linejoin:round; stroke-width:2; stroke-opacity:0.1; fill:none" points="259.607,1059.73 2352.76,1059.73 "/>
<polyline clip-path="url(#clip192)" style="stroke:#000000; stroke-linecap:round; stroke-linejoin:round; stroke-width:2; stroke-opacity:0.1; fill:none" points="259.607,735.212 2352.76,735.212 "/>
<polyline clip-path="url(#clip192)" style="stroke:#000000; stroke-linecap:round; stroke-linejoin:round; stroke-width:2; stroke-opacity:0.1; fill:none" points="259.607,410.699 2352.76,410.699 "/>
<polyline clip-path="url(#clip192)" style="stroke:#000000; stroke-linecap:round; stroke-linejoin:round; stroke-width:2; stroke-opacity:0.1; fill:none" points="259.607,86.1857 2352.76,86.1857 "/>
<polyline clip-path="url(#clip190)" style="stroke:#000000; stroke-linecap:round; stroke-linejoin:round; stroke-width:4; stroke-opacity:1; fill:none" points="259.607,1423.18 2352.76,1423.18 "/>
<polyline clip-path="url(#clip190)" style="stroke:#000000; stroke-linecap:round; stroke-linejoin:round; stroke-width:4; stroke-opacity:1; fill:none" points="259.607,1423.18 259.607,1404.28 "/>
<polyline clip-path="url(#clip190)" style="stroke:#000000; stroke-linecap:round; stroke-linejoin:round; stroke-width:4; stroke-opacity:1; fill:none" points="782.894,1423.18 782.894,1404.28 "/>
<polyline clip-path="url(#clip190)" style="stroke:#000000; stroke-linecap:round; stroke-linejoin:round; stroke-width:4; stroke-opacity:1; fill:none" points="1306.18,1423.18 1306.18,1404.28 "/>
<polyline clip-path="url(#clip190)" style="stroke:#000000; stroke-linecap:round; stroke-linejoin:round; stroke-width:4; stroke-opacity:1; fill:none" points="1829.47,1423.18 1829.47,1404.28 "/>
<polyline clip-path="url(#clip190)" style="stroke:#000000; stroke-linecap:round; stroke-linejoin:round; stroke-width:4; stroke-opacity:1; fill:none" points="2352.76,1423.18 2352.76,1404.28 "/>
<path clip-path="url(#clip190)" d="M259.607 1454.1 Q255.996 1454.1 254.167 1457.66 Q252.362 1461.2 252.362 1468.33 Q252.362 1475.44 254.167 1479.01 Q255.996 1482.55 259.607 1482.55 Q263.241 1482.55 265.047 1479.01 Q266.875 1475.44 266.875 1468.33 Q266.875 1461.2 265.047 1457.66 Q263.241 1454.1 259.607 1454.1 M259.607 1450.39 Q265.417 1450.39 268.473 1455 Q271.551 1459.58 271.551 1468.33 Q271.551 1477.06 268.473 1481.67 Q265.417 1486.25 259.607 1486.25 Q253.797 1486.25 250.718 1481.67 Q247.663 1477.06 247.663 1468.33 Q247.663 1459.58 250.718 1455 Q253.797 1450.39 259.607 1450.39 Z" fill="#000000" fill-rule="nonzero" fill-opacity="1" /><path clip-path="url(#clip190)" d="M757.593 1451.02 L775.95 1451.02 L775.95 1454.96 L761.876 1454.96 L761.876 1463.43 Q762.894 1463.08 763.913 1462.92 Q764.931 1462.73 765.95 1462.73 Q771.737 1462.73 775.116 1465.9 Q778.496 1469.08 778.496 1474.49 Q778.496 1480.07 775.024 1483.17 Q771.552 1486.25 765.232 1486.25 Q763.056 1486.25 760.788 1485.88 Q758.542 1485.51 756.135 1484.77 L756.135 1480.07 Q758.218 1481.2 760.441 1481.76 Q762.663 1482.32 765.14 1482.32 Q769.144 1482.32 771.482 1480.21 Q773.82 1478.1 773.82 1474.49 Q773.82 1470.88 771.482 1468.77 Q769.144 1466.67 765.14 1466.67 Q763.265 1466.67 761.39 1467.08 Q759.538 1467.5 757.593 1468.38 L757.593 1451.02 Z" fill="#000000" fill-rule="nonzero" fill-opacity="1" /><path clip-path="url(#clip190)" d="M797.709 1454.1 Q794.098 1454.1 792.269 1457.66 Q790.464 1461.2 790.464 1468.33 Q790.464 1475.44 792.269 1479.01 Q794.098 1482.55 797.709 1482.55 Q801.343 1482.55 803.149 1479.01 Q804.977 1475.44 804.977 1468.33 Q804.977 1461.2 803.149 1457.66 Q801.343 1454.1 797.709 1454.1 M797.709 1450.39 Q803.519 1450.39 806.575 1455 Q809.653 1459.58 809.653 1468.33 Q809.653 1477.06 806.575 1481.67 Q803.519 1486.25 797.709 1486.25 Q791.899 1486.25 788.82 1481.67 Q785.765 1477.06 785.765 1468.33 Q785.765 1459.58 788.82 1455 Q791.899 1450.39 797.709 1450.39 Z" fill="#000000" fill-rule="nonzero" fill-opacity="1" /><path clip-path="url(#clip190)" d="M1265.79 1481.64 L1273.43 1481.64 L1273.43 1455.28 L1265.12 1456.95 L1265.12 1452.69 L1273.38 1451.02 L1278.06 1451.02 L1278.06 1481.64 L1285.7 1481.64 L1285.7 1485.58 L1265.79 1485.58 L1265.79 1481.64 Z" fill="#000000" fill-rule="nonzero" fill-opacity="1" /><path clip-path="url(#clip190)" d="M1305.14 1454.1 Q1301.53 1454.1 1299.7 1457.66 Q1297.89 1461.2 1297.89 1468.33 Q1297.89 1475.44 1299.7 1479.01 Q1301.53 1482.55 1305.14 1482.55 Q1308.77 1482.55 1310.58 1479.01 Q1312.41 1475.44 1312.41 1468.33 Q1312.41 1461.2 1310.58 1457.66 Q1308.77 1454.1 1305.14 1454.1 M1305.14 1450.39 Q1310.95 1450.39 1314.01 1455 Q1317.08 1459.58 1317.08 1468.33 Q1317.08 1477.06 1314.01 1481.67 Q1310.95 1486.25 1305.14 1486.25 Q1299.33 1486.25 1296.25 1481.67 Q1293.2 1477.06 1293.2 1468.33 Q1293.2 1459.58 1296.25 1455 Q1299.33 1450.39 1305.14 1450.39 Z" fill="#000000" fill-rule="nonzero" fill-opacity="1" /><path clip-path="url(#clip190)" d="M1335.3 1454.1 Q1331.69 1454.1 1329.86 1457.66 Q1328.06 1461.2 1328.06 1468.33 Q1328.06 1475.44 1329.86 1479.01 Q1331.69 1482.55 1335.3 1482.55 Q1338.94 1482.55 1340.74 1479.01 Q1342.57 1475.44 1342.57 1468.33 Q1342.57 1461.2 1340.74 1457.66 Q1338.94 1454.1 1335.3 1454.1 M1335.3 1450.39 Q1341.11 1450.39 1344.17 1455 Q1347.25 1459.58 1347.25 1468.33 Q1347.25 1477.06 1344.17 1481.67 Q1341.11 1486.25 1335.3 1486.25 Q1329.49 1486.25 1326.41 1481.67 Q1323.36 1477.06 1323.36 1468.33 Q1323.36 1459.58 1326.41 1455 Q1329.49 1450.39 1335.3 1450.39 Z" fill="#000000" fill-rule="nonzero" fill-opacity="1" /><path clip-path="url(#clip190)" d="M1789.08 1481.64 L1796.71 1481.64 L1796.71 1455.28 L1788.4 1456.95 L1788.4 1452.69 L1796.67 1451.02 L1801.34 1451.02 L1801.34 1481.64 L1808.98 1481.64 L1808.98 1485.58 L1789.08 1485.58 L1789.08 1481.64 Z" fill="#000000" fill-rule="nonzero" fill-opacity="1" /><path clip-path="url(#clip190)" d="M1818.47 1451.02 L1836.83 1451.02 L1836.83 1454.96 L1822.76 1454.96 L1822.76 1463.43 Q1823.77 1463.08 1824.79 1462.92 Q1825.81 1462.73 1826.83 1462.73 Q1832.62 1462.73 1836 1465.9 Q1839.38 1469.08 1839.38 1474.49 Q1839.38 1480.07 1835.9 1483.17 Q1832.43 1486.25 1826.11 1486.25 Q1823.94 1486.25 1821.67 1485.88 Q1819.42 1485.51 1817.02 1484.77 L1817.02 1480.07 Q1819.1 1481.2 1821.32 1481.76 Q1823.54 1482.32 1826.02 1482.32 Q1830.02 1482.32 1832.36 1480.21 Q1834.7 1478.1 1834.7 1474.49 Q1834.7 1470.88 1832.36 1468.77 Q1830.02 1466.67 1826.02 1466.67 Q1824.14 1466.67 1822.27 1467.08 Q1820.42 1467.5 1818.47 1468.38 L1818.47 1451.02 Z" fill="#000000" fill-rule="nonzero" fill-opacity="1" /><path clip-path="url(#clip190)" d="M1858.59 1454.1 Q1854.98 1454.1 1853.15 1457.66 Q1851.34 1461.2 1851.34 1468.33 Q1851.34 1475.44 1853.15 1479.01 Q1854.98 1482.55 1858.59 1482.55 Q1862.22 1482.55 1864.03 1479.01 Q1865.86 1475.44 1865.86 1468.33 Q1865.86 1461.2 1864.03 1457.66 Q1862.22 1454.1 1858.59 1454.1 M1858.59 1450.39 Q1864.4 1450.39 1867.45 1455 Q1870.53 1459.58 1870.53 1468.33 Q1870.53 1477.06 1867.45 1481.67 Q1864.4 1486.25 1858.59 1486.25 Q1852.78 1486.25 1849.7 1481.67 Q1846.64 1477.06 1846.64 1468.33 Q1846.64 1459.58 1849.7 1455 Q1852.78 1450.39 1858.59 1450.39 Z" fill="#000000" fill-rule="nonzero" fill-opacity="1" /><path clip-path="url(#clip190)" d="M2316.45 1481.64 L2332.77 1481.64 L2332.77 1485.58 L2310.82 1485.58 L2310.82 1481.64 Q2313.49 1478.89 2318.07 1474.26 Q2322.68 1469.61 2323.86 1468.27 Q2326.1 1465.74 2326.98 1464.01 Q2327.88 1462.25 2327.88 1460.56 Q2327.88 1457.8 2325.94 1456.07 Q2324.02 1454.33 2320.92 1454.33 Q2318.72 1454.33 2316.26 1455.09 Q2313.83 1455.86 2311.05 1457.41 L2311.05 1452.69 Q2313.88 1451.55 2316.33 1450.97 Q2318.79 1450.39 2320.82 1450.39 Q2326.19 1450.39 2329.39 1453.08 Q2332.58 1455.77 2332.58 1460.26 Q2332.58 1462.39 2331.77 1464.31 Q2330.99 1466.2 2328.88 1468.8 Q2328.3 1469.47 2325.2 1472.69 Q2322.1 1475.88 2316.45 1481.64 Z" fill="#000000" fill-rule="nonzero" fill-opacity="1" /><path clip-path="url(#clip190)" d="M2352.58 1454.1 Q2348.97 1454.1 2347.14 1457.66 Q2345.34 1461.2 2345.34 1468.33 Q2345.34 1475.44 2347.14 1479.01 Q2348.97 1482.55 2352.58 1482.55 Q2356.22 1482.55 2358.02 1479.01 Q2359.85 1475.44 2359.85 1468.33 Q2359.85 1461.2 2358.02 1457.66 Q2356.22 1454.1 2352.58 1454.1 M2352.58 1450.39 Q2358.39 1450.39 2361.45 1455 Q2364.53 1459.58 2364.53 1468.33 Q2364.53 1477.06 2361.45 1481.67 Q2358.39 1486.25 2352.58 1486.25 Q2346.77 1486.25 2343.69 1481.67 Q2340.64 1477.06 2340.64 1468.33 Q2340.64 1459.58 2343.69 1455 Q2346.77 1450.39 2352.58 1450.39 Z" fill="#000000" fill-rule="nonzero" fill-opacity="1" /><path clip-path="url(#clip190)" d="M2382.74 1454.1 Q2379.13 1454.1 2377.3 1457.66 Q2375.5 1461.2 2375.5 1468.33 Q2375.5 1475.44 2377.3 1479.01 Q2379.13 1482.55 2382.74 1482.55 Q2386.38 1482.55 2388.18 1479.01 Q2390.01 1475.44 2390.01 1468.33 Q2390.01 1461.2 2388.18 1457.66 Q2386.38 1454.1 2382.74 1454.1 M2382.74 1450.39 Q2388.55 1450.39 2391.61 1455 Q2394.69 1459.58 2394.69 1468.33 Q2394.69 1477.06 2391.61 1481.67 Q2388.55 1486.25 2382.74 1486.25 Q2376.93 1486.25 2373.86 1481.67 Q2370.8 1477.06 2370.8 1468.33 Q2370.8 1459.58 2373.86 1455 Q2376.93 1450.39 2382.74 1450.39 Z" fill="#000000" fill-rule="nonzero" fill-opacity="1" /><path clip-path="url(#clip190)" d="M1305.24 1522.27 L1305.24 1532.4 L1317.31 1532.4 L1317.31 1536.95 L1305.24 1536.95 L1305.24 1556.3 Q1305.24 1560.66 1306.42 1561.9 Q1307.63 1563.14 1311.29 1563.14 L1317.31 1563.14 L1317.31 1568.04 L1311.29 1568.04 Q1304.51 1568.04 1301.93 1565.53 Q1299.35 1562.98 1299.35 1556.3 L1299.35 1536.95 L1295.06 1536.95 L1295.06 1532.4 L1299.35 1532.4 L1299.35 1522.27 L1305.24 1522.27 Z" fill="#000000" fill-rule="nonzero" fill-opacity="1" /><polyline clip-path="url(#clip190)" style="stroke:#000000; stroke-linecap:round; stroke-linejoin:round; stroke-width:4; stroke-opacity:1; fill:none" points="259.607,1423.18 259.607,47.2441 "/>
<polyline clip-path="url(#clip190)" style="stroke:#000000; stroke-linecap:round; stroke-linejoin:round; stroke-width:4; stroke-opacity:1; fill:none" points="259.607,1384.24 278.505,1384.24 "/>
<polyline clip-path="url(#clip190)" style="stroke:#000000; stroke-linecap:round; stroke-linejoin:round; stroke-width:4; stroke-opacity:1; fill:none" points="259.607,1059.73 278.505,1059.73 "/>
<polyline clip-path="url(#clip190)" style="stroke:#000000; stroke-linecap:round; stroke-linejoin:round; stroke-width:4; stroke-opacity:1; fill:none" points="259.607,735.212 278.505,735.212 "/>
<polyline clip-path="url(#clip190)" style="stroke:#000000; stroke-linecap:round; stroke-linejoin:round; stroke-width:4; stroke-opacity:1; fill:none" points="259.607,410.699 278.505,410.699 "/>
<polyline clip-path="url(#clip190)" style="stroke:#000000; stroke-linecap:round; stroke-linejoin:round; stroke-width:4; stroke-opacity:1; fill:none" points="259.607,86.1857 278.505,86.1857 "/>
<path clip-path="url(#clip190)" d="M81.154 1400.8 L81.154 1396.54 Q82.9133 1397.37 84.7188 1397.81 Q86.5243 1398.25 88.2604 1398.25 Q92.89 1398.25 95.3206 1395.15 Q97.7743 1392.03 98.1215 1385.69 Q96.7789 1387.68 94.7187 1388.74 Q92.6586 1389.81 90.1586 1389.81 Q84.9734 1389.81 81.941 1386.68 Q78.9318 1383.53 78.9318 1378.09 Q78.9318 1372.77 82.0799 1369.55 Q85.2281 1366.33 90.4595 1366.33 Q96.4548 1366.33 99.603 1370.94 Q102.774 1375.52 102.774 1384.27 Q102.774 1392.44 98.8854 1397.33 Q95.0197 1402.19 88.4688 1402.19 Q86.7095 1402.19 84.904 1401.84 Q83.0984 1401.5 81.154 1400.8 M90.4595 1386.15 Q93.6076 1386.15 95.4363 1384 Q97.2882 1381.84 97.2882 1378.09 Q97.2882 1374.37 95.4363 1372.21 Q93.6076 1370.04 90.4595 1370.04 Q87.3114 1370.04 85.4595 1372.21 Q83.6308 1374.37 83.6308 1378.09 Q83.6308 1381.84 85.4595 1384 Q87.3114 1386.15 90.4595 1386.15 Z" fill="#000000" fill-rule="nonzero" fill-opacity="1" /><path clip-path="url(#clip190)" d="M121.177 1370.04 Q117.566 1370.04 115.737 1373.6 Q113.932 1377.14 113.932 1384.27 Q113.932 1391.38 115.737 1394.94 Q117.566 1398.49 121.177 1398.49 Q124.811 1398.49 126.617 1394.94 Q128.445 1391.38 128.445 1384.27 Q128.445 1377.14 126.617 1373.6 Q124.811 1370.04 121.177 1370.04 M121.177 1366.33 Q126.987 1366.33 130.043 1370.94 Q133.121 1375.52 133.121 1384.27 Q133.121 1393 130.043 1397.61 Q126.987 1402.19 121.177 1402.19 Q115.367 1402.19 112.288 1397.61 Q109.233 1393 109.233 1384.27 Q109.233 1375.52 112.288 1370.94 Q115.367 1366.33 121.177 1366.33 Z" fill="#000000" fill-rule="nonzero" fill-opacity="1" /><path clip-path="url(#clip190)" d="M151.339 1370.04 Q147.728 1370.04 145.899 1373.6 Q144.093 1377.14 144.093 1384.27 Q144.093 1391.38 145.899 1394.94 Q147.728 1398.49 151.339 1398.49 Q154.973 1398.49 156.779 1394.94 Q158.607 1391.38 158.607 1384.27 Q158.607 1377.14 156.779 1373.6 Q154.973 1370.04 151.339 1370.04 M151.339 1366.33 Q157.149 1366.33 160.205 1370.94 Q163.283 1375.52 163.283 1384.27 Q163.283 1393 160.205 1397.61 Q157.149 1402.19 151.339 1402.19 Q145.529 1402.19 142.45 1397.61 Q139.394 1393 139.394 1384.27 Q139.394 1375.52 142.45 1370.94 Q145.529 1366.33 151.339 1366.33 Z" fill="#000000" fill-rule="nonzero" fill-opacity="1" /><path clip-path="url(#clip190)" d="M181.501 1370.04 Q177.89 1370.04 176.061 1373.6 Q174.255 1377.14 174.255 1384.27 Q174.255 1391.38 176.061 1394.94 Q177.89 1398.49 181.501 1398.49 Q185.135 1398.49 186.94 1394.94 Q188.769 1391.38 188.769 1384.27 Q188.769 1377.14 186.94 1373.6 Q185.135 1370.04 181.501 1370.04 M181.501 1366.33 Q187.311 1366.33 190.366 1370.94 Q193.445 1375.52 193.445 1384.27 Q193.445 1393 190.366 1397.61 Q187.311 1402.19 181.501 1402.19 Q175.691 1402.19 172.612 1397.61 Q169.556 1393 169.556 1384.27 Q169.556 1375.52 172.612 1370.94 Q175.691 1366.33 181.501 1366.33 Z" fill="#000000" fill-rule="nonzero" fill-opacity="1" /><path clip-path="url(#clip190)" d="M211.663 1370.04 Q208.051 1370.04 206.223 1373.6 Q204.417 1377.14 204.417 1384.27 Q204.417 1391.38 206.223 1394.94 Q208.051 1398.49 211.663 1398.49 Q215.297 1398.49 217.102 1394.94 Q218.931 1391.38 218.931 1384.27 Q218.931 1377.14 217.102 1373.6 Q215.297 1370.04 211.663 1370.04 M211.663 1366.33 Q217.473 1366.33 220.528 1370.94 Q223.607 1375.52 223.607 1384.27 Q223.607 1393 220.528 1397.61 Q217.473 1402.19 211.663 1402.19 Q205.852 1402.19 202.774 1397.61 Q199.718 1393 199.718 1384.27 Q199.718 1375.52 202.774 1370.94 Q205.852 1366.33 211.663 1366.33 Z" fill="#000000" fill-rule="nonzero" fill-opacity="1" /><path clip-path="url(#clip190)" d="M81.154 1076.29 L81.154 1072.03 Q82.9133 1072.86 84.7188 1073.3 Q86.5243 1073.74 88.2604 1073.74 Q92.89 1073.74 95.3206 1070.64 Q97.7743 1067.51 98.1215 1061.17 Q96.7789 1063.16 94.7187 1064.23 Q92.6586 1065.29 90.1586 1065.29 Q84.9734 1065.29 81.941 1062.17 Q78.9318 1059.02 78.9318 1053.58 Q78.9318 1048.26 82.0799 1045.04 Q85.2281 1041.82 90.4595 1041.82 Q96.4548 1041.82 99.603 1046.43 Q102.774 1051.01 102.774 1059.76 Q102.774 1067.93 98.8854 1072.82 Q95.0197 1077.68 88.4688 1077.68 Q86.7095 1077.68 84.904 1077.33 Q83.0984 1076.98 81.154 1076.29 M90.4595 1061.63 Q93.6076 1061.63 95.4363 1059.48 Q97.2882 1057.33 97.2882 1053.58 Q97.2882 1049.85 95.4363 1047.7 Q93.6076 1045.52 90.4595 1045.52 Q87.3114 1045.52 85.4595 1047.7 Q83.6308 1049.85 83.6308 1053.58 Q83.6308 1057.33 85.4595 1059.48 Q87.3114 1061.63 90.4595 1061.63 Z" fill="#000000" fill-rule="nonzero" fill-opacity="1" /><path clip-path="url(#clip190)" d="M115.205 1073.07 L131.524 1073.07 L131.524 1077.01 L109.58 1077.01 L109.58 1073.07 Q112.242 1070.32 116.825 1065.69 Q121.432 1061.03 122.612 1059.69 Q124.857 1057.17 125.737 1055.43 Q126.64 1053.67 126.64 1051.98 Q126.64 1049.23 124.695 1047.49 Q122.774 1045.76 119.672 1045.76 Q117.473 1045.76 115.02 1046.52 Q112.589 1047.28 109.811 1048.83 L109.811 1044.11 Q112.635 1042.98 115.089 1042.4 Q117.543 1041.82 119.58 1041.82 Q124.95 1041.82 128.144 1044.51 Q131.339 1047.19 131.339 1051.68 Q131.339 1053.81 130.529 1055.73 Q129.742 1057.63 127.635 1060.22 Q127.057 1060.89 123.955 1064.11 Q120.853 1067.31 115.205 1073.07 Z" fill="#000000" fill-rule="nonzero" fill-opacity="1" /><path clip-path="url(#clip190)" d="M141.385 1042.45 L159.742 1042.45 L159.742 1046.38 L145.668 1046.38 L145.668 1054.85 Q146.686 1054.51 147.705 1054.34 Q148.723 1054.16 149.742 1054.16 Q155.529 1054.16 158.908 1057.33 Q162.288 1060.5 162.288 1065.92 Q162.288 1071.5 158.816 1074.6 Q155.343 1077.68 149.024 1077.68 Q146.848 1077.68 144.58 1077.31 Q142.334 1076.94 139.927 1076.19 L139.927 1071.5 Q142.01 1072.63 144.232 1073.19 Q146.455 1073.74 148.931 1073.74 Q152.936 1073.74 155.274 1071.63 Q157.612 1069.53 157.612 1065.92 Q157.612 1062.31 155.274 1060.2 Q152.936 1058.09 148.931 1058.09 Q147.056 1058.09 145.181 1058.51 Q143.33 1058.93 141.385 1059.81 L141.385 1042.45 Z" fill="#000000" fill-rule="nonzero" fill-opacity="1" /><path clip-path="url(#clip190)" d="M181.501 1045.52 Q177.89 1045.52 176.061 1049.09 Q174.255 1052.63 174.255 1059.76 Q174.255 1066.87 176.061 1070.43 Q177.89 1073.97 181.501 1073.97 Q185.135 1073.97 186.94 1070.43 Q188.769 1066.87 188.769 1059.76 Q188.769 1052.63 186.94 1049.09 Q185.135 1045.52 181.501 1045.52 M181.501 1041.82 Q187.311 1041.82 190.366 1046.43 Q193.445 1051.01 193.445 1059.76 Q193.445 1068.49 190.366 1073.09 Q187.311 1077.68 181.501 1077.68 Q175.691 1077.68 172.612 1073.09 Q169.556 1068.49 169.556 1059.76 Q169.556 1051.01 172.612 1046.43 Q175.691 1041.82 181.501 1041.82 Z" fill="#000000" fill-rule="nonzero" fill-opacity="1" /><path clip-path="url(#clip190)" d="M211.663 1045.52 Q208.051 1045.52 206.223 1049.09 Q204.417 1052.63 204.417 1059.76 Q204.417 1066.87 206.223 1070.43 Q208.051 1073.97 211.663 1073.97 Q215.297 1073.97 217.102 1070.43 Q218.931 1066.87 218.931 1059.76 Q218.931 1052.63 217.102 1049.09 Q215.297 1045.52 211.663 1045.52 M211.663 1041.82 Q217.473 1041.82 220.528 1046.43 Q223.607 1051.01 223.607 1059.76 Q223.607 1068.49 220.528 1073.09 Q217.473 1077.68 211.663 1077.68 Q205.852 1077.68 202.774 1073.09 Q199.718 1068.49 199.718 1059.76 Q199.718 1051.01 202.774 1046.43 Q205.852 1041.82 211.663 1041.82 Z" fill="#000000" fill-rule="nonzero" fill-opacity="1" /><path clip-path="url(#clip190)" d="M81.154 751.774 L81.154 747.515 Q82.9133 748.348 84.7188 748.788 Q86.5243 749.228 88.2604 749.228 Q92.89 749.228 95.3206 746.126 Q97.7743 743.001 98.1215 736.659 Q96.7789 738.649 94.7187 739.714 Q92.6586 740.779 90.1586 740.779 Q84.9734 740.779 81.941 737.654 Q78.9318 734.506 78.9318 729.066 Q78.9318 723.742 82.0799 720.525 Q85.2281 717.307 90.4595 717.307 Q96.4548 717.307 99.603 721.913 Q102.774 726.497 102.774 735.247 Q102.774 743.418 98.8854 748.302 Q95.0197 753.163 88.4688 753.163 Q86.7095 753.163 84.904 752.816 Q83.0984 752.469 81.154 751.774 M90.4595 737.122 Q93.6076 737.122 95.4363 734.969 Q97.2882 732.816 97.2882 729.066 Q97.2882 725.339 95.4363 723.187 Q93.6076 721.011 90.4595 721.011 Q87.3114 721.011 85.4595 723.187 Q83.6308 725.339 83.6308 729.066 Q83.6308 732.816 85.4595 734.969 Q87.3114 737.122 90.4595 737.122 Z" fill="#000000" fill-rule="nonzero" fill-opacity="1" /><path clip-path="url(#clip190)" d="M111.223 717.932 L129.58 717.932 L129.58 721.867 L115.506 721.867 L115.506 730.339 Q116.524 729.992 117.543 729.83 Q118.561 729.645 119.58 729.645 Q125.367 729.645 128.746 732.816 Q132.126 735.987 132.126 741.404 Q132.126 746.983 128.654 750.085 Q125.182 753.163 118.862 753.163 Q116.686 753.163 114.418 752.793 Q112.172 752.423 109.765 751.682 L109.765 746.983 Q111.848 748.117 114.07 748.673 Q116.293 749.228 118.77 749.228 Q122.774 749.228 125.112 747.122 Q127.45 745.015 127.45 741.404 Q127.45 737.793 125.112 735.687 Q122.774 733.58 118.77 733.58 Q116.895 733.58 115.02 733.997 Q113.168 734.413 111.223 735.293 L111.223 717.932 Z" fill="#000000" fill-rule="nonzero" fill-opacity="1" /><path clip-path="url(#clip190)" d="M151.339 721.011 Q147.728 721.011 145.899 724.575 Q144.093 728.117 144.093 735.247 Q144.093 742.353 145.899 745.918 Q147.728 749.46 151.339 749.46 Q154.973 749.46 156.779 745.918 Q158.607 742.353 158.607 735.247 Q158.607 728.117 156.779 724.575 Q154.973 721.011 151.339 721.011 M151.339 717.307 Q157.149 717.307 160.205 721.913 Q163.283 726.497 163.283 735.247 Q163.283 743.973 160.205 748.58 Q157.149 753.163 151.339 753.163 Q145.529 753.163 142.45 748.58 Q139.394 743.973 139.394 735.247 Q139.394 726.497 142.45 721.913 Q145.529 717.307 151.339 717.307 Z" fill="#000000" fill-rule="nonzero" fill-opacity="1" /><path clip-path="url(#clip190)" d="M181.501 721.011 Q177.89 721.011 176.061 724.575 Q174.255 728.117 174.255 735.247 Q174.255 742.353 176.061 745.918 Q177.89 749.46 181.501 749.46 Q185.135 749.46 186.94 745.918 Q188.769 742.353 188.769 735.247 Q188.769 728.117 186.94 724.575 Q185.135 721.011 181.501 721.011 M181.501 717.307 Q187.311 717.307 190.366 721.913 Q193.445 726.497 193.445 735.247 Q193.445 743.973 190.366 748.58 Q187.311 753.163 181.501 753.163 Q175.691 753.163 172.612 748.58 Q169.556 743.973 169.556 735.247 Q169.556 726.497 172.612 721.913 Q175.691 717.307 181.501 717.307 Z" fill="#000000" fill-rule="nonzero" fill-opacity="1" /><path clip-path="url(#clip190)" d="M211.663 721.011 Q208.051 721.011 206.223 724.575 Q204.417 728.117 204.417 735.247 Q204.417 742.353 206.223 745.918 Q208.051 749.46 211.663 749.46 Q215.297 749.46 217.102 745.918 Q218.931 742.353 218.931 735.247 Q218.931 728.117 217.102 724.575 Q215.297 721.011 211.663 721.011 M211.663 717.307 Q217.473 717.307 220.528 721.913 Q223.607 726.497 223.607 735.247 Q223.607 743.973 220.528 748.58 Q217.473 753.163 211.663 753.163 Q205.852 753.163 202.774 748.58 Q199.718 743.973 199.718 735.247 Q199.718 726.497 202.774 721.913 Q205.852 717.307 211.663 717.307 Z" fill="#000000" fill-rule="nonzero" fill-opacity="1" /><path clip-path="url(#clip190)" d="M81.154 427.261 L81.154 423.002 Q82.9133 423.835 84.7188 424.275 Q86.5243 424.715 88.2604 424.715 Q92.89 424.715 95.3206 421.613 Q97.7743 418.488 98.1215 412.146 Q96.7789 414.136 94.7187 415.201 Q92.6586 416.266 90.1586 416.266 Q84.9734 416.266 81.941 413.141 Q78.9318 409.993 78.9318 404.553 Q78.9318 399.229 82.0799 396.011 Q85.2281 392.794 90.4595 392.794 Q96.4548 392.794 99.603 397.4 Q102.774 401.984 102.774 410.734 Q102.774 418.905 98.8854 423.789 Q95.0197 428.65 88.4688 428.65 Q86.7095 428.65 84.904 428.303 Q83.0984 427.956 81.154 427.261 M90.4595 412.609 Q93.6076 412.609 95.4363 410.456 Q97.2882 408.303 97.2882 404.553 Q97.2882 400.826 95.4363 398.673 Q93.6076 396.498 90.4595 396.498 Q87.3114 396.498 85.4595 398.673 Q83.6308 400.826 83.6308 404.553 Q83.6308 408.303 85.4595 410.456 Q87.3114 412.609 90.4595 412.609 Z" fill="#000000" fill-rule="nonzero" fill-opacity="1" /><path clip-path="url(#clip190)" d="M109.996 393.419 L132.219 393.419 L132.219 395.41 L119.672 427.979 L114.788 427.979 L126.594 397.354 L109.996 397.354 L109.996 393.419 Z" fill="#000000" fill-rule="nonzero" fill-opacity="1" /><path clip-path="url(#clip190)" d="M141.385 393.419 L159.742 393.419 L159.742 397.354 L145.668 397.354 L145.668 405.826 Q146.686 405.479 147.705 405.317 Q148.723 405.132 149.742 405.132 Q155.529 405.132 158.908 408.303 Q162.288 411.474 162.288 416.891 Q162.288 422.47 158.816 425.571 Q155.343 428.65 149.024 428.65 Q146.848 428.65 144.58 428.28 Q142.334 427.909 139.927 427.169 L139.927 422.47 Q142.01 423.604 144.232 424.159 Q146.455 424.715 148.931 424.715 Q152.936 424.715 155.274 422.608 Q157.612 420.502 157.612 416.891 Q157.612 413.28 155.274 411.173 Q152.936 409.067 148.931 409.067 Q147.056 409.067 145.181 409.484 Q143.33 409.9 141.385 410.78 L141.385 393.419 Z" fill="#000000" fill-rule="nonzero" fill-opacity="1" /><path clip-path="url(#clip190)" d="M181.501 396.498 Q177.89 396.498 176.061 400.062 Q174.255 403.604 174.255 410.734 Q174.255 417.84 176.061 421.405 Q177.89 424.946 181.501 424.946 Q185.135 424.946 186.94 421.405 Q188.769 417.84 188.769 410.734 Q188.769 403.604 186.94 400.062 Q185.135 396.498 181.501 396.498 M181.501 392.794 Q187.311 392.794 190.366 397.4 Q193.445 401.984 193.445 410.734 Q193.445 419.46 190.366 424.067 Q187.311 428.65 181.501 428.65 Q175.691 428.65 172.612 424.067 Q169.556 419.46 169.556 410.734 Q169.556 401.984 172.612 397.4 Q175.691 392.794 181.501 392.794 Z" fill="#000000" fill-rule="nonzero" fill-opacity="1" /><path clip-path="url(#clip190)" d="M211.663 396.498 Q208.051 396.498 206.223 400.062 Q204.417 403.604 204.417 410.734 Q204.417 417.84 206.223 421.405 Q208.051 424.946 211.663 424.946 Q215.297 424.946 217.102 421.405 Q218.931 417.84 218.931 410.734 Q218.931 403.604 217.102 400.062 Q215.297 396.498 211.663 396.498 M211.663 392.794 Q217.473 392.794 220.528 397.4 Q223.607 401.984 223.607 410.734 Q223.607 419.46 220.528 424.067 Q217.473 428.65 211.663 428.65 Q205.852 428.65 202.774 424.067 Q199.718 419.46 199.718 410.734 Q199.718 401.984 202.774 397.4 Q205.852 392.794 211.663 392.794 Z" fill="#000000" fill-rule="nonzero" fill-opacity="1" /><path clip-path="url(#clip190)" d="M51.6634 99.5305 L59.3023 99.5305 L59.3023 73.1649 L50.9921 74.8316 L50.9921 70.5723 L59.256 68.9057 L63.9319 68.9057 L63.9319 99.5305 L71.5707 99.5305 L71.5707 103.466 L51.6634 103.466 L51.6634 99.5305 Z" fill="#000000" fill-rule="nonzero" fill-opacity="1" /><path clip-path="url(#clip190)" d="M91.0151 71.9844 Q87.404 71.9844 85.5753 75.5492 Q83.7697 79.0908 83.7697 86.2204 Q83.7697 93.3268 85.5753 96.8916 Q87.404 100.433 91.0151 100.433 Q94.6493 100.433 96.4548 96.8916 Q98.2835 93.3268 98.2835 86.2204 Q98.2835 79.0908 96.4548 75.5492 Q94.6493 71.9844 91.0151 71.9844 M91.0151 68.2807 Q96.8252 68.2807 99.8808 72.8871 Q102.959 77.4704 102.959 86.2204 Q102.959 94.9472 99.8808 99.5537 Q96.8252 104.137 91.0151 104.137 Q85.2049 104.137 82.1262 99.5537 Q79.0707 94.9472 79.0707 86.2204 Q79.0707 77.4704 82.1262 72.8871 Q85.2049 68.2807 91.0151 68.2807 Z" fill="#000000" fill-rule="nonzero" fill-opacity="1" /><path clip-path="url(#clip190)" d="M121.177 71.9844 Q117.566 71.9844 115.737 75.5492 Q113.932 79.0908 113.932 86.2204 Q113.932 93.3268 115.737 96.8916 Q117.566 100.433 121.177 100.433 Q124.811 100.433 126.617 96.8916 Q128.445 93.3268 128.445 86.2204 Q128.445 79.0908 126.617 75.5492 Q124.811 71.9844 121.177 71.9844 M121.177 68.2807 Q126.987 68.2807 130.043 72.8871 Q133.121 77.4704 133.121 86.2204 Q133.121 94.9472 130.043 99.5537 Q126.987 104.137 121.177 104.137 Q115.367 104.137 112.288 99.5537 Q109.233 94.9472 109.233 86.2204 Q109.233 77.4704 112.288 72.8871 Q115.367 68.2807 121.177 68.2807 Z" fill="#000000" fill-rule="nonzero" fill-opacity="1" /><path clip-path="url(#clip190)" d="M151.339 71.9844 Q147.728 71.9844 145.899 75.5492 Q144.093 79.0908 144.093 86.2204 Q144.093 93.3268 145.899 96.8916 Q147.728 100.433 151.339 100.433 Q154.973 100.433 156.779 96.8916 Q158.607 93.3268 158.607 86.2204 Q158.607 79.0908 156.779 75.5492 Q154.973 71.9844 151.339 71.9844 M151.339 68.2807 Q157.149 68.2807 160.205 72.8871 Q163.283 77.4704 163.283 86.2204 Q163.283 94.9472 160.205 99.5537 Q157.149 104.137 151.339 104.137 Q145.529 104.137 142.45 99.5537 Q139.394 94.9472 139.394 86.2204 Q139.394 77.4704 142.45 72.8871 Q145.529 68.2807 151.339 68.2807 Z" fill="#000000" fill-rule="nonzero" fill-opacity="1" /><path clip-path="url(#clip190)" d="M181.501 71.9844 Q177.89 71.9844 176.061 75.5492 Q174.255 79.0908 174.255 86.2204 Q174.255 93.3268 176.061 96.8916 Q177.89 100.433 181.501 100.433 Q185.135 100.433 186.94 96.8916 Q188.769 93.3268 188.769 86.2204 Q188.769 79.0908 186.94 75.5492 Q185.135 71.9844 181.501 71.9844 M181.501 68.2807 Q187.311 68.2807 190.366 72.8871 Q193.445 77.4704 193.445 86.2204 Q193.445 94.9472 190.366 99.5537 Q187.311 104.137 181.501 104.137 Q175.691 104.137 172.612 99.5537 Q169.556 94.9472 169.556 86.2204 Q169.556 77.4704 172.612 72.8871 Q175.691 68.2807 181.501 68.2807 Z" fill="#000000" fill-rule="nonzero" fill-opacity="1" /><path clip-path="url(#clip190)" d="M211.663 71.9844 Q208.051 71.9844 206.223 75.5492 Q204.417 79.0908 204.417 86.2204 Q204.417 93.3268 206.223 96.8916 Q208.051 100.433 211.663 100.433 Q215.297 100.433 217.102 96.8916 Q218.931 93.3268 218.931 86.2204 Q218.931 79.0908 217.102 75.5492 Q215.297 71.9844 211.663 71.9844 M211.663 68.2807 Q217.473 68.2807 220.528 72.8871 Q223.607 77.4704 223.607 86.2204 Q223.607 94.9472 220.528 99.5537 Q217.473 104.137 211.663 104.137 Q205.852 104.137 202.774 99.5537 Q199.718 94.9472 199.718 86.2204 Q199.718 77.4704 202.774 72.8871 Q205.852 68.2807 211.663 68.2807 Z" fill="#000000" fill-rule="nonzero" fill-opacity="1" /><polyline clip-path="url(#clip192)" style="stroke:#009af9; stroke-linecap:round; stroke-linejoin:round; stroke-width:4; stroke-opacity:1; fill:none" points="259.607,86.1857 261.7,87.4837 263.793,88.7818 265.886,90.0798 267.98,91.3779 270.073,92.6759 272.166,93.974 274.259,95.272 276.352,96.5701 278.445,97.8681 280.538,99.1662 282.632,100.464 284.725,101.762 286.818,103.06 288.911,104.358 291.004,105.656 293.097,106.955 295.19,108.253 297.284,109.551 299.377,110.849 301.47,112.147 303.563,113.445 305.656,114.743 307.749,116.041 309.843,117.339 311.936,118.637 314.029,119.935 316.122,121.233 318.215,122.531 320.308,123.829 322.401,125.127 324.495,126.425 326.588,127.723 328.681,129.021 330.774,130.319 332.867,131.618 334.96,132.916 337.053,134.214 339.147,135.512 341.24,136.81 343.333,138.108 345.426,139.406 347.519,140.704 349.612,142.002 351.705,143.3 353.799,144.598 355.892,145.896 357.985,147.194 360.078,148.492 362.171,149.79 364.264,151.088 366.358,152.386 368.451,153.684 370.544,154.982 372.637,156.281 374.73,157.579 376.823,158.877 378.916,160.175 381.01,161.473 383.103,162.771 385.196,164.069 387.289,165.367 389.382,166.665 391.475,167.963 393.568,169.261 395.662,170.559 397.755,171.857 399.848,173.155 401.941,174.453 404.034,175.751 406.127,177.049 408.221,178.347 410.314,179.645 412.407,180.944 414.5,182.242 416.593,183.54 418.686,184.838 420.779,186.136 422.873,187.434 424.966,188.732 427.059,190.03 429.152,191.328 431.245,192.626 433.338,193.924 435.431,195.222 437.525,196.52 439.618,197.818 441.711,199.116 443.804,200.414 445.897,201.712 447.99,203.01 450.083,204.308 452.177,205.607 454.27,206.905 456.363,208.203 458.456,209.501 460.549,210.799 462.642,212.097 464.736,213.395 466.829,214.693 468.922,215.991 471.015,217.289 473.108,218.587 475.201,219.885 477.294,221.183 479.388,222.481 481.481,223.779 483.574,225.077 485.667,226.375 487.76,227.673 489.853,228.971 491.946,230.27 494.04,231.568 496.133,232.866 498.226,234.164 500.319,235.462 502.412,236.76 504.505,238.058 506.599,239.356 508.692,240.654 510.785,241.952 512.878,243.25 514.971,244.548 517.064,245.846 519.157,247.144 521.251,248.442 523.344,249.74 525.437,251.038 527.53,252.336 529.623,253.634 531.716,254.933 533.809,256.231 535.903,257.529 537.996,258.827 540.089,260.125 542.182,261.423 544.275,262.721 546.368,264.019 548.461,265.317 550.555,266.615 552.648,267.913 554.741,269.211 556.834,270.509 558.927,271.807 561.02,273.105 563.114,274.403 565.207,275.701 567.3,276.999 569.393,278.297 571.486,279.596 573.579,280.894 575.672,282.192 577.766,283.49 579.859,284.788 581.952,286.086 584.045,287.384 586.138,288.682 588.231,289.98 590.324,291.278 592.418,292.576 594.511,293.874 596.604,295.172 598.697,296.47 600.79,297.768 602.883,299.066 604.977,300.364 607.07,301.662 609.163,302.96 611.256,304.259 613.349,305.557 615.442,306.855 617.535,308.153 619.629,309.451 621.722,310.749 623.815,312.047 625.908,313.345 628.001,314.643 630.094,315.941 632.187,317.239 634.281,318.537 636.374,319.835 638.467,321.133 640.56,322.431 642.653,323.729 644.746,325.027 646.84,326.325 648.933,327.623 651.026,328.922 653.119,330.22 655.212,331.518 657.305,332.816 659.398,334.114 661.492,335.412 663.585,336.71 665.678,338.008 667.771,339.306 669.864,340.604 671.957,341.902 674.05,343.2 676.144,344.498 678.237,345.796 680.33,347.094 682.423,348.392 684.516,349.69 686.609,350.988 688.702,352.286 690.796,353.585 692.889,354.883 694.982,356.181 697.075,357.479 699.168,358.777 701.261,360.075 703.355,361.373 705.448,362.671 707.541,363.969 709.634,365.267 711.727,366.565 713.82,367.863 715.913,369.161 718.007,370.459 720.1,371.757 722.193,373.055 724.286,374.353 726.379,375.651 728.472,376.949 730.565,378.248 732.659,379.546 734.752,380.844 736.845,382.142 738.938,383.44 741.031,384.738 743.124,386.036 745.218,387.334 747.311,388.632 749.404,389.93 751.497,391.228 753.59,392.526 755.683,393.824 757.776,395.122 759.87,396.42 761.963,397.718 764.056,399.016 766.149,400.314 768.242,401.612 770.335,402.911 772.428,404.209 774.522,405.507 776.615,406.805 778.708,408.103 780.801,409.401 782.894,410.699 784.987,411.997 787.08,413.295 789.174,414.593 791.267,415.891 793.36,417.189 795.453,418.487 797.546,419.785 799.639,421.083 801.733,422.381 803.826,423.679 805.919,424.977 808.012,426.275 810.105,427.574 812.198,428.872 814.291,430.17 816.385,431.468 818.478,432.766 820.571,434.064 822.664,435.362 824.757,436.66 826.85,437.958 828.943,439.256 831.037,440.554 833.13,441.852 835.223,443.15 837.316,444.448 839.409,445.746 841.502,447.044 843.596,448.342 845.689,449.64 847.782,450.938 849.875,452.237 851.968,453.535 854.061,454.833 856.154,456.131 858.248,457.429 860.341,458.727 862.434,460.025 864.527,461.323 866.62,462.621 868.713,463.919 870.806,465.217 872.9,466.515 874.993,467.813 877.086,469.111 879.179,470.409 881.272,471.707 883.365,473.005 885.458,474.303 887.552,475.601 889.645,476.9 891.738,478.198 893.831,479.496 895.924,480.794 898.017,482.092 900.111,483.39 902.204,484.688 904.297,485.986 906.39,487.284 908.483,488.582 910.576,489.88 912.669,491.178 914.763,492.476 916.856,493.774 918.949,495.072 921.042,496.37 923.135,497.668 925.228,498.966 927.321,500.264 929.415,501.563 931.508,502.861 933.601,504.159 935.694,505.457 937.787,506.755 939.88,508.053 941.974,509.351 944.067,510.649 946.16,511.947 948.253,513.245 950.346,514.543 952.439,515.841 954.532,517.139 956.626,518.437 958.719,519.735 960.812,521.033 962.905,522.331 964.998,523.629 967.091,524.927 969.184,526.226 971.278,527.524 973.371,528.822 975.464,530.12 977.557,531.418 979.65,532.716 981.743,534.014 983.836,535.312 985.93,536.61 988.023,537.908 990.116,539.206 992.209,540.504 994.302,541.802 996.395,543.1 998.489,544.398 1000.58,545.696 1002.67,546.994 1004.77,548.292 1006.86,549.59 1008.95,550.889 1011.05,552.187 1013.14,553.485 1015.23,554.783 1017.33,556.081 1019.42,557.379 1021.51,558.677 1023.61,559.975 1025.7,561.273 1027.79,562.571 1029.89,563.869 1031.98,565.167 1034.07,566.465 1036.17,567.763 1038.26,569.061 1040.35,570.359 1042.44,571.657 1044.54,572.955 1046.63,574.253 1048.72,575.551 1050.82,576.85 1052.91,578.148 1055,579.446 1057.1,580.744 1059.19,582.042 1061.28,583.34 1063.38,584.638 1065.47,585.936 1067.56,587.234 1069.66,588.532 1071.75,589.83 1073.84,591.128 1075.94,592.426 1078.03,593.724 1080.12,595.022 1082.21,596.32 1084.31,597.618 1086.4,598.916 1088.49,600.214 1090.59,601.513 1092.68,602.811 1094.77,604.109 1096.87,605.407 1098.96,606.705 1101.05,608.003 1103.15,609.301 1105.24,610.599 1107.33,611.897 1109.43,613.195 1111.52,614.493 1113.61,615.791 1115.7,617.089 1117.8,618.387 1119.89,619.685 1121.98,620.983 1124.08,622.281 1126.17,623.579 1128.26,624.877 1130.36,626.176 1132.45,627.474 1134.54,628.772 1136.64,630.07 1138.73,631.368 1140.82,632.666 1142.92,633.964 1145.01,635.262 1147.1,636.56 1149.2,637.858 1151.29,639.156 1153.38,640.454 1155.47,641.752 1157.57,643.05 1159.66,644.348 1161.75,645.646 1163.85,646.944 1165.94,648.242 1168.03,649.54 1170.13,650.839 1172.22,652.137 1174.31,653.435 1176.41,654.733 1178.5,656.031 1180.59,657.329 1182.69,658.627 1184.78,659.925 1186.87,661.223 1188.97,662.521 1191.06,663.819 1193.15,665.117 1195.24,666.415 1197.34,667.713 1199.43,669.011 1201.52,670.309 1203.62,671.607 1205.71,672.905 1207.8,674.203 1209.9,675.502 1211.99,676.8 1214.08,678.098 1216.18,679.396 1218.27,680.694 1220.36,681.992 1222.46,683.29 1224.55,684.588 1226.64,685.886 1228.73,687.184 1230.83,688.482 1232.92,689.78 1235.01,691.078 1237.11,692.376 1239.2,693.674 1241.29,694.972 1243.39,696.27 1245.48,697.568 1247.57,698.866 1249.67,700.165 1251.76,701.463 1253.85,702.761 1255.95,704.059 1258.04,705.357 1260.13,706.655 1262.23,707.953 1264.32,709.251 1266.41,710.549 1268.5,711.847 1270.6,713.145 1272.69,714.443 1274.78,715.741 1276.88,717.039 1278.97,718.337 1281.06,719.635 1283.16,720.933 1285.25,722.231 1287.34,723.529 1289.44,724.828 1291.53,726.126 1293.62,727.424 1295.72,728.722 1297.81,730.02 1299.9,731.318 1302,732.616 1304.09,733.914 1306.18,735.212 1308.27,736.51 1310.37,737.808 1312.46,739.106 1314.55,740.404 1316.65,741.702 1318.74,743 1320.83,744.298 1322.93,745.596 1325.02,746.894 1327.11,748.192 1329.21,749.491 1331.3,750.789 1333.39,752.087 1335.49,753.385 1337.58,754.683 1339.67,755.981 1341.76,757.279 1343.86,758.577 1345.95,759.875 1348.04,761.173 1350.14,762.471 1352.23,763.769 1354.32,765.067 1356.42,766.365 1358.51,767.663 1360.6,768.961 1362.7,770.259 1364.79,771.557 1366.88,772.855 1368.98,774.154 1371.07,775.452 1373.16,776.75 1375.26,778.048 1377.35,779.346 1379.44,780.644 1381.53,781.942 1383.63,783.24 1385.72,784.538 1387.81,785.836 1389.91,787.134 1392,788.432 1394.09,789.73 1396.19,791.028 1398.28,792.326 1400.37,793.624 1402.47,794.922 1404.56,796.22 1406.65,797.518 1408.75,798.817 1410.84,800.115 1412.93,801.413 1415.03,802.711 1417.12,804.009 1419.21,805.307 1421.3,806.605 1423.4,807.903 1425.49,809.201 1427.58,810.499 1429.68,811.797 1431.77,813.095 1433.86,814.393 1435.96,815.691 1438.05,816.989 1440.14,818.287 1442.24,819.585 1444.33,820.883 1446.42,822.181 1448.52,823.48 1450.61,824.778 1452.7,826.076 1454.8,827.374 1456.89,828.672 1458.98,829.97 1461.07,831.268 1463.17,832.566 1465.26,833.864 1467.35,835.162 1469.45,836.46 1471.54,837.758 1473.63,839.056 1475.73,840.354 1477.82,841.652 1479.91,842.95 1482.01,844.248 1484.1,845.546 1486.19,846.844 1488.29,848.143 1490.38,849.441 1492.47,850.739 1494.56,852.037 1496.66,853.335 1498.75,854.633 1500.84,855.931 1502.94,857.229 1505.03,858.527 1507.12,859.825 1509.22,861.123 1511.31,862.421 1513.4,863.719 1515.5,865.017 1517.59,866.315 1519.68,867.613 1521.78,868.911 1523.87,870.209 1525.96,871.507 1528.06,872.806 1530.15,874.104 1532.24,875.402 1534.33,876.7 1536.43,877.998 1538.52,879.296 1540.61,880.594 1542.71,881.892 1544.8,883.19 1546.89,884.488 1548.99,885.786 1551.08,887.084 1553.17,888.382 1555.27,889.68 1557.36,890.978 1559.45,892.276 1561.55,893.574 1563.64,894.872 1565.73,896.17 1567.83,897.469 1569.92,898.767 1572.01,900.065 1574.1,901.363 1576.2,902.661 1578.29,903.959 1580.38,905.257 1582.48,906.555 1584.57,907.853 1586.66,909.151 1588.76,910.449 1590.85,911.747 1592.94,913.045 1595.04,914.343 1597.13,915.641 1599.22,916.939 1601.32,918.237 1603.41,919.535 1605.5,920.833 1607.59,922.132 1609.69,923.43 1611.78,924.728 1613.87,926.026 1615.97,927.324 1618.06,928.622 1620.15,929.92 1622.25,931.218 1624.34,932.516 1626.43,933.814 1628.53,935.112 1630.62,936.41 1632.71,937.708 1634.81,939.006 1636.9,940.304 1638.99,941.602 1641.09,942.9 1643.18,944.198 1645.27,945.496 1647.36,946.795 1649.46,948.093 1651.55,949.391 1653.64,950.689 1655.74,951.987 1657.83,953.285 1659.92,954.583 1662.02,955.881 1664.11,957.179 1666.2,958.477 1668.3,959.775 1670.39,961.073 1672.48,962.371 1674.58,963.669 1676.67,964.967 1678.76,966.265 1680.86,967.563 1682.95,968.861 1685.04,970.159 1687.13,971.458 1689.23,972.756 1691.32,974.054 1693.41,975.352 1695.51,976.65 1697.6,977.948 1699.69,979.246 1701.79,980.544 1703.88,981.842 1705.97,983.14 1708.07,984.438 1710.16,985.736 1712.25,987.034 1714.35,988.332 1716.44,989.63 1718.53,990.928 1720.62,992.226 1722.72,993.524 1724.81,994.822 1726.9,996.121 1729,997.419 1731.09,998.717 1733.18,1000.01 1735.28,1001.31 1737.37,1002.61 1739.46,1003.91 1741.56,1005.21 1743.65,1006.5 1745.74,1007.8 1747.84,1009.1 1749.93,1010.4 1752.02,1011.7 1754.12,1013 1756.21,1014.29 1758.3,1015.59 1760.39,1016.89 1762.49,1018.19 1764.58,1019.49 1766.67,1020.78 1768.77,1022.08 1770.86,1023.38 1772.95,1024.68 1775.05,1025.98 1777.14,1027.27 1779.23,1028.57 1781.33,1029.87 1783.42,1031.17 1785.51,1032.47 1787.61,1033.76 1789.7,1035.06 1791.79,1036.36 1793.89,1037.66 1795.98,1038.96 1798.07,1040.25 1800.16,1041.55 1802.26,1042.85 1804.35,1044.15 1806.44,1045.45 1808.54,1046.74 1810.63,1048.04 1812.72,1049.34 1814.82,1050.64 1816.91,1051.94 1819,1053.23 1821.1,1054.53 1823.19,1055.83 1825.28,1057.13 1827.38,1058.43 1829.47,1059.73 1831.56,1061.02 1833.65,1062.32 1835.75,1063.62 1837.84,1064.92 1839.93,1066.22 1842.03,1067.51 1844.12,1068.81 1846.21,1070.11 1848.31,1071.41 1850.4,1072.71 1852.49,1074 1854.59,1075.3 1856.68,1076.6 1858.77,1077.9 1860.87,1079.2 1862.96,1080.49 1865.05,1081.79 1867.15,1083.09 1869.24,1084.39 1871.33,1085.69 1873.42,1086.98 1875.52,1088.28 1877.61,1089.58 1879.7,1090.88 1881.8,1092.18 1883.89,1093.47 1885.98,1094.77 1888.08,1096.07 1890.17,1097.37 1892.26,1098.67 1894.36,1099.96 1896.45,1101.26 1898.54,1102.56 1900.64,1103.86 1902.73,1105.16 1904.82,1106.46 1906.92,1107.75 1909.01,1109.05 1911.1,1110.35 1913.19,1111.65 1915.29,1112.95 1917.38,1114.24 1919.47,1115.54 1921.57,1116.84 1923.66,1118.14 1925.75,1119.44 1927.85,1120.73 1929.94,1122.03 1932.03,1123.33 1934.13,1124.63 1936.22,1125.93 1938.31,1127.22 1940.41,1128.52 1942.5,1129.82 1944.59,1131.12 1946.69,1132.42 1948.78,1133.71 1950.87,1135.01 1952.96,1136.31 1955.06,1137.61 1957.15,1138.91 1959.24,1140.2 1961.34,1141.5 1963.43,1142.8 1965.52,1144.1 1967.62,1145.4 1969.71,1146.69 1971.8,1147.99 1973.9,1149.29 1975.99,1150.59 1978.08,1151.89 1980.18,1153.18 1982.27,1154.48 1984.36,1155.78 1986.45,1157.08 1988.55,1158.38 1990.64,1159.68 1992.73,1160.97 1994.83,1162.27 1996.92,1163.57 1999.01,1164.87 2001.11,1166.17 2003.2,1167.46 2005.29,1168.76 2007.39,1170.06 2009.48,1171.36 2011.57,1172.66 2013.67,1173.95 2015.76,1175.25 2017.85,1176.55 2019.95,1177.85 2022.04,1179.15 2024.13,1180.44 2026.22,1181.74 2028.32,1183.04 2030.41,1184.34 2032.5,1185.64 2034.6,1186.93 2036.69,1188.23 2038.78,1189.53 2040.88,1190.83 2042.97,1192.13 2045.06,1193.42 2047.16,1194.72 2049.25,1196.02 2051.34,1197.32 2053.44,1198.62 2055.53,1199.91 2057.62,1201.21 2059.72,1202.51 2061.81,1203.81 2063.9,1205.11 2065.99,1206.41 2068.09,1207.7 2070.18,1209 2072.27,1210.3 2074.37,1211.6 2076.46,1212.9 2078.55,1214.19 2080.65,1215.49 2082.74,1216.79 2084.83,1218.09 2086.93,1219.39 2089.02,1220.68 2091.11,1221.98 2093.21,1223.28 2095.3,1224.58 2097.39,1225.88 2099.48,1227.17 2101.58,1228.47 2103.67,1229.77 2105.76,1231.07 2107.86,1232.37 2109.95,1233.66 2112.04,1234.96 2114.14,1236.26 2116.23,1237.56 2118.32,1238.86 2120.42,1240.15 2122.51,1241.45 2124.6,1242.75 2126.7,1244.05 2128.79,1245.35 2130.88,1246.64 2132.98,1247.94 2135.07,1249.24 2137.16,1250.54 2139.25,1251.84 2141.35,1253.13 2143.44,1254.43 2145.53,1255.73 2147.63,1257.03 2149.72,1258.33 2151.81,1259.63 2153.91,1260.92 2156,1262.22 2158.09,1263.52 2160.19,1264.82 2162.28,1266.12 2164.37,1267.41 2166.47,1268.71 2168.56,1270.01 2170.65,1271.31 2172.75,1272.61 2174.84,1273.9 2176.93,1275.2 2179.02,1276.5 2181.12,1277.8 2183.21,1279.1 2185.3,1280.39 2187.4,1281.69 2189.49,1282.99 2191.58,1284.29 2193.68,1285.59 2195.77,1286.88 2197.86,1288.18 2199.96,1289.48 2202.05,1290.78 2204.14,1292.08 2206.24,1293.37 2208.33,1294.67 2210.42,1295.97 2212.51,1297.27 2214.61,1298.57 2216.7,1299.86 2218.79,1301.16 2220.89,1302.46 2222.98,1303.76 2225.07,1305.06 2227.17,1306.36 2229.26,1307.65 2231.35,1308.95 2233.45,1310.25 2235.54,1311.55 2237.63,1312.85 2239.73,1314.14 2241.82,1315.44 2243.91,1316.74 2246.01,1318.04 2248.1,1319.34 2250.19,1320.63 2252.28,1321.93 2254.38,1323.23 2256.47,1324.53 2258.56,1325.83 2260.66,1327.12 2262.75,1328.42 2264.84,1329.72 2266.94,1331.02 2269.03,1332.32 2271.12,1333.61 2273.22,1334.91 2275.31,1336.21 2277.4,1337.51 2279.5,1338.81 2281.59,1340.1 2283.68,1341.4 2285.78,1342.7 2287.87,1344 2289.96,1345.3 2292.05,1346.59 2294.15,1347.89 2296.24,1349.19 2298.33,1350.49 2300.43,1351.79 2302.52,1353.09 2304.61,1354.38 2306.71,1355.68 2308.8,1356.98 2310.89,1358.28 2312.99,1359.58 2315.08,1360.87 2317.17,1362.17 2319.27,1363.47 2321.36,1364.77 2323.45,1366.07 2325.54,1367.36 2327.64,1368.66 2329.73,1369.96 2331.82,1371.26 2333.92,1372.56 2336.01,1373.85 2338.1,1375.15 2340.2,1376.45 2342.29,1377.75 2344.38,1379.05 2346.48,1380.34 2348.57,1381.64 2350.66,1382.94 2352.76,1384.24 "/>
<path clip-path="url(#clip190)" d="M2051.35 196.789 L2282.98 196.789 L2282.98 93.1086 L2051.35 93.1086  Z" fill="#ffffff" fill-rule="evenodd" fill-opacity="1"/>
<polyline clip-path="url(#clip190)" style="stroke:#000000; stroke-linecap:round; stroke-linejoin:round; stroke-width:4; stroke-opacity:1; fill:none" points="2051.35,196.789 2282.98,196.789 2282.98,93.1086 2051.35,93.1086 2051.35,196.789 "/>
<polyline clip-path="url(#clip190)" style="stroke:#009af9; stroke-linecap:round; stroke-linejoin:round; stroke-width:4; stroke-opacity:1; fill:none" points="2074.61,144.949 2214.16,144.949 "/>
<path clip-path="url(#clip190)" d="M2242.09 131.511 L2242.09 144.497 L2247.97 144.497 Q2251.23 144.497 2253.01 142.807 Q2254.8 141.118 2254.8 137.993 Q2254.8 134.891 2253.01 133.201 Q2251.23 131.511 2247.97 131.511 L2242.09 131.511 M2237.41 127.669 L2247.97 127.669 Q2253.78 127.669 2256.74 130.307 Q2259.73 132.923 2259.73 137.993 Q2259.73 143.108 2256.74 145.724 Q2253.78 148.34 2247.97 148.34 L2242.09 148.34 L2242.09 162.229 L2237.41 162.229 L2237.41 127.669 Z" fill="#000000" fill-rule="nonzero" fill-opacity="1" /></svg>
