<?xml version="1.0" encoding="utf-8"?>
<svg xmlns="http://www.w3.org/2000/svg" xmlns:xlink="http://www.w3.org/1999/xlink" width="600" height="400" viewBox="0 0 2400 1600">
<defs>
  <clipPath id="clip180">
    <rect x="0" y="0" width="2400" height="1600"/>
  </clipPath>
</defs>
<path clip-path="url(#clip180)" d="M0 1600 L2400 1600 L2400 0 L0 0  Z" fill="#ffffff" fill-rule="evenodd" fill-opacity="1"/>
<defs>
  <clipPath id="clip181">
    <rect x="480" y="0" width="1681" height="1600"/>
  </clipPath>
</defs>
<path clip-path="url(#clip180)" d="M170.857 1423.18 L2352.76 1423.18 L2352.76 47.2441 L170.857 47.2441  Z" fill="#ffffff" fill-rule="evenodd" fill-opacity="1"/>
<defs>
  <clipPath id="clip182">
    <rect x="170" y="47" width="2183" height="1377"/>
  </clipPath>
</defs>
<polyline clip-path="url(#clip182)" style="stroke:#000000; stroke-linecap:round; stroke-linejoin:round; stroke-width:2; stroke-opacity:0.1; fill:none" points="170.857,1423.18 170.857,47.2441 "/>
<polyline clip-path="url(#clip182)" style="stroke:#000000; stroke-linecap:round; stroke-linejoin:round; stroke-width:2; stroke-opacity:0.1; fill:none" points="703.028,1423.18 703.028,47.2441 "/>
<polyline clip-path="url(#clip182)" style="stroke:#000000; stroke-linecap:round; stroke-linejoin:round; stroke-width:2; stroke-opacity:0.1; fill:none" points="1235.2,1423.18 1235.2,47.2441 "/>
<polyline clip-path="url(#clip182)" style="stroke:#000000; stroke-linecap:round; stroke-linejoin:round; stroke-width:2; stroke-opacity:0.1; fill:none" points="1767.37,1423.18 1767.37,47.2441 "/>
<polyline clip-path="url(#clip182)" style="stroke:#000000; stroke-linecap:round; stroke-linejoin:round; stroke-width:2; stroke-opacity:0.1; fill:none" points="2299.54,1423.18 2299.54,47.2441 "/>
<polyline clip-path="url(#clip182)" style="stroke:#000000; stroke-linecap:round; stroke-linejoin:round; stroke-width:2; stroke-opacity:0.1; fill:none" points="170.857,1384.24 2352.76,1384.24 "/>
<polyline clip-path="url(#clip182)" style="stroke:#000000; stroke-linecap:round; stroke-linejoin:round; stroke-width:2; stroke-opacity:0.1; fill:none" points="170.857,1059.73 2352.76,1059.73 "/>
<polyline clip-path="url(#clip182)" style="stroke:#000000; stroke-linecap:round; stroke-linejoin:round; stroke-width:2; stroke-opacity:0.1; fill:none" points="170.857,735.212 2352.76,735.212 "/>
<polyline clip-path="url(#clip182)" style="stroke:#000000; stroke-linecap:round; stroke-linejoin:round; stroke-width:2; stroke-opacity:0.1; fill:none" points="170.857,410.699 2352.76,410.699 "/>
<polyline clip-path="url(#clip182)" style="stroke:#000000; stroke-linecap:round; stroke-linejoin:round; stroke-width:2; stroke-opacity:0.1; fill:none" points="170.857,86.1857 2352.76,86.1857 "/>
<polyline clip-path="url(#clip180)" style="stroke:#000000; stroke-linecap:round; stroke-linejoin:round; stroke-width:4; stroke-opacity:1; fill:none" points="170.857,1423.18 2352.76,1423.18 "/>
<polyline clip-path="url(#clip180)" style="stroke:#000000; stroke-linecap:round; stroke-linejoin:round; stroke-width:4; stroke-opacity:1; fill:none" points="170.857,1423.18 170.857,1404.28 "/>
<polyline clip-path="url(#clip180)" style="stroke:#000000; stroke-linecap:round; stroke-linejoin:round; stroke-width:4; stroke-opacity:1; fill:none" points="703.028,1423.18 703.028,1404.28 "/>
<polyline clip-path="url(#clip180)" style="stroke:#000000; stroke-linecap:round; stroke-linejoin:round; stroke-width:4; stroke-opacity:1; fill:none" points="1235.2,1423.18 1235.2,1404.28 "/>
<polyline clip-path="url(#clip180)" style="stroke:#000000; stroke-linecap:round; stroke-linejoin:round; stroke-width:4; stroke-opacity:1; fill:none" points="1767.37,1423.18 1767.37,1404.28 "/>
<polyline clip-path="url(#clip180)" style="stroke:#000000; stroke-linecap:round; stroke-linejoin:round; stroke-width:4; stroke-opacity:1; fill:none" points="2299.54,1423.18 2299.54,1404.28 "/>
<path clip-path="url(#clip180)" d="M170.857 1454.1 Q167.246 1454.1 165.418 1457.66 Q163.612 1461.2 163.612 1468.33 Q163.612 1475.44 165.418 1479.01 Q167.246 1482.55 170.857 1482.55 Q174.492 1482.55 176.297 1479.01 Q178.126 1475.44 178.126 1468.33 Q178.126 1461.2 176.297 1457.66 Q174.492 1454.1 170.857 1454.1 M170.857 1450.39 Q176.668 1450.39 179.723 1455 Q182.802 1459.58 182.802 1468.33 Q182.802 1477.06 179.723 1481.67 Q176.668 1486.25 170.857 1486.25 Q165.047 1486.25 161.969 1481.67 Q158.913 1477.06 158.913 1468.33 Q158.913 1459.58 161.969 1455 Q165.047 1450.39 170.857 1450.39 Z" fill="#000000" fill-rule="nonzero" fill-opacity="1" /><path clip-path="url(#clip180)" d="M677.715 1481.64 L685.354 1481.64 L685.354 1455.28 L677.044 1456.95 L677.044 1452.69 L685.308 1451.02 L689.984 1451.02 L689.984 1481.64 L697.623 1481.64 L697.623 1485.58 L677.715 1485.58 L677.715 1481.64 Z" fill="#000000" fill-rule="nonzero" fill-opacity="1" /><path clip-path="url(#clip180)" d="M717.067 1454.1 Q713.456 1454.1 711.627 1457.66 Q709.822 1461.2 709.822 1468.33 Q709.822 1475.44 711.627 1479.01 Q713.456 1482.55 717.067 1482.55 Q720.701 1482.55 722.507 1479.01 Q724.336 1475.44 724.336 1468.33 Q724.336 1461.2 722.507 1457.66 Q720.701 1454.1 717.067 1454.1 M717.067 1450.39 Q722.877 1450.39 725.933 1455 Q729.011 1459.58 729.011 1468.33 Q729.011 1477.06 725.933 1481.67 Q722.877 1486.25 717.067 1486.25 Q711.257 1486.25 708.178 1481.67 Q705.123 1477.06 705.123 1468.33 Q705.123 1459.58 708.178 1455 Q711.257 1450.39 717.067 1450.39 Z" fill="#000000" fill-rule="nonzero" fill-opacity="1" /><path clip-path="url(#clip180)" d="M1213.97 1481.64 L1230.29 1481.64 L1230.29 1485.58 L1208.35 1485.58 L1208.35 1481.64 Q1211.01 1478.89 1215.59 1474.26 Q1220.2 1469.61 1221.38 1468.27 Q1223.62 1465.74 1224.5 1464.01 Q1225.41 1462.25 1225.41 1460.56 Q1225.41 1457.8 1223.46 1456.07 Q1221.54 1454.33 1218.44 1454.33 Q1216.24 1454.33 1213.79 1455.09 Q1211.36 1455.86 1208.58 1457.41 L1208.58 1452.69 Q1211.4 1451.55 1213.86 1450.97 Q1216.31 1450.39 1218.35 1450.39 Q1223.72 1450.39 1226.91 1453.08 Q1230.11 1455.77 1230.11 1460.26 Q1230.11 1462.39 1229.3 1464.31 Q1228.51 1466.2 1226.4 1468.8 Q1225.82 1469.47 1222.72 1472.69 Q1219.62 1475.88 1213.97 1481.64 Z" fill="#000000" fill-rule="nonzero" fill-opacity="1" /><path clip-path="url(#clip180)" d="M1250.11 1454.1 Q1246.49 1454.1 1244.67 1457.66 Q1242.86 1461.2 1242.86 1468.33 Q1242.86 1475.44 1244.67 1479.01 Q1246.49 1482.55 1250.11 1482.55 Q1253.74 1482.55 1255.55 1479.01 Q1257.37 1475.44 1257.37 1468.33 Q1257.37 1461.2 1255.55 1457.66 Q1253.74 1454.1 1250.11 1454.1 M1250.11 1450.39 Q1255.92 1450.39 1258.97 1455 Q1262.05 1459.58 1262.05 1468.33 Q1262.05 1477.06 1258.97 1481.67 Q1255.92 1486.25 1250.11 1486.25 Q1244.3 1486.25 1241.22 1481.67 Q1238.16 1477.06 1238.16 1468.33 Q1238.16 1459.58 1241.22 1455 Q1244.3 1450.39 1250.11 1450.39 Z" fill="#000000" fill-rule="nonzero" fill-opacity="1" /><path clip-path="url(#clip180)" d="M1756.21 1466.95 Q1759.57 1467.66 1761.44 1469.93 Q1763.34 1472.2 1763.34 1475.53 Q1763.34 1480.65 1759.82 1483.45 Q1756.3 1486.25 1749.82 1486.25 Q1747.65 1486.25 1745.33 1485.81 Q1743.04 1485.39 1740.59 1484.54 L1740.59 1480.02 Q1742.53 1481.16 1744.85 1481.74 Q1747.16 1482.32 1749.68 1482.32 Q1754.08 1482.32 1756.37 1480.58 Q1758.69 1478.84 1758.69 1475.53 Q1758.69 1472.48 1756.54 1470.77 Q1754.41 1469.03 1750.59 1469.03 L1746.56 1469.03 L1746.56 1465.19 L1750.77 1465.19 Q1754.22 1465.19 1756.05 1463.82 Q1757.88 1462.43 1757.88 1459.84 Q1757.88 1457.18 1755.98 1455.77 Q1754.1 1454.33 1750.59 1454.33 Q1748.66 1454.33 1746.47 1454.75 Q1744.27 1455.16 1741.63 1456.04 L1741.63 1451.88 Q1744.29 1451.14 1746.6 1450.77 Q1748.94 1450.39 1751 1450.39 Q1756.33 1450.39 1759.43 1452.83 Q1762.53 1455.23 1762.53 1459.35 Q1762.53 1462.22 1760.89 1464.21 Q1759.24 1466.18 1756.21 1466.95 Z" fill="#000000" fill-rule="nonzero" fill-opacity="1" /><path clip-path="url(#clip180)" d="M1782.21 1454.1 Q1778.6 1454.1 1776.77 1457.66 Q1774.96 1461.2 1774.96 1468.33 Q1774.96 1475.44 1776.77 1479.01 Q1778.6 1482.55 1782.21 1482.55 Q1785.84 1482.55 1787.65 1479.01 Q1789.47 1475.44 1789.47 1468.33 Q1789.47 1461.2 1787.65 1457.66 Q1785.84 1454.1 1782.21 1454.1 M1782.21 1450.39 Q1788.02 1450.39 1791.07 1455 Q1794.15 1459.58 1794.15 1468.33 Q1794.15 1477.06 1791.07 1481.67 Q1788.02 1486.25 1782.21 1486.25 Q1776.4 1486.25 1773.32 1481.67 Q1770.26 1477.06 1770.26 1468.33 Q1770.26 1459.58 1773.32 1455 Q1776.4 1450.39 1782.21 1450.39 Z" fill="#000000" fill-rule="nonzero" fill-opacity="1" /><path clip-path="url(#clip180)" d="M2287.71 1455.09 L2275.9 1473.54 L2287.71 1473.54 L2287.71 1455.09 M2286.48 1451.02 L2292.36 1451.02 L2292.36 1473.54 L2297.29 1473.54 L2297.29 1477.43 L2292.36 1477.43 L2292.36 1485.58 L2287.71 1485.58 L2287.71 1477.43 L2272.11 1477.43 L2272.11 1472.92 L2286.48 1451.02 Z" fill="#000000" fill-rule="nonzero" fill-opacity="1" /><path clip-path="url(#clip180)" d="M2315.02 1454.1 Q2311.41 1454.1 2309.59 1457.66 Q2307.78 1461.2 2307.78 1468.33 Q2307.78 1475.44 2309.59 1479.01 Q2311.41 1482.55 2315.02 1482.55 Q2318.66 1482.55 2320.46 1479.01 Q2322.29 1475.44 2322.29 1468.33 Q2322.29 1461.2 2320.46 1457.66 Q2318.66 1454.1 2315.02 1454.1 M2315.02 1450.39 Q2320.84 1450.39 2323.89 1455 Q2326.97 1459.58 2326.97 1468.33 Q2326.97 1477.06 2323.89 1481.67 Q2320.84 1486.25 2315.02 1486.25 Q2309.21 1486.25 2306.14 1481.67 Q2303.08 1477.06 2303.08 1468.33 Q2303.08 1459.58 2306.14 1455 Q2309.21 1450.39 2315.02 1450.39 Z" fill="#000000" fill-rule="nonzero" fill-opacity="1" /><path clip-path="url(#clip180)" d="M1260.87 1522.27 L1260.87 1532.4 L1272.93 1532.4 L1272.93 1536.95 L1260.87 1536.95 L1260.87 1556.3 Q1260.87 1560.66 1262.05 1561.9 Q1263.25 1563.14 1266.92 1563.14 L1272.93 1563.14 L1272.93 1568.04 L1266.92 1568.04 Q1260.14 1568.04 1257.56 1565.53 Q1254.98 1562.98 1254.98 1556.3 L1254.98 1536.95 L1250.68 1536.95 L1250.68 1532.4 L1254.98 1532.4 L1254.98 1522.27 L1260.87 1522.27 Z" fill="#000000" fill-rule="nonzero" fill-opacity="1" /><polyline clip-path="url(#clip180)" style="stroke:#000000; stroke-linecap:round; stroke-linejoin:round; stroke-width:4; stroke-opacity:1; fill:none" points="170.857,1423.18 170.857,47.2441 "/>
<polyline clip-path="url(#clip180)" style="stroke:#000000; stroke-linecap:round; stroke-linejoin:round; stroke-width:4; stroke-opacity:1; fill:none" points="170.857,1384.24 189.755,1384.24 "/>
<polyline clip-path="url(#clip180)" style="stroke:#000000; stroke-linecap:round; stroke-linejoin:round; stroke-width:4; stroke-opacity:1; fill:none" points="170.857,1059.73 189.755,1059.73 "/>
<polyline clip-path="url(#clip180)" style="stroke:#000000; stroke-linecap:round; stroke-linejoin:round; stroke-width:4; stroke-opacity:1; fill:none" points="170.857,735.212 189.755,735.212 "/>
<polyline clip-path="url(#clip180)" style="stroke:#000000; stroke-linecap:round; stroke-linejoin:round; stroke-width:4; stroke-opacity:1; fill:none" points="170.857,410.699 189.755,410.699 "/>
<polyline clip-path="url(#clip180)" style="stroke:#000000; stroke-linecap:round; stroke-linejoin:round; stroke-width:4; stroke-opacity:1; fill:none" points="170.857,86.1857 189.755,86.1857 "/>
<path clip-path="url(#clip180)" d="M82.7975 1366.96 L101.154 1366.96 L101.154 1370.89 L87.0799 1370.89 L87.0799 1379.37 Q88.0984 1379.02 89.1169 1378.86 Q90.1354 1378.67 91.1539 1378.67 Q96.941 1378.67 100.321 1381.84 Q103.7 1385.01 103.7 1390.43 Q103.7 1396.01 100.228 1399.11 Q96.7558 1402.19 90.4364 1402.19 Q88.2604 1402.19 85.9919 1401.82 Q83.7466 1401.45 81.3392 1400.71 L81.3392 1396.01 Q83.4225 1397.14 85.6447 1397.7 Q87.8669 1398.25 90.3438 1398.25 Q94.3484 1398.25 96.6863 1396.15 Q99.0243 1394.04 99.0243 1390.43 Q99.0243 1386.82 96.6863 1384.71 Q94.3484 1382.61 90.3438 1382.61 Q88.4688 1382.61 86.5938 1383.02 Q84.7419 1383.44 82.7975 1384.32 L82.7975 1366.96 Z" fill="#000000" fill-rule="nonzero" fill-opacity="1" /><path clip-path="url(#clip180)" d="M122.913 1370.04 Q119.302 1370.04 117.473 1373.6 Q115.668 1377.14 115.668 1384.27 Q115.668 1391.38 117.473 1394.94 Q119.302 1398.49 122.913 1398.49 Q126.547 1398.49 128.353 1394.94 Q130.182 1391.38 130.182 1384.27 Q130.182 1377.14 128.353 1373.6 Q126.547 1370.04 122.913 1370.04 M122.913 1366.33 Q128.723 1366.33 131.779 1370.94 Q134.857 1375.52 134.857 1384.27 Q134.857 1393 131.779 1397.61 Q128.723 1402.19 122.913 1402.19 Q117.103 1402.19 114.024 1397.61 Q110.969 1393 110.969 1384.27 Q110.969 1375.52 114.024 1370.94 Q117.103 1366.33 122.913 1366.33 Z" fill="#000000" fill-rule="nonzero" fill-opacity="1" /><path clip-path="url(#clip180)" d="M53.3995 1073.07 L61.0384 1073.07 L61.0384 1046.7 L52.7282 1048.37 L52.7282 1044.11 L60.9921 1042.45 L65.668 1042.45 L65.668 1073.07 L73.3068 1073.07 L73.3068 1077.01 L53.3995 1077.01 L53.3995 1073.07 Z" fill="#000000" fill-rule="nonzero" fill-opacity="1" /><path clip-path="url(#clip180)" d="M92.7512 1045.52 Q89.1401 1045.52 87.3114 1049.09 Q85.5058 1052.63 85.5058 1059.76 Q85.5058 1066.87 87.3114 1070.43 Q89.1401 1073.97 92.7512 1073.97 Q96.3854 1073.97 98.1909 1070.43 Q100.02 1066.87 100.02 1059.76 Q100.02 1052.63 98.1909 1049.09 Q96.3854 1045.52 92.7512 1045.52 M92.7512 1041.82 Q98.5613 1041.82 101.617 1046.43 Q104.696 1051.01 104.696 1059.76 Q104.696 1068.49 101.617 1073.09 Q98.5613 1077.68 92.7512 1077.68 Q86.941 1077.68 83.8623 1073.09 Q80.8068 1068.49 80.8068 1059.76 Q80.8068 1051.01 83.8623 1046.43 Q86.941 1041.82 92.7512 1041.82 Z" fill="#000000" fill-rule="nonzero" fill-opacity="1" /><path clip-path="url(#clip180)" d="M122.913 1045.52 Q119.302 1045.52 117.473 1049.09 Q115.668 1052.63 115.668 1059.76 Q115.668 1066.87 117.473 1070.43 Q119.302 1073.97 122.913 1073.97 Q126.547 1073.97 128.353 1070.43 Q130.182 1066.87 130.182 1059.76 Q130.182 1052.63 128.353 1049.09 Q126.547 1045.52 122.913 1045.52 M122.913 1041.82 Q128.723 1041.82 131.779 1046.43 Q134.857 1051.01 134.857 1059.76 Q134.857 1068.49 131.779 1073.09 Q128.723 1077.68 122.913 1077.68 Q117.103 1077.68 114.024 1073.09 Q110.969 1068.49 110.969 1059.76 Q110.969 1051.01 114.024 1046.43 Q117.103 1041.82 122.913 1041.82 Z" fill="#000000" fill-rule="nonzero" fill-opacity="1" /><path clip-path="url(#clip180)" d="M53.3995 748.557 L61.0384 748.557 L61.0384 722.191 L52.7282 723.858 L52.7282 719.599 L60.9921 717.932 L65.668 717.932 L65.668 748.557 L73.3068 748.557 L73.3068 752.492 L53.3995 752.492 L53.3995 748.557 Z" fill="#000000" fill-rule="nonzero" fill-opacity="1" /><path clip-path="url(#clip180)" d="M82.7975 717.932 L101.154 717.932 L101.154 721.867 L87.0799 721.867 L87.0799 730.339 Q88.0984 729.992 89.1169 729.83 Q90.1354 729.645 91.1539 729.645 Q96.941 729.645 100.321 732.816 Q103.7 735.987 103.7 741.404 Q103.7 746.983 100.228 750.085 Q96.7558 753.163 90.4364 753.163 Q88.2604 753.163 85.9919 752.793 Q83.7466 752.423 81.3392 751.682 L81.3392 746.983 Q83.4225 748.117 85.6447 748.673 Q87.8669 749.228 90.3438 749.228 Q94.3484 749.228 96.6863 747.122 Q99.0243 745.015 99.0243 741.404 Q99.0243 737.793 96.6863 735.687 Q94.3484 733.58 90.3438 733.58 Q88.4688 733.58 86.5938 733.997 Q84.7419 734.413 82.7975 735.293 L82.7975 717.932 Z" fill="#000000" fill-rule="nonzero" fill-opacity="1" /><path clip-path="url(#clip180)" d="M122.913 721.011 Q119.302 721.011 117.473 724.575 Q115.668 728.117 115.668 735.247 Q115.668 742.353 117.473 745.918 Q119.302 749.46 122.913 749.46 Q126.547 749.46 128.353 745.918 Q130.182 742.353 130.182 735.247 Q130.182 728.117 128.353 724.575 Q126.547 721.011 122.913 721.011 M122.913 717.307 Q128.723 717.307 131.779 721.913 Q134.857 726.497 134.857 735.247 Q134.857 743.973 131.779 748.58 Q128.723 753.163 122.913 753.163 Q117.103 753.163 114.024 748.58 Q110.969 743.973 110.969 735.247 Q110.969 726.497 114.024 721.913 Q117.103 717.307 122.913 717.307 Z" fill="#000000" fill-rule="nonzero" fill-opacity="1" /><path clip-path="url(#clip180)" d="M56.6171 424.044 L72.9365 424.044 L72.9365 427.979 L50.9921 427.979 L50.9921 424.044 Q53.6541 421.289 58.2375 416.659 Q62.8439 412.007 64.0245 410.664 Q66.2698 408.141 67.1494 406.405 Q68.0522 404.646 68.0522 402.956 Q68.0522 400.201 66.1078 398.465 Q64.1865 396.729 61.0847 396.729 Q58.8856 396.729 56.4319 397.493 Q54.0014 398.257 51.2236 399.808 L51.2236 395.085 Q54.0477 393.951 56.5014 393.373 Q58.955 392.794 60.9921 392.794 Q66.3624 392.794 69.5568 395.479 Q72.7513 398.164 72.7513 402.655 Q72.7513 404.785 71.9411 406.706 Q71.1541 408.604 69.0476 411.197 Q68.4689 411.868 65.367 415.085 Q62.2652 418.28 56.6171 424.044 Z" fill="#000000" fill-rule="nonzero" fill-opacity="1" /><path clip-path="url(#clip180)" d="M92.7512 396.498 Q89.1401 396.498 87.3114 400.062 Q85.5058 403.604 85.5058 410.734 Q85.5058 417.84 87.3114 421.405 Q89.1401 424.946 92.7512 424.946 Q96.3854 424.946 98.1909 421.405 Q100.02 417.84 100.02 410.734 Q100.02 403.604 98.1909 400.062 Q96.3854 396.498 92.7512 396.498 M92.7512 392.794 Q98.5613 392.794 101.617 397.4 Q104.696 401.984 104.696 410.734 Q104.696 419.46 101.617 424.067 Q98.5613 428.65 92.7512 428.65 Q86.941 428.65 83.8623 424.067 Q80.8068 419.46 80.8068 410.734 Q80.8068 401.984 83.8623 397.4 Q86.941 392.794 92.7512 392.794 Z" fill="#000000" fill-rule="nonzero" fill-opacity="1" /><path clip-path="url(#clip180)" d="M122.913 396.498 Q119.302 396.498 117.473 400.062 Q115.668 403.604 115.668 410.734 Q115.668 417.84 117.473 421.405 Q119.302 424.946 122.913 424.946 Q126.547 424.946 128.353 421.405 Q130.182 417.84 130.182 410.734 Q130.182 403.604 128.353 400.062 Q126.547 396.498 122.913 396.498 M122.913 392.794 Q128.723 392.794 131.779 397.4 Q134.857 401.984 134.857 410.734 Q134.857 419.46 131.779 424.067 Q128.723 428.65 122.913 428.65 Q117.103 428.65 114.024 424.067 Q110.969 419.46 110.969 410.734 Q110.969 401.984 114.024 397.4 Q117.103 392.794 122.913 392.794 Z" fill="#000000" fill-rule="nonzero" fill-opacity="1" /><path clip-path="url(#clip180)" d="M56.6171 99.5305 L72.9365 99.5305 L72.9365 103.466 L50.9921 103.466 L50.9921 99.5305 Q53.6541 96.7759 58.2375 92.1463 Q62.8439 87.4935 64.0245 86.151 Q66.2698 83.6278 67.1494 81.8917 Q68.0522 80.1325 68.0522 78.4427 Q68.0522 75.688 66.1078 73.9519 Q64.1865 72.2158 61.0847 72.2158 Q58.8856 72.2158 56.4319 72.9797 Q54.0014 73.7436 51.2236 75.2945 L51.2236 70.5723 Q54.0477 69.4381 56.5014 68.8594 Q58.955 68.2807 60.9921 68.2807 Q66.3624 68.2807 69.5568 70.9658 Q72.7513 73.651 72.7513 78.1417 Q72.7513 80.2714 71.9411 82.1926 Q71.1541 84.0908 69.0476 86.6834 Q68.4689 87.3546 65.367 90.5722 Q62.2652 93.7667 56.6171 99.5305 Z" fill="#000000" fill-rule="nonzero" fill-opacity="1" /><path clip-path="url(#clip180)" d="M82.7975 68.9057 L101.154 68.9057 L101.154 72.8408 L87.0799 72.8408 L87.0799 81.313 Q88.0984 80.9658 89.1169 80.8038 Q90.1354 80.6186 91.1539 80.6186 Q96.941 80.6186 100.321 83.7899 Q103.7 86.9611 103.7 92.3778 Q103.7 97.9564 100.228 101.058 Q96.7558 104.137 90.4364 104.137 Q88.2604 104.137 85.9919 103.767 Q83.7466 103.396 81.3392 102.655 L81.3392 97.9564 Q83.4225 99.0907 85.6447 99.6462 Q87.8669 100.202 90.3438 100.202 Q94.3484 100.202 96.6863 98.0953 Q99.0243 95.9889 99.0243 92.3778 Q99.0243 88.7667 96.6863 86.6602 Q94.3484 84.5537 90.3438 84.5537 Q88.4688 84.5537 86.5938 84.9704 Q84.7419 85.3871 82.7975 86.2667 L82.7975 68.9057 Z" fill="#000000" fill-rule="nonzero" fill-opacity="1" /><path clip-path="url(#clip180)" d="M122.913 71.9844 Q119.302 71.9844 117.473 75.5492 Q115.668 79.0908 115.668 86.2204 Q115.668 93.3268 117.473 96.8916 Q119.302 100.433 122.913 100.433 Q126.547 100.433 128.353 96.8916 Q130.182 93.3268 130.182 86.2204 Q130.182 79.0908 128.353 75.5492 Q126.547 71.9844 122.913 71.9844 M122.913 68.2807 Q128.723 68.2807 131.779 72.8871 Q134.857 77.4704 134.857 86.2204 Q134.857 94.9472 131.779 99.5537 Q128.723 104.137 122.913 104.137 Q117.103 104.137 114.024 99.5537 Q110.969 94.9472 110.969 86.2204 Q110.969 77.4704 114.024 72.8871 Q117.103 68.2807 122.913 68.2807 Z" fill="#000000" fill-rule="nonzero" fill-opacity="1" /><polyline clip-path="url(#clip182)" style="stroke:#009af9; stroke-linecap:round; stroke-linejoin:round; stroke-width:4; stroke-opacity:1; fill:none" points="170.857,1059.73 173.039,1059.73 175.221,1059.73 177.403,1059.73 179.585,1059.73 181.767,1059.73 183.949,1059.73 186.131,1059.73 188.313,1059.73 190.495,1059.73 192.676,1059.73 194.858,1059.73 197.04,1059.73 199.222,1059.73 201.404,1059.73 203.586,1059.73 205.768,1059.73 207.95,1059.73 210.132,1059.73 212.313,1059.73 214.495,1059.73 216.677,1059.73 218.859,1059.73 221.041,1059.73 223.223,1059.73 225.405,1059.73 227.587,1059.73 229.769,1059.73 231.951,1059.73 234.132,1059.73 236.314,1059.73 238.496,1059.73 240.678,1059.73 242.86,1059.73 245.042,1059.73 247.224,1059.73 249.406,1059.73 251.588,1059.73 253.77,1059.73 255.951,1059.73 258.133,1059.73 260.315,1059.73 262.497,1059.73 264.679,1059.73 266.861,1059.73 269.043,1059.73 271.225,1059.73 273.407,1059.73 275.589,1059.73 277.77,1059.73 279.952,1059.73 282.134,1059.73 284.316,1059.73 286.498,1059.73 288.68,1059.73 290.862,1059.73 293.044,1059.73 295.226,1059.73 297.408,1059.73 299.589,1059.73 301.771,1059.73 303.9,1059.73 303.953,1059.73 306.135,1059.67 308.317,1059.5 310.499,1059.23 312.681,1058.84 314.863,1058.35 317.045,1057.75 319.227,1057.03 321.408,1056.21 323.59,1055.28 325.772,1054.24 327.954,1053.1 330.136,1051.84 332.318,1050.47 334.5,1049 336.682,1047.41 338.864,1045.72 341.045,1043.91 343.227,1042 345.409,1039.98 347.591,1037.85 349.773,1035.61 351.955,1033.26 354.137,1030.81 356.319,1028.24 357.117,1027.27 358.501,1025.59 360.683,1022.93 362.864,1020.26 365.046,1017.6 367.228,1014.94 369.41,1012.28 371.592,1009.62 373.774,1006.96 375.956,1004.3 378.138,1001.64 380.32,998.976 382.502,996.315 384.683,993.654 386.865,990.993 389.047,988.332 391.229,985.671 393.411,983.01 395.593,980.349 397.775,977.688 399.957,975.027 402.139,972.366 404.321,969.705 406.502,967.044 408.684,964.383 410.866,961.722 413.048,959.061 415.23,956.4 417.412,953.739 419.594,951.078 421.776,948.417 423.958,945.756 426.14,943.095 428.321,940.434 430.503,937.773 432.685,935.112 434.867,932.451 437.049,929.79 439.231,927.129 441.413,924.468 443.595,921.807 445.777,919.146 447.959,916.485 450.14,913.824 452.322,911.163 454.504,908.502 456.686,905.841 458.868,903.18 461.05,900.519 463.232,897.858 465.414,895.197 467.596,892.536 469.778,889.875 471.959,887.214 474.141,884.553 476.323,881.892 478.505,879.231 480.687,876.57 482.869,873.909 485.051,871.248 487.233,868.587 489.415,865.926 491.596,863.265 493.778,860.604 495.96,857.943 498.142,855.282 500.324,852.621 502.506,849.96 504.688,847.299 506.87,844.638 509.052,841.977 511.234,839.316 513.415,836.655 515.597,833.994 517.779,831.333 519.961,828.672 522.143,826.011 524.325,823.35 526.507,820.689 528.689,818.028 530.871,815.367 533.053,812.706 535.234,810.045 537.416,807.384 539.598,804.723 541.78,802.062 543.962,799.401 546.144,796.74 548.326,794.079 550.508,791.418 552.69,788.757 554.872,786.096 557.053,783.435 559.235,780.774 561.417,778.113 563.599,775.452 565.781,772.791 567.963,770.13 570.145,767.469 572.327,764.808 574.509,762.147 576.691,759.486 578.872,756.825 581.054,754.164 583.236,751.503 585.418,748.842 587.6,746.181 589.782,743.52 591.964,740.858 594.146,738.197 596.328,735.536 598.51,732.875 600.691,730.214 602.873,727.553 605.055,724.892 607.237,722.231 609.419,719.57 611.601,716.909 613.783,714.248 615.965,711.587 618.147,708.926 620.329,706.265 622.51,703.604 624.692,700.943 626.874,698.282 629.056,695.621 631.238,692.96 633.42,690.299 635.602,687.638 637.784,684.977 639.966,682.316 642.147,679.655 644.329,676.994 646.511,674.333 648.693,671.672 650.875,669.011 653.057,666.35 655.239,663.689 657.421,661.028 659.603,658.367 661.785,655.706 663.966,653.045 666.148,650.384 668.33,647.723 670.512,645.062 672.694,642.401 674.876,639.74 677.058,637.079 679.24,634.418 681.422,631.757 683.604,629.096 685.785,626.435 687.967,623.774 690.149,621.113 692.331,618.452 694.513,615.791 696.695,613.13 698.877,610.469 701.059,607.808 703.241,605.147 705.423,602.486 707.604,599.825 709.786,597.164 711.968,594.503 714.15,591.842 716.332,589.181 718.514,586.52 720.696,583.859 722.878,581.198 725.06,578.537 727.242,575.876 729.423,573.215 731.605,570.554 733.787,567.893 735.969,565.232 738.151,562.571 740.333,559.91 742.515,557.249 744.697,554.588 746.879,551.927 749.061,549.266 751.242,546.605 753.424,543.944 755.606,541.283 757.788,538.622 759.97,535.961 762.152,533.3 764.334,530.639 766.516,527.978 768.698,525.317 770.88,522.656 773.061,519.995 775.243,517.334 777.425,514.673 779.607,512.012 781.789,509.351 783.971,506.69 786.153,504.029 788.335,501.368 790.517,498.707 792.698,496.046 794.88,493.385 797.062,490.724 799.244,488.063 801.426,485.402 803.608,482.741 805.79,480.08 807.972,477.419 810.154,474.758 812.336,472.097 814.517,469.436 816.699,466.775 818.881,464.114 821.063,461.453 823.245,458.792 825.427,456.131 827.609,453.47 829.791,450.809 831.973,448.148 834.155,445.487 836.336,442.826 838.518,440.165 840.7,437.504 842.882,434.843 845.064,432.182 847.246,429.521 849.428,426.86 851.61,424.199 853.792,421.538 855.974,418.877 858.155,416.216 860.337,413.555 862.519,410.894 864.701,408.233 866.883,405.572 869.065,402.911 871.247,400.249 873.429,397.588 875.611,394.927 877.793,392.266 879.974,389.605 882.156,386.944 884.338,384.283 886.52,381.622 888.702,378.961 890.884,376.3 893.066,373.639 895.248,370.978 897.43,368.317 899.612,365.656 901.793,362.995 903.975,360.334 906.157,357.673 908.339,355.012 910.521,352.351 912.703,349.69 914.885,347.029 917.067,344.368 919.249,341.707 921.43,339.046 923.612,336.385 925.794,333.724 927.976,331.063 930.158,328.402 932.34,325.741 934.522,323.08 936.704,320.419 938.886,317.758 941.068,315.097 943.249,312.436 945.431,309.775 947.613,307.114 949.795,304.453 951.977,301.792 954.159,299.131 956.341,296.47 958.523,293.809 960.705,291.148 962.887,288.487 965.068,285.826 967.25,283.165 969.432,280.504 971.614,277.843 973.796,275.182 975.978,272.521 978.16,269.86 980.342,267.199 982.524,264.538 984.706,261.877 986.887,259.216 989.069,256.555 991.251,253.894 993.433,251.233 995.615,248.572 997.797,245.911 999.979,243.25 1002.16,240.589 1004.34,237.928 1006.52,235.267 1008.71,232.606 1010.89,229.945 1013.07,227.284 1015.25,224.623 1017.43,221.962 1019.62,219.301 1021.8,216.64 1023.98,213.979 1026.16,211.318 1028.34,208.657 1030.53,205.996 1032.71,203.335 1034.89,200.674 1037.07,198.013 1039.25,195.352 1041.43,192.691 1043.62,190.03 1045.8,187.369 1047.98,184.708 1050.16,182.047 1052.34,179.386 1054.53,176.725 1056.71,174.064 1058.89,171.403 1061.07,168.742 1063.25,166.081 1065.44,163.42 1067.62,160.759 1069.8,158.098 1071.98,155.437 1074.16,152.776 1076.35,150.115 1078.53,147.454 1080.71,144.793 1082.89,142.132 1085.07,139.471 1087.25,136.81 1089.44,134.149 1091.62,131.488 1093.8,128.827 1095.98,126.166 1098.16,123.505 1100.35,120.844 1102.16,118.637 1102.53,118.184 1104.71,115.596 1106.89,113.118 1109.07,110.748 1111.26,108.488 1113.44,106.336 1115.62,104.294 1117.8,102.361 1119.98,100.536 1122.17,98.8214 1124.35,97.2155 1126.53,95.7187 1128.71,94.331 1130.89,93.0524 1133.07,91.8829 1135.26,90.8224 1137.44,89.8711 1139.62,89.0289 1141.8,88.2958 1143.98,87.6718 1146.17,87.1569 1148.35,86.7511 1150.53,86.4544 1152.71,86.2668 1154.89,86.1883 1155.37,86.1857 1157.08,86.1857 1159.26,86.1857 1161.44,86.1857 1163.62,86.1857 1165.8,86.1857 1167.99,86.1857 1170.17,86.1857 1172.35,86.1857 1174.53,86.1857 1176.71,86.1857 1178.89,86.1857 1181.08,86.1857 1183.26,86.1857 1185.44,86.1857 1187.62,86.1857 1189.8,86.1857 1191.99,86.1857 1194.17,86.1857 1196.35,86.1857 1198.53,86.1857 1200.71,86.1857 1202.9,86.1857 1205.08,86.1857 1207.26,86.1857 1209.44,86.1857 1211.62,86.1857 1213.8,86.1857 1215.99,86.1857 1218.17,86.1857 1220.35,86.1857 1222.53,86.1857 1224.71,86.1857 1226.9,86.1857 1229.08,86.1857 1231.26,86.1857 1233.44,86.1857 1235.62,86.1857 1237.81,86.1857 1239.99,86.1857 1242.17,86.1857 1244.35,86.1857 1246.53,86.1857 1248.72,86.1857 1250.9,86.1857 1253.08,86.1857 1255.26,86.1857 1257.44,86.1857 1259.62,86.1857 1261.81,86.1857 1263.99,86.1857 1266.17,86.1857 1268.35,86.1857 1270.53,86.1857 1272.72,86.1857 1274.9,86.1857 1277.08,86.1857 1279.26,86.1857 1281.44,86.1857 1283.63,86.1857 1285.81,86.1857 1287.99,86.1857 1290.17,86.1857 1292.35,86.1857 1294.54,86.1857 1296.72,86.1857 1298.9,86.1857 1301.08,86.1857 1303.26,86.1857 1305.44,86.1857 1307.63,86.1857 1309.81,86.1857 1311.99,86.1857 1314.17,86.1857 1316.35,86.1857 1318.54,86.1857 1320.72,86.1857 1322.9,86.1857 1325.08,86.1857 1327.26,86.1857 1329.45,86.1857 1331.63,86.1857 1333.81,86.1857 1335.99,86.1857 1338.17,86.1857 1340.36,86.1857 1342.54,86.1857 1344.72,86.1857 1346.9,86.1857 1349.08,86.1857 1351.26,86.1857 1353.45,86.1857 1355.63,86.1857 1357.81,86.1857 1359.99,86.1857 1362.17,86.1857 1364.36,86.1857 1366.54,86.1857 1368.24,86.1857 1368.72,86.1922 1370.9,86.3885 1373.08,86.8575 1375.27,87.5993 1377.45,88.6138 1379.63,89.901 1381.81,91.461 1383.99,93.2938 1386.17,95.3993 1388.36,97.7776 1390.54,100.429 1392.72,103.352 1394.9,106.549 1397.08,110.018 1399.27,113.76 1401.45,117.775 1403.63,122.063 1405.81,126.623 1407.99,131.456 1410.18,136.562 1412.36,141.94 1414.54,147.592 1416.72,153.516 1418.9,159.713 1421.09,166.182 1421.46,167.314 1423.27,172.831 1425.45,179.483 1427.63,186.136 1429.81,192.788 1431.99,199.441 1434.18,206.093 1436.36,212.746 1438.54,219.398 1440.72,226.051 1442.9,232.703 1445.09,239.356 1447.27,246.008 1449.45,252.661 1451.63,259.313 1453.81,265.966 1456,272.618 1458.18,279.271 1460.36,285.924 1462.54,292.576 1464.72,299.229 1466.91,305.881 1469.09,312.534 1471.27,319.186 1473.45,325.839 1475.63,332.491 1477.81,339.144 1480,345.796 1482.18,352.449 1484.36,359.101 1486.54,365.754 1488.72,372.406 1490.91,379.059 1493.09,385.711 1495.27,392.364 1497.45,399.016 1499.63,405.669 1501.82,412.321 1504,418.974 1506.18,425.626 1508.36,432.279 1510.54,438.931 1512.72,445.584 1514.91,452.237 1517.09,458.889 1519.27,465.542 1521.45,472.194 1523.63,478.847 1525.82,485.499 1528,492.152 1530.18,498.804 1532.36,505.457 1534.54,512.109 1536.73,518.762 1538.91,525.414 1541.09,532.067 1543.27,538.719 1545.45,545.372 1547.64,552.024 1549.82,558.677 1552,565.329 1554.18,571.982 1556.36,578.634 1558.54,585.287 1560.73,591.939 1562.91,598.592 1565.09,605.244 1567.27,611.897 1569.45,618.549 1571.64,625.202 1573.82,631.855 1576,638.507 1578.18,645.16 1580.36,651.812 1582.55,658.465 1584.73,665.117 1586.91,671.77 1589.09,678.422 1591.27,685.075 1593.46,691.727 1595.64,698.38 1597.82,705.032 1600,711.685 1602.18,718.337 1604.36,724.99 1606.55,731.642 1608.73,738.295 1610.91,744.947 1613.09,751.6 1615.27,758.252 1617.46,764.905 1619.64,771.557 1621.82,778.21 1624,784.862 1626.18,791.515 1628.37,798.168 1630.55,804.82 1632.73,811.473 1634.91,818.125 1637.09,824.778 1639.28,831.43 1641.46,838.083 1643.64,844.735 1645.82,851.388 1648,858.04 1650.18,864.693 1652.37,871.345 1654.55,877.998 1656.73,884.65 1658.91,891.303 1661.09,897.955 1663.28,904.608 1665.46,911.26 1667.64,917.913 1669.82,924.565 1672,931.218 1674.19,937.87 1676.37,944.523 1678.55,951.175 1680.73,957.828 1682.91,964.481 1685.09,971.133 1687.28,977.786 1689.46,984.438 1691.64,991.091 1693.82,997.743 1696,1004.4 1698.19,1011.05 1700.37,1017.7 1702.55,1024.35 1704.73,1031.01 1706.91,1037.66 1709.1,1044.31 1711.28,1050.96 1713.46,1057.62 1715.64,1064.27 1717.82,1070.92 1720.01,1077.57 1722.19,1084.23 1724.37,1090.88 1726.55,1097.53 1728.73,1104.18 1730.91,1110.84 1733.1,1117.49 1735.28,1124.14 1737.46,1130.79 1739.64,1137.45 1741.82,1144.1 1744.01,1150.75 1746.19,1157.4 1748.37,1164.06 1750.55,1170.71 1752.73,1177.36 1754.92,1184.01 1757.1,1190.67 1759.28,1197.32 1761.46,1203.97 1763.64,1210.62 1765.83,1217.28 1768.01,1223.93 1770.19,1230.58 1772.37,1237.23 1774.55,1243.89 1776.73,1250.54 1778.92,1257.19 1781.1,1263.84 1783.28,1270.5 1785.46,1277.15 1787.64,1283.8 1789.83,1290.45 1792.01,1297.11 1793.98,1303.11 1794.19,1303.76 1796.37,1310.25 1798.55,1316.46 1800.74,1322.41 1802.92,1328.08 1805.1,1333.48 1807.28,1338.6 1809.46,1343.46 1811.65,1348.04 1813.83,1352.34 1816.01,1356.38 1818.19,1360.14 1820.37,1363.63 1822.55,1366.85 1824.74,1369.79 1826.92,1372.46 1829.1,1374.86 1831.28,1376.99 1833.46,1378.84 1835.65,1380.42 1837.83,1381.73 1840.01,1382.76 1842.19,1383.52 1844.37,1384.01 1846.56,1384.23 1847.19,1384.24 1848.74,1384.24 1850.92,1384.24 1853.1,1384.24 1855.28,1384.24 1857.46,1384.24 1859.65,1384.24 1861.83,1384.24 1864.01,1384.24 1866.19,1384.24 1868.37,1384.24 1870.56,1384.24 1872.74,1384.24 1874.92,1384.24 1877.1,1384.24 1879.28,1384.24 1881.47,1384.24 1883.65,1384.24 1885.83,1384.24 1888.01,1384.24 1890.19,1384.24 1892.38,1384.24 1894.56,1384.24 1896.74,1384.24 1898.92,1384.24 1901.1,1384.24 1903.28,1384.24 1905.47,1384.24 1907.65,1384.24 1909.83,1384.24 1912.01,1384.24 1914.19,1384.24 1916.38,1384.24 1918.56,1384.24 1920.74,1384.24 1922.92,1384.24 1925.1,1384.24 1927.29,1384.24 1929.47,1384.24 1931.65,1384.24 1933.83,1384.24 1936.01,1384.24 1938.2,1384.24 1940.38,1384.24 1942.56,1384.24 1944.74,1384.24 1946.92,1384.24 1949.1,1384.24 1951.29,1384.24 1953.47,1384.24 1955.65,1384.24 1957.83,1384.24 1960.01,1384.24 1962.2,1384.24 1964.38,1384.24 1966.56,1384.24 1968.74,1384.24 1970.92,1384.24 1973.11,1384.24 1975.29,1384.24 1977.47,1384.24 1979.65,1384.24 1981.83,1384.24 1984.02,1384.24 1986.2,1384.24 1988.38,1384.24 1990.56,1384.24 1992.74,1384.24 1994.92,1384.24 1997.11,1384.24 1999.29,1384.24 2001.47,1384.24 2003.65,1384.24 2005.83,1384.24 2008.02,1384.24 2010.2,1384.24 2012.38,1384.24 2014.56,1384.24 2016.74,1384.24 2018.93,1384.24 2021.11,1384.24 2023.29,1384.24 2025.47,1384.24 2027.65,1384.24 2029.83,1384.24 2032.02,1384.24 2034.2,1384.24 2036.38,1384.24 2038.56,1384.24 2040.74,1384.24 2042.93,1384.24 2045.11,1384.24 2047.29,1384.24 2049.47,1384.24 2051.65,1384.24 2053.84,1384.24 2056.02,1384.24 2058.2,1384.24 2060.38,1384.24 2062.56,1384.24 2064.75,1384.24 2066.93,1384.24 2069.11,1384.24 2071.29,1384.24 2073.47,1384.24 2075.65,1384.24 2077.84,1384.24 2080.02,1384.24 2082.2,1384.24 2084.38,1384.24 2086.56,1384.24 2088.75,1384.24 2090.93,1384.24 2093.11,1384.24 2095.29,1384.24 2097.47,1384.24 2099.66,1384.24 2101.84,1384.24 2104.02,1384.24 2106.2,1384.24 2108.38,1384.24 2110.57,1384.24 2112.75,1384.24 2114.93,1384.24 2117.11,1384.24 2119.29,1384.24 2121.47,1384.24 2123.66,1384.24 2125.84,1384.24 2128.02,1384.24 2130.2,1384.24 2132.38,1384.24 2134.57,1384.24 2136.75,1384.24 2138.93,1384.24 2141.11,1384.24 2143.29,1384.24 2145.48,1384.24 2147.66,1384.24 2149.84,1384.24 2152.02,1384.24 2154.2,1384.24 2156.39,1384.24 2158.57,1384.24 2160.75,1384.24 2162.93,1384.24 2165.11,1384.24 2167.29,1384.24 2169.48,1384.24 2171.66,1384.24 2173.84,1384.24 2176.02,1384.24 2178.2,1384.24 2180.39,1384.24 2182.57,1384.24 2184.75,1384.24 2186.93,1384.24 2189.11,1384.24 2191.3,1384.24 2193.48,1384.24 2195.66,1384.24 2197.84,1384.24 2200.02,1384.24 2202.2,1384.24 2204.39,1384.24 2206.57,1384.24 2208.75,1384.24 2210.93,1384.24 2213.11,1384.24 2215.3,1384.24 2217.48,1384.24 2219.66,1384.24 2221.84,1384.24 2224.02,1384.24 2226.21,1384.24 2228.39,1384.24 2230.57,1384.24 2232.75,1384.24 2234.93,1384.24 2237.12,1384.24 2239.3,1384.24 2241.48,1384.24 2243.66,1384.24 2245.84,1384.24 2248.02,1384.24 2250.21,1384.24 2252.39,1384.24 2254.57,1384.24 2256.75,1384.24 2258.93,1384.24 2261.12,1384.24 2263.3,1384.24 2265.48,1384.24 2267.66,1384.24 2269.84,1384.24 2272.03,1384.24 2274.21,1384.24 2276.39,1384.24 2278.57,1384.24 2280.75,1384.24 2282.94,1384.24 2285.12,1384.24 2287.3,1384.24 2289.48,1384.24 2291.66,1384.24 2293.84,1384.24 2296.03,1384.24 2298.21,1384.24 2300.39,1384.24 2302.57,1384.24 2304.75,1384.24 2306.94,1384.24 2309.12,1384.24 2311.3,1384.24 2313.48,1384.24 2315.66,1384.24 2317.85,1384.24 2320.03,1384.24 2322.21,1384.24 2324.39,1384.24 2326.57,1384.24 2328.76,1384.24 2330.94,1384.24 2333.12,1384.24 2335.3,1384.24 2337.48,1384.24 2339.66,1384.24 2341.85,1384.24 2344.03,1384.24 2346.21,1384.24 2348.39,1384.24 2350.57,1384.24 2352.76,1384.24 "/>
<path clip-path="url(#clip180)" d="M2034.41 196.789 L2280.03 196.789 L2280.03 93.1086 L2034.41 93.1086  Z" fill="#ffffff" fill-rule="evenodd" fill-opacity="1"/>
<polyline clip-path="url(#clip180)" style="stroke:#000000; stroke-linecap:round; stroke-linejoin:round; stroke-width:4; stroke-opacity:1; fill:none" points="2034.41,196.789 2280.03,196.789 2280.03,93.1086 2034.41,93.1086 2034.41,196.789 "/>
<polyline clip-path="url(#clip180)" style="stroke:#009af9; stroke-linecap:round; stroke-linejoin:round; stroke-width:4; stroke-opacity:1; fill:none" points="2058.65,144.949 2204.11,144.949 "/>
<path clip-path="url(#clip180)" d="M2228.35 127.669 L2233.03 127.669 L2233.03 142.275 L2248.54 127.669 L2254.56 127.669 L2237.4 143.78 L2255.78 162.229 L2249.63 162.229 L2233.03 145.585 L2233.03 162.229 L2228.35 162.229 L2228.35 127.669 Z" fill="#000000" fill-rule="nonzero" fill-opacity="1" /></svg>
