<?xml version="1.0" encoding="utf-8"?>
<svg xmlns="http://www.w3.org/2000/svg" xmlns:xlink="http://www.w3.org/1999/xlink" width="600" height="400" viewBox="0 0 2400 1600">
<defs>
  <clipPath id="clip830">
    <rect x="0" y="0" width="2400" height="1600"/>
  </clipPath>
</defs>
<path clip-path="url(#clip830)" d="M0 1600 L2400 1600 L2400 0 L0 0  Z" fill="#ffffff" fill-rule="evenodd" fill-opacity="1"/>
<defs>
  <clipPath id="clip831">
    <rect x="480" y="0" width="1681" height="1600"/>
  </clipPath>
</defs>
<path clip-path="url(#clip830)" d="M199.283 1423.18 L2352.76 1423.18 L2352.76 47.2441 L199.283 47.2441  Z" fill="#ffffff" fill-rule="evenodd" fill-opacity="1"/>
<defs>
  <clipPath id="clip832">
    <rect x="199" y="47" width="2154" height="1377"/>
  </clipPath>
</defs>
<polyline clip-path="url(#clip832)" style="stroke:#000000; stroke-linecap:round; stroke-linejoin:round; stroke-width:2; stroke-opacity:0.1; fill:none" points="199.283,1423.18 199.283,47.2441 "/>
<polyline clip-path="url(#clip832)" style="stroke:#000000; stroke-linecap:round; stroke-linejoin:round; stroke-width:2; stroke-opacity:0.1; fill:none" points="506.922,1423.18 506.922,47.2441 "/>
<polyline clip-path="url(#clip832)" style="stroke:#000000; stroke-linecap:round; stroke-linejoin:round; stroke-width:2; stroke-opacity:0.1; fill:none" points="814.561,1423.18 814.561,47.2441 "/>
<polyline clip-path="url(#clip832)" style="stroke:#000000; stroke-linecap:round; stroke-linejoin:round; stroke-width:2; stroke-opacity:0.1; fill:none" points="1122.2,1423.18 1122.2,47.2441 "/>
<polyline clip-path="url(#clip832)" style="stroke:#000000; stroke-linecap:round; stroke-linejoin:round; stroke-width:2; stroke-opacity:0.1; fill:none" points="1429.84,1423.18 1429.84,47.2441 "/>
<polyline clip-path="url(#clip832)" style="stroke:#000000; stroke-linecap:round; stroke-linejoin:round; stroke-width:2; stroke-opacity:0.1; fill:none" points="1737.48,1423.18 1737.48,47.2441 "/>
<polyline clip-path="url(#clip832)" style="stroke:#000000; stroke-linecap:round; stroke-linejoin:round; stroke-width:2; stroke-opacity:0.1; fill:none" points="2045.12,1423.18 2045.12,47.2441 "/>
<polyline clip-path="url(#clip832)" style="stroke:#000000; stroke-linecap:round; stroke-linejoin:round; stroke-width:2; stroke-opacity:0.1; fill:none" points="2352.76,1423.18 2352.76,47.2441 "/>
<polyline clip-path="url(#clip830)" style="stroke:#000000; stroke-linecap:round; stroke-linejoin:round; stroke-width:4; stroke-opacity:1; fill:none" points="199.283,1423.18 2352.76,1423.18 "/>
<polyline clip-path="url(#clip830)" style="stroke:#000000; stroke-linecap:round; stroke-linejoin:round; stroke-width:4; stroke-opacity:1; fill:none" points="199.283,1423.18 199.283,1404.28 "/>
<polyline clip-path="url(#clip830)" style="stroke:#000000; stroke-linecap:round; stroke-linejoin:round; stroke-width:4; stroke-opacity:1; fill:none" points="506.922,1423.18 506.922,1404.28 "/>
<polyline clip-path="url(#clip830)" style="stroke:#000000; stroke-linecap:round; stroke-linejoin:round; stroke-width:4; stroke-opacity:1; fill:none" points="814.561,1423.18 814.561,1404.28 "/>
<polyline clip-path="url(#clip830)" style="stroke:#000000; stroke-linecap:round; stroke-linejoin:round; stroke-width:4; stroke-opacity:1; fill:none" points="1122.2,1423.18 1122.2,1404.28 "/>
<polyline clip-path="url(#clip830)" style="stroke:#000000; stroke-linecap:round; stroke-linejoin:round; stroke-width:4; stroke-opacity:1; fill:none" points="1429.84,1423.18 1429.84,1404.28 "/>
<polyline clip-path="url(#clip830)" style="stroke:#000000; stroke-linecap:round; stroke-linejoin:round; stroke-width:4; stroke-opacity:1; fill:none" points="1737.48,1423.18 1737.48,1404.28 "/>
<polyline clip-path="url(#clip830)" style="stroke:#000000; stroke-linecap:round; stroke-linejoin:round; stroke-width:4; stroke-opacity:1; fill:none" points="2045.12,1423.18 2045.12,1404.28 "/>
<polyline clip-path="url(#clip830)" style="stroke:#000000; stroke-linecap:round; stroke-linejoin:round; stroke-width:4; stroke-opacity:1; fill:none" points="2352.76,1423.18 2352.76,1404.28 "/>
<path clip-path="url(#clip830)" d="M199.283 1454.1 Q195.672 1454.1 193.843 1457.66 Q192.038 1461.2 192.038 1468.33 Q192.038 1475.44 193.843 1479.01 Q195.672 1482.55 199.283 1482.55 Q202.917 1482.55 204.723 1479.01 Q206.552 1475.44 206.552 1468.33 Q206.552 1461.2 204.723 1457.66 Q202.917 1454.1 199.283 1454.1 M199.283 1450.39 Q205.093 1450.39 208.149 1455 Q211.228 1459.58 211.228 1468.33 Q211.228 1477.06 208.149 1481.67 Q205.093 1486.25 199.283 1486.25 Q193.473 1486.25 190.394 1481.67 Q187.339 1477.06 187.339 1468.33 Q187.339 1459.58 190.394 1455 Q193.473 1450.39 199.283 1450.39 Z" fill="#000000" fill-rule="nonzero" fill-opacity="1" /><path clip-path="url(#clip830)" d="M501.575 1481.64 L517.894 1481.64 L517.894 1485.58 L495.95 1485.58 L495.95 1481.64 Q498.612 1478.89 503.195 1474.26 Q507.802 1469.61 508.982 1468.27 Q511.228 1465.74 512.107 1464.01 Q513.01 1462.25 513.01 1460.56 Q513.01 1457.8 511.066 1456.07 Q509.144 1454.33 506.043 1454.33 Q503.843 1454.33 501.39 1455.09 Q498.959 1455.86 496.181 1457.41 L496.181 1452.69 Q499.006 1451.55 501.459 1450.97 Q503.913 1450.39 505.95 1450.39 Q511.32 1450.39 514.515 1453.08 Q517.709 1455.77 517.709 1460.26 Q517.709 1462.39 516.899 1464.31 Q516.112 1466.2 514.005 1468.8 Q513.427 1469.47 510.325 1472.69 Q507.223 1475.88 501.575 1481.64 Z" fill="#000000" fill-rule="nonzero" fill-opacity="1" /><path clip-path="url(#clip830)" d="M817.57 1455.09 L805.765 1473.54 L817.57 1473.54 L817.57 1455.09 M816.344 1451.02 L822.223 1451.02 L822.223 1473.54 L827.154 1473.54 L827.154 1477.43 L822.223 1477.43 L822.223 1485.58 L817.57 1485.58 L817.57 1477.43 L801.969 1477.43 L801.969 1472.92 L816.344 1451.02 Z" fill="#000000" fill-rule="nonzero" fill-opacity="1" /><path clip-path="url(#clip830)" d="M1122.61 1466.44 Q1119.46 1466.44 1117.61 1468.59 Q1115.78 1470.74 1115.78 1474.49 Q1115.78 1478.22 1117.61 1480.39 Q1119.46 1482.55 1122.61 1482.55 Q1125.75 1482.55 1127.58 1480.39 Q1129.43 1478.22 1129.43 1474.49 Q1129.43 1470.74 1127.58 1468.59 Q1125.75 1466.44 1122.61 1466.44 M1131.89 1451.78 L1131.89 1456.04 Q1130.13 1455.21 1128.32 1454.77 Q1126.54 1454.33 1124.78 1454.33 Q1120.15 1454.33 1117.7 1457.45 Q1115.27 1460.58 1114.92 1466.9 Q1116.29 1464.89 1118.35 1463.82 Q1120.41 1462.73 1122.88 1462.73 Q1128.09 1462.73 1131.1 1465.9 Q1134.13 1469.05 1134.13 1474.49 Q1134.13 1479.82 1130.98 1483.03 Q1127.84 1486.25 1122.61 1486.25 Q1116.61 1486.25 1113.44 1481.67 Q1110.27 1477.06 1110.27 1468.33 Q1110.27 1460.14 1114.16 1455.28 Q1118.04 1450.39 1124.6 1450.39 Q1126.36 1450.39 1128.14 1450.74 Q1129.94 1451.09 1131.89 1451.78 Z" fill="#000000" fill-rule="nonzero" fill-opacity="1" /><path clip-path="url(#clip830)" d="M1429.84 1469.17 Q1426.51 1469.17 1424.58 1470.95 Q1422.69 1472.73 1422.69 1475.86 Q1422.69 1478.98 1424.58 1480.77 Q1426.51 1482.55 1429.84 1482.55 Q1433.17 1482.55 1435.09 1480.77 Q1437.01 1478.96 1437.01 1475.86 Q1437.01 1472.73 1435.09 1470.95 Q1433.2 1469.17 1429.84 1469.17 M1425.16 1467.18 Q1422.15 1466.44 1420.46 1464.38 Q1418.8 1462.32 1418.8 1459.35 Q1418.8 1455.21 1421.74 1452.8 Q1424.7 1450.39 1429.84 1450.39 Q1435 1450.39 1437.94 1452.8 Q1440.88 1455.21 1440.88 1459.35 Q1440.88 1462.32 1439.19 1464.38 Q1437.52 1466.44 1434.54 1467.18 Q1437.92 1467.96 1439.79 1470.26 Q1441.69 1472.55 1441.69 1475.86 Q1441.69 1480.88 1438.61 1483.57 Q1435.56 1486.25 1429.84 1486.25 Q1424.12 1486.25 1421.04 1483.57 Q1417.99 1480.88 1417.99 1475.86 Q1417.99 1472.55 1419.89 1470.26 Q1421.78 1467.96 1425.16 1467.18 M1423.45 1459.79 Q1423.45 1462.48 1425.12 1463.98 Q1426.81 1465.49 1429.84 1465.49 Q1432.85 1465.49 1434.54 1463.98 Q1436.25 1462.48 1436.25 1459.79 Q1436.25 1457.11 1434.54 1455.6 Q1432.85 1454.1 1429.84 1454.1 Q1426.81 1454.1 1425.12 1455.6 Q1423.45 1457.11 1423.45 1459.79 Z" fill="#000000" fill-rule="nonzero" fill-opacity="1" /><path clip-path="url(#clip830)" d="M1712.17 1481.64 L1719.8 1481.64 L1719.8 1455.28 L1711.49 1456.95 L1711.49 1452.69 L1719.76 1451.02 L1724.43 1451.02 L1724.43 1481.64 L1732.07 1481.64 L1732.07 1485.58 L1712.17 1485.58 L1712.17 1481.64 Z" fill="#000000" fill-rule="nonzero" fill-opacity="1" /><path clip-path="url(#clip830)" d="M1751.52 1454.1 Q1747.91 1454.1 1746.08 1457.66 Q1744.27 1461.2 1744.27 1468.33 Q1744.27 1475.44 1746.08 1479.01 Q1747.91 1482.55 1751.52 1482.55 Q1755.15 1482.55 1756.96 1479.01 Q1758.79 1475.44 1758.79 1468.33 Q1758.79 1461.2 1756.96 1457.66 Q1755.15 1454.1 1751.52 1454.1 M1751.52 1450.39 Q1757.33 1450.39 1760.38 1455 Q1763.46 1459.58 1763.46 1468.33 Q1763.46 1477.06 1760.38 1481.67 Q1757.33 1486.25 1751.52 1486.25 Q1745.71 1486.25 1742.63 1481.67 Q1739.57 1477.06 1739.57 1468.33 Q1739.57 1459.58 1742.63 1455 Q1745.71 1450.39 1751.52 1450.39 Z" fill="#000000" fill-rule="nonzero" fill-opacity="1" /><path clip-path="url(#clip830)" d="M2020.6 1481.64 L2028.24 1481.64 L2028.24 1455.28 L2019.93 1456.95 L2019.93 1452.69 L2028.2 1451.02 L2032.87 1451.02 L2032.87 1481.64 L2040.51 1481.64 L2040.51 1485.58 L2020.6 1485.58 L2020.6 1481.64 Z" fill="#000000" fill-rule="nonzero" fill-opacity="1" /><path clip-path="url(#clip830)" d="M2053.98 1481.64 L2070.3 1481.64 L2070.3 1485.58 L2048.36 1485.58 L2048.36 1481.64 Q2051.02 1478.89 2055.6 1474.26 Q2060.21 1469.61 2061.39 1468.27 Q2063.64 1465.74 2064.51 1464.01 Q2065.42 1462.25 2065.42 1460.56 Q2065.42 1457.8 2063.47 1456.07 Q2061.55 1454.33 2058.45 1454.33 Q2056.25 1454.33 2053.8 1455.09 Q2051.37 1455.86 2048.59 1457.41 L2048.59 1452.69 Q2051.41 1451.55 2053.87 1450.97 Q2056.32 1450.39 2058.36 1450.39 Q2063.73 1450.39 2066.92 1453.08 Q2070.12 1455.77 2070.12 1460.26 Q2070.12 1462.39 2069.31 1464.31 Q2068.52 1466.2 2066.41 1468.8 Q2065.83 1469.47 2062.73 1472.69 Q2059.63 1475.88 2053.98 1481.64 Z" fill="#000000" fill-rule="nonzero" fill-opacity="1" /><path clip-path="url(#clip830)" d="M2327.2 1481.64 L2334.84 1481.64 L2334.84 1455.28 L2326.53 1456.95 L2326.53 1452.69 L2334.79 1451.02 L2339.47 1451.02 L2339.47 1481.64 L2347.11 1481.64 L2347.11 1485.58 L2327.2 1485.58 L2327.2 1481.64 Z" fill="#000000" fill-rule="nonzero" fill-opacity="1" /><path clip-path="url(#clip830)" d="M2369.4 1455.09 L2357.59 1473.54 L2369.4 1473.54 L2369.4 1455.09 M2368.17 1451.02 L2374.05 1451.02 L2374.05 1473.54 L2378.98 1473.54 L2378.98 1477.43 L2374.05 1477.43 L2374.05 1485.58 L2369.4 1485.58 L2369.4 1477.43 L2353.8 1477.43 L2353.8 1472.92 L2368.17 1451.02 Z" fill="#000000" fill-rule="nonzero" fill-opacity="1" /><path clip-path="url(#clip830)" d="M1275.08 1522.27 L1275.08 1532.4 L1287.14 1532.4 L1287.14 1536.95 L1275.08 1536.95 L1275.08 1556.3 Q1275.08 1560.66 1276.26 1561.9 Q1277.47 1563.14 1281.13 1563.14 L1287.14 1563.14 L1287.14 1568.04 L1281.13 1568.04 Q1274.35 1568.04 1271.77 1565.53 Q1269.19 1562.98 1269.19 1556.3 L1269.19 1536.95 L1264.9 1536.95 L1264.9 1532.4 L1269.19 1532.4 L1269.19 1522.27 L1275.08 1522.27 Z" fill="#000000" fill-rule="nonzero" fill-opacity="1" /><polyline clip-path="url(#clip832)" style="stroke:#000000; stroke-linecap:round; stroke-linejoin:round; stroke-width:2; stroke-opacity:0.1; fill:none" points="199.283,1198.8 2352.76,1198.8 "/>
<polyline clip-path="url(#clip832)" style="stroke:#000000; stroke-linecap:round; stroke-linejoin:round; stroke-width:2; stroke-opacity:0.1; fill:none" points="199.283,827.93 2352.76,827.93 "/>
<polyline clip-path="url(#clip832)" style="stroke:#000000; stroke-linecap:round; stroke-linejoin:round; stroke-width:2; stroke-opacity:0.1; fill:none" points="199.283,457.058 2352.76,457.058 "/>
<polyline clip-path="url(#clip832)" style="stroke:#000000; stroke-linecap:round; stroke-linejoin:round; stroke-width:2; stroke-opacity:0.1; fill:none" points="199.283,86.1857 2352.76,86.1857 "/>
<polyline clip-path="url(#clip830)" style="stroke:#000000; stroke-linecap:round; stroke-linejoin:round; stroke-width:4; stroke-opacity:1; fill:none" points="199.283,1423.18 199.283,47.2441 "/>
<polyline clip-path="url(#clip830)" style="stroke:#000000; stroke-linecap:round; stroke-linejoin:round; stroke-width:4; stroke-opacity:1; fill:none" points="199.283,1198.8 218.181,1198.8 "/>
<polyline clip-path="url(#clip830)" style="stroke:#000000; stroke-linecap:round; stroke-linejoin:round; stroke-width:4; stroke-opacity:1; fill:none" points="199.283,827.93 218.181,827.93 "/>
<polyline clip-path="url(#clip830)" style="stroke:#000000; stroke-linecap:round; stroke-linejoin:round; stroke-width:4; stroke-opacity:1; fill:none" points="199.283,457.058 218.181,457.058 "/>
<polyline clip-path="url(#clip830)" style="stroke:#000000; stroke-linecap:round; stroke-linejoin:round; stroke-width:4; stroke-opacity:1; fill:none" points="199.283,86.1857 218.181,86.1857 "/>
<path clip-path="url(#clip830)" d="M91.5938 1196.94 Q88.4456 1196.94 86.5938 1199.09 Q84.7651 1201.24 84.7651 1204.99 Q84.7651 1208.72 86.5938 1210.9 Q88.4456 1213.05 91.5938 1213.05 Q94.7419 1213.05 96.5706 1210.9 Q98.4224 1208.72 98.4224 1204.99 Q98.4224 1201.24 96.5706 1199.09 Q94.7419 1196.94 91.5938 1196.94 M100.876 1182.29 L100.876 1186.55 Q99.1169 1185.71 97.3113 1185.27 Q95.5289 1184.83 93.7697 1184.83 Q89.1401 1184.83 86.6864 1187.96 Q84.2558 1191.08 83.9086 1197.4 Q85.2743 1195.39 87.3345 1194.32 Q89.3947 1193.24 91.8715 1193.24 Q97.0798 1193.24 100.089 1196.41 Q103.121 1199.55 103.121 1204.99 Q103.121 1210.32 99.9733 1213.54 Q96.8252 1216.75 91.5938 1216.75 Q85.5984 1216.75 82.4271 1212.17 Q79.2559 1207.56 79.2559 1198.84 Q79.2559 1190.64 83.1447 1185.78 Q87.0336 1180.9 93.5845 1180.9 Q95.3437 1180.9 97.1261 1181.24 Q98.9317 1181.59 100.876 1182.29 Z" fill="#000000" fill-rule="nonzero" fill-opacity="1" /><path clip-path="url(#clip830)" d="M121.177 1184.6 Q117.566 1184.6 115.737 1188.17 Q113.932 1191.71 113.932 1198.84 Q113.932 1205.94 115.737 1209.51 Q117.566 1213.05 121.177 1213.05 Q124.811 1213.05 126.617 1209.51 Q128.445 1205.94 128.445 1198.84 Q128.445 1191.71 126.617 1188.17 Q124.811 1184.6 121.177 1184.6 M121.177 1180.9 Q126.987 1180.9 130.043 1185.5 Q133.121 1190.09 133.121 1198.84 Q133.121 1207.56 130.043 1212.17 Q126.987 1216.75 121.177 1216.75 Q115.367 1216.75 112.288 1212.17 Q109.233 1207.56 109.233 1198.84 Q109.233 1190.09 112.288 1185.5 Q115.367 1180.9 121.177 1180.9 Z" fill="#000000" fill-rule="nonzero" fill-opacity="1" /><path clip-path="url(#clip830)" d="M151.339 1184.6 Q147.728 1184.6 145.899 1188.17 Q144.093 1191.71 144.093 1198.84 Q144.093 1205.94 145.899 1209.51 Q147.728 1213.05 151.339 1213.05 Q154.973 1213.05 156.779 1209.51 Q158.607 1205.94 158.607 1198.84 Q158.607 1191.71 156.779 1188.17 Q154.973 1184.6 151.339 1184.6 M151.339 1180.9 Q157.149 1180.9 160.205 1185.5 Q163.283 1190.09 163.283 1198.84 Q163.283 1207.56 160.205 1212.17 Q157.149 1216.75 151.339 1216.75 Q145.529 1216.75 142.45 1212.17 Q139.394 1207.56 139.394 1198.84 Q139.394 1190.09 142.45 1185.5 Q145.529 1180.9 151.339 1180.9 Z" fill="#000000" fill-rule="nonzero" fill-opacity="1" /><path clip-path="url(#clip830)" d="M91.0151 828.798 Q87.6817 828.798 85.7605 830.58 Q83.8623 832.363 83.8623 835.488 Q83.8623 838.613 85.7605 840.395 Q87.6817 842.178 91.0151 842.178 Q94.3484 842.178 96.2697 840.395 Q98.1909 838.59 98.1909 835.488 Q98.1909 832.363 96.2697 830.58 Q94.3715 828.798 91.0151 828.798 M86.3392 826.807 Q83.3299 826.067 81.6401 824.006 Q79.9735 821.946 79.9735 818.983 Q79.9735 814.84 82.9133 812.432 Q85.8762 810.025 91.0151 810.025 Q96.1771 810.025 99.1169 812.432 Q102.057 814.84 102.057 818.983 Q102.057 821.946 100.367 824.006 Q98.7002 826.067 95.7141 826.807 Q99.0937 827.594 100.969 829.886 Q102.867 832.178 102.867 835.488 Q102.867 840.511 99.7882 843.196 Q96.7326 845.881 91.0151 845.881 Q85.2975 845.881 82.2188 843.196 Q79.1633 840.511 79.1633 835.488 Q79.1633 832.178 81.0614 829.886 Q82.9595 827.594 86.3392 826.807 M84.6262 819.423 Q84.6262 822.108 86.2929 823.613 Q87.9827 825.118 91.0151 825.118 Q94.0243 825.118 95.7141 823.613 Q97.4271 822.108 97.4271 819.423 Q97.4271 816.738 95.7141 815.233 Q94.0243 813.729 91.0151 813.729 Q87.9827 813.729 86.2929 815.233 Q84.6262 816.738 84.6262 819.423 Z" fill="#000000" fill-rule="nonzero" fill-opacity="1" /><path clip-path="url(#clip830)" d="M121.177 813.729 Q117.566 813.729 115.737 817.293 Q113.932 820.835 113.932 827.965 Q113.932 835.071 115.737 838.636 Q117.566 842.178 121.177 842.178 Q124.811 842.178 126.617 838.636 Q128.445 835.071 128.445 827.965 Q128.445 820.835 126.617 817.293 Q124.811 813.729 121.177 813.729 M121.177 810.025 Q126.987 810.025 130.043 814.631 Q133.121 819.215 133.121 827.965 Q133.121 836.692 130.043 841.298 Q126.987 845.881 121.177 845.881 Q115.367 845.881 112.288 841.298 Q109.233 836.692 109.233 827.965 Q109.233 819.215 112.288 814.631 Q115.367 810.025 121.177 810.025 Z" fill="#000000" fill-rule="nonzero" fill-opacity="1" /><path clip-path="url(#clip830)" d="M151.339 813.729 Q147.728 813.729 145.899 817.293 Q144.093 820.835 144.093 827.965 Q144.093 835.071 145.899 838.636 Q147.728 842.178 151.339 842.178 Q154.973 842.178 156.779 838.636 Q158.607 835.071 158.607 827.965 Q158.607 820.835 156.779 817.293 Q154.973 813.729 151.339 813.729 M151.339 810.025 Q157.149 810.025 160.205 814.631 Q163.283 819.215 163.283 827.965 Q163.283 836.692 160.205 841.298 Q157.149 845.881 151.339 845.881 Q145.529 845.881 142.45 841.298 Q139.394 836.692 139.394 827.965 Q139.394 819.215 142.45 814.631 Q145.529 810.025 151.339 810.025 Z" fill="#000000" fill-rule="nonzero" fill-opacity="1" /><path clip-path="url(#clip830)" d="M51.6634 470.403 L59.3023 470.403 L59.3023 444.037 L50.9921 445.704 L50.9921 441.444 L59.256 439.778 L63.9319 439.778 L63.9319 470.403 L71.5707 470.403 L71.5707 474.338 L51.6634 474.338 L51.6634 470.403 Z" fill="#000000" fill-rule="nonzero" fill-opacity="1" /><path clip-path="url(#clip830)" d="M91.0151 442.857 Q87.404 442.857 85.5753 446.421 Q83.7697 449.963 83.7697 457.093 Q83.7697 464.199 85.5753 467.764 Q87.404 471.305 91.0151 471.305 Q94.6493 471.305 96.4548 467.764 Q98.2835 464.199 98.2835 457.093 Q98.2835 449.963 96.4548 446.421 Q94.6493 442.857 91.0151 442.857 M91.0151 439.153 Q96.8252 439.153 99.8808 443.759 Q102.959 448.343 102.959 457.093 Q102.959 465.819 99.8808 470.426 Q96.8252 475.009 91.0151 475.009 Q85.2049 475.009 82.1262 470.426 Q79.0707 465.819 79.0707 457.093 Q79.0707 448.343 82.1262 443.759 Q85.2049 439.153 91.0151 439.153 Z" fill="#000000" fill-rule="nonzero" fill-opacity="1" /><path clip-path="url(#clip830)" d="M121.177 442.857 Q117.566 442.857 115.737 446.421 Q113.932 449.963 113.932 457.093 Q113.932 464.199 115.737 467.764 Q117.566 471.305 121.177 471.305 Q124.811 471.305 126.617 467.764 Q128.445 464.199 128.445 457.093 Q128.445 449.963 126.617 446.421 Q124.811 442.857 121.177 442.857 M121.177 439.153 Q126.987 439.153 130.043 443.759 Q133.121 448.343 133.121 457.093 Q133.121 465.819 130.043 470.426 Q126.987 475.009 121.177 475.009 Q115.367 475.009 112.288 470.426 Q109.233 465.819 109.233 457.093 Q109.233 448.343 112.288 443.759 Q115.367 439.153 121.177 439.153 Z" fill="#000000" fill-rule="nonzero" fill-opacity="1" /><path clip-path="url(#clip830)" d="M151.339 442.857 Q147.728 442.857 145.899 446.421 Q144.093 449.963 144.093 457.093 Q144.093 464.199 145.899 467.764 Q147.728 471.305 151.339 471.305 Q154.973 471.305 156.779 467.764 Q158.607 464.199 158.607 457.093 Q158.607 449.963 156.779 446.421 Q154.973 442.857 151.339 442.857 M151.339 439.153 Q157.149 439.153 160.205 443.759 Q163.283 448.343 163.283 457.093 Q163.283 465.819 160.205 470.426 Q157.149 475.009 151.339 475.009 Q145.529 475.009 142.45 470.426 Q139.394 465.819 139.394 457.093 Q139.394 448.343 142.45 443.759 Q145.529 439.153 151.339 439.153 Z" fill="#000000" fill-rule="nonzero" fill-opacity="1" /><path clip-path="url(#clip830)" d="M51.6634 99.5305 L59.3023 99.5305 L59.3023 73.1649 L50.9921 74.8316 L50.9921 70.5723 L59.256 68.9057 L63.9319 68.9057 L63.9319 99.5305 L71.5707 99.5305 L71.5707 103.466 L51.6634 103.466 L51.6634 99.5305 Z" fill="#000000" fill-rule="nonzero" fill-opacity="1" /><path clip-path="url(#clip830)" d="M85.0429 99.5305 L101.362 99.5305 L101.362 103.466 L79.4179 103.466 L79.4179 99.5305 Q82.0799 96.7759 86.6632 92.1463 Q91.2697 87.4935 92.4502 86.151 Q94.6956 83.6278 95.5752 81.8917 Q96.478 80.1325 96.478 78.4427 Q96.478 75.688 94.5336 73.9519 Q92.6123 72.2158 89.5104 72.2158 Q87.3114 72.2158 84.8577 72.9797 Q82.4271 73.7436 79.6494 75.2945 L79.6494 70.5723 Q82.4734 69.4381 84.9271 68.8594 Q87.3808 68.2807 89.4178 68.2807 Q94.7882 68.2807 97.9826 70.9658 Q101.177 73.651 101.177 78.1417 Q101.177 80.2714 100.367 82.1926 Q99.5798 84.0908 97.4734 86.6834 Q96.8947 87.3546 93.7928 90.5722 Q90.691 93.7667 85.0429 99.5305 Z" fill="#000000" fill-rule="nonzero" fill-opacity="1" /><path clip-path="url(#clip830)" d="M121.177 71.9844 Q117.566 71.9844 115.737 75.5492 Q113.932 79.0908 113.932 86.2204 Q113.932 93.3268 115.737 96.8916 Q117.566 100.433 121.177 100.433 Q124.811 100.433 126.617 96.8916 Q128.445 93.3268 128.445 86.2204 Q128.445 79.0908 126.617 75.5492 Q124.811 71.9844 121.177 71.9844 M121.177 68.2807 Q126.987 68.2807 130.043 72.8871 Q133.121 77.4704 133.121 86.2204 Q133.121 94.9472 130.043 99.5537 Q126.987 104.137 121.177 104.137 Q115.367 104.137 112.288 99.5537 Q109.233 94.9472 109.233 86.2204 Q109.233 77.4704 112.288 72.8871 Q115.367 68.2807 121.177 68.2807 Z" fill="#000000" fill-rule="nonzero" fill-opacity="1" /><path clip-path="url(#clip830)" d="M151.339 71.9844 Q147.728 71.9844 145.899 75.5492 Q144.093 79.0908 144.093 86.2204 Q144.093 93.3268 145.899 96.8916 Q147.728 100.433 151.339 100.433 Q154.973 100.433 156.779 96.8916 Q158.607 93.3268 158.607 86.2204 Q158.607 79.0908 156.779 75.5492 Q154.973 71.9844 151.339 71.9844 M151.339 68.2807 Q157.149 68.2807 160.205 72.8871 Q163.283 77.4704 163.283 86.2204 Q163.283 94.9472 160.205 99.5537 Q157.149 104.137 151.339 104.137 Q145.529 104.137 142.45 99.5537 Q139.394 94.9472 139.394 86.2204 Q139.394 77.4704 142.45 72.8871 Q145.529 68.2807 151.339 68.2807 Z" fill="#000000" fill-rule="nonzero" fill-opacity="1" /><polyline clip-path="url(#clip832)" style="stroke:#009af9; stroke-linecap:round; stroke-linejoin:round; stroke-width:4; stroke-opacity:1; fill:none" points="199.283,1384.24 201.437,1382.94 203.59,1381.64 205.744,1380.34 207.897,1379.05 210.051,1377.75 212.204,1376.45 214.357,1375.15 216.511,1373.85 218.664,1372.56 220.818,1371.26 222.971,1369.96 225.125,1368.66 227.278,1367.36 229.432,1366.07 231.585,1364.77 233.739,1363.47 235.892,1362.17 238.046,1360.87 240.199,1359.58 242.353,1358.28 244.506,1356.98 246.66,1355.68 248.813,1354.38 250.967,1353.09 253.12,1351.79 255.273,1350.49 257.427,1349.19 259.58,1347.89 261.734,1346.59 263.887,1345.3 266.041,1344 268.194,1342.7 270.348,1341.4 272.501,1340.1 274.655,1338.81 276.808,1337.51 278.962,1336.21 281.115,1334.91 283.269,1333.61 285.422,1332.32 287.576,1331.02 289.729,1329.72 291.883,1328.42 294.036,1327.12 296.189,1325.83 298.343,1324.53 300.496,1323.23 302.65,1321.93 304.803,1320.63 306.957,1319.34 309.11,1318.04 311.264,1316.74 313.417,1315.44 315.571,1314.14 317.724,1312.85 319.878,1311.55 322.031,1310.25 324.185,1308.95 326.338,1307.65 328.492,1306.36 330.645,1305.06 332.798,1303.76 334.952,1302.46 337.105,1301.16 339.259,1299.86 341.412,1298.57 343.566,1297.27 345.719,1295.97 347.873,1294.67 350.026,1293.37 352.18,1292.08 354.333,1290.78 356.487,1289.48 358.64,1288.18 360.794,1286.88 362.947,1285.59 365.101,1284.29 367.254,1282.99 369.408,1281.69 371.561,1280.39 373.714,1279.1 375.868,1277.8 378.021,1276.5 380.175,1275.2 382.328,1273.9 384.482,1272.61 386.635,1271.31 388.789,1270.01 390.942,1268.71 393.096,1267.41 395.249,1266.12 397.403,1264.82 399.556,1263.52 401.71,1262.22 403.863,1260.92 406.017,1259.63 408.17,1258.33 410.324,1257.03 412.477,1255.73 414.63,1254.43 416.784,1253.13 418.937,1251.84 421.091,1250.54 423.244,1249.24 425.398,1247.94 427.551,1246.64 429.705,1245.35 431.858,1244.05 434.012,1242.75 436.165,1241.45 438.319,1240.15 440.472,1238.86 442.626,1237.56 444.779,1236.26 446.933,1234.96 449.086,1233.66 451.239,1232.37 453.393,1231.07 455.546,1229.77 457.7,1228.47 459.853,1227.17 462.007,1225.88 464.16,1224.58 466.314,1223.28 468.467,1221.98 470.621,1220.68 472.774,1219.39 474.928,1218.09 477.081,1216.79 479.235,1215.49 481.388,1214.19 483.542,1212.9 485.695,1211.6 487.849,1210.3 490.002,1209 492.155,1207.7 494.309,1206.41 496.462,1205.11 498.616,1203.81 500.769,1202.51 502.923,1201.21 505.076,1199.91 507.23,1198.62 509.383,1197.32 511.537,1196.02 513.69,1194.72 515.844,1193.42 517.997,1192.13 520.151,1190.83 522.304,1189.53 524.458,1188.23 526.611,1186.93 528.765,1185.64 530.918,1184.34 533.071,1183.04 535.225,1181.74 537.378,1180.44 539.532,1179.15 541.685,1177.85 543.839,1176.55 545.992,1175.25 548.146,1173.95 550.299,1172.66 552.453,1171.36 554.606,1170.06 556.76,1168.76 558.913,1167.46 561.067,1166.17 563.22,1164.87 565.374,1163.57 567.527,1162.27 569.68,1160.97 571.834,1159.68 573.987,1158.38 576.141,1157.08 578.294,1155.78 580.448,1154.48 582.601,1153.18 584.755,1151.89 586.908,1150.59 589.062,1149.29 591.215,1147.99 593.369,1146.69 595.522,1145.4 597.676,1144.1 599.829,1142.8 601.983,1141.5 604.136,1140.2 606.29,1138.91 608.443,1137.61 610.596,1136.31 612.75,1135.01 614.903,1133.71 617.057,1132.42 619.21,1131.12 621.364,1129.82 623.517,1128.52 625.671,1127.22 627.824,1125.93 629.978,1124.63 632.131,1123.33 634.285,1122.03 636.438,1120.73 638.592,1119.44 640.745,1118.14 642.899,1116.84 645.052,1115.54 647.206,1114.24 649.359,1112.95 651.512,1111.65 653.666,1110.35 655.819,1109.05 657.973,1107.75 660.126,1106.46 662.28,1105.16 664.433,1103.86 666.587,1102.56 668.74,1101.26 670.894,1099.96 673.047,1098.67 675.201,1097.37 677.354,1096.07 679.508,1094.77 681.661,1093.47 683.815,1092.18 685.968,1090.88 688.121,1089.58 690.275,1088.28 692.428,1086.98 694.582,1085.69 696.735,1084.39 698.889,1083.09 701.042,1081.79 703.196,1080.49 705.349,1079.2 707.503,1077.9 709.656,1076.6 711.81,1075.3 713.963,1074 716.117,1072.71 718.27,1071.41 720.424,1070.11 722.577,1068.81 724.731,1067.51 726.884,1066.22 729.037,1064.92 731.191,1063.62 733.344,1062.32 735.498,1061.02 737.651,1059.73 739.805,1058.43 741.958,1057.13 744.112,1055.83 746.265,1054.53 748.419,1053.23 750.572,1051.94 752.726,1050.64 754.879,1049.34 757.033,1048.04 759.186,1046.74 761.34,1045.45 763.493,1044.15 765.647,1042.85 767.8,1041.55 769.953,1040.25 772.107,1038.96 774.26,1037.66 776.414,1036.36 778.567,1035.06 780.721,1033.76 782.874,1032.47 785.028,1031.17 787.181,1029.87 789.335,1028.57 791.488,1027.27 793.642,1025.98 795.795,1024.68 797.949,1023.38 800.102,1022.08 802.256,1020.78 804.409,1019.49 806.562,1018.19 808.716,1016.89 810.869,1015.59 813.023,1014.29 815.176,1013 817.33,1011.7 819.483,1010.4 821.637,1009.1 823.79,1007.8 825.944,1006.5 828.097,1005.21 830.251,1003.91 832.404,1002.61 834.558,1001.31 836.711,1000.01 838.865,998.717 841.018,997.419 843.172,996.121 845.325,994.822 847.478,993.524 849.632,992.226 851.785,990.928 853.939,989.63 856.092,988.332 858.246,987.034 860.399,985.736 862.553,984.438 864.706,983.14 866.86,981.842 869.013,980.544 871.167,979.246 873.32,977.948 875.474,976.65 877.627,975.352 879.781,974.054 881.934,972.756 884.088,971.458 886.241,970.159 888.394,968.861 890.548,967.563 892.701,966.265 894.855,964.967 897.008,963.669 899.162,962.371 901.315,961.073 903.469,959.775 905.622,958.477 907.776,957.179 909.929,955.881 912.083,954.583 914.236,953.285 916.39,951.987 918.543,950.689 920.697,949.391 922.85,948.093 925.003,946.795 927.157,945.496 929.31,944.198 931.464,942.9 933.617,941.602 935.771,940.304 937.924,939.006 940.078,937.708 942.231,936.41 944.385,935.112 946.538,933.814 948.692,932.516 950.845,931.218 952.999,929.92 955.152,928.622 957.306,927.324 959.459,926.026 961.613,924.728 963.766,923.43 965.919,922.132 968.073,920.833 970.226,919.535 972.38,918.237 974.533,916.939 976.687,915.641 978.84,914.343 980.994,913.045 983.147,911.747 985.301,910.449 987.454,909.151 989.608,907.853 991.761,906.555 993.915,905.257 996.068,903.959 998.222,902.661 1000.38,901.363 1002.53,900.065 1004.68,898.767 1006.84,897.469 1008.99,896.17 1011.14,894.872 1013.3,893.574 1015.45,892.276 1017.6,890.978 1019.76,889.68 1021.91,888.382 1024.06,887.084 1026.22,885.786 1028.37,884.488 1030.52,883.19 1032.68,881.892 1034.83,880.594 1036.98,879.296 1039.14,877.998 1041.29,876.7 1043.44,875.402 1045.6,874.104 1047.75,872.806 1049.9,871.507 1052.06,870.209 1054.21,868.911 1056.37,867.613 1058.52,866.315 1060.67,865.017 1062.83,863.719 1064.98,862.421 1067.13,861.123 1069.29,859.825 1071.44,858.527 1073.59,857.229 1075.75,855.931 1077.9,854.633 1080.05,853.335 1082.21,852.037 1084.36,850.739 1086.51,849.441 1088.67,848.143 1090.82,846.844 1092.97,845.546 1095.13,844.248 1097.28,842.95 1099.43,841.652 1101.59,840.354 1103.74,839.056 1105.9,837.758 1108.05,836.46 1110.2,835.162 1112.36,833.864 1114.51,832.566 1116.66,831.268 1118.82,829.97 1120.97,828.672 1123.12,827.374 1125.28,826.076 1127.43,824.778 1129.58,823.48 1131.74,822.181 1133.89,820.883 1136.04,819.585 1138.2,818.287 1140.35,816.989 1142.5,815.691 1144.66,814.393 1146.81,813.095 1148.96,811.797 1151.12,810.499 1153.27,809.201 1155.43,807.903 1157.58,806.605 1159.73,805.307 1161.89,804.009 1164.04,802.711 1166.19,801.413 1168.35,800.115 1170.5,798.817 1172.65,797.518 1174.81,796.22 1176.96,794.922 1179.11,793.624 1181.27,792.326 1183.42,791.028 1185.57,789.73 1187.73,788.432 1189.88,787.134 1192.03,785.836 1194.19,784.538 1196.34,783.24 1198.49,781.942 1200.65,780.644 1202.8,779.346 1204.95,778.048 1207.11,776.75 1209.26,775.452 1211.42,774.154 1213.57,772.855 1215.72,771.557 1217.88,770.259 1220.03,768.961 1222.18,767.663 1224.34,766.365 1226.49,765.067 1228.64,763.769 1230.8,762.471 1232.95,761.173 1235.1,759.875 1237.26,758.577 1239.41,757.279 1241.56,755.981 1243.72,754.683 1245.87,753.385 1248.02,752.087 1250.18,750.789 1252.33,749.491 1254.48,748.192 1256.64,746.894 1258.79,745.596 1260.95,744.298 1263.1,743 1265.25,741.702 1267.41,740.404 1269.56,739.106 1271.71,737.808 1273.87,736.51 1276.02,735.212 1278.17,733.914 1280.33,732.616 1282.48,731.318 1284.63,730.02 1286.79,728.722 1288.94,727.424 1291.09,726.126 1293.25,724.828 1295.4,723.529 1297.55,722.231 1299.71,720.933 1301.86,719.635 1304.01,718.337 1306.17,717.039 1308.32,715.741 1310.48,714.443 1312.63,713.145 1314.78,711.847 1316.94,710.549 1319.09,709.251 1321.24,707.953 1323.4,706.655 1325.55,705.357 1327.7,704.059 1329.86,702.761 1332.01,701.463 1334.16,700.165 1336.32,698.866 1338.47,697.568 1340.62,696.27 1342.78,694.972 1344.93,693.674 1347.08,692.376 1349.24,691.078 1351.39,689.78 1353.54,688.482 1355.7,687.184 1357.85,685.886 1360,684.588 1362.16,683.29 1364.31,681.992 1366.47,680.694 1368.62,679.396 1370.77,678.098 1372.93,676.8 1375.08,675.502 1377.23,674.203 1379.39,672.905 1381.54,671.607 1383.69,670.309 1385.85,669.011 1388,667.713 1390.15,666.415 1392.31,665.117 1394.46,663.819 1396.61,662.521 1398.77,661.223 1400.92,659.925 1403.07,658.627 1405.23,657.329 1407.38,656.031 1409.53,654.733 1411.69,653.435 1413.84,652.137 1416,650.839 1418.15,649.54 1420.3,648.242 1422.46,646.944 1424.61,645.646 1426.76,644.348 1428.92,643.05 1431.07,641.752 1433.22,640.454 1435.38,639.156 1437.53,637.858 1439.68,636.56 1441.84,635.262 1443.99,633.964 1446.14,632.666 1448.3,631.368 1450.45,630.07 1452.6,628.772 1454.76,627.474 1456.91,626.176 1459.06,624.877 1461.22,623.579 1463.37,622.281 1465.53,620.983 1467.68,619.685 1469.83,618.387 1471.99,617.089 1474.14,615.791 1476.29,614.493 1478.45,613.195 1480.6,611.897 1482.75,610.599 1484.91,609.301 1487.06,608.003 1489.21,606.705 1491.37,605.407 1493.52,604.109 1495.67,602.811 1497.83,601.513 1499.98,600.214 1502.13,598.916 1504.29,597.618 1506.44,596.32 1508.59,595.022 1510.75,593.724 1512.9,592.426 1515.06,591.128 1517.21,589.83 1519.36,588.532 1521.52,587.234 1523.67,585.936 1525.82,584.638 1527.98,583.34 1530.13,582.042 1532.28,580.744 1534.44,579.446 1536.59,578.148 1538.74,576.85 1540.9,575.551 1543.05,574.253 1545.2,572.955 1547.36,571.657 1549.51,570.359 1551.66,569.061 1553.82,567.763 1555.97,566.465 1558.12,565.167 1560.28,563.869 1562.43,562.571 1564.58,561.273 1566.74,559.975 1568.89,558.677 1571.05,557.379 1573.2,556.081 1575.35,554.783 1577.51,553.485 1579.66,552.187 1581.81,550.889 1583.97,549.59 1586.12,548.292 1588.27,546.994 1590.43,545.696 1592.58,544.398 1594.73,543.1 1596.89,541.802 1599.04,540.504 1601.19,539.206 1603.35,537.908 1605.5,536.61 1607.65,535.312 1609.81,534.014 1611.96,532.716 1614.11,531.418 1616.27,530.12 1618.42,528.822 1620.58,527.524 1622.73,526.226 1624.88,524.927 1627.04,523.629 1629.19,522.331 1631.34,521.033 1633.5,519.735 1635.65,518.437 1637.8,517.139 1639.96,515.841 1642.11,514.543 1644.26,513.245 1646.42,511.947 1648.57,510.649 1650.72,509.351 1652.88,508.053 1655.03,506.755 1657.18,505.457 1659.34,504.159 1661.49,502.861 1663.64,501.563 1665.8,500.264 1667.95,498.966 1670.11,497.668 1672.26,496.37 1674.41,495.072 1676.57,493.774 1678.72,492.476 1680.87,491.178 1683.03,489.88 1685.18,488.582 1687.33,487.284 1689.49,485.986 1691.64,484.688 1693.79,483.39 1695.95,482.092 1698.1,480.794 1700.25,479.496 1702.41,478.198 1704.56,476.9 1706.71,475.601 1708.87,474.303 1711.02,473.005 1713.17,471.707 1715.33,470.409 1717.48,469.111 1719.63,467.813 1721.79,466.515 1723.94,465.217 1726.1,463.919 1728.25,462.621 1730.4,461.323 1732.56,460.025 1734.71,458.727 1736.86,457.429 1739.02,456.131 1741.17,454.833 1743.32,453.535 1745.48,452.237 1747.63,450.938 1749.78,449.64 1751.94,448.342 1754.09,447.044 1756.24,445.746 1758.4,444.448 1760.55,443.15 1762.7,441.852 1764.86,440.554 1767.01,439.256 1769.16,437.958 1771.32,436.66 1773.47,435.362 1775.63,434.064 1777.78,432.766 1779.93,431.468 1782.09,430.17 1784.24,428.872 1786.39,427.574 1788.55,426.275 1790.7,424.977 1792.85,423.679 1795.01,422.381 1797.16,421.083 1799.31,419.785 1801.47,418.487 1803.62,417.189 1805.77,415.891 1807.93,414.593 1810.08,413.295 1812.23,411.997 1814.39,410.699 1816.54,409.401 1818.69,408.103 1820.85,406.805 1823,405.507 1825.16,404.209 1827.31,402.911 1829.46,401.612 1831.62,400.314 1833.77,399.016 1835.92,397.718 1838.08,396.42 1840.23,395.122 1842.38,393.824 1844.54,392.526 1846.69,391.228 1848.84,389.93 1851,388.632 1853.15,387.334 1855.3,386.036 1857.46,384.738 1859.61,383.44 1861.76,382.142 1863.92,380.844 1866.07,379.546 1868.22,378.248 1870.38,376.949 1872.53,375.651 1874.68,374.353 1876.84,373.055 1878.99,371.757 1881.15,370.459 1883.3,369.161 1885.45,367.863 1887.61,366.565 1889.76,365.267 1891.91,363.969 1894.07,362.671 1896.22,361.373 1898.37,360.075 1900.53,358.777 1902.68,357.479 1904.83,356.181 1906.99,354.883 1909.14,353.585 1911.29,352.286 1913.45,350.988 1915.6,349.69 1917.75,348.392 1919.91,347.094 1922.06,345.796 1924.21,344.498 1926.37,343.2 1928.52,341.902 1930.68,340.604 1932.83,339.306 1934.98,338.008 1937.14,336.71 1939.29,335.412 1941.44,334.114 1943.6,332.816 1945.75,331.518 1947.9,330.22 1950.06,328.922 1952.21,327.623 1954.36,326.325 1956.52,325.027 1958.67,323.729 1960.82,322.431 1962.98,321.133 1965.13,319.835 1967.28,318.537 1969.44,317.239 1971.59,315.941 1973.74,314.643 1975.9,313.345 1978.05,312.047 1980.21,310.749 1982.36,309.451 1984.51,308.153 1986.67,306.855 1988.82,305.557 1990.97,304.259 1993.13,302.96 1995.28,301.662 1997.43,300.364 1999.59,299.066 2001.74,297.768 2003.89,296.47 2006.05,295.172 2008.2,293.874 2010.35,292.576 2012.51,291.278 2014.66,289.98 2016.81,288.682 2018.97,287.384 2021.12,286.086 2023.27,284.788 2025.43,283.49 2027.58,282.192 2029.73,280.894 2031.89,279.596 2034.04,278.297 2036.2,276.999 2038.35,275.701 2040.5,274.403 2042.66,273.105 2044.81,271.807 2046.96,270.509 2049.12,269.211 2051.27,267.913 2053.42,266.615 2055.58,265.317 2057.73,264.019 2059.88,262.721 2062.04,261.423 2064.19,260.125 2066.34,258.827 2068.5,257.529 2070.65,256.231 2072.8,254.933 2074.96,253.634 2077.11,252.336 2079.26,251.038 2081.42,249.74 2083.57,248.442 2085.73,247.144 2087.88,245.846 2090.03,244.548 2092.19,243.25 2094.34,241.952 2096.49,240.654 2098.65,239.356 2100.8,238.058 2102.95,236.76 2105.11,235.462 2107.26,234.164 2109.41,232.866 2111.57,231.568 2113.72,230.27 2115.87,228.971 2118.03,227.673 2120.18,226.375 2122.33,225.077 2124.49,223.779 2126.64,222.481 2128.79,221.183 2130.95,219.885 2133.1,218.587 2135.26,217.289 2137.41,215.991 2139.56,214.693 2141.72,213.395 2143.87,212.097 2146.02,210.799 2148.18,209.501 2150.33,208.203 2152.48,206.905 2154.64,205.607 2156.79,204.308 2158.94,203.01 2161.1,201.712 2163.25,200.414 2165.4,199.116 2167.56,197.818 2169.71,196.52 2171.86,195.222 2174.02,193.924 2176.17,192.626 2178.32,191.328 2180.48,190.03 2182.63,188.732 2184.79,187.434 2186.94,186.136 2189.09,184.838 2191.25,183.54 2193.4,182.242 2195.55,180.944 2197.71,179.645 2199.86,178.347 2202.01,177.049 2204.17,175.751 2206.32,174.453 2208.47,173.155 2210.63,171.857 2212.78,170.559 2214.93,169.261 2217.09,167.963 2219.24,166.665 2221.39,165.367 2223.55,164.069 2225.7,162.771 2227.85,161.473 2230.01,160.175 2232.16,158.877 2234.31,157.579 2236.47,156.281 2238.62,154.982 2240.78,153.684 2242.93,152.386 2245.08,151.088 2247.24,149.79 2249.39,148.492 2251.54,147.194 2253.7,145.896 2255.85,144.598 2258,143.3 2260.16,142.002 2262.31,140.704 2264.46,139.406 2266.62,138.108 2268.77,136.81 2270.92,135.512 2273.08,134.214 2275.23,132.916 2277.38,131.618 2279.54,130.319 2281.69,129.021 2283.84,127.723 2286,126.425 2288.15,125.127 2290.31,123.829 2292.46,122.531 2294.61,121.233 2296.77,119.935 2298.92,118.637 2301.07,117.339 2303.23,116.041 2305.38,114.743 2307.53,113.445 2309.69,112.147 2311.84,110.849 2313.99,109.551 2316.15,108.253 2318.3,106.955 2320.45,105.656 2322.61,104.358 2324.76,103.06 2326.91,101.762 2329.07,100.464 2331.22,99.1662 2333.37,97.8681 2335.53,96.5701 2337.68,95.272 2339.84,93.974 2341.99,92.6759 2344.14,91.3779 2346.3,90.0798 2348.45,88.7818 2350.6,87.4837 2352.76,86.1857 "/>
<path clip-path="url(#clip830)" d="M271.066 196.789 L515.649 196.789 L515.649 93.1086 L271.066 93.1086  Z" fill="#ffffff" fill-rule="evenodd" fill-opacity="1"/>
<polyline clip-path="url(#clip830)" style="stroke:#000000; stroke-linecap:round; stroke-linejoin:round; stroke-width:4; stroke-opacity:1; fill:none" points="271.066,196.789 515.649,196.789 515.649,93.1086 271.066,93.1086 271.066,196.789 "/>
<polyline clip-path="url(#clip830)" style="stroke:#009af9; stroke-linecap:round; stroke-linejoin:round; stroke-width:4; stroke-opacity:1; fill:none" points="294.993,144.949 438.558,144.949 "/>
<path clip-path="url(#clip830)" d="M462.485 127.669 L491.721 127.669 L491.721 131.604 L479.453 131.604 L479.453 162.229 L474.754 162.229 L474.754 131.604 L462.485 131.604 L462.485 127.669 Z" fill="#000000" fill-rule="nonzero" fill-opacity="1" /></svg>
