<?xml version="1.0" encoding="utf-8"?>
<svg xmlns="http://www.w3.org/2000/svg" xmlns:xlink="http://www.w3.org/1999/xlink" width="600" height="400" viewBox="0 0 2400 1600">
<defs>
  <clipPath id="clip890">
    <rect x="0" y="0" width="2400" height="1600"/>
  </clipPath>
</defs>
<path clip-path="url(#clip890)" d="M0 1600 L2400 1600 L2400 0 L0 0  Z" fill="#ffffff" fill-rule="evenodd" fill-opacity="1"/>
<defs>
  <clipPath id="clip891">
    <rect x="480" y="0" width="1681" height="1600"/>
  </clipPath>
</defs>
<path clip-path="url(#clip890)" d="M258.913 1423.18 L2352.76 1423.18 L2352.76 47.2441 L258.913 47.2441  Z" fill="#ffffff" fill-rule="evenodd" fill-opacity="1"/>
<defs>
  <clipPath id="clip892">
    <rect x="258" y="47" width="2095" height="1377"/>
  </clipPath>
</defs>
<polyline clip-path="url(#clip892)" style="stroke:#000000; stroke-linecap:round; stroke-linejoin:round; stroke-width:2; stroke-opacity:0.1; fill:none" points="258.913,47.2441 258.913,1423.18 "/>
<polyline clip-path="url(#clip892)" style="stroke:#000000; stroke-linecap:round; stroke-linejoin:round; stroke-width:2; stroke-opacity:0.1; fill:none" points="826.698,47.2441 826.698,1423.18 "/>
<polyline clip-path="url(#clip892)" style="stroke:#000000; stroke-linecap:round; stroke-linejoin:round; stroke-width:2; stroke-opacity:0.1; fill:none" points="1394.48,47.2441 1394.48,1423.18 "/>
<polyline clip-path="url(#clip892)" style="stroke:#000000; stroke-linecap:round; stroke-linejoin:round; stroke-width:2; stroke-opacity:0.1; fill:none" points="1962.27,47.2441 1962.27,1423.18 "/>
<polyline clip-path="url(#clip892)" style="stroke:#000000; stroke-linecap:round; stroke-linejoin:round; stroke-width:2; stroke-opacity:0.1; fill:none" points="258.913,180.399 2352.76,180.399 "/>
<polyline clip-path="url(#clip892)" style="stroke:#000000; stroke-linecap:round; stroke-linejoin:round; stroke-width:2; stroke-opacity:0.1; fill:none" points="258.913,402.324 2352.76,402.324 "/>
<polyline clip-path="url(#clip892)" style="stroke:#000000; stroke-linecap:round; stroke-linejoin:round; stroke-width:2; stroke-opacity:0.1; fill:none" points="258.913,624.249 2352.76,624.249 "/>
<polyline clip-path="url(#clip892)" style="stroke:#000000; stroke-linecap:round; stroke-linejoin:round; stroke-width:2; stroke-opacity:0.1; fill:none" points="258.913,846.175 2352.76,846.175 "/>
<polyline clip-path="url(#clip892)" style="stroke:#000000; stroke-linecap:round; stroke-linejoin:round; stroke-width:2; stroke-opacity:0.1; fill:none" points="258.913,1068.1 2352.76,1068.1 "/>
<polyline clip-path="url(#clip892)" style="stroke:#000000; stroke-linecap:round; stroke-linejoin:round; stroke-width:2; stroke-opacity:0.1; fill:none" points="258.913,1290.02 2352.76,1290.02 "/>
<polyline clip-path="url(#clip890)" style="stroke:#000000; stroke-linecap:round; stroke-linejoin:round; stroke-width:4; stroke-opacity:1; fill:none" points="258.913,1423.18 2352.76,1423.18 "/>
<polyline clip-path="url(#clip890)" style="stroke:#000000; stroke-linecap:round; stroke-linejoin:round; stroke-width:4; stroke-opacity:1; fill:none" points="258.913,1423.18 258.913,1404.28 "/>
<polyline clip-path="url(#clip890)" style="stroke:#000000; stroke-linecap:round; stroke-linejoin:round; stroke-width:4; stroke-opacity:1; fill:none" points="826.698,1423.18 826.698,1404.28 "/>
<polyline clip-path="url(#clip890)" style="stroke:#000000; stroke-linecap:round; stroke-linejoin:round; stroke-width:4; stroke-opacity:1; fill:none" points="1394.48,1423.18 1394.48,1404.28 "/>
<polyline clip-path="url(#clip890)" style="stroke:#000000; stroke-linecap:round; stroke-linejoin:round; stroke-width:4; stroke-opacity:1; fill:none" points="1962.27,1423.18 1962.27,1404.28 "/>
<path clip-path="url(#clip890)" d="M258.913 1454.1 Q255.301 1454.1 253.473 1457.66 Q251.667 1461.2 251.667 1468.33 Q251.667 1475.44 253.473 1479.01 Q255.301 1482.55 258.913 1482.55 Q262.547 1482.55 264.352 1479.01 Q266.181 1475.44 266.181 1468.33 Q266.181 1461.2 264.352 1457.66 Q262.547 1454.1 258.913 1454.1 M258.913 1450.39 Q264.723 1450.39 267.778 1455 Q270.857 1459.58 270.857 1468.33 Q270.857 1477.06 267.778 1481.67 Q264.723 1486.25 258.913 1486.25 Q253.102 1486.25 250.024 1481.67 Q246.968 1477.06 246.968 1468.33 Q246.968 1459.58 250.024 1455 Q253.102 1450.39 258.913 1450.39 Z" fill="#000000" fill-rule="nonzero" fill-opacity="1" /><path clip-path="url(#clip890)" d="M801.386 1481.64 L809.025 1481.64 L809.025 1455.28 L800.715 1456.95 L800.715 1452.69 L808.978 1451.02 L813.654 1451.02 L813.654 1481.64 L821.293 1481.64 L821.293 1485.58 L801.386 1485.58 L801.386 1481.64 Z" fill="#000000" fill-rule="nonzero" fill-opacity="1" /><path clip-path="url(#clip890)" d="M840.737 1454.1 Q837.126 1454.1 835.298 1457.66 Q833.492 1461.2 833.492 1468.33 Q833.492 1475.44 835.298 1479.01 Q837.126 1482.55 840.737 1482.55 Q844.372 1482.55 846.177 1479.01 Q848.006 1475.44 848.006 1468.33 Q848.006 1461.2 846.177 1457.66 Q844.372 1454.1 840.737 1454.1 M840.737 1450.39 Q846.548 1450.39 849.603 1455 Q852.682 1459.58 852.682 1468.33 Q852.682 1477.06 849.603 1481.67 Q846.548 1486.25 840.737 1486.25 Q834.927 1486.25 831.849 1481.67 Q828.793 1477.06 828.793 1468.33 Q828.793 1459.58 831.849 1455 Q834.927 1450.39 840.737 1450.39 Z" fill="#000000" fill-rule="nonzero" fill-opacity="1" /><path clip-path="url(#clip890)" d="M1373.26 1481.64 L1389.58 1481.64 L1389.58 1485.58 L1367.63 1485.58 L1367.63 1481.64 Q1370.29 1478.89 1374.88 1474.26 Q1379.48 1469.61 1380.66 1468.27 Q1382.91 1465.74 1383.79 1464.01 Q1384.69 1462.25 1384.69 1460.56 Q1384.69 1457.8 1382.75 1456.07 Q1380.83 1454.33 1377.72 1454.33 Q1375.53 1454.33 1373.07 1455.09 Q1370.64 1455.86 1367.86 1457.41 L1367.86 1452.69 Q1370.69 1451.55 1373.14 1450.97 Q1375.6 1450.39 1377.63 1450.39 Q1383 1450.39 1386.2 1453.08 Q1389.39 1455.77 1389.39 1460.26 Q1389.39 1462.39 1388.58 1464.31 Q1387.79 1466.2 1385.69 1468.8 Q1385.11 1469.47 1382.01 1472.69 Q1378.91 1475.88 1373.26 1481.64 Z" fill="#000000" fill-rule="nonzero" fill-opacity="1" /><path clip-path="url(#clip890)" d="M1409.39 1454.1 Q1405.78 1454.1 1403.95 1457.66 Q1402.15 1461.2 1402.15 1468.33 Q1402.15 1475.44 1403.95 1479.01 Q1405.78 1482.55 1409.39 1482.55 Q1413.03 1482.55 1414.83 1479.01 Q1416.66 1475.44 1416.66 1468.33 Q1416.66 1461.2 1414.83 1457.66 Q1413.03 1454.1 1409.39 1454.1 M1409.39 1450.39 Q1415.2 1450.39 1418.26 1455 Q1421.34 1459.58 1421.34 1468.33 Q1421.34 1477.06 1418.26 1481.67 Q1415.2 1486.25 1409.39 1486.25 Q1403.58 1486.25 1400.5 1481.67 Q1397.45 1477.06 1397.45 1468.33 Q1397.45 1459.58 1400.5 1455 Q1403.58 1450.39 1409.39 1450.39 Z" fill="#000000" fill-rule="nonzero" fill-opacity="1" /><path clip-path="url(#clip890)" d="M1951.11 1466.95 Q1954.47 1467.66 1956.34 1469.93 Q1958.24 1472.2 1958.24 1475.53 Q1958.24 1480.65 1954.72 1483.45 Q1951.2 1486.25 1944.72 1486.25 Q1942.55 1486.25 1940.23 1485.81 Q1937.94 1485.39 1935.49 1484.54 L1935.49 1480.02 Q1937.43 1481.16 1939.75 1481.74 Q1942.06 1482.32 1944.58 1482.32 Q1948.98 1482.32 1951.27 1480.58 Q1953.59 1478.84 1953.59 1475.53 Q1953.59 1472.48 1951.44 1470.77 Q1949.31 1469.03 1945.49 1469.03 L1941.46 1469.03 L1941.46 1465.19 L1945.67 1465.19 Q1949.12 1465.19 1950.95 1463.82 Q1952.78 1462.43 1952.78 1459.84 Q1952.78 1457.18 1950.88 1455.77 Q1949.01 1454.33 1945.49 1454.33 Q1943.57 1454.33 1941.37 1454.75 Q1939.17 1455.16 1936.53 1456.04 L1936.53 1451.88 Q1939.19 1451.14 1941.51 1450.77 Q1943.84 1450.39 1945.9 1450.39 Q1951.23 1450.39 1954.33 1452.83 Q1957.43 1455.23 1957.43 1459.35 Q1957.43 1462.22 1955.79 1464.21 Q1954.14 1466.18 1951.11 1466.95 Z" fill="#000000" fill-rule="nonzero" fill-opacity="1" /><path clip-path="url(#clip890)" d="M1977.11 1454.1 Q1973.5 1454.1 1971.67 1457.66 Q1969.86 1461.2 1969.86 1468.33 Q1969.86 1475.44 1971.67 1479.01 Q1973.5 1482.55 1977.11 1482.55 Q1980.74 1482.55 1982.55 1479.01 Q1984.38 1475.44 1984.38 1468.33 Q1984.38 1461.2 1982.55 1457.66 Q1980.74 1454.1 1977.11 1454.1 M1977.11 1450.39 Q1982.92 1450.39 1985.97 1455 Q1989.05 1459.58 1989.05 1468.33 Q1989.05 1477.06 1985.97 1481.67 Q1982.92 1486.25 1977.11 1486.25 Q1971.3 1486.25 1968.22 1481.67 Q1965.16 1477.06 1965.16 1468.33 Q1965.16 1459.58 1968.22 1455 Q1971.3 1450.39 1977.11 1450.39 Z" fill="#000000" fill-rule="nonzero" fill-opacity="1" /><path clip-path="url(#clip890)" d="M1035.43 1520.52 L1045.02 1520.52 L1057.14 1552.86 L1069.33 1520.52 L1078.91 1520.52 L1078.91 1568.04 L1072.64 1568.04 L1072.64 1526.32 L1060.39 1558.91 L1053.93 1558.91 L1041.67 1526.32 L1041.67 1568.04 L1035.43 1568.04 L1035.43 1520.52 Z" fill="#000000" fill-rule="nonzero" fill-opacity="1" /><path clip-path="url(#clip890)" d="M1105.23 1536.5 Q1100.52 1536.5 1097.79 1540.19 Q1095.05 1543.85 1095.05 1550.25 Q1095.05 1556.65 1097.76 1560.34 Q1100.49 1564 1105.23 1564 Q1109.91 1564 1112.65 1560.31 Q1115.39 1556.62 1115.39 1550.25 Q1115.39 1543.92 1112.65 1540.23 Q1109.91 1536.5 1105.23 1536.5 M1105.23 1531.54 Q1112.87 1531.54 1117.23 1536.5 Q1121.59 1541.47 1121.59 1550.25 Q1121.59 1559 1117.23 1564 Q1112.87 1568.97 1105.23 1568.97 Q1097.56 1568.97 1093.2 1564 Q1088.88 1559 1088.88 1550.25 Q1088.88 1541.47 1093.2 1536.5 Q1097.56 1531.54 1105.23 1531.54 Z" fill="#000000" fill-rule="nonzero" fill-opacity="1" /><path clip-path="url(#clip890)" d="M1131.3 1518.52 L1137.16 1518.52 L1137.16 1568.04 L1131.3 1568.04 L1131.3 1518.52 Z" fill="#000000" fill-rule="nonzero" fill-opacity="1" /><path clip-path="url(#clip890)" d="M1179.9 1548.76 L1179.9 1551.62 L1152.98 1551.62 Q1153.36 1557.67 1156.61 1560.85 Q1159.88 1564 1165.71 1564 Q1169.08 1564 1172.23 1563.17 Q1175.42 1562.35 1178.54 1560.69 L1178.54 1566.23 Q1175.38 1567.57 1172.07 1568.27 Q1168.76 1568.97 1165.36 1568.97 Q1156.83 1568.97 1151.83 1564 Q1146.87 1559.04 1146.87 1550.57 Q1146.87 1541.82 1151.58 1536.69 Q1156.32 1531.54 1164.34 1531.54 Q1171.53 1531.54 1175.7 1536.18 Q1179.9 1540.8 1179.9 1548.76 M1174.05 1547.04 Q1173.98 1542.23 1171.34 1539.37 Q1168.73 1536.5 1164.4 1536.5 Q1159.5 1536.5 1156.54 1539.27 Q1153.61 1542.04 1153.17 1547.07 L1174.05 1547.04 Z" fill="#000000" fill-rule="nonzero" fill-opacity="1" /><path clip-path="url(#clip890)" d="M1228.28 1518.52 L1228.28 1523.39 L1222.68 1523.39 Q1219.53 1523.39 1218.29 1524.66 Q1217.08 1525.93 1217.08 1529.24 L1217.08 1532.4 L1226.72 1532.4 L1226.72 1536.95 L1217.08 1536.95 L1217.08 1568.04 L1211.19 1568.04 L1211.19 1536.95 L1205.59 1536.95 L1205.59 1532.4 L1211.19 1532.4 L1211.19 1529.91 Q1211.19 1523.96 1213.96 1521.26 Q1216.73 1518.52 1222.75 1518.52 L1228.28 1518.52 Z" fill="#000000" fill-rule="nonzero" fill-opacity="1" /><path clip-path="url(#clip890)" d="M1253.84 1537.87 Q1252.86 1537.3 1251.68 1537.04 Q1250.53 1536.76 1249.13 1536.76 Q1244.17 1536.76 1241.49 1540 Q1238.85 1543.22 1238.85 1549.27 L1238.85 1568.04 L1232.96 1568.04 L1232.96 1532.4 L1238.85 1532.4 L1238.85 1537.93 Q1240.7 1534.69 1243.66 1533.13 Q1246.62 1531.54 1250.85 1531.54 Q1251.46 1531.54 1252.19 1531.63 Q1252.92 1531.7 1253.81 1531.85 L1253.84 1537.87 Z" fill="#000000" fill-rule="nonzero" fill-opacity="1" /><path clip-path="url(#clip890)" d="M1276.19 1550.12 Q1269.09 1550.12 1266.35 1551.75 Q1263.61 1553.37 1263.61 1557.29 Q1263.61 1560.4 1265.65 1562.25 Q1267.72 1564.07 1271.25 1564.07 Q1276.12 1564.07 1279.05 1560.63 Q1282.01 1557.16 1282.01 1551.43 L1282.01 1550.12 L1276.19 1550.12 M1287.87 1547.71 L1287.87 1568.04 L1282.01 1568.04 L1282.01 1562.63 Q1280.01 1565.88 1277.01 1567.44 Q1274.02 1568.97 1269.69 1568.97 Q1264.22 1568.97 1260.97 1565.91 Q1257.76 1562.82 1257.76 1557.67 Q1257.76 1551.65 1261.77 1548.6 Q1265.81 1545.54 1273.8 1545.54 L1282.01 1545.54 L1282.01 1544.97 Q1282.01 1540.93 1279.34 1538.73 Q1276.7 1536.5 1271.89 1536.5 Q1268.83 1536.5 1265.94 1537.23 Q1263.04 1537.97 1260.37 1539.43 L1260.37 1534.02 Q1263.58 1532.78 1266.61 1532.17 Q1269.63 1531.54 1272.49 1531.54 Q1280.23 1531.54 1284.05 1535.55 Q1287.87 1539.56 1287.87 1547.71 Z" fill="#000000" fill-rule="nonzero" fill-opacity="1" /><path clip-path="url(#clip890)" d="M1325.58 1533.76 L1325.58 1539.24 Q1323.1 1537.87 1320.59 1537.2 Q1318.1 1536.5 1315.56 1536.5 Q1309.86 1536.5 1306.71 1540.13 Q1303.56 1543.73 1303.56 1550.25 Q1303.56 1556.78 1306.71 1560.4 Q1309.86 1564 1315.56 1564 Q1318.1 1564 1320.59 1563.33 Q1323.1 1562.63 1325.58 1561.26 L1325.58 1566.68 Q1323.13 1567.82 1320.49 1568.39 Q1317.88 1568.97 1314.92 1568.97 Q1306.87 1568.97 1302.13 1563.91 Q1297.38 1558.85 1297.38 1550.25 Q1297.38 1541.53 1302.16 1536.53 Q1306.96 1531.54 1315.3 1531.54 Q1318.01 1531.54 1320.59 1532.11 Q1323.16 1532.65 1325.58 1533.76 Z" fill="#000000" fill-rule="nonzero" fill-opacity="1" /><path clip-path="url(#clip890)" d="M1341.56 1522.27 L1341.56 1532.4 L1353.62 1532.4 L1353.62 1536.95 L1341.56 1536.95 L1341.56 1556.3 Q1341.56 1560.66 1342.74 1561.9 Q1343.95 1563.14 1347.61 1563.14 L1353.62 1563.14 L1353.62 1568.04 L1347.61 1568.04 Q1340.83 1568.04 1338.25 1565.53 Q1335.67 1562.98 1335.67 1556.3 L1335.67 1536.95 L1331.38 1536.95 L1331.38 1532.4 L1335.67 1532.4 L1335.67 1522.27 L1341.56 1522.27 Z" fill="#000000" fill-rule="nonzero" fill-opacity="1" /><path clip-path="url(#clip890)" d="M1361.33 1532.4 L1367.18 1532.4 L1367.18 1568.04 L1361.33 1568.04 L1361.33 1532.4 M1361.33 1518.52 L1367.18 1518.52 L1367.18 1525.93 L1361.33 1525.93 L1361.33 1518.52 Z" fill="#000000" fill-rule="nonzero" fill-opacity="1" /><path clip-path="url(#clip890)" d="M1393.25 1536.5 Q1388.54 1536.5 1385.8 1540.19 Q1383.07 1543.85 1383.07 1550.25 Q1383.07 1556.65 1385.77 1560.34 Q1388.51 1564 1393.25 1564 Q1397.93 1564 1400.67 1560.31 Q1403.4 1556.62 1403.4 1550.25 Q1403.4 1543.92 1400.67 1540.23 Q1397.93 1536.5 1393.25 1536.5 M1393.25 1531.54 Q1400.89 1531.54 1405.25 1536.5 Q1409.61 1541.47 1409.61 1550.25 Q1409.61 1559 1405.25 1564 Q1400.89 1568.97 1393.25 1568.97 Q1385.58 1568.97 1381.22 1564 Q1376.89 1559 1376.89 1550.25 Q1376.89 1541.47 1381.22 1536.5 Q1385.58 1531.54 1393.25 1531.54 Z" fill="#000000" fill-rule="nonzero" fill-opacity="1" /><path clip-path="url(#clip890)" d="M1448.95 1546.53 L1448.95 1568.04 L1443.09 1568.04 L1443.09 1546.72 Q1443.09 1541.66 1441.12 1539.14 Q1439.15 1536.63 1435.2 1536.63 Q1430.46 1536.63 1427.72 1539.65 Q1424.98 1542.68 1424.98 1547.9 L1424.98 1568.04 L1419.1 1568.04 L1419.1 1532.4 L1424.98 1532.4 L1424.98 1537.93 Q1427.09 1534.72 1429.92 1533.13 Q1432.78 1531.54 1436.51 1531.54 Q1442.65 1531.54 1445.8 1535.36 Q1448.95 1539.14 1448.95 1546.53 Z" fill="#000000" fill-rule="nonzero" fill-opacity="1" /><path clip-path="url(#clip890)" d="M1491.76 1520.52 L1497.17 1520.52 L1480.62 1574.09 L1475.21 1574.09 L1491.76 1520.52 Z" fill="#000000" fill-rule="nonzero" fill-opacity="1" /><path clip-path="url(#clip890)" d="M1565.28 1547.13 Q1562.52 1547.13 1560.92 1549.49 Q1559.36 1551.84 1559.36 1556.04 Q1559.36 1560.18 1560.92 1562.57 Q1562.52 1564.92 1565.28 1564.92 Q1567.99 1564.92 1569.55 1562.57 Q1571.14 1560.18 1571.14 1556.04 Q1571.14 1551.87 1569.55 1549.52 Q1567.99 1547.13 1565.28 1547.13 M1565.28 1543.09 Q1570.31 1543.09 1573.27 1546.59 Q1576.23 1550.09 1576.23 1556.04 Q1576.23 1562 1573.24 1565.5 Q1570.28 1568.97 1565.28 1568.97 Q1560.19 1568.97 1557.23 1565.5 Q1554.27 1562 1554.27 1556.04 Q1554.27 1550.06 1557.23 1546.59 Q1560.22 1543.09 1565.28 1543.09 M1532.44 1523.71 Q1529.7 1523.71 1528.11 1526.09 Q1526.55 1528.45 1526.55 1532.59 Q1526.55 1536.79 1528.11 1539.14 Q1529.67 1541.5 1532.44 1541.5 Q1535.21 1541.5 1536.77 1539.14 Q1538.36 1536.79 1538.36 1532.59 Q1538.36 1528.48 1536.77 1526.09 Q1535.17 1523.71 1532.44 1523.71 M1561.18 1519.66 L1566.27 1519.66 L1536.54 1568.97 L1531.45 1568.97 L1561.18 1519.66 M1532.44 1519.66 Q1537.47 1519.66 1540.46 1523.17 Q1543.45 1526.63 1543.45 1532.59 Q1543.45 1538.6 1540.46 1542.07 Q1537.5 1545.54 1532.44 1545.54 Q1527.38 1545.54 1524.42 1542.07 Q1521.49 1538.57 1521.49 1532.59 Q1521.49 1526.67 1524.45 1523.17 Q1527.41 1519.66 1532.44 1519.66 Z" fill="#000000" fill-rule="nonzero" fill-opacity="1" /><polyline clip-path="url(#clip890)" style="stroke:#000000; stroke-linecap:round; stroke-linejoin:round; stroke-width:4; stroke-opacity:1; fill:none" points="258.913,47.2441 258.913,1423.18 "/>
<polyline clip-path="url(#clip890)" style="stroke:#000000; stroke-linecap:round; stroke-linejoin:round; stroke-width:4; stroke-opacity:1; fill:none" points="258.913,180.399 277.81,180.399 "/>
<polyline clip-path="url(#clip890)" style="stroke:#000000; stroke-linecap:round; stroke-linejoin:round; stroke-width:4; stroke-opacity:1; fill:none" points="258.913,402.324 277.81,402.324 "/>
<polyline clip-path="url(#clip890)" style="stroke:#000000; stroke-linecap:round; stroke-linejoin:round; stroke-width:4; stroke-opacity:1; fill:none" points="258.913,624.249 277.81,624.249 "/>
<polyline clip-path="url(#clip890)" style="stroke:#000000; stroke-linecap:round; stroke-linejoin:round; stroke-width:4; stroke-opacity:1; fill:none" points="258.913,846.175 277.81,846.175 "/>
<polyline clip-path="url(#clip890)" style="stroke:#000000; stroke-linecap:round; stroke-linejoin:round; stroke-width:4; stroke-opacity:1; fill:none" points="258.913,1068.1 277.81,1068.1 "/>
<polyline clip-path="url(#clip890)" style="stroke:#000000; stroke-linecap:round; stroke-linejoin:round; stroke-width:4; stroke-opacity:1; fill:none" points="258.913,1290.02 277.81,1290.02 "/>
<path clip-path="url(#clip890)" d="M158.422 161.661 L168.237 161.661 L168.237 164.971 L162.681 164.971 L162.681 200.619 L168.237 200.619 L168.237 203.929 L158.422 203.929 L158.422 161.661 Z" fill="#000000" fill-rule="nonzero" fill-opacity="1" /><path clip-path="url(#clip890)" d="M177.496 163.119 L182.172 163.119 L182.172 177.286 L199.163 177.286 L199.163 163.119 L203.839 163.119 L203.839 197.679 L199.163 197.679 L199.163 181.221 L182.172 181.221 L182.172 197.679 L177.496 197.679 L177.496 163.119 Z" fill="#000000" fill-rule="nonzero" fill-opacity="1" /><path clip-path="url(#clip890)" d="M222.913 161.661 L222.913 203.929 L213.098 203.929 L213.098 200.619 L218.63 200.619 L218.63 164.971 L213.098 164.971 L213.098 161.661 L222.913 161.661 Z" fill="#000000" fill-rule="nonzero" fill-opacity="1" /><path clip-path="url(#clip890)" d="M85.7836 383.586 L95.5984 383.586 L95.5984 386.896 L90.0428 386.896 L90.0428 422.544 L95.5984 422.544 L95.5984 425.854 L85.7836 425.854 L85.7836 383.586 Z" fill="#000000" fill-rule="nonzero" fill-opacity="1" /><path clip-path="url(#clip890)" d="M104.858 385.044 L109.533 385.044 L109.533 399.211 L126.524 399.211 L126.524 385.044 L131.2 385.044 L131.2 419.604 L126.524 419.604 L126.524 403.146 L109.533 403.146 L109.533 419.604 L104.858 419.604 L104.858 385.044 Z" fill="#000000" fill-rule="nonzero" fill-opacity="1" /><path clip-path="url(#clip890)" d="M150.274 383.586 L150.274 425.854 L140.459 425.854 L140.459 422.544 L145.992 422.544 L145.992 386.896 L140.459 386.896 L140.459 383.586 L150.274 383.586 Z" fill="#000000" fill-rule="nonzero" fill-opacity="1" /><path clip-path="url(#clip890)" d="M158.422 383.586 L168.237 383.586 L168.237 386.896 L162.681 386.896 L162.681 422.544 L168.237 422.544 L168.237 425.854 L158.422 425.854 L158.422 383.586 Z" fill="#000000" fill-rule="nonzero" fill-opacity="1" /><path clip-path="url(#clip890)" d="M177.496 385.044 L182.172 385.044 L182.172 399.211 L199.163 399.211 L199.163 385.044 L203.839 385.044 L203.839 419.604 L199.163 419.604 L199.163 403.146 L182.172 403.146 L182.172 419.604 L177.496 419.604 L177.496 385.044 Z" fill="#000000" fill-rule="nonzero" fill-opacity="1" /><path clip-path="url(#clip890)" d="M222.913 383.586 L222.913 425.854 L213.098 425.854 L213.098 422.544 L218.63 422.544 L218.63 386.896 L213.098 386.896 L213.098 383.586 L222.913 383.586 Z" fill="#000000" fill-rule="nonzero" fill-opacity="1" /><path clip-path="url(#clip890)" d="M222.913 609.631 L222.913 614.562 Q220.551 612.363 217.866 611.275 Q215.204 610.187 212.195 610.187 Q206.269 610.187 203.121 613.821 Q199.973 617.432 199.973 624.284 Q199.973 631.113 203.121 634.747 Q206.269 638.358 212.195 638.358 Q215.204 638.358 217.866 637.27 Q220.551 636.182 222.913 633.983 L222.913 638.867 Q220.459 640.534 217.704 641.367 Q214.973 642.201 211.917 642.201 Q204.07 642.201 199.556 637.409 Q195.042 632.594 195.042 624.284 Q195.042 615.951 199.556 611.159 Q204.07 606.344 211.917 606.344 Q215.019 606.344 217.75 607.178 Q220.505 607.988 222.913 609.631 Z" fill="#000000" fill-rule="nonzero" fill-opacity="1" /><path clip-path="url(#clip890)" d="M95.1586 827.436 L104.973 827.436 L104.973 830.746 L99.4178 830.746 L99.4178 866.394 L104.973 866.394 L104.973 869.704 L95.1586 869.704 L95.1586 827.436 Z" fill="#000000" fill-rule="nonzero" fill-opacity="1" /><path clip-path="url(#clip890)" d="M140.112 831.557 L140.112 836.487 Q137.751 834.288 135.066 833.2 Q132.404 832.112 129.394 832.112 Q123.469 832.112 120.32 835.746 Q117.172 839.357 117.172 846.209 Q117.172 853.038 120.32 856.672 Q123.469 860.283 129.394 860.283 Q132.404 860.283 135.066 859.195 Q137.751 858.107 140.112 855.908 L140.112 860.793 Q137.658 862.459 134.904 863.292 Q132.172 864.126 129.117 864.126 Q121.27 864.126 116.756 859.334 Q112.242 854.519 112.242 846.209 Q112.242 837.876 116.756 833.084 Q121.27 828.27 129.117 828.27 Q132.219 828.27 134.95 829.103 Q137.705 829.913 140.112 831.557 Z" fill="#000000" fill-rule="nonzero" fill-opacity="1" /><path clip-path="url(#clip890)" d="M147.334 828.895 L152.01 828.895 L152.01 843.061 L169.001 843.061 L169.001 828.895 L173.677 828.895 L173.677 863.455 L169.001 863.455 L169.001 846.996 L152.01 846.996 L152.01 863.455 L147.334 863.455 L147.334 828.895 Z" fill="#000000" fill-rule="nonzero" fill-opacity="1" /><path clip-path="url(#clip890)" d="M197.565 844.82 Q200.922 845.538 202.797 847.806 Q204.695 850.075 204.695 853.408 Q204.695 858.524 201.177 861.325 Q197.658 864.126 191.177 864.126 Q189.001 864.126 186.686 863.686 Q184.394 863.269 181.94 862.413 L181.94 857.899 Q183.885 859.033 186.2 859.612 Q188.515 860.191 191.038 860.191 Q195.436 860.191 197.727 858.455 Q200.042 856.718 200.042 853.408 Q200.042 850.353 197.889 848.64 Q195.76 846.904 191.94 846.904 L187.913 846.904 L187.913 843.061 L192.126 843.061 Q195.575 843.061 197.403 841.695 Q199.232 840.307 199.232 837.714 Q199.232 835.052 197.334 833.64 Q195.459 832.205 191.94 832.205 Q190.019 832.205 187.82 832.621 Q185.621 833.038 182.982 833.918 L182.982 829.751 Q185.644 829.01 187.959 828.64 Q190.297 828.27 192.357 828.27 Q197.681 828.27 200.783 830.7 Q203.885 833.107 203.885 837.228 Q203.885 840.098 202.241 842.089 Q200.598 844.056 197.565 844.82 Z" fill="#000000" fill-rule="nonzero" fill-opacity="1" /><path clip-path="url(#clip890)" d="M222.913 827.436 L222.913 869.704 L213.098 869.704 L213.098 866.394 L218.63 866.394 L218.63 830.746 L213.098 830.746 L213.098 827.436 L222.913 827.436 Z" fill="#000000" fill-rule="nonzero" fill-opacity="1" /><path clip-path="url(#clip890)" d="M50.9921 1049.36 L60.8069 1049.36 L60.8069 1052.67 L55.2514 1052.67 L55.2514 1088.32 L60.8069 1088.32 L60.8069 1091.63 L50.9921 1091.63 L50.9921 1049.36 Z" fill="#000000" fill-rule="nonzero" fill-opacity="1" /><path clip-path="url(#clip890)" d="M95.9456 1053.48 L95.9456 1058.41 Q93.5845 1056.21 90.8993 1055.13 Q88.2373 1054.04 85.2281 1054.04 Q79.3022 1054.04 76.154 1057.67 Q73.0059 1061.28 73.0059 1068.13 Q73.0059 1074.96 76.154 1078.6 Q79.3022 1082.21 85.2281 1082.21 Q88.2373 1082.21 90.8993 1081.12 Q93.5845 1080.03 95.9456 1077.83 L95.9456 1082.72 Q93.4919 1084.38 90.7373 1085.22 Q88.0058 1086.05 84.9503 1086.05 Q77.1031 1086.05 72.5892 1081.26 Q68.0754 1076.44 68.0754 1068.13 Q68.0754 1059.8 72.5892 1055.01 Q77.1031 1050.19 84.9503 1050.19 Q88.0521 1050.19 90.7836 1051.03 Q93.5382 1051.84 95.9456 1053.48 Z" fill="#000000" fill-rule="nonzero" fill-opacity="1" /><path clip-path="url(#clip890)" d="M103.168 1050.82 L107.844 1050.82 L107.844 1064.99 L124.834 1064.99 L124.834 1050.82 L129.51 1050.82 L129.51 1085.38 L124.834 1085.38 L124.834 1068.92 L107.844 1068.92 L107.844 1085.38 L103.168 1085.38 L103.168 1050.82 Z" fill="#000000" fill-rule="nonzero" fill-opacity="1" /><path clip-path="url(#clip890)" d="M148.584 1049.36 L148.584 1091.63 L138.769 1091.63 L138.769 1088.32 L144.302 1088.32 L144.302 1052.67 L138.769 1052.67 L138.769 1049.36 L148.584 1049.36 Z" fill="#000000" fill-rule="nonzero" fill-opacity="1" /><path clip-path="url(#clip890)" d="M157.681 1063.85 L187.357 1063.85 L187.357 1067.74 L157.681 1067.74 L157.681 1063.85 M157.681 1073.3 L187.357 1073.3 L187.357 1077.23 L157.681 1077.23 L157.681 1073.3 Z" fill="#000000" fill-rule="nonzero" fill-opacity="1" /><path clip-path="url(#clip890)" d="M222.913 1053.48 L222.913 1058.41 Q220.551 1056.21 217.866 1055.13 Q215.204 1054.04 212.195 1054.04 Q206.269 1054.04 203.121 1057.67 Q199.973 1061.28 199.973 1068.13 Q199.973 1074.96 203.121 1078.6 Q206.269 1082.21 212.195 1082.21 Q215.204 1082.21 217.866 1081.12 Q220.551 1080.03 222.913 1077.83 L222.913 1082.72 Q220.459 1084.38 217.704 1085.22 Q214.973 1086.05 211.917 1086.05 Q204.07 1086.05 199.556 1081.26 Q195.042 1076.44 195.042 1068.13 Q195.042 1059.8 199.556 1055.01 Q204.07 1050.19 211.917 1050.19 Q215.019 1050.19 217.75 1051.03 Q220.505 1051.84 222.913 1053.48 Z" fill="#000000" fill-rule="nonzero" fill-opacity="1" /><path clip-path="url(#clip890)" d="M84.6031 1275.92 Q79.5105 1275.92 76.5012 1279.71 Q73.5152 1283.51 73.5152 1290.06 Q73.5152 1296.59 76.5012 1300.38 Q79.5105 1304.18 84.6031 1304.18 Q89.6956 1304.18 92.6586 1300.38 Q95.6447 1296.59 95.6447 1290.06 Q95.6447 1283.51 92.6586 1279.71 Q89.6956 1275.92 84.6031 1275.92 M84.6031 1272.12 Q91.8715 1272.12 96.2234 1277 Q100.575 1281.87 100.575 1290.06 Q100.575 1298.23 96.2234 1303.11 Q91.8715 1307.98 84.6031 1307.98 Q77.3114 1307.98 72.9365 1303.11 Q68.5846 1298.25 68.5846 1290.06 Q68.5846 1281.87 72.9365 1277 Q77.3114 1272.12 84.6031 1272.12 Z" fill="#000000" fill-rule="nonzero" fill-opacity="1" /><path clip-path="url(#clip890)" d="M111.918 1274.02 L111.918 1281.38 L120.691 1281.38 L120.691 1284.69 L111.918 1284.69 L111.918 1298.76 Q111.918 1301.93 112.774 1302.84 Q113.654 1303.74 116.316 1303.74 L120.691 1303.74 L120.691 1307.3 L116.316 1307.3 Q111.385 1307.3 109.51 1305.48 Q107.635 1303.62 107.635 1298.76 L107.635 1284.69 L104.51 1284.69 L104.51 1281.38 L107.635 1281.38 L107.635 1274.02 L111.918 1274.02 Z" fill="#000000" fill-rule="nonzero" fill-opacity="1" /><path clip-path="url(#clip890)" d="M147.843 1291.66 L147.843 1307.3 L143.584 1307.3 L143.584 1291.8 Q143.584 1288.12 142.149 1286.29 Q140.714 1284.46 137.844 1284.46 Q134.394 1284.46 132.404 1286.66 Q130.413 1288.86 130.413 1292.65 L130.413 1307.3 L126.131 1307.3 L126.131 1271.29 L130.413 1271.29 L130.413 1285.41 Q131.941 1283.07 134.001 1281.91 Q136.084 1280.75 138.793 1280.75 Q143.26 1280.75 145.552 1283.53 Q147.843 1286.29 147.843 1291.66 Z" fill="#000000" fill-rule="nonzero" fill-opacity="1" /><path clip-path="url(#clip890)" d="M178.515 1293.28 L178.515 1295.36 L158.931 1295.36 Q159.209 1299.76 161.57 1302.07 Q163.954 1304.36 168.191 1304.36 Q170.644 1304.36 172.936 1303.76 Q175.251 1303.16 177.519 1301.96 L177.519 1305.99 Q175.228 1306.96 172.82 1307.47 Q170.413 1307.98 167.936 1307.98 Q161.732 1307.98 158.098 1304.36 Q154.487 1300.75 154.487 1294.6 Q154.487 1288.23 157.913 1284.5 Q161.362 1280.75 167.195 1280.75 Q172.427 1280.75 175.459 1284.13 Q178.515 1287.49 178.515 1293.28 M174.255 1292.03 Q174.209 1288.53 172.288 1286.45 Q170.39 1284.37 167.242 1284.37 Q163.677 1284.37 161.524 1286.38 Q159.394 1288.39 159.07 1292.05 L174.255 1292.03 Z" fill="#000000" fill-rule="nonzero" fill-opacity="1" /><path clip-path="url(#clip890)" d="M200.528 1285.36 Q199.811 1284.94 198.954 1284.76 Q198.121 1284.55 197.102 1284.55 Q193.491 1284.55 191.547 1286.91 Q189.626 1289.25 189.626 1293.65 L189.626 1307.3 L185.343 1307.3 L185.343 1281.38 L189.626 1281.38 L189.626 1285.41 Q190.968 1283.05 193.121 1281.91 Q195.274 1280.75 198.352 1280.75 Q198.792 1280.75 199.325 1280.82 Q199.857 1280.87 200.505 1280.99 L200.528 1285.36 Z" fill="#000000" fill-rule="nonzero" fill-opacity="1" /><path clip-path="url(#clip890)" d="M221.524 1282.14 L221.524 1286.17 Q219.718 1285.24 217.774 1284.78 Q215.829 1284.32 213.746 1284.32 Q210.575 1284.32 208.977 1285.29 Q207.403 1286.26 207.403 1288.21 Q207.403 1289.69 208.538 1290.55 Q209.672 1291.38 213.098 1292.14 L214.556 1292.47 Q219.093 1293.44 220.991 1295.22 Q222.913 1296.98 222.913 1300.15 Q222.913 1303.76 220.042 1305.87 Q217.195 1307.98 212.195 1307.98 Q210.112 1307.98 207.843 1307.56 Q205.598 1307.17 203.098 1306.36 L203.098 1301.96 Q205.459 1303.18 207.751 1303.81 Q210.042 1304.41 212.288 1304.41 Q215.297 1304.41 216.917 1303.39 Q218.538 1302.35 218.538 1300.48 Q218.538 1298.74 217.357 1297.81 Q216.2 1296.89 212.241 1296.03 L210.76 1295.68 Q206.801 1294.85 205.042 1293.14 Q203.283 1291.4 203.283 1288.39 Q203.283 1284.74 205.876 1282.74 Q208.468 1280.75 213.237 1280.75 Q215.598 1280.75 217.681 1281.1 Q219.764 1281.45 221.524 1282.14 Z" fill="#000000" fill-rule="nonzero" fill-opacity="1" /><path clip-path="url(#clip892)" d="M2352.76 91.6291 L258.913 91.6291 L258.913 269.169 L2352.76 269.169 L2352.76 91.6291 L2352.76 91.6291  Z" fill="#e26f46" fill-rule="evenodd" fill-opacity="1"/>
<polyline clip-path="url(#clip892)" style="stroke:#000000; stroke-linecap:round; stroke-linejoin:round; stroke-width:4; stroke-opacity:1; fill:none" points="2352.76,91.6291 258.913,91.6291 258.913,269.169 2352.76,269.169 2352.76,91.6291 "/>
<path clip-path="url(#clip892)" d="M1621.45 313.554 L258.913 313.554 L258.913 491.094 L1621.45 491.094 L1621.45 313.554 L1621.45 313.554  Z" fill="#009af9" fill-rule="evenodd" fill-opacity="1"/>
<polyline clip-path="url(#clip892)" style="stroke:#000000; stroke-linecap:round; stroke-linejoin:round; stroke-width:4; stroke-opacity:1; fill:none" points="1621.45,313.554 258.913,313.554 258.913,491.094 1621.45,491.094 1621.45,313.554 "/>
<path clip-path="url(#clip892)" d="M757.451 535.479 L258.913 535.479 L258.913 713.019 L757.451 713.019 L757.451 535.479 L757.451 535.479  Z" fill="#009af9" fill-rule="evenodd" fill-opacity="1"/>
<polyline clip-path="url(#clip892)" style="stroke:#000000; stroke-linecap:round; stroke-linejoin:round; stroke-width:4; stroke-opacity:1; fill:none" points="757.451,535.479 258.913,535.479 258.913,713.019 757.451,713.019 757.451,535.479 "/>
<path clip-path="url(#clip892)" d="M704.466 757.404 L258.913 757.404 L258.913 934.945 L704.466 934.945 L704.466 757.404 L704.466 757.404  Z" fill="#e26f46" fill-rule="evenodd" fill-opacity="1"/>
<polyline clip-path="url(#clip892)" style="stroke:#000000; stroke-linecap:round; stroke-linejoin:round; stroke-width:4; stroke-opacity:1; fill:none" points="704.466,757.404 258.913,757.404 258.913,934.945 704.466,934.945 704.466,757.404 "/>
<path clip-path="url(#clip892)" d="M603.388 979.33 L258.913 979.33 L258.913 1156.87 L603.388 1156.87 L603.388 979.33 L603.388 979.33  Z" fill="#e26f46" fill-rule="evenodd" fill-opacity="1"/>
<polyline clip-path="url(#clip892)" style="stroke:#000000; stroke-linecap:round; stroke-linejoin:round; stroke-width:4; stroke-opacity:1; fill:none" points="603.388,979.33 258.913,979.33 258.913,1156.87 603.388,1156.87 603.388,979.33 "/>
<path clip-path="url(#clip892)" d="M1191.82 1201.25 L258.913 1201.25 L258.913 1378.79 L1191.82 1378.79 L1191.82 1201.25 L1191.82 1201.25  Z" fill="#009af9" fill-rule="evenodd" fill-opacity="1"/>
<polyline clip-path="url(#clip892)" style="stroke:#000000; stroke-linecap:round; stroke-linejoin:round; stroke-width:4; stroke-opacity:1; fill:none" points="1191.82,1201.25 258.913,1201.25 258.913,1378.79 1191.82,1378.79 1191.82,1201.25 "/>
<circle clip-path="url(#clip892)" style="fill:#e26f46; stroke:none; fill-opacity:0" cx="542.805" cy="1304.89" r="2"/>
</svg>
