<?xml version="1.0" encoding="utf-8"?>
<svg xmlns="http://www.w3.org/2000/svg" xmlns:xlink="http://www.w3.org/1999/xlink" width="600" height="400" viewBox="0 0 2400 1600">
<defs>
  <clipPath id="clip640">
    <rect x="0" y="0" width="2400" height="1600"/>
  </clipPath>
</defs>
<path clip-path="url(#clip640)" d="M0 1600 L2400 1600 L2400 0 L0 0  Z" fill="#ffffff" fill-rule="evenodd" fill-opacity="1"/>
<defs>
  <clipPath id="clip641">
    <rect x="480" y="0" width="1681" height="1600"/>
  </clipPath>
</defs>
<path clip-path="url(#clip640)" d="M241.32 1423.18 L2352.76 1423.18 L2352.76 47.2441 L241.32 47.2441  Z" fill="#ffffff" fill-rule="evenodd" fill-opacity="1"/>
<defs>
  <clipPath id="clip642">
    <rect x="241" y="47" width="2112" height="1377"/>
  </clipPath>
</defs>
<polyline clip-path="url(#clip642)" style="stroke:#000000; stroke-linecap:round; stroke-linejoin:round; stroke-width:2; stroke-opacity:0.1; fill:none" points="241.32,47.2441 241.32,1423.18 "/>
<polyline clip-path="url(#clip642)" style="stroke:#000000; stroke-linecap:round; stroke-linejoin:round; stroke-width:2; stroke-opacity:0.1; fill:none" points="813.876,47.2441 813.876,1423.18 "/>
<polyline clip-path="url(#clip642)" style="stroke:#000000; stroke-linecap:round; stroke-linejoin:round; stroke-width:2; stroke-opacity:0.1; fill:none" points="1386.43,47.2441 1386.43,1423.18 "/>
<polyline clip-path="url(#clip642)" style="stroke:#000000; stroke-linecap:round; stroke-linejoin:round; stroke-width:2; stroke-opacity:0.1; fill:none" points="1958.99,47.2441 1958.99,1423.18 "/>
<polyline clip-path="url(#clip642)" style="stroke:#000000; stroke-linecap:round; stroke-linejoin:round; stroke-width:2; stroke-opacity:0.1; fill:none" points="241.32,180.399 2352.76,180.399 "/>
<polyline clip-path="url(#clip642)" style="stroke:#000000; stroke-linecap:round; stroke-linejoin:round; stroke-width:2; stroke-opacity:0.1; fill:none" points="241.32,402.324 2352.76,402.324 "/>
<polyline clip-path="url(#clip642)" style="stroke:#000000; stroke-linecap:round; stroke-linejoin:round; stroke-width:2; stroke-opacity:0.1; fill:none" points="241.32,624.249 2352.76,624.249 "/>
<polyline clip-path="url(#clip642)" style="stroke:#000000; stroke-linecap:round; stroke-linejoin:round; stroke-width:2; stroke-opacity:0.1; fill:none" points="241.32,846.175 2352.76,846.175 "/>
<polyline clip-path="url(#clip642)" style="stroke:#000000; stroke-linecap:round; stroke-linejoin:round; stroke-width:2; stroke-opacity:0.1; fill:none" points="241.32,1068.1 2352.76,1068.1 "/>
<polyline clip-path="url(#clip642)" style="stroke:#000000; stroke-linecap:round; stroke-linejoin:round; stroke-width:2; stroke-opacity:0.1; fill:none" points="241.32,1290.02 2352.76,1290.02 "/>
<polyline clip-path="url(#clip640)" style="stroke:#000000; stroke-linecap:round; stroke-linejoin:round; stroke-width:4; stroke-opacity:1; fill:none" points="241.32,1423.18 2352.76,1423.18 "/>
<polyline clip-path="url(#clip640)" style="stroke:#000000; stroke-linecap:round; stroke-linejoin:round; stroke-width:4; stroke-opacity:1; fill:none" points="241.32,1423.18 241.32,1404.28 "/>
<polyline clip-path="url(#clip640)" style="stroke:#000000; stroke-linecap:round; stroke-linejoin:round; stroke-width:4; stroke-opacity:1; fill:none" points="813.876,1423.18 813.876,1404.28 "/>
<polyline clip-path="url(#clip640)" style="stroke:#000000; stroke-linecap:round; stroke-linejoin:round; stroke-width:4; stroke-opacity:1; fill:none" points="1386.43,1423.18 1386.43,1404.28 "/>
<polyline clip-path="url(#clip640)" style="stroke:#000000; stroke-linecap:round; stroke-linejoin:round; stroke-width:4; stroke-opacity:1; fill:none" points="1958.99,1423.18 1958.99,1404.28 "/>
<path clip-path="url(#clip640)" d="M241.32 1454.1 Q237.709 1454.1 235.88 1457.66 Q234.075 1461.2 234.075 1468.33 Q234.075 1475.44 235.88 1479.01 Q237.709 1482.55 241.32 1482.55 Q244.954 1482.55 246.76 1479.01 Q248.588 1475.44 248.588 1468.33 Q248.588 1461.2 246.76 1457.66 Q244.954 1454.1 241.32 1454.1 M241.32 1450.39 Q247.13 1450.39 250.186 1455 Q253.264 1459.58 253.264 1468.33 Q253.264 1477.06 250.186 1481.67 Q247.13 1486.25 241.32 1486.25 Q235.51 1486.25 232.431 1481.67 Q229.376 1477.06 229.376 1468.33 Q229.376 1459.58 232.431 1455 Q235.51 1450.39 241.32 1450.39 Z" fill="#000000" fill-rule="nonzero" fill-opacity="1" /><path clip-path="url(#clip640)" d="M788.564 1481.64 L796.203 1481.64 L796.203 1455.28 L787.893 1456.95 L787.893 1452.69 L796.156 1451.02 L800.832 1451.02 L800.832 1481.64 L808.471 1481.64 L808.471 1485.58 L788.564 1485.58 L788.564 1481.64 Z" fill="#000000" fill-rule="nonzero" fill-opacity="1" /><path clip-path="url(#clip640)" d="M827.915 1454.1 Q824.304 1454.1 822.476 1457.66 Q820.67 1461.2 820.67 1468.33 Q820.67 1475.44 822.476 1479.01 Q824.304 1482.55 827.915 1482.55 Q831.55 1482.55 833.355 1479.01 Q835.184 1475.44 835.184 1468.33 Q835.184 1461.2 833.355 1457.66 Q831.55 1454.1 827.915 1454.1 M827.915 1450.39 Q833.726 1450.39 836.781 1455 Q839.86 1459.58 839.86 1468.33 Q839.86 1477.06 836.781 1481.67 Q833.726 1486.25 827.915 1486.25 Q822.105 1486.25 819.027 1481.67 Q815.971 1477.06 815.971 1468.33 Q815.971 1459.58 819.027 1455 Q822.105 1450.39 827.915 1450.39 Z" fill="#000000" fill-rule="nonzero" fill-opacity="1" /><path clip-path="url(#clip640)" d="M1365.21 1481.64 L1381.53 1481.64 L1381.53 1485.58 L1359.58 1485.58 L1359.58 1481.64 Q1362.24 1478.89 1366.83 1474.26 Q1371.43 1469.61 1372.61 1468.27 Q1374.86 1465.74 1375.74 1464.01 Q1376.64 1462.25 1376.64 1460.56 Q1376.64 1457.8 1374.7 1456.07 Q1372.78 1454.33 1369.67 1454.33 Q1367.47 1454.33 1365.02 1455.09 Q1362.59 1455.86 1359.81 1457.41 L1359.81 1452.69 Q1362.64 1451.55 1365.09 1450.97 Q1367.54 1450.39 1369.58 1450.39 Q1374.95 1450.39 1378.15 1453.08 Q1381.34 1455.77 1381.34 1460.26 Q1381.34 1462.39 1380.53 1464.31 Q1379.74 1466.2 1377.64 1468.8 Q1377.06 1469.47 1373.96 1472.69 Q1370.85 1475.88 1365.21 1481.64 Z" fill="#000000" fill-rule="nonzero" fill-opacity="1" /><path clip-path="url(#clip640)" d="M1401.34 1454.1 Q1397.73 1454.1 1395.9 1457.66 Q1394.09 1461.2 1394.09 1468.33 Q1394.09 1475.44 1395.9 1479.01 Q1397.73 1482.55 1401.34 1482.55 Q1404.97 1482.55 1406.78 1479.01 Q1408.61 1475.44 1408.61 1468.33 Q1408.61 1461.2 1406.78 1457.66 Q1404.97 1454.1 1401.34 1454.1 M1401.34 1450.39 Q1407.15 1450.39 1410.21 1455 Q1413.28 1459.58 1413.28 1468.33 Q1413.28 1477.06 1410.21 1481.67 Q1407.15 1486.25 1401.34 1486.25 Q1395.53 1486.25 1392.45 1481.67 Q1389.4 1477.06 1389.4 1468.33 Q1389.4 1459.58 1392.45 1455 Q1395.53 1450.39 1401.34 1450.39 Z" fill="#000000" fill-rule="nonzero" fill-opacity="1" /><path clip-path="url(#clip640)" d="M1947.83 1466.95 Q1951.19 1467.66 1953.06 1469.93 Q1954.96 1472.2 1954.96 1475.53 Q1954.96 1480.65 1951.44 1483.45 Q1947.92 1486.25 1941.44 1486.25 Q1939.27 1486.25 1936.95 1485.81 Q1934.66 1485.39 1932.21 1484.54 L1932.21 1480.02 Q1934.15 1481.16 1936.47 1481.74 Q1938.78 1482.32 1941.3 1482.32 Q1945.7 1482.32 1947.99 1480.58 Q1950.31 1478.84 1950.31 1475.53 Q1950.31 1472.48 1948.16 1470.77 Q1946.03 1469.03 1942.21 1469.03 L1938.18 1469.03 L1938.18 1465.19 L1942.39 1465.19 Q1945.84 1465.19 1947.67 1463.82 Q1949.5 1462.43 1949.5 1459.84 Q1949.5 1457.18 1947.6 1455.77 Q1945.72 1454.33 1942.21 1454.33 Q1940.29 1454.33 1938.09 1454.75 Q1935.89 1455.16 1933.25 1456.04 L1933.25 1451.88 Q1935.91 1451.14 1938.22 1450.77 Q1940.56 1450.39 1942.62 1450.39 Q1947.95 1450.39 1951.05 1452.83 Q1954.15 1455.23 1954.15 1459.35 Q1954.15 1462.22 1952.51 1464.21 Q1950.86 1466.18 1947.83 1466.95 Z" fill="#000000" fill-rule="nonzero" fill-opacity="1" /><path clip-path="url(#clip640)" d="M1973.83 1454.1 Q1970.22 1454.1 1968.39 1457.66 Q1966.58 1461.2 1966.58 1468.33 Q1966.58 1475.44 1968.39 1479.01 Q1970.22 1482.55 1973.83 1482.55 Q1977.46 1482.55 1979.27 1479.01 Q1981.1 1475.44 1981.1 1468.33 Q1981.1 1461.2 1979.27 1457.66 Q1977.46 1454.1 1973.83 1454.1 M1973.83 1450.39 Q1979.64 1450.39 1982.69 1455 Q1985.77 1459.58 1985.77 1468.33 Q1985.77 1477.06 1982.69 1481.67 Q1979.64 1486.25 1973.83 1486.25 Q1968.02 1486.25 1964.94 1481.67 Q1961.88 1477.06 1961.88 1468.33 Q1961.88 1459.58 1964.94 1455 Q1968.02 1450.39 1973.83 1450.39 Z" fill="#000000" fill-rule="nonzero" fill-opacity="1" /><path clip-path="url(#clip640)" d="M1026.64 1520.52 L1036.22 1520.52 L1048.35 1552.86 L1060.54 1520.52 L1070.12 1520.52 L1070.12 1568.04 L1063.85 1568.04 L1063.85 1526.32 L1051.59 1558.91 L1045.13 1558.91 L1032.88 1526.32 L1032.88 1568.04 L1026.64 1568.04 L1026.64 1520.52 Z" fill="#000000" fill-rule="nonzero" fill-opacity="1" /><path clip-path="url(#clip640)" d="M1096.44 1536.5 Q1091.73 1536.5 1088.99 1540.19 Q1086.25 1543.85 1086.25 1550.25 Q1086.25 1556.65 1088.96 1560.34 Q1091.7 1564 1096.44 1564 Q1101.12 1564 1103.85 1560.31 Q1106.59 1556.62 1106.59 1550.25 Q1106.59 1543.92 1103.85 1540.23 Q1101.12 1536.5 1096.44 1536.5 M1096.44 1531.54 Q1104.08 1531.54 1108.44 1536.5 Q1112.8 1541.47 1112.8 1550.25 Q1112.8 1559 1108.44 1564 Q1104.08 1568.97 1096.44 1568.97 Q1088.77 1568.97 1084.41 1564 Q1080.08 1559 1080.08 1550.25 Q1080.08 1541.47 1084.41 1536.5 Q1088.77 1531.54 1096.44 1531.54 Z" fill="#000000" fill-rule="nonzero" fill-opacity="1" /><path clip-path="url(#clip640)" d="M1122.51 1518.52 L1128.36 1518.52 L1128.36 1568.04 L1122.51 1568.04 L1122.51 1518.52 Z" fill="#000000" fill-rule="nonzero" fill-opacity="1" /><path clip-path="url(#clip640)" d="M1171.11 1548.76 L1171.11 1551.62 L1144.18 1551.62 Q1144.56 1557.67 1147.81 1560.85 Q1151.09 1564 1156.91 1564 Q1160.29 1564 1163.44 1563.17 Q1166.62 1562.35 1169.74 1560.69 L1169.74 1566.23 Q1166.59 1567.57 1163.28 1568.27 Q1159.97 1568.97 1156.56 1568.97 Q1148.03 1568.97 1143.04 1564 Q1138.07 1559.04 1138.07 1550.57 Q1138.07 1541.82 1142.78 1536.69 Q1147.52 1531.54 1155.54 1531.54 Q1162.74 1531.54 1166.91 1536.18 Q1171.11 1540.8 1171.11 1548.76 M1165.25 1547.04 Q1165.19 1542.23 1162.55 1539.37 Q1159.94 1536.5 1155.61 1536.5 Q1150.71 1536.5 1147.75 1539.27 Q1144.82 1542.04 1144.37 1547.07 L1165.25 1547.04 Z" fill="#000000" fill-rule="nonzero" fill-opacity="1" /><path clip-path="url(#clip640)" d="M1219.49 1518.52 L1219.49 1523.39 L1213.89 1523.39 Q1210.73 1523.39 1209.49 1524.66 Q1208.28 1525.93 1208.28 1529.24 L1208.28 1532.4 L1217.93 1532.4 L1217.93 1536.95 L1208.28 1536.95 L1208.28 1568.04 L1202.4 1568.04 L1202.4 1536.95 L1196.79 1536.95 L1196.79 1532.4 L1202.4 1532.4 L1202.4 1529.91 Q1202.4 1523.96 1205.16 1521.26 Q1207.93 1518.52 1213.95 1518.52 L1219.49 1518.52 Z" fill="#000000" fill-rule="nonzero" fill-opacity="1" /><path clip-path="url(#clip640)" d="M1245.05 1537.87 Q1244.06 1537.3 1242.88 1537.04 Q1241.74 1536.76 1240.34 1536.76 Q1235.37 1536.76 1232.7 1540 Q1230.05 1543.22 1230.05 1549.27 L1230.05 1568.04 L1224.17 1568.04 L1224.17 1532.4 L1230.05 1532.4 L1230.05 1537.93 Q1231.9 1534.69 1234.86 1533.13 Q1237.82 1531.54 1242.05 1531.54 Q1242.66 1531.54 1243.39 1531.63 Q1244.12 1531.7 1245.01 1531.85 L1245.05 1537.87 Z" fill="#000000" fill-rule="nonzero" fill-opacity="1" /><path clip-path="url(#clip640)" d="M1267.39 1550.12 Q1260.29 1550.12 1257.55 1551.75 Q1254.82 1553.37 1254.82 1557.29 Q1254.82 1560.4 1256.85 1562.25 Q1258.92 1564.07 1262.46 1564.07 Q1267.33 1564.07 1270.25 1560.63 Q1273.21 1557.16 1273.21 1551.43 L1273.21 1550.12 L1267.39 1550.12 M1279.07 1547.71 L1279.07 1568.04 L1273.21 1568.04 L1273.21 1562.63 Q1271.21 1565.88 1268.22 1567.44 Q1265.23 1568.97 1260.9 1568.97 Q1255.42 1568.97 1252.18 1565.91 Q1248.96 1562.82 1248.96 1557.67 Q1248.96 1551.65 1252.97 1548.6 Q1257.01 1545.54 1265 1545.54 L1273.21 1545.54 L1273.21 1544.97 Q1273.21 1540.93 1270.54 1538.73 Q1267.9 1536.5 1263.09 1536.5 Q1260.04 1536.5 1257.14 1537.23 Q1254.24 1537.97 1251.57 1539.43 L1251.57 1534.02 Q1254.79 1532.78 1257.81 1532.17 Q1260.83 1531.54 1263.7 1531.54 Q1271.43 1531.54 1275.25 1535.55 Q1279.07 1539.56 1279.07 1547.71 Z" fill="#000000" fill-rule="nonzero" fill-opacity="1" /><path clip-path="url(#clip640)" d="M1316.79 1533.76 L1316.79 1539.24 Q1314.3 1537.87 1311.79 1537.2 Q1309.31 1536.5 1306.76 1536.5 Q1301.06 1536.5 1297.91 1540.13 Q1294.76 1543.73 1294.76 1550.25 Q1294.76 1556.78 1297.91 1560.4 Q1301.06 1564 1306.76 1564 Q1309.31 1564 1311.79 1563.33 Q1314.3 1562.63 1316.79 1561.26 L1316.79 1566.68 Q1314.34 1567.82 1311.69 1568.39 Q1309.09 1568.97 1306.13 1568.97 Q1298.07 1568.97 1293.33 1563.91 Q1288.59 1558.85 1288.59 1550.25 Q1288.59 1541.53 1293.36 1536.53 Q1298.17 1531.54 1306.51 1531.54 Q1309.21 1531.54 1311.79 1532.11 Q1314.37 1532.65 1316.79 1533.76 Z" fill="#000000" fill-rule="nonzero" fill-opacity="1" /><path clip-path="url(#clip640)" d="M1332.77 1522.27 L1332.77 1532.4 L1344.83 1532.4 L1344.83 1536.95 L1332.77 1536.95 L1332.77 1556.3 Q1332.77 1560.66 1333.94 1561.9 Q1335.15 1563.14 1338.81 1563.14 L1344.83 1563.14 L1344.83 1568.04 L1338.81 1568.04 Q1332.03 1568.04 1329.46 1565.53 Q1326.88 1562.98 1326.88 1556.3 L1326.88 1536.95 L1322.58 1536.95 L1322.58 1532.4 L1326.88 1532.4 L1326.88 1522.27 L1332.77 1522.27 Z" fill="#000000" fill-rule="nonzero" fill-opacity="1" /><path clip-path="url(#clip640)" d="M1352.53 1532.4 L1358.39 1532.4 L1358.39 1568.04 L1352.53 1568.04 L1352.53 1532.4 M1352.53 1518.52 L1358.39 1518.52 L1358.39 1525.93 L1352.53 1525.93 L1352.53 1518.52 Z" fill="#000000" fill-rule="nonzero" fill-opacity="1" /><path clip-path="url(#clip640)" d="M1384.46 1536.5 Q1379.74 1536.5 1377.01 1540.19 Q1374.27 1543.85 1374.27 1550.25 Q1374.27 1556.65 1376.98 1560.34 Q1379.71 1564 1384.46 1564 Q1389.13 1564 1391.87 1560.31 Q1394.61 1556.62 1394.61 1550.25 Q1394.61 1543.92 1391.87 1540.23 Q1389.13 1536.5 1384.46 1536.5 M1384.46 1531.54 Q1392.09 1531.54 1396.45 1536.5 Q1400.81 1541.47 1400.81 1550.25 Q1400.81 1559 1396.45 1564 Q1392.09 1568.97 1384.46 1568.97 Q1376.78 1568.97 1372.42 1564 Q1368.1 1559 1368.1 1550.25 Q1368.1 1541.47 1372.42 1536.5 Q1376.78 1531.54 1384.46 1531.54 Z" fill="#000000" fill-rule="nonzero" fill-opacity="1" /><path clip-path="url(#clip640)" d="M1440.15 1546.53 L1440.15 1568.04 L1434.3 1568.04 L1434.3 1546.72 Q1434.3 1541.66 1432.33 1539.14 Q1430.35 1536.63 1426.41 1536.63 Q1421.66 1536.63 1418.93 1539.65 Q1416.19 1542.68 1416.19 1547.9 L1416.19 1568.04 L1410.3 1568.04 L1410.3 1532.4 L1416.19 1532.4 L1416.19 1537.93 Q1418.29 1534.72 1421.12 1533.13 Q1423.99 1531.54 1427.71 1531.54 Q1433.85 1531.54 1437 1535.36 Q1440.15 1539.14 1440.15 1546.53 Z" fill="#000000" fill-rule="nonzero" fill-opacity="1" /><path clip-path="url(#clip640)" d="M1482.96 1520.52 L1488.38 1520.52 L1471.82 1574.09 L1466.41 1574.09 L1482.96 1520.52 Z" fill="#000000" fill-rule="nonzero" fill-opacity="1" /><path clip-path="url(#clip640)" d="M1556.49 1547.13 Q1553.72 1547.13 1552.13 1549.49 Q1550.57 1551.84 1550.57 1556.04 Q1550.57 1560.18 1552.13 1562.57 Q1553.72 1564.92 1556.49 1564.92 Q1559.19 1564.92 1560.75 1562.57 Q1562.34 1560.18 1562.34 1556.04 Q1562.34 1551.87 1560.75 1549.52 Q1559.19 1547.13 1556.49 1547.13 M1556.49 1543.09 Q1561.52 1543.09 1564.48 1546.59 Q1567.44 1550.09 1567.44 1556.04 Q1567.44 1562 1564.45 1565.5 Q1561.49 1568.97 1556.49 1568.97 Q1551.4 1568.97 1548.44 1565.5 Q1545.48 1562 1545.48 1556.04 Q1545.48 1550.06 1548.44 1546.59 Q1551.43 1543.09 1556.49 1543.09 M1523.64 1523.71 Q1520.9 1523.71 1519.31 1526.09 Q1517.75 1528.45 1517.75 1532.59 Q1517.75 1536.79 1519.31 1539.14 Q1520.87 1541.5 1523.64 1541.5 Q1526.41 1541.5 1527.97 1539.14 Q1529.56 1536.79 1529.56 1532.59 Q1529.56 1528.48 1527.97 1526.09 Q1526.38 1523.71 1523.64 1523.71 M1552.38 1519.66 L1557.47 1519.66 L1527.75 1568.97 L1522.65 1568.97 L1552.38 1519.66 M1523.64 1519.66 Q1528.67 1519.66 1531.66 1523.17 Q1534.65 1526.63 1534.65 1532.59 Q1534.65 1538.6 1531.66 1542.07 Q1528.7 1545.54 1523.64 1545.54 Q1518.58 1545.54 1515.62 1542.07 Q1512.69 1538.57 1512.69 1532.59 Q1512.69 1526.67 1515.65 1523.17 Q1518.61 1519.66 1523.64 1519.66 Z" fill="#000000" fill-rule="nonzero" fill-opacity="1" /><polyline clip-path="url(#clip640)" style="stroke:#000000; stroke-linecap:round; stroke-linejoin:round; stroke-width:4; stroke-opacity:1; fill:none" points="241.32,47.2441 241.32,1423.18 "/>
<polyline clip-path="url(#clip640)" style="stroke:#000000; stroke-linecap:round; stroke-linejoin:round; stroke-width:4; stroke-opacity:1; fill:none" points="241.32,180.399 260.218,180.399 "/>
<polyline clip-path="url(#clip640)" style="stroke:#000000; stroke-linecap:round; stroke-linejoin:round; stroke-width:4; stroke-opacity:1; fill:none" points="241.32,402.324 260.218,402.324 "/>
<polyline clip-path="url(#clip640)" style="stroke:#000000; stroke-linecap:round; stroke-linejoin:round; stroke-width:4; stroke-opacity:1; fill:none" points="241.32,624.249 260.218,624.249 "/>
<polyline clip-path="url(#clip640)" style="stroke:#000000; stroke-linecap:round; stroke-linejoin:round; stroke-width:4; stroke-opacity:1; fill:none" points="241.32,846.175 260.218,846.175 "/>
<polyline clip-path="url(#clip640)" style="stroke:#000000; stroke-linecap:round; stroke-linejoin:round; stroke-width:4; stroke-opacity:1; fill:none" points="241.32,1068.1 260.218,1068.1 "/>
<polyline clip-path="url(#clip640)" style="stroke:#000000; stroke-linecap:round; stroke-linejoin:round; stroke-width:4; stroke-opacity:1; fill:none" points="241.32,1290.02 260.218,1290.02 "/>
<path clip-path="url(#clip640)" d="M73.1216 161.661 L82.9364 161.661 L82.9364 164.971 L77.3809 164.971 L77.3809 200.619 L82.9364 200.619 L82.9364 203.929 L73.1216 203.929 L73.1216 161.661 Z" fill="#000000" fill-rule="nonzero" fill-opacity="1" /><path clip-path="url(#clip640)" d="M118.075 165.781 L118.075 170.712 Q115.714 168.513 113.029 167.425 Q110.367 166.337 107.358 166.337 Q101.432 166.337 98.2835 169.971 Q95.1354 173.582 95.1354 180.434 Q95.1354 187.263 98.2835 190.897 Q101.432 194.508 107.358 194.508 Q110.367 194.508 113.029 193.42 Q115.714 192.332 118.075 190.133 L118.075 195.017 Q115.621 196.684 112.867 197.517 Q110.135 198.35 107.08 198.35 Q99.2326 198.35 94.7187 193.559 Q90.2049 188.744 90.2049 180.434 Q90.2049 172.101 94.7187 167.309 Q99.2326 162.494 107.08 162.494 Q110.182 162.494 112.913 163.327 Q115.668 164.138 118.075 165.781 Z" fill="#000000" fill-rule="nonzero" fill-opacity="1" /><path clip-path="url(#clip640)" d="M125.297 163.119 L129.973 163.119 L129.973 177.286 L146.964 177.286 L146.964 163.119 L151.64 163.119 L151.64 197.679 L146.964 197.679 L146.964 181.221 L129.973 181.221 L129.973 197.679 L125.297 197.679 L125.297 163.119 Z" fill="#000000" fill-rule="nonzero" fill-opacity="1" /><path clip-path="url(#clip640)" d="M170.714 161.661 L170.714 203.929 L160.899 203.929 L160.899 200.619 L166.431 200.619 L166.431 164.971 L160.899 164.971 L160.899 161.661 L170.714 161.661 Z" fill="#000000" fill-rule="nonzero" fill-opacity="1" /><path clip-path="url(#clip640)" d="M205.32 165.781 L205.32 170.712 Q202.959 168.513 200.274 167.425 Q197.612 166.337 194.602 166.337 Q188.677 166.337 185.528 169.971 Q182.38 173.582 182.38 180.434 Q182.38 187.263 185.528 190.897 Q188.677 194.508 194.602 194.508 Q197.612 194.508 200.274 193.42 Q202.959 192.332 205.32 190.133 L205.32 195.017 Q202.866 196.684 200.112 197.517 Q197.38 198.35 194.325 198.35 Q186.478 198.35 181.964 193.559 Q177.45 188.744 177.45 180.434 Q177.45 172.101 181.964 167.309 Q186.478 162.494 194.325 162.494 Q197.427 162.494 200.158 163.327 Q202.913 164.138 205.32 165.781 Z" fill="#000000" fill-rule="nonzero" fill-opacity="1" /><path clip-path="url(#clip640)" d="M77.5661 383.586 L87.3808 383.586 L87.3808 386.896 L81.8253 386.896 L81.8253 422.544 L87.3808 422.544 L87.3808 425.854 L77.5661 425.854 L77.5661 383.586 Z" fill="#000000" fill-rule="nonzero" fill-opacity="1" /><path clip-path="url(#clip640)" d="M122.52 387.706 L122.52 392.637 Q120.158 390.438 117.473 389.35 Q114.811 388.262 111.802 388.262 Q105.876 388.262 102.728 391.896 Q99.5798 395.507 99.5798 402.359 Q99.5798 409.188 102.728 412.822 Q105.876 416.433 111.802 416.433 Q114.811 416.433 117.473 415.345 Q120.158 414.257 122.52 412.058 L122.52 416.942 Q120.066 418.609 117.311 419.442 Q114.58 420.276 111.524 420.276 Q103.677 420.276 99.1632 415.484 Q94.6493 410.669 94.6493 402.359 Q94.6493 394.026 99.1632 389.234 Q103.677 384.419 111.524 384.419 Q114.626 384.419 117.358 385.253 Q120.112 386.063 122.52 387.706 Z" fill="#000000" fill-rule="nonzero" fill-opacity="1" /><path clip-path="url(#clip640)" d="M129.742 385.044 L134.418 385.044 L134.418 399.211 L151.408 399.211 L151.408 385.044 L156.084 385.044 L156.084 419.604 L151.408 419.604 L151.408 403.146 L134.418 403.146 L134.418 419.604 L129.742 419.604 L129.742 385.044 Z" fill="#000000" fill-rule="nonzero" fill-opacity="1" /><path clip-path="url(#clip640)" d="M179.973 400.97 Q183.329 401.688 185.204 403.956 Q187.103 406.225 187.103 409.558 Q187.103 414.674 183.584 417.475 Q180.066 420.276 173.584 420.276 Q171.408 420.276 169.093 419.836 Q166.802 419.419 164.348 418.563 L164.348 414.049 Q166.292 415.183 168.607 415.762 Q170.922 416.34 173.445 416.34 Q177.843 416.34 180.135 414.604 Q182.45 412.868 182.45 409.558 Q182.45 406.503 180.297 404.79 Q178.167 403.053 174.348 403.053 L170.32 403.053 L170.32 399.211 L174.533 399.211 Q177.982 399.211 179.811 397.845 Q181.64 396.456 181.64 393.864 Q181.64 391.202 179.741 389.79 Q177.866 388.354 174.348 388.354 Q172.427 388.354 170.228 388.771 Q168.029 389.188 165.39 390.067 L165.39 385.901 Q168.052 385.16 170.366 384.79 Q172.704 384.419 174.765 384.419 Q180.089 384.419 183.19 386.85 Q186.292 389.257 186.292 393.378 Q186.292 396.248 184.649 398.239 Q183.005 400.206 179.973 400.97 Z" fill="#000000" fill-rule="nonzero" fill-opacity="1" /><path clip-path="url(#clip640)" d="M205.32 383.586 L205.32 425.854 L195.505 425.854 L195.505 422.544 L201.038 422.544 L201.038 386.896 L195.505 386.896 L195.505 383.586 L205.32 383.586 Z" fill="#000000" fill-rule="nonzero" fill-opacity="1" /><path clip-path="url(#clip640)" d="M77.5661 605.511 L87.3808 605.511 L87.3808 608.821 L81.8253 608.821 L81.8253 644.469 L87.3808 644.469 L87.3808 647.779 L77.5661 647.779 L77.5661 605.511 Z" fill="#000000" fill-rule="nonzero" fill-opacity="1" /><path clip-path="url(#clip640)" d="M122.52 609.631 L122.52 614.562 Q120.158 612.363 117.473 611.275 Q114.811 610.187 111.802 610.187 Q105.876 610.187 102.728 613.821 Q99.5798 617.432 99.5798 624.284 Q99.5798 631.113 102.728 634.747 Q105.876 638.358 111.802 638.358 Q114.811 638.358 117.473 637.27 Q120.158 636.182 122.52 633.983 L122.52 638.867 Q120.066 640.534 117.311 641.367 Q114.58 642.201 111.524 642.201 Q103.677 642.201 99.1632 637.409 Q94.6493 632.594 94.6493 624.284 Q94.6493 615.951 99.1632 611.159 Q103.677 606.344 111.524 606.344 Q114.626 606.344 117.358 607.178 Q120.112 607.988 122.52 609.631 Z" fill="#000000" fill-rule="nonzero" fill-opacity="1" /><path clip-path="url(#clip640)" d="M129.742 606.969 L134.418 606.969 L134.418 621.136 L151.408 621.136 L151.408 606.969 L156.084 606.969 L156.084 641.529 L151.408 641.529 L151.408 625.071 L134.418 625.071 L134.418 641.529 L129.742 641.529 L129.742 606.969 Z" fill="#000000" fill-rule="nonzero" fill-opacity="1" /><path clip-path="url(#clip640)" d="M169.834 637.594 L186.153 637.594 L186.153 641.529 L164.209 641.529 L164.209 637.594 Q166.871 634.84 171.454 630.21 Q176.061 625.557 177.241 624.215 Q179.487 621.692 180.366 619.955 Q181.269 618.196 181.269 616.506 Q181.269 613.752 179.325 612.016 Q177.403 610.28 174.302 610.28 Q172.103 610.28 169.649 611.043 Q167.218 611.807 164.441 613.358 L164.441 608.636 Q167.265 607.502 169.718 606.923 Q172.172 606.344 174.209 606.344 Q179.579 606.344 182.774 609.03 Q185.968 611.715 185.968 616.205 Q185.968 618.335 185.158 620.256 Q184.371 622.155 182.265 624.747 Q181.686 625.418 178.584 628.636 Q175.482 631.83 169.834 637.594 Z" fill="#000000" fill-rule="nonzero" fill-opacity="1" /><path clip-path="url(#clip640)" d="M205.32 605.511 L205.32 647.779 L195.505 647.779 L195.505 644.469 L201.038 644.469 L201.038 608.821 L195.505 608.821 L195.505 605.511 L205.32 605.511 Z" fill="#000000" fill-rule="nonzero" fill-opacity="1" /><path clip-path="url(#clip640)" d="M140.83 827.436 L150.644 827.436 L150.644 830.746 L145.089 830.746 L145.089 866.394 L150.644 866.394 L150.644 869.704 L140.83 869.704 L140.83 827.436 Z" fill="#000000" fill-rule="nonzero" fill-opacity="1" /><path clip-path="url(#clip640)" d="M159.904 828.895 L164.579 828.895 L164.579 843.061 L181.57 843.061 L181.57 828.895 L186.246 828.895 L186.246 863.455 L181.57 863.455 L181.57 846.996 L164.579 846.996 L164.579 863.455 L159.904 863.455 L159.904 828.895 Z" fill="#000000" fill-rule="nonzero" fill-opacity="1" /><path clip-path="url(#clip640)" d="M205.32 827.436 L205.32 869.704 L195.505 869.704 L195.505 866.394 L201.038 866.394 L201.038 830.746 L195.505 830.746 L195.505 827.436 L205.32 827.436 Z" fill="#000000" fill-rule="nonzero" fill-opacity="1" /><path clip-path="url(#clip640)" d="M205.32 1053.48 L205.32 1058.41 Q202.959 1056.21 200.274 1055.13 Q197.612 1054.04 194.602 1054.04 Q188.677 1054.04 185.528 1057.67 Q182.38 1061.28 182.38 1068.13 Q182.38 1074.96 185.528 1078.6 Q188.677 1082.21 194.602 1082.21 Q197.612 1082.21 200.274 1081.12 Q202.959 1080.03 205.32 1077.83 L205.32 1082.72 Q202.866 1084.38 200.112 1085.22 Q197.38 1086.05 194.325 1086.05 Q186.478 1086.05 181.964 1081.26 Q177.45 1076.44 177.45 1068.13 Q177.45 1059.8 181.964 1055.01 Q186.478 1050.19 194.325 1050.19 Q197.427 1050.19 200.158 1051.03 Q202.913 1051.84 205.32 1053.48 Z" fill="#000000" fill-rule="nonzero" fill-opacity="1" /><path clip-path="url(#clip640)" d="M67.0106 1275.92 Q61.918 1275.92 58.9088 1279.71 Q55.9227 1283.51 55.9227 1290.06 Q55.9227 1296.59 58.9088 1300.38 Q61.918 1304.18 67.0106 1304.18 Q72.1031 1304.18 75.0661 1300.38 Q78.0522 1296.59 78.0522 1290.06 Q78.0522 1283.51 75.0661 1279.71 Q72.1031 1275.92 67.0106 1275.92 M67.0106 1272.12 Q74.279 1272.12 78.6309 1277 Q82.9827 1281.87 82.9827 1290.06 Q82.9827 1298.23 78.6309 1303.11 Q74.279 1307.98 67.0106 1307.98 Q59.7189 1307.98 55.344 1303.11 Q50.9921 1298.25 50.9921 1290.06 Q50.9921 1281.87 55.344 1277 Q59.7189 1272.12 67.0106 1272.12 Z" fill="#000000" fill-rule="nonzero" fill-opacity="1" /><path clip-path="url(#clip640)" d="M94.3252 1274.02 L94.3252 1281.38 L103.098 1281.38 L103.098 1284.69 L94.3252 1284.69 L94.3252 1298.76 Q94.3252 1301.93 95.1817 1302.84 Q96.0613 1303.74 98.7234 1303.74 L103.098 1303.74 L103.098 1307.3 L98.7234 1307.3 Q93.7928 1307.3 91.9178 1305.48 Q90.0428 1303.62 90.0428 1298.76 L90.0428 1284.69 L86.9179 1284.69 L86.9179 1281.38 L90.0428 1281.38 L90.0428 1274.02 L94.3252 1274.02 Z" fill="#000000" fill-rule="nonzero" fill-opacity="1" /><path clip-path="url(#clip640)" d="M130.251 1291.66 L130.251 1307.3 L125.992 1307.3 L125.992 1291.8 Q125.992 1288.12 124.557 1286.29 Q123.121 1284.46 120.251 1284.46 Q116.802 1284.46 114.811 1286.66 Q112.82 1288.86 112.82 1292.65 L112.82 1307.3 L108.538 1307.3 L108.538 1271.29 L112.82 1271.29 L112.82 1285.41 Q114.348 1283.07 116.408 1281.91 Q118.492 1280.75 121.2 1280.75 Q125.668 1280.75 127.959 1283.53 Q130.251 1286.29 130.251 1291.66 Z" fill="#000000" fill-rule="nonzero" fill-opacity="1" /><path clip-path="url(#clip640)" d="M160.922 1293.28 L160.922 1295.36 L141.339 1295.36 Q141.617 1299.76 143.978 1302.07 Q146.362 1304.36 150.598 1304.36 Q153.052 1304.36 155.343 1303.76 Q157.658 1303.16 159.927 1301.96 L159.927 1305.99 Q157.635 1306.96 155.228 1307.47 Q152.82 1307.98 150.343 1307.98 Q144.14 1307.98 140.506 1304.36 Q136.894 1300.75 136.894 1294.6 Q136.894 1288.23 140.32 1284.5 Q143.769 1280.75 149.603 1280.75 Q154.834 1280.75 157.867 1284.13 Q160.922 1287.49 160.922 1293.28 M156.663 1292.03 Q156.617 1288.53 154.695 1286.45 Q152.797 1284.37 149.649 1284.37 Q146.084 1284.37 143.931 1286.38 Q141.802 1288.39 141.478 1292.05 L156.663 1292.03 Z" fill="#000000" fill-rule="nonzero" fill-opacity="1" /><path clip-path="url(#clip640)" d="M182.936 1285.36 Q182.218 1284.94 181.362 1284.76 Q180.528 1284.55 179.51 1284.55 Q175.899 1284.55 173.954 1286.91 Q172.033 1289.25 172.033 1293.65 L172.033 1307.3 L167.751 1307.3 L167.751 1281.38 L172.033 1281.38 L172.033 1285.41 Q173.376 1283.05 175.528 1281.91 Q177.681 1280.75 180.76 1280.75 Q181.2 1280.75 181.732 1280.82 Q182.265 1280.87 182.913 1280.99 L182.936 1285.36 Z" fill="#000000" fill-rule="nonzero" fill-opacity="1" /><path clip-path="url(#clip640)" d="M203.931 1282.14 L203.931 1286.17 Q202.126 1285.24 200.181 1284.78 Q198.237 1284.32 196.153 1284.32 Q192.982 1284.32 191.385 1285.29 Q189.811 1286.26 189.811 1288.21 Q189.811 1289.69 190.945 1290.55 Q192.079 1291.38 195.505 1292.14 L196.964 1292.47 Q201.501 1293.44 203.399 1295.22 Q205.32 1296.98 205.32 1300.15 Q205.32 1303.76 202.45 1305.87 Q199.602 1307.98 194.602 1307.98 Q192.519 1307.98 190.251 1307.56 Q188.005 1307.17 185.505 1306.36 L185.505 1301.96 Q187.866 1303.18 190.158 1303.81 Q192.45 1304.41 194.695 1304.41 Q197.704 1304.41 199.325 1303.39 Q200.945 1302.35 200.945 1300.48 Q200.945 1298.74 199.764 1297.81 Q198.607 1296.89 194.649 1296.03 L193.167 1295.68 Q189.209 1294.85 187.45 1293.14 Q185.69 1291.4 185.69 1288.39 Q185.69 1284.74 188.283 1282.74 Q190.876 1280.75 195.644 1280.75 Q198.005 1280.75 200.089 1281.1 Q202.172 1281.45 203.931 1282.14 Z" fill="#000000" fill-rule="nonzero" fill-opacity="1" /><path clip-path="url(#clip642)" d="M2352.76 91.6291 L241.32 91.6291 L241.32 269.169 L2352.76 269.169 L2352.76 91.6291 L2352.76 91.6291  Z" fill="#e26f46" fill-rule="evenodd" fill-opacity="1"/>
<polyline clip-path="url(#clip642)" style="stroke:#000000; stroke-linecap:round; stroke-linejoin:round; stroke-width:4; stroke-opacity:1; fill:none" points="2352.76,91.6291 241.32,91.6291 241.32,269.169 2352.76,269.169 2352.76,91.6291 "/>
<path clip-path="url(#clip642)" d="M1615.3 313.554 L241.32 313.554 L241.32 491.094 L1615.3 491.094 L1615.3 313.554 L1615.3 313.554  Z" fill="#e26f46" fill-rule="evenodd" fill-opacity="1"/>
<polyline clip-path="url(#clip642)" style="stroke:#000000; stroke-linecap:round; stroke-linejoin:round; stroke-width:4; stroke-opacity:1; fill:none" points="1615.3,313.554 241.32,313.554 241.32,491.094 1615.3,491.094 1615.3,313.554 "/>
<path clip-path="url(#clip642)" d="M744.048 535.479 L241.32 535.479 L241.32 713.019 L744.048 713.019 L744.048 535.479 L744.048 535.479  Z" fill="#e26f46" fill-rule="evenodd" fill-opacity="1"/>
<polyline clip-path="url(#clip642)" style="stroke:#000000; stroke-linecap:round; stroke-linejoin:round; stroke-width:4; stroke-opacity:1; fill:none" points="744.048,535.479 241.32,535.479 241.32,713.019 744.048,713.019 744.048,535.479 "/>
<path clip-path="url(#clip642)" d="M690.617 757.404 L241.32 757.404 L241.32 934.945 L690.617 934.945 L690.617 757.404 L690.617 757.404  Z" fill="#e26f46" fill-rule="evenodd" fill-opacity="1"/>
<polyline clip-path="url(#clip642)" style="stroke:#000000; stroke-linecap:round; stroke-linejoin:round; stroke-width:4; stroke-opacity:1; fill:none" points="690.617,757.404 241.32,757.404 241.32,934.945 690.617,934.945 690.617,757.404 "/>
<path clip-path="url(#clip642)" d="M588.689 979.33 L241.32 979.33 L241.32 1156.87 L588.689 1156.87 L588.689 979.33 L588.689 979.33  Z" fill="#009af9" fill-rule="evenodd" fill-opacity="1"/>
<polyline clip-path="url(#clip642)" style="stroke:#000000; stroke-linecap:round; stroke-linejoin:round; stroke-width:4; stroke-opacity:1; fill:none" points="588.689,979.33 241.32,979.33 241.32,1156.87 588.689,1156.87 588.689,979.33 "/>
<path clip-path="url(#clip642)" d="M1182.07 1201.25 L241.32 1201.25 L241.32 1378.79 L1182.07 1378.79 L1182.07 1201.25 L1182.07 1201.25  Z" fill="#009af9" fill-rule="evenodd" fill-opacity="1"/>
<polyline clip-path="url(#clip642)" style="stroke:#000000; stroke-linecap:round; stroke-linejoin:round; stroke-width:4; stroke-opacity:1; fill:none" points="1182.07,1201.25 241.32,1201.25 241.32,1378.79 1182.07,1378.79 1182.07,1201.25 "/>
<circle clip-path="url(#clip642)" style="fill:#009af9; stroke:none; fill-opacity:0" cx="527.598" cy="1304.89" r="2"/>
</svg>
