<?xml version="1.0" encoding="utf-8"?>
<svg xmlns="http://www.w3.org/2000/svg" xmlns:xlink="http://www.w3.org/1999/xlink" width="600" height="400" viewBox="0 0 2400 1600">
<defs>
  <clipPath id="clip070">
    <rect x="0" y="0" width="2400" height="1600"/>
  </clipPath>
</defs>
<path clip-path="url(#clip070)" d="M0 1600 L2400 1600 L2400 0 L0 0  Z" fill="#ffffff" fill-rule="evenodd" fill-opacity="1"/>
<defs>
  <clipPath id="clip071">
    <rect x="480" y="0" width="1681" height="1600"/>
  </clipPath>
</defs>
<path clip-path="url(#clip070)" d="M258.913 1423.18 L2352.76 1423.18 L2352.76 47.2441 L258.913 47.2441  Z" fill="#ffffff" fill-rule="evenodd" fill-opacity="1"/>
<defs>
  <clipPath id="clip072">
    <rect x="258" y="47" width="2095" height="1377"/>
  </clipPath>
</defs>
<polyline clip-path="url(#clip072)" style="stroke:#000000; stroke-linecap:round; stroke-linejoin:round; stroke-width:2; stroke-opacity:0.1; fill:none" points="258.913,47.2441 258.913,1423.18 "/>
<polyline clip-path="url(#clip072)" style="stroke:#000000; stroke-linecap:round; stroke-linejoin:round; stroke-width:2; stroke-opacity:0.1; fill:none" points="576.23,47.2441 576.23,1423.18 "/>
<polyline clip-path="url(#clip072)" style="stroke:#000000; stroke-linecap:round; stroke-linejoin:round; stroke-width:2; stroke-opacity:0.1; fill:none" points="893.547,47.2441 893.547,1423.18 "/>
<polyline clip-path="url(#clip072)" style="stroke:#000000; stroke-linecap:round; stroke-linejoin:round; stroke-width:2; stroke-opacity:0.1; fill:none" points="1210.86,47.2441 1210.86,1423.18 "/>
<polyline clip-path="url(#clip072)" style="stroke:#000000; stroke-linecap:round; stroke-linejoin:round; stroke-width:2; stroke-opacity:0.1; fill:none" points="1528.18,47.2441 1528.18,1423.18 "/>
<polyline clip-path="url(#clip072)" style="stroke:#000000; stroke-linecap:round; stroke-linejoin:round; stroke-width:2; stroke-opacity:0.1; fill:none" points="1845.5,47.2441 1845.5,1423.18 "/>
<polyline clip-path="url(#clip072)" style="stroke:#000000; stroke-linecap:round; stroke-linejoin:round; stroke-width:2; stroke-opacity:0.1; fill:none" points="2162.82,47.2441 2162.82,1423.18 "/>
<polyline clip-path="url(#clip072)" style="stroke:#000000; stroke-linecap:round; stroke-linejoin:round; stroke-width:2; stroke-opacity:0.1; fill:none" points="258.913,164.605 2352.76,164.605 "/>
<polyline clip-path="url(#clip072)" style="stroke:#000000; stroke-linecap:round; stroke-linejoin:round; stroke-width:2; stroke-opacity:0.1; fill:none" points="258.913,281.965 2352.76,281.965 "/>
<polyline clip-path="url(#clip072)" style="stroke:#000000; stroke-linecap:round; stroke-linejoin:round; stroke-width:2; stroke-opacity:0.1; fill:none" points="258.913,399.326 2352.76,399.326 "/>
<polyline clip-path="url(#clip072)" style="stroke:#000000; stroke-linecap:round; stroke-linejoin:round; stroke-width:2; stroke-opacity:0.1; fill:none" points="258.913,516.687 2352.76,516.687 "/>
<polyline clip-path="url(#clip072)" style="stroke:#000000; stroke-linecap:round; stroke-linejoin:round; stroke-width:2; stroke-opacity:0.1; fill:none" points="258.913,634.047 2352.76,634.047 "/>
<polyline clip-path="url(#clip072)" style="stroke:#000000; stroke-linecap:round; stroke-linejoin:round; stroke-width:2; stroke-opacity:0.1; fill:none" points="258.913,751.408 2352.76,751.408 "/>
<polyline clip-path="url(#clip072)" style="stroke:#000000; stroke-linecap:round; stroke-linejoin:round; stroke-width:2; stroke-opacity:0.1; fill:none" points="258.913,868.768 2352.76,868.768 "/>
<polyline clip-path="url(#clip072)" style="stroke:#000000; stroke-linecap:round; stroke-linejoin:round; stroke-width:2; stroke-opacity:0.1; fill:none" points="258.913,986.129 2352.76,986.129 "/>
<polyline clip-path="url(#clip072)" style="stroke:#000000; stroke-linecap:round; stroke-linejoin:round; stroke-width:2; stroke-opacity:0.1; fill:none" points="258.913,1103.49 2352.76,1103.49 "/>
<polyline clip-path="url(#clip072)" style="stroke:#000000; stroke-linecap:round; stroke-linejoin:round; stroke-width:2; stroke-opacity:0.1; fill:none" points="258.913,1220.85 2352.76,1220.85 "/>
<polyline clip-path="url(#clip072)" style="stroke:#000000; stroke-linecap:round; stroke-linejoin:round; stroke-width:2; stroke-opacity:0.1; fill:none" points="258.913,1338.21 2352.76,1338.21 "/>
<polyline clip-path="url(#clip070)" style="stroke:#000000; stroke-linecap:round; stroke-linejoin:round; stroke-width:4; stroke-opacity:1; fill:none" points="258.913,1423.18 2352.76,1423.18 "/>
<polyline clip-path="url(#clip070)" style="stroke:#000000; stroke-linecap:round; stroke-linejoin:round; stroke-width:4; stroke-opacity:1; fill:none" points="258.913,1423.18 258.913,1404.28 "/>
<polyline clip-path="url(#clip070)" style="stroke:#000000; stroke-linecap:round; stroke-linejoin:round; stroke-width:4; stroke-opacity:1; fill:none" points="576.23,1423.18 576.23,1404.28 "/>
<polyline clip-path="url(#clip070)" style="stroke:#000000; stroke-linecap:round; stroke-linejoin:round; stroke-width:4; stroke-opacity:1; fill:none" points="893.547,1423.18 893.547,1404.28 "/>
<polyline clip-path="url(#clip070)" style="stroke:#000000; stroke-linecap:round; stroke-linejoin:round; stroke-width:4; stroke-opacity:1; fill:none" points="1210.86,1423.18 1210.86,1404.28 "/>
<polyline clip-path="url(#clip070)" style="stroke:#000000; stroke-linecap:round; stroke-linejoin:round; stroke-width:4; stroke-opacity:1; fill:none" points="1528.18,1423.18 1528.18,1404.28 "/>
<polyline clip-path="url(#clip070)" style="stroke:#000000; stroke-linecap:round; stroke-linejoin:round; stroke-width:4; stroke-opacity:1; fill:none" points="1845.5,1423.18 1845.5,1404.28 "/>
<polyline clip-path="url(#clip070)" style="stroke:#000000; stroke-linecap:round; stroke-linejoin:round; stroke-width:4; stroke-opacity:1; fill:none" points="2162.82,1423.18 2162.82,1404.28 "/>
<path clip-path="url(#clip070)" d="M236.297 1454.1 Q232.686 1454.1 230.857 1457.66 Q229.052 1461.2 229.052 1468.33 Q229.052 1475.44 230.857 1479.01 Q232.686 1482.55 236.297 1482.55 Q239.931 1482.55 241.737 1479.01 Q243.565 1475.44 243.565 1468.33 Q243.565 1461.2 241.737 1457.66 Q239.931 1454.1 236.297 1454.1 M236.297 1450.39 Q242.107 1450.39 245.163 1455 Q248.241 1459.58 248.241 1468.33 Q248.241 1477.06 245.163 1481.67 Q242.107 1486.25 236.297 1486.25 Q230.487 1486.25 227.408 1481.67 Q224.353 1477.06 224.353 1468.33 Q224.353 1459.58 227.408 1455 Q230.487 1450.39 236.297 1450.39 Z" fill="#000000" fill-rule="nonzero" fill-opacity="1" /><path clip-path="url(#clip070)" d="M256.459 1479.7 L261.343 1479.7 L261.343 1485.58 L256.459 1485.58 L256.459 1479.7 Z" fill="#000000" fill-rule="nonzero" fill-opacity="1" /><path clip-path="url(#clip070)" d="M281.528 1454.1 Q277.917 1454.1 276.088 1457.66 Q274.283 1461.2 274.283 1468.33 Q274.283 1475.44 276.088 1479.01 Q277.917 1482.55 281.528 1482.55 Q285.162 1482.55 286.968 1479.01 Q288.797 1475.44 288.797 1468.33 Q288.797 1461.2 286.968 1457.66 Q285.162 1454.1 281.528 1454.1 M281.528 1450.39 Q287.338 1450.39 290.394 1455 Q293.473 1459.58 293.473 1468.33 Q293.473 1477.06 290.394 1481.67 Q287.338 1486.25 281.528 1486.25 Q275.718 1486.25 272.639 1481.67 Q269.584 1477.06 269.584 1468.33 Q269.584 1459.58 272.639 1455 Q275.718 1450.39 281.528 1450.39 Z" fill="#000000" fill-rule="nonzero" fill-opacity="1" /><path clip-path="url(#clip070)" d="M554.227 1454.1 Q550.616 1454.1 548.788 1457.66 Q546.982 1461.2 546.982 1468.33 Q546.982 1475.44 548.788 1479.01 Q550.616 1482.55 554.227 1482.55 Q557.862 1482.55 559.667 1479.01 Q561.496 1475.44 561.496 1468.33 Q561.496 1461.2 559.667 1457.66 Q557.862 1454.1 554.227 1454.1 M554.227 1450.39 Q560.038 1450.39 563.093 1455 Q566.172 1459.58 566.172 1468.33 Q566.172 1477.06 563.093 1481.67 Q560.038 1486.25 554.227 1486.25 Q548.417 1486.25 545.339 1481.67 Q542.283 1477.06 542.283 1468.33 Q542.283 1459.58 545.339 1455 Q548.417 1450.39 554.227 1450.39 Z" fill="#000000" fill-rule="nonzero" fill-opacity="1" /><path clip-path="url(#clip070)" d="M574.389 1479.7 L579.274 1479.7 L579.274 1485.58 L574.389 1485.58 L574.389 1479.7 Z" fill="#000000" fill-rule="nonzero" fill-opacity="1" /><path clip-path="url(#clip070)" d="M590.269 1481.64 L597.908 1481.64 L597.908 1455.28 L589.598 1456.95 L589.598 1452.69 L597.861 1451.02 L602.537 1451.02 L602.537 1481.64 L610.176 1481.64 L610.176 1485.58 L590.269 1485.58 L590.269 1481.64 Z" fill="#000000" fill-rule="nonzero" fill-opacity="1" /><path clip-path="url(#clip070)" d="M871.73 1454.1 Q868.119 1454.1 866.29 1457.66 Q864.484 1461.2 864.484 1468.33 Q864.484 1475.44 866.29 1479.01 Q868.119 1482.55 871.73 1482.55 Q875.364 1482.55 877.169 1479.01 Q878.998 1475.44 878.998 1468.33 Q878.998 1461.2 877.169 1457.66 Q875.364 1454.1 871.73 1454.1 M871.73 1450.39 Q877.54 1450.39 880.595 1455 Q883.674 1459.58 883.674 1468.33 Q883.674 1477.06 880.595 1481.67 Q877.54 1486.25 871.73 1486.25 Q865.92 1486.25 862.841 1481.67 Q859.785 1477.06 859.785 1468.33 Q859.785 1459.58 862.841 1455 Q865.92 1450.39 871.73 1450.39 Z" fill="#000000" fill-rule="nonzero" fill-opacity="1" /><path clip-path="url(#clip070)" d="M891.892 1479.7 L896.776 1479.7 L896.776 1485.58 L891.892 1485.58 L891.892 1479.7 Z" fill="#000000" fill-rule="nonzero" fill-opacity="1" /><path clip-path="url(#clip070)" d="M910.989 1481.64 L927.308 1481.64 L927.308 1485.58 L905.364 1485.58 L905.364 1481.64 Q908.026 1478.89 912.609 1474.26 Q917.216 1469.61 918.396 1468.27 Q920.641 1465.74 921.521 1464.01 Q922.424 1462.25 922.424 1460.56 Q922.424 1457.8 920.479 1456.07 Q918.558 1454.33 915.456 1454.33 Q913.257 1454.33 910.804 1455.09 Q908.373 1455.86 905.595 1457.41 L905.595 1452.69 Q908.419 1451.55 910.873 1450.97 Q913.327 1450.39 915.364 1450.39 Q920.734 1450.39 923.928 1453.08 Q927.123 1455.77 927.123 1460.26 Q927.123 1462.39 926.313 1464.31 Q925.526 1466.2 923.419 1468.8 Q922.84 1469.47 919.739 1472.69 Q916.637 1475.88 910.989 1481.64 Z" fill="#000000" fill-rule="nonzero" fill-opacity="1" /><path clip-path="url(#clip070)" d="M1188.57 1454.1 Q1184.96 1454.1 1183.13 1457.66 Q1181.33 1461.2 1181.33 1468.33 Q1181.33 1475.44 1183.13 1479.01 Q1184.96 1482.55 1188.57 1482.55 Q1192.21 1482.55 1194.01 1479.01 Q1195.84 1475.44 1195.84 1468.33 Q1195.84 1461.2 1194.01 1457.66 Q1192.21 1454.1 1188.57 1454.1 M1188.57 1450.39 Q1194.38 1450.39 1197.44 1455 Q1200.52 1459.58 1200.52 1468.33 Q1200.52 1477.06 1197.44 1481.67 Q1194.38 1486.25 1188.57 1486.25 Q1182.76 1486.25 1179.68 1481.67 Q1176.63 1477.06 1176.63 1468.33 Q1176.63 1459.58 1179.68 1455 Q1182.76 1450.39 1188.57 1450.39 Z" fill="#000000" fill-rule="nonzero" fill-opacity="1" /><path clip-path="url(#clip070)" d="M1208.73 1479.7 L1213.62 1479.7 L1213.62 1485.58 L1208.73 1485.58 L1208.73 1479.7 Z" fill="#000000" fill-rule="nonzero" fill-opacity="1" /><path clip-path="url(#clip070)" d="M1237.97 1466.95 Q1241.33 1467.66 1243.2 1469.93 Q1245.1 1472.2 1245.1 1475.53 Q1245.1 1480.65 1241.58 1483.45 Q1238.06 1486.25 1231.58 1486.25 Q1229.41 1486.25 1227.09 1485.81 Q1224.8 1485.39 1222.35 1484.54 L1222.35 1480.02 Q1224.29 1481.16 1226.6 1481.74 Q1228.92 1482.32 1231.44 1482.32 Q1235.84 1482.32 1238.13 1480.58 Q1240.45 1478.84 1240.45 1475.53 Q1240.45 1472.48 1238.29 1470.77 Q1236.16 1469.03 1232.35 1469.03 L1228.32 1469.03 L1228.32 1465.19 L1232.53 1465.19 Q1235.98 1465.19 1237.81 1463.82 Q1239.64 1462.43 1239.64 1459.84 Q1239.64 1457.18 1237.74 1455.77 Q1235.86 1454.33 1232.35 1454.33 Q1230.42 1454.33 1228.22 1454.75 Q1226.03 1455.16 1223.39 1456.04 L1223.39 1451.88 Q1226.05 1451.14 1228.36 1450.77 Q1230.7 1450.39 1232.76 1450.39 Q1238.09 1450.39 1241.19 1452.83 Q1244.29 1455.23 1244.29 1459.35 Q1244.29 1462.22 1242.65 1464.21 Q1241 1466.18 1237.97 1466.95 Z" fill="#000000" fill-rule="nonzero" fill-opacity="1" /><path clip-path="url(#clip070)" d="M1505.32 1454.1 Q1501.71 1454.1 1499.88 1457.66 Q1498.08 1461.2 1498.08 1468.33 Q1498.08 1475.44 1499.88 1479.01 Q1501.71 1482.55 1505.32 1482.55 Q1508.96 1482.55 1510.76 1479.01 Q1512.59 1475.44 1512.59 1468.33 Q1512.59 1461.2 1510.76 1457.66 Q1508.96 1454.1 1505.32 1454.1 M1505.32 1450.39 Q1511.13 1450.39 1514.19 1455 Q1517.27 1459.58 1517.27 1468.33 Q1517.27 1477.06 1514.19 1481.67 Q1511.13 1486.25 1505.32 1486.25 Q1499.51 1486.25 1496.43 1481.67 Q1493.38 1477.06 1493.38 1468.33 Q1493.38 1459.58 1496.43 1455 Q1499.51 1450.39 1505.32 1450.39 Z" fill="#000000" fill-rule="nonzero" fill-opacity="1" /><path clip-path="url(#clip070)" d="M1525.48 1479.7 L1530.37 1479.7 L1530.37 1485.58 L1525.48 1485.58 L1525.48 1479.7 Z" fill="#000000" fill-rule="nonzero" fill-opacity="1" /><path clip-path="url(#clip070)" d="M1553.4 1455.09 L1541.6 1473.54 L1553.4 1473.54 L1553.4 1455.09 M1552.17 1451.02 L1558.05 1451.02 L1558.05 1473.54 L1562.98 1473.54 L1562.98 1477.43 L1558.05 1477.43 L1558.05 1485.58 L1553.4 1485.58 L1553.4 1477.43 L1537.8 1477.43 L1537.8 1472.92 L1552.17 1451.02 Z" fill="#000000" fill-rule="nonzero" fill-opacity="1" /><path clip-path="url(#clip070)" d="M1823.38 1454.1 Q1819.77 1454.1 1817.94 1457.66 Q1816.13 1461.2 1816.13 1468.33 Q1816.13 1475.44 1817.94 1479.01 Q1819.77 1482.55 1823.38 1482.55 Q1827.01 1482.55 1828.82 1479.01 Q1830.65 1475.44 1830.65 1468.33 Q1830.65 1461.2 1828.82 1457.66 Q1827.01 1454.1 1823.38 1454.1 M1823.38 1450.39 Q1829.19 1450.39 1832.25 1455 Q1835.32 1459.58 1835.32 1468.33 Q1835.32 1477.06 1832.25 1481.67 Q1829.19 1486.25 1823.38 1486.25 Q1817.57 1486.25 1814.49 1481.67 Q1811.44 1477.06 1811.44 1468.33 Q1811.44 1459.58 1814.49 1455 Q1817.57 1450.39 1823.38 1450.39 Z" fill="#000000" fill-rule="nonzero" fill-opacity="1" /><path clip-path="url(#clip070)" d="M1843.54 1479.7 L1848.43 1479.7 L1848.43 1485.58 L1843.54 1485.58 L1843.54 1479.7 Z" fill="#000000" fill-rule="nonzero" fill-opacity="1" /><path clip-path="url(#clip070)" d="M1858.66 1451.02 L1877.01 1451.02 L1877.01 1454.96 L1862.94 1454.96 L1862.94 1463.43 Q1863.96 1463.08 1864.98 1462.92 Q1866 1462.73 1867.01 1462.73 Q1872.8 1462.73 1876.18 1465.9 Q1879.56 1469.08 1879.56 1474.49 Q1879.56 1480.07 1876.09 1483.17 Q1872.62 1486.25 1866.3 1486.25 Q1864.12 1486.25 1861.85 1485.88 Q1859.61 1485.51 1857.2 1484.77 L1857.2 1480.07 Q1859.28 1481.2 1861.5 1481.76 Q1863.73 1482.32 1866.2 1482.32 Q1870.21 1482.32 1872.55 1480.21 Q1874.88 1478.1 1874.88 1474.49 Q1874.88 1470.88 1872.55 1468.77 Q1870.21 1466.67 1866.2 1466.67 Q1864.33 1466.67 1862.45 1467.08 Q1860.6 1467.5 1858.66 1468.38 L1858.66 1451.02 Z" fill="#000000" fill-rule="nonzero" fill-opacity="1" /><path clip-path="url(#clip070)" d="M2140.12 1454.1 Q2136.51 1454.1 2134.68 1457.66 Q2132.87 1461.2 2132.87 1468.33 Q2132.87 1475.44 2134.68 1479.01 Q2136.51 1482.55 2140.12 1482.55 Q2143.75 1482.55 2145.56 1479.01 Q2147.39 1475.44 2147.39 1468.33 Q2147.39 1461.2 2145.56 1457.66 Q2143.75 1454.1 2140.12 1454.1 M2140.12 1450.39 Q2145.93 1450.39 2148.98 1455 Q2152.06 1459.58 2152.06 1468.33 Q2152.06 1477.06 2148.98 1481.67 Q2145.93 1486.25 2140.12 1486.25 Q2134.31 1486.25 2131.23 1481.67 Q2128.17 1477.06 2128.17 1468.33 Q2128.17 1459.58 2131.23 1455 Q2134.31 1450.39 2140.12 1450.39 Z" fill="#000000" fill-rule="nonzero" fill-opacity="1" /><path clip-path="url(#clip070)" d="M2160.28 1479.7 L2165.16 1479.7 L2165.16 1485.58 L2160.28 1485.58 L2160.28 1479.7 Z" fill="#000000" fill-rule="nonzero" fill-opacity="1" /><path clip-path="url(#clip070)" d="M2185.93 1466.44 Q2182.78 1466.44 2180.93 1468.59 Q2179.1 1470.74 2179.1 1474.49 Q2179.1 1478.22 2180.93 1480.39 Q2182.78 1482.55 2185.93 1482.55 Q2189.08 1482.55 2190.91 1480.39 Q2192.76 1478.22 2192.76 1474.49 Q2192.76 1470.74 2190.91 1468.59 Q2189.08 1466.44 2185.93 1466.44 M2195.21 1451.78 L2195.21 1456.04 Q2193.45 1455.21 2191.65 1454.77 Q2189.86 1454.33 2188.1 1454.33 Q2183.47 1454.33 2181.02 1457.45 Q2178.59 1460.58 2178.24 1466.9 Q2179.61 1464.89 2181.67 1463.82 Q2183.73 1462.73 2186.21 1462.73 Q2191.41 1462.73 2194.42 1465.9 Q2197.46 1469.05 2197.46 1474.49 Q2197.46 1479.82 2194.31 1483.03 Q2191.16 1486.25 2185.93 1486.25 Q2179.93 1486.25 2176.76 1481.67 Q2173.59 1477.06 2173.59 1468.33 Q2173.59 1460.14 2177.48 1455.28 Q2181.37 1450.39 2187.92 1450.39 Q2189.68 1450.39 2191.46 1450.74 Q2193.27 1451.09 2195.21 1451.78 Z" fill="#000000" fill-rule="nonzero" fill-opacity="1" /><path clip-path="url(#clip070)" d="M931.562 1524.18 L931.562 1530.96 Q928.316 1527.94 924.624 1526.44 Q920.964 1524.95 916.826 1524.95 Q908.678 1524.95 904.349 1529.95 Q900.02 1534.91 900.02 1544.33 Q900.02 1553.72 904.349 1558.72 Q908.678 1563.68 916.826 1563.68 Q920.964 1563.68 924.624 1562.19 Q928.316 1560.69 931.562 1557.67 L931.562 1564.38 Q928.189 1566.68 924.401 1567.82 Q920.645 1568.97 916.444 1568.97 Q905.654 1568.97 899.447 1562.38 Q893.241 1555.76 893.241 1544.33 Q893.241 1532.87 899.447 1526.28 Q905.654 1519.66 916.444 1519.66 Q920.709 1519.66 924.465 1520.81 Q928.252 1521.92 931.562 1524.18 Z" fill="#000000" fill-rule="nonzero" fill-opacity="1" /><path clip-path="url(#clip070)" d="M955.052 1536.5 Q950.341 1536.5 947.604 1540.19 Q944.867 1543.85 944.867 1550.25 Q944.867 1556.65 947.572 1560.34 Q950.309 1564 955.052 1564 Q959.731 1564 962.468 1560.31 Q965.205 1556.62 965.205 1550.25 Q965.205 1543.92 962.468 1540.23 Q959.731 1536.5 955.052 1536.5 M955.052 1531.54 Q962.691 1531.54 967.051 1536.5 Q971.412 1541.47 971.412 1550.25 Q971.412 1559 967.051 1564 Q962.691 1568.97 955.052 1568.97 Q947.381 1568.97 943.021 1564 Q938.692 1559 938.692 1550.25 Q938.692 1541.47 943.021 1536.5 Q947.381 1531.54 955.052 1531.54 Z" fill="#000000" fill-rule="nonzero" fill-opacity="1" /><path clip-path="url(#clip070)" d="M1010.75 1546.53 L1010.75 1568.04 L1004.9 1568.04 L1004.9 1546.72 Q1004.9 1541.66 1002.92 1539.14 Q1000.95 1536.63 997.002 1536.63 Q992.259 1536.63 989.522 1539.65 Q986.785 1542.68 986.785 1547.9 L986.785 1568.04 L980.897 1568.04 L980.897 1532.4 L986.785 1532.4 L986.785 1537.93 Q988.886 1534.72 991.718 1533.13 Q994.583 1531.54 998.307 1531.54 Q1004.45 1531.54 1007.6 1535.36 Q1010.75 1539.14 1010.75 1546.53 Z" fill="#000000" fill-rule="nonzero" fill-opacity="1" /><path clip-path="url(#clip070)" d="M1048.09 1533.76 L1048.09 1539.24 Q1045.6 1537.87 1043.09 1537.2 Q1040.61 1536.5 1038.06 1536.5 Q1032.36 1536.5 1029.21 1540.13 Q1026.06 1543.73 1026.06 1550.25 Q1026.06 1556.78 1029.21 1560.4 Q1032.36 1564 1038.06 1564 Q1040.61 1564 1043.09 1563.33 Q1045.6 1562.63 1048.09 1561.26 L1048.09 1566.68 Q1045.64 1567.82 1042.99 1568.39 Q1040.38 1568.97 1037.42 1568.97 Q1029.37 1568.97 1024.63 1563.91 Q1019.89 1558.85 1019.89 1550.25 Q1019.89 1541.53 1024.66 1536.53 Q1029.47 1531.54 1037.81 1531.54 Q1040.51 1531.54 1043.09 1532.11 Q1045.67 1532.65 1048.09 1533.76 Z" fill="#000000" fill-rule="nonzero" fill-opacity="1" /><path clip-path="url(#clip070)" d="M1088.76 1548.76 L1088.76 1551.62 L1061.84 1551.62 Q1062.22 1557.67 1065.47 1560.85 Q1068.74 1564 1074.57 1564 Q1077.94 1564 1081.09 1563.17 Q1084.28 1562.35 1087.39 1560.69 L1087.39 1566.23 Q1084.24 1567.57 1080.93 1568.27 Q1077.62 1568.97 1074.22 1568.97 Q1065.69 1568.97 1060.69 1564 Q1055.73 1559.04 1055.73 1550.57 Q1055.73 1541.82 1060.44 1536.69 Q1065.18 1531.54 1073.2 1531.54 Q1080.39 1531.54 1084.56 1536.18 Q1088.76 1540.8 1088.76 1548.76 M1082.91 1547.04 Q1082.84 1542.23 1080.2 1539.37 Q1077.59 1536.5 1073.26 1536.5 Q1068.36 1536.5 1065.4 1539.27 Q1062.47 1542.04 1062.03 1547.07 L1082.91 1547.04 Z" fill="#000000" fill-rule="nonzero" fill-opacity="1" /><path clip-path="url(#clip070)" d="M1128.01 1546.53 L1128.01 1568.04 L1122.15 1568.04 L1122.15 1546.72 Q1122.15 1541.66 1120.18 1539.14 Q1118.21 1536.63 1114.26 1536.63 Q1109.52 1536.63 1106.78 1539.65 Q1104.04 1542.68 1104.04 1547.9 L1104.04 1568.04 L1098.15 1568.04 L1098.15 1532.4 L1104.04 1532.4 L1104.04 1537.93 Q1106.14 1534.72 1108.97 1533.13 Q1111.84 1531.54 1115.56 1531.54 Q1121.71 1531.54 1124.86 1535.36 Q1128.01 1539.14 1128.01 1546.53 Z" fill="#000000" fill-rule="nonzero" fill-opacity="1" /><path clip-path="url(#clip070)" d="M1145.48 1522.27 L1145.48 1532.4 L1157.55 1532.4 L1157.55 1536.95 L1145.48 1536.95 L1145.48 1556.3 Q1145.48 1560.66 1146.66 1561.9 Q1147.87 1563.14 1151.53 1563.14 L1157.55 1563.14 L1157.55 1568.04 L1151.53 1568.04 Q1144.75 1568.04 1142.17 1565.53 Q1139.59 1562.98 1139.59 1556.3 L1139.59 1536.95 L1135.3 1536.95 L1135.3 1532.4 L1139.59 1532.4 L1139.59 1522.27 L1145.48 1522.27 Z" fill="#000000" fill-rule="nonzero" fill-opacity="1" /><path clip-path="url(#clip070)" d="M1185.9 1537.87 Q1184.92 1537.3 1183.74 1537.04 Q1182.59 1536.76 1181.19 1536.76 Q1176.23 1536.76 1173.55 1540 Q1170.91 1543.22 1170.91 1549.27 L1170.91 1568.04 L1165.02 1568.04 L1165.02 1532.4 L1170.91 1532.4 L1170.91 1537.93 Q1172.76 1534.69 1175.72 1533.13 Q1178.68 1531.54 1182.91 1531.54 Q1183.52 1531.54 1184.25 1531.63 Q1184.98 1531.7 1185.87 1531.85 L1185.9 1537.87 Z" fill="#000000" fill-rule="nonzero" fill-opacity="1" /><path clip-path="url(#clip070)" d="M1208.25 1550.12 Q1201.15 1550.12 1198.41 1551.75 Q1195.68 1553.37 1195.68 1557.29 Q1195.68 1560.4 1197.71 1562.25 Q1199.78 1564.07 1203.31 1564.07 Q1208.18 1564.07 1211.11 1560.63 Q1214.07 1557.16 1214.07 1551.43 L1214.07 1550.12 L1208.25 1550.12 M1219.93 1547.71 L1219.93 1568.04 L1214.07 1568.04 L1214.07 1562.63 Q1212.07 1565.88 1209.08 1567.44 Q1206.08 1568.97 1201.75 1568.97 Q1196.28 1568.97 1193.03 1565.91 Q1189.82 1562.82 1189.82 1557.67 Q1189.82 1551.65 1193.83 1548.6 Q1197.87 1545.54 1205.86 1545.54 L1214.07 1545.54 L1214.07 1544.97 Q1214.07 1540.93 1211.4 1538.73 Q1208.76 1536.5 1203.95 1536.5 Q1200.9 1536.5 1198 1537.23 Q1195.1 1537.97 1192.43 1539.43 L1192.43 1534.02 Q1195.64 1532.78 1198.67 1532.17 Q1201.69 1531.54 1204.56 1531.54 Q1212.29 1531.54 1216.11 1535.55 Q1219.93 1539.56 1219.93 1547.71 Z" fill="#000000" fill-rule="nonzero" fill-opacity="1" /><path clip-path="url(#clip070)" d="M1237.78 1522.27 L1237.78 1532.4 L1249.85 1532.4 L1249.85 1536.95 L1237.78 1536.95 L1237.78 1556.3 Q1237.78 1560.66 1238.96 1561.9 Q1240.17 1563.14 1243.83 1563.14 L1249.85 1563.14 L1249.85 1568.04 L1243.83 1568.04 Q1237.05 1568.04 1234.47 1565.53 Q1231.9 1562.98 1231.9 1556.3 L1231.9 1536.95 L1227.6 1536.95 L1227.6 1532.4 L1231.9 1532.4 L1231.9 1522.27 L1237.78 1522.27 Z" fill="#000000" fill-rule="nonzero" fill-opacity="1" /><path clip-path="url(#clip070)" d="M1257.55 1532.4 L1263.41 1532.4 L1263.41 1568.04 L1257.55 1568.04 L1257.55 1532.4 M1257.55 1518.52 L1263.41 1518.52 L1263.41 1525.93 L1257.55 1525.93 L1257.55 1518.52 Z" fill="#000000" fill-rule="nonzero" fill-opacity="1" /><path clip-path="url(#clip070)" d="M1289.47 1536.5 Q1284.76 1536.5 1282.03 1540.19 Q1279.29 1543.85 1279.29 1550.25 Q1279.29 1556.65 1281.99 1560.34 Q1284.73 1564 1289.47 1564 Q1294.15 1564 1296.89 1560.31 Q1299.63 1556.62 1299.63 1550.25 Q1299.63 1543.92 1296.89 1540.23 Q1294.15 1536.5 1289.47 1536.5 M1289.47 1531.54 Q1297.11 1531.54 1301.47 1536.5 Q1305.83 1541.47 1305.83 1550.25 Q1305.83 1559 1301.47 1564 Q1297.11 1568.97 1289.47 1568.97 Q1281.8 1568.97 1277.44 1564 Q1273.11 1559 1273.11 1550.25 Q1273.11 1541.47 1277.44 1536.5 Q1281.8 1531.54 1289.47 1531.54 Z" fill="#000000" fill-rule="nonzero" fill-opacity="1" /><path clip-path="url(#clip070)" d="M1345.17 1546.53 L1345.17 1568.04 L1339.32 1568.04 L1339.32 1546.72 Q1339.32 1541.66 1337.34 1539.14 Q1335.37 1536.63 1331.42 1536.63 Q1326.68 1536.63 1323.94 1539.65 Q1321.21 1542.68 1321.21 1547.9 L1321.21 1568.04 L1315.32 1568.04 L1315.32 1532.4 L1321.21 1532.4 L1321.21 1537.93 Q1323.31 1534.72 1326.14 1533.13 Q1329.01 1531.54 1332.73 1531.54 Q1338.87 1531.54 1342.02 1535.36 Q1345.17 1539.14 1345.17 1546.53 Z" fill="#000000" fill-rule="nonzero" fill-opacity="1" /><path clip-path="url(#clip070)" d="M1387.98 1520.52 L1393.39 1520.52 L1376.84 1574.09 L1371.43 1574.09 L1387.98 1520.52 Z" fill="#000000" fill-rule="nonzero" fill-opacity="1" /><path clip-path="url(#clip070)" d="M1448.01 1539.24 Q1450.21 1535.29 1453.26 1533.41 Q1456.32 1531.54 1460.46 1531.54 Q1466.03 1531.54 1469.05 1535.45 Q1472.07 1539.33 1472.07 1546.53 L1472.07 1568.04 L1466.19 1568.04 L1466.19 1546.72 Q1466.19 1541.59 1464.37 1539.11 Q1462.56 1536.63 1458.83 1536.63 Q1454.28 1536.63 1451.64 1539.65 Q1449 1542.68 1449 1547.9 L1449 1568.04 L1443.11 1568.04 L1443.11 1546.72 Q1443.11 1541.56 1441.3 1539.11 Q1439.48 1536.63 1435.69 1536.63 Q1431.21 1536.63 1428.57 1539.68 Q1425.92 1542.71 1425.92 1547.9 L1425.92 1568.04 L1420.03 1568.04 L1420.03 1532.4 L1425.92 1532.4 L1425.92 1537.93 Q1427.93 1534.66 1430.73 1533.1 Q1433.53 1531.54 1437.38 1531.54 Q1441.26 1531.54 1443.97 1533.51 Q1446.71 1535.48 1448.01 1539.24 Z" fill="#000000" fill-rule="nonzero" fill-opacity="1" /><path clip-path="url(#clip070)" d="M1497.57 1536.5 Q1492.86 1536.5 1490.12 1540.19 Q1487.38 1543.85 1487.38 1550.25 Q1487.38 1556.65 1490.09 1560.34 Q1492.83 1564 1497.57 1564 Q1502.25 1564 1504.99 1560.31 Q1507.72 1556.62 1507.72 1550.25 Q1507.72 1543.92 1504.99 1540.23 Q1502.25 1536.5 1497.57 1536.5 M1497.57 1531.54 Q1505.21 1531.54 1509.57 1536.5 Q1513.93 1541.47 1513.93 1550.25 Q1513.93 1559 1509.57 1564 Q1505.21 1568.97 1497.57 1568.97 Q1489.9 1568.97 1485.54 1564 Q1481.21 1559 1481.21 1550.25 Q1481.21 1541.47 1485.54 1536.5 Q1489.9 1531.54 1497.57 1531.54 Z" fill="#000000" fill-rule="nonzero" fill-opacity="1" /><path clip-path="url(#clip070)" d="M1523.64 1518.52 L1529.49 1518.52 L1529.49 1568.04 L1523.64 1568.04 L1523.64 1518.52 Z" fill="#000000" fill-rule="nonzero" fill-opacity="1" /><path clip-path="url(#clip070)" d="M1585.93 1537.81 L1585.93 1518.52 L1591.78 1518.52 L1591.78 1568.04 L1585.93 1568.04 L1585.93 1562.7 Q1584.08 1565.88 1581.25 1567.44 Q1578.45 1568.97 1574.5 1568.97 Q1568.04 1568.97 1563.96 1563.81 Q1559.92 1558.65 1559.92 1550.25 Q1559.92 1541.85 1563.96 1536.69 Q1568.04 1531.54 1574.5 1531.54 Q1578.45 1531.54 1581.25 1533.1 Q1584.08 1534.62 1585.93 1537.81 M1565.97 1550.25 Q1565.97 1556.71 1568.61 1560.4 Q1571.28 1564.07 1575.93 1564.07 Q1580.58 1564.07 1583.25 1560.4 Q1585.93 1556.71 1585.93 1550.25 Q1585.93 1543.79 1583.25 1540.13 Q1580.58 1536.44 1575.93 1536.44 Q1571.28 1536.44 1568.61 1540.13 Q1565.97 1543.79 1565.97 1550.25 Z" fill="#000000" fill-rule="nonzero" fill-opacity="1" /><path clip-path="url(#clip070)" d="M1631.6 1539.24 Q1633.8 1535.29 1636.85 1533.41 Q1639.91 1531.54 1644.04 1531.54 Q1649.61 1531.54 1652.64 1535.45 Q1655.66 1539.33 1655.66 1546.53 L1655.66 1568.04 L1649.77 1568.04 L1649.77 1546.72 Q1649.77 1541.59 1647.96 1539.11 Q1646.14 1536.63 1642.42 1536.63 Q1637.87 1536.63 1635.23 1539.65 Q1632.59 1542.68 1632.59 1547.9 L1632.59 1568.04 L1626.7 1568.04 L1626.7 1546.72 Q1626.7 1541.56 1624.88 1539.11 Q1623.07 1536.63 1619.28 1536.63 Q1614.79 1536.63 1612.15 1539.68 Q1609.51 1542.71 1609.51 1547.9 L1609.51 1568.04 L1603.62 1568.04 L1603.62 1532.4 L1609.51 1532.4 L1609.51 1537.93 Q1611.52 1534.66 1614.32 1533.1 Q1617.12 1531.54 1620.97 1531.54 Q1624.85 1531.54 1627.56 1533.51 Q1630.29 1535.48 1631.6 1539.24 Z" fill="#000000" fill-rule="nonzero" fill-opacity="1" /><path clip-path="url(#clip070)" d="M1665.56 1533.83 L1691.25 1533.83 L1691.25 1536.85 L1665.56 1536.85 L1665.56 1533.83 Z" fill="#000000" fill-rule="nonzero" fill-opacity="1" /><path clip-path="url(#clip070)" d="M1712.28 1532.4 Q1715.21 1532.97 1716.8 1534.72 Q1718.43 1536.44 1718.43 1539.05 Q1718.43 1542.99 1715.4 1545.13 Q1712.38 1547.26 1706.75 1547.26 Q1704.93 1547.26 1702.93 1546.94 Q1700.95 1546.59 1698.73 1545.95 L1698.73 1542.1 Q1700.38 1542.96 1702.26 1543.38 Q1704.17 1543.79 1706.3 1543.79 Q1709.77 1543.79 1711.68 1542.55 Q1713.59 1541.28 1713.59 1539.05 Q1713.59 1536.69 1711.81 1535.48 Q1710.06 1534.27 1706.62 1534.27 L1703.88 1534.27 L1703.88 1530.84 L1706.87 1530.84 Q1709.87 1530.84 1711.39 1529.85 Q1712.95 1528.83 1712.95 1526.92 Q1712.95 1525.08 1711.36 1524.12 Q1709.77 1523.13 1706.75 1523.13 Q1705.47 1523.13 1703.85 1523.42 Q1702.23 1523.71 1699.65 1524.44 L1699.65 1520.78 Q1701.97 1520.24 1704.01 1519.95 Q1706.05 1519.66 1707.8 1519.66 Q1712.38 1519.66 1715.05 1521.54 Q1717.76 1523.42 1717.76 1526.57 Q1717.76 1528.77 1716.33 1530.3 Q1714.89 1531.82 1712.28 1532.4 Z" fill="#000000" fill-rule="nonzero" fill-opacity="1" /><polyline clip-path="url(#clip070)" style="stroke:#000000; stroke-linecap:round; stroke-linejoin:round; stroke-width:4; stroke-opacity:1; fill:none" points="258.913,47.2441 258.913,1423.18 "/>
<polyline clip-path="url(#clip070)" style="stroke:#000000; stroke-linecap:round; stroke-linejoin:round; stroke-width:4; stroke-opacity:1; fill:none" points="258.913,164.605 277.81,164.605 "/>
<polyline clip-path="url(#clip070)" style="stroke:#000000; stroke-linecap:round; stroke-linejoin:round; stroke-width:4; stroke-opacity:1; fill:none" points="258.913,281.965 277.81,281.965 "/>
<polyline clip-path="url(#clip070)" style="stroke:#000000; stroke-linecap:round; stroke-linejoin:round; stroke-width:4; stroke-opacity:1; fill:none" points="258.913,399.326 277.81,399.326 "/>
<polyline clip-path="url(#clip070)" style="stroke:#000000; stroke-linecap:round; stroke-linejoin:round; stroke-width:4; stroke-opacity:1; fill:none" points="258.913,516.687 277.81,516.687 "/>
<polyline clip-path="url(#clip070)" style="stroke:#000000; stroke-linecap:round; stroke-linejoin:round; stroke-width:4; stroke-opacity:1; fill:none" points="258.913,634.047 277.81,634.047 "/>
<polyline clip-path="url(#clip070)" style="stroke:#000000; stroke-linecap:round; stroke-linejoin:round; stroke-width:4; stroke-opacity:1; fill:none" points="258.913,751.408 277.81,751.408 "/>
<polyline clip-path="url(#clip070)" style="stroke:#000000; stroke-linecap:round; stroke-linejoin:round; stroke-width:4; stroke-opacity:1; fill:none" points="258.913,868.768 277.81,868.768 "/>
<polyline clip-path="url(#clip070)" style="stroke:#000000; stroke-linecap:round; stroke-linejoin:round; stroke-width:4; stroke-opacity:1; fill:none" points="258.913,986.129 277.81,986.129 "/>
<polyline clip-path="url(#clip070)" style="stroke:#000000; stroke-linecap:round; stroke-linejoin:round; stroke-width:4; stroke-opacity:1; fill:none" points="258.913,1103.49 277.81,1103.49 "/>
<polyline clip-path="url(#clip070)" style="stroke:#000000; stroke-linecap:round; stroke-linejoin:round; stroke-width:4; stroke-opacity:1; fill:none" points="258.913,1220.85 277.81,1220.85 "/>
<polyline clip-path="url(#clip070)" style="stroke:#000000; stroke-linecap:round; stroke-linejoin:round; stroke-width:4; stroke-opacity:1; fill:none" points="258.913,1338.21 277.81,1338.21 "/>
<path clip-path="url(#clip070)" d="M90.7141 145.866 L100.529 145.866 L100.529 149.177 L94.9734 149.177 L94.9734 184.824 L100.529 184.824 L100.529 188.135 L90.7141 188.135 L90.7141 145.866 Z" fill="#000000" fill-rule="nonzero" fill-opacity="1" /><path clip-path="url(#clip070)" d="M135.668 149.987 L135.668 154.917 Q133.306 152.718 130.621 151.63 Q127.959 150.542 124.95 150.542 Q119.024 150.542 115.876 154.177 Q112.728 157.788 112.728 164.639 Q112.728 171.468 115.876 175.102 Q119.024 178.713 124.95 178.713 Q127.959 178.713 130.621 177.625 Q133.306 176.538 135.668 174.338 L135.668 179.223 Q133.214 180.889 130.459 181.723 Q127.728 182.556 124.672 182.556 Q116.825 182.556 112.311 177.764 Q107.797 172.95 107.797 164.639 Q107.797 156.306 112.311 151.514 Q116.825 146.7 124.672 146.7 Q127.774 146.7 130.506 147.533 Q133.26 148.343 135.668 149.987 Z" fill="#000000" fill-rule="nonzero" fill-opacity="1" /><path clip-path="url(#clip070)" d="M142.89 147.325 L147.566 147.325 L147.566 161.491 L164.556 161.491 L164.556 147.325 L169.232 147.325 L169.232 181.885 L164.556 181.885 L164.556 165.426 L147.566 165.426 L147.566 181.885 L142.89 181.885 L142.89 147.325 Z" fill="#000000" fill-rule="nonzero" fill-opacity="1" /><path clip-path="url(#clip070)" d="M188.306 145.866 L188.306 188.135 L178.491 188.135 L178.491 184.824 L184.024 184.824 L184.024 149.177 L178.491 149.177 L178.491 145.866 L188.306 145.866 Z" fill="#000000" fill-rule="nonzero" fill-opacity="1" /><path clip-path="url(#clip070)" d="M222.913 149.987 L222.913 154.917 Q220.551 152.718 217.866 151.63 Q215.204 150.542 212.195 150.542 Q206.269 150.542 203.121 154.177 Q199.973 157.788 199.973 164.639 Q199.973 171.468 203.121 175.102 Q206.269 178.713 212.195 178.713 Q215.204 178.713 217.866 177.625 Q220.551 176.538 222.913 174.338 L222.913 179.223 Q220.459 180.889 217.704 181.723 Q214.973 182.556 211.917 182.556 Q204.07 182.556 199.556 177.764 Q195.042 172.95 195.042 164.639 Q195.042 156.306 199.556 151.514 Q204.07 146.7 211.917 146.7 Q215.019 146.7 217.75 147.533 Q220.505 148.343 222.913 149.987 Z" fill="#000000" fill-rule="nonzero" fill-opacity="1" /><path clip-path="url(#clip070)" d="M95.1586 263.227 L104.973 263.227 L104.973 266.537 L99.4178 266.537 L99.4178 302.185 L104.973 302.185 L104.973 305.495 L95.1586 305.495 L95.1586 263.227 Z" fill="#000000" fill-rule="nonzero" fill-opacity="1" /><path clip-path="url(#clip070)" d="M140.112 267.347 L140.112 272.278 Q137.751 270.079 135.066 268.991 Q132.404 267.903 129.394 267.903 Q123.469 267.903 120.32 271.537 Q117.172 275.148 117.172 282 Q117.172 288.829 120.32 292.463 Q123.469 296.074 129.394 296.074 Q132.404 296.074 135.066 294.986 Q137.751 293.898 140.112 291.699 L140.112 296.583 Q137.658 298.25 134.904 299.083 Q132.172 299.917 129.117 299.917 Q121.27 299.917 116.756 295.125 Q112.242 290.31 112.242 282 Q112.242 273.667 116.756 268.875 Q121.27 264.06 129.117 264.06 Q132.219 264.06 134.95 264.894 Q137.705 265.704 140.112 267.347 Z" fill="#000000" fill-rule="nonzero" fill-opacity="1" /><path clip-path="url(#clip070)" d="M147.334 264.685 L152.01 264.685 L152.01 278.852 L169.001 278.852 L169.001 264.685 L173.677 264.685 L173.677 299.245 L169.001 299.245 L169.001 282.787 L152.01 282.787 L152.01 299.245 L147.334 299.245 L147.334 264.685 Z" fill="#000000" fill-rule="nonzero" fill-opacity="1" /><path clip-path="url(#clip070)" d="M197.565 280.611 Q200.922 281.329 202.797 283.597 Q204.695 285.866 204.695 289.199 Q204.695 294.315 201.177 297.116 Q197.658 299.917 191.177 299.917 Q189.001 299.917 186.686 299.477 Q184.394 299.06 181.94 298.204 L181.94 293.69 Q183.885 294.824 186.2 295.403 Q188.515 295.981 191.038 295.981 Q195.436 295.981 197.727 294.245 Q200.042 292.509 200.042 289.199 Q200.042 286.144 197.889 284.431 Q195.76 282.694 191.94 282.694 L187.913 282.694 L187.913 278.852 L192.126 278.852 Q195.575 278.852 197.403 277.486 Q199.232 276.097 199.232 273.505 Q199.232 270.843 197.334 269.431 Q195.459 267.995 191.94 267.995 Q190.019 267.995 187.82 268.412 Q185.621 268.829 182.982 269.708 L182.982 265.542 Q185.644 264.801 187.959 264.431 Q190.297 264.06 192.357 264.06 Q197.681 264.06 200.783 266.491 Q203.885 268.898 203.885 273.019 Q203.885 275.889 202.241 277.88 Q200.598 279.847 197.565 280.611 Z" fill="#000000" fill-rule="nonzero" fill-opacity="1" /><path clip-path="url(#clip070)" d="M222.913 263.227 L222.913 305.495 L213.098 305.495 L213.098 302.185 L218.63 302.185 L218.63 266.537 L213.098 266.537 L213.098 263.227 L222.913 263.227 Z" fill="#000000" fill-rule="nonzero" fill-opacity="1" /><path clip-path="url(#clip070)" d="M95.1586 380.588 L104.973 380.588 L104.973 383.898 L99.4178 383.898 L99.4178 419.546 L104.973 419.546 L104.973 422.856 L95.1586 422.856 L95.1586 380.588 Z" fill="#000000" fill-rule="nonzero" fill-opacity="1" /><path clip-path="url(#clip070)" d="M140.112 384.708 L140.112 389.638 Q137.751 387.439 135.066 386.351 Q132.404 385.263 129.394 385.263 Q123.469 385.263 120.32 388.898 Q117.172 392.509 117.172 399.361 Q117.172 406.189 120.32 409.824 Q123.469 413.435 129.394 413.435 Q132.404 413.435 135.066 412.347 Q137.751 411.259 140.112 409.06 L140.112 413.944 Q137.658 415.611 134.904 416.444 Q132.172 417.277 129.117 417.277 Q121.27 417.277 116.756 412.486 Q112.242 407.671 112.242 399.361 Q112.242 391.027 116.756 386.236 Q121.27 381.421 129.117 381.421 Q132.219 381.421 134.95 382.254 Q137.705 383.064 140.112 384.708 Z" fill="#000000" fill-rule="nonzero" fill-opacity="1" /><path clip-path="url(#clip070)" d="M147.334 382.046 L152.01 382.046 L152.01 396.213 L169.001 396.213 L169.001 382.046 L173.677 382.046 L173.677 416.606 L169.001 416.606 L169.001 400.148 L152.01 400.148 L152.01 416.606 L147.334 416.606 L147.334 382.046 Z" fill="#000000" fill-rule="nonzero" fill-opacity="1" /><path clip-path="url(#clip070)" d="M187.427 412.671 L203.746 412.671 L203.746 416.606 L181.802 416.606 L181.802 412.671 Q184.464 409.916 189.047 405.287 Q193.653 400.634 194.834 399.291 Q197.079 396.768 197.959 395.032 Q198.862 393.273 198.862 391.583 Q198.862 388.828 196.917 387.092 Q194.996 385.356 191.894 385.356 Q189.695 385.356 187.241 386.12 Q184.811 386.884 182.033 388.435 L182.033 383.713 Q184.857 382.578 187.311 382 Q189.765 381.421 191.802 381.421 Q197.172 381.421 200.366 384.106 Q203.561 386.791 203.561 391.282 Q203.561 393.412 202.751 395.333 Q201.964 397.231 199.857 399.824 Q199.278 400.495 196.177 403.712 Q193.075 406.907 187.427 412.671 Z" fill="#000000" fill-rule="nonzero" fill-opacity="1" /><path clip-path="url(#clip070)" d="M222.913 380.588 L222.913 422.856 L213.098 422.856 L213.098 419.546 L218.63 419.546 L218.63 383.898 L213.098 383.898 L213.098 380.588 L222.913 380.588 Z" fill="#000000" fill-rule="nonzero" fill-opacity="1" /><path clip-path="url(#clip070)" d="M158.422 497.948 L168.237 497.948 L168.237 501.258 L162.681 501.258 L162.681 536.906 L168.237 536.906 L168.237 540.216 L158.422 540.216 L158.422 497.948 Z" fill="#000000" fill-rule="nonzero" fill-opacity="1" /><path clip-path="url(#clip070)" d="M177.496 499.407 L182.172 499.407 L182.172 513.573 L199.163 513.573 L199.163 499.407 L203.839 499.407 L203.839 533.967 L199.163 533.967 L199.163 517.508 L182.172 517.508 L182.172 533.967 L177.496 533.967 L177.496 499.407 Z" fill="#000000" fill-rule="nonzero" fill-opacity="1" /><path clip-path="url(#clip070)" d="M222.913 497.948 L222.913 540.216 L213.098 540.216 L213.098 536.906 L218.63 536.906 L218.63 501.258 L213.098 501.258 L213.098 497.948 L222.913 497.948 Z" fill="#000000" fill-rule="nonzero" fill-opacity="1" /><path clip-path="url(#clip070)" d="M222.913 619.429 L222.913 624.36 Q220.551 622.161 217.866 621.073 Q215.204 619.985 212.195 619.985 Q206.269 619.985 203.121 623.619 Q199.973 627.23 199.973 634.082 Q199.973 640.911 203.121 644.545 Q206.269 648.156 212.195 648.156 Q215.204 648.156 217.866 647.068 Q220.551 645.98 222.913 643.781 L222.913 648.665 Q220.459 650.332 217.704 651.165 Q214.973 651.998 211.917 651.998 Q204.07 651.998 199.556 647.207 Q195.042 642.392 195.042 634.082 Q195.042 625.749 199.556 620.957 Q204.07 616.142 211.917 616.142 Q215.019 616.142 217.75 616.975 Q220.505 617.786 222.913 619.429 Z" fill="#000000" fill-rule="nonzero" fill-opacity="1" /><path clip-path="url(#clip070)" d="M85.7836 732.669 L95.5984 732.669 L95.5984 735.98 L90.0428 735.98 L90.0428 771.628 L95.5984 771.628 L95.5984 774.938 L85.7836 774.938 L85.7836 732.669 Z" fill="#000000" fill-rule="nonzero" fill-opacity="1" /><path clip-path="url(#clip070)" d="M104.858 734.128 L109.533 734.128 L109.533 748.294 L126.524 748.294 L126.524 734.128 L131.2 734.128 L131.2 768.688 L126.524 768.688 L126.524 752.229 L109.533 752.229 L109.533 768.688 L104.858 768.688 L104.858 734.128 Z" fill="#000000" fill-rule="nonzero" fill-opacity="1" /><path clip-path="url(#clip070)" d="M150.274 732.669 L150.274 774.938 L140.459 774.938 L140.459 771.628 L145.992 771.628 L145.992 735.98 L140.459 735.98 L140.459 732.669 L150.274 732.669 Z" fill="#000000" fill-rule="nonzero" fill-opacity="1" /><path clip-path="url(#clip070)" d="M158.422 732.669 L168.237 732.669 L168.237 735.98 L162.681 735.98 L162.681 771.628 L168.237 771.628 L168.237 774.938 L158.422 774.938 L158.422 732.669 Z" fill="#000000" fill-rule="nonzero" fill-opacity="1" /><path clip-path="url(#clip070)" d="M177.496 734.128 L182.172 734.128 L182.172 748.294 L199.163 748.294 L199.163 734.128 L203.839 734.128 L203.839 768.688 L199.163 768.688 L199.163 752.229 L182.172 752.229 L182.172 768.688 L177.496 768.688 L177.496 734.128 Z" fill="#000000" fill-rule="nonzero" fill-opacity="1" /><path clip-path="url(#clip070)" d="M222.913 732.669 L222.913 774.938 L213.098 774.938 L213.098 771.628 L218.63 771.628 L218.63 735.98 L213.098 735.98 L213.098 732.669 L222.913 732.669 Z" fill="#000000" fill-rule="nonzero" fill-opacity="1" /><path clip-path="url(#clip070)" d="M50.9921 850.03 L60.8069 850.03 L60.8069 853.34 L55.2514 853.34 L55.2514 888.988 L60.8069 888.988 L60.8069 892.298 L50.9921 892.298 L50.9921 850.03 Z" fill="#000000" fill-rule="nonzero" fill-opacity="1" /><path clip-path="url(#clip070)" d="M95.9456 854.15 L95.9456 859.081 Q93.5845 856.882 90.8993 855.794 Q88.2373 854.706 85.2281 854.706 Q79.3022 854.706 76.154 858.34 Q73.0059 861.951 73.0059 868.803 Q73.0059 875.632 76.154 879.266 Q79.3022 882.877 85.2281 882.877 Q88.2373 882.877 90.8993 881.789 Q93.5845 880.701 95.9456 878.502 L95.9456 883.386 Q93.4919 885.053 90.7373 885.886 Q88.0058 886.72 84.9503 886.72 Q77.1031 886.72 72.5892 881.928 Q68.0754 877.113 68.0754 868.803 Q68.0754 860.47 72.5892 855.678 Q77.1031 850.863 84.9503 850.863 Q88.0521 850.863 90.7836 851.697 Q93.5382 852.507 95.9456 854.15 Z" fill="#000000" fill-rule="nonzero" fill-opacity="1" /><path clip-path="url(#clip070)" d="M103.168 851.488 L107.844 851.488 L107.844 865.655 L124.834 865.655 L124.834 851.488 L129.51 851.488 L129.51 886.048 L124.834 886.048 L124.834 869.59 L107.844 869.59 L107.844 886.048 L103.168 886.048 L103.168 851.488 Z" fill="#000000" fill-rule="nonzero" fill-opacity="1" /><path clip-path="url(#clip070)" d="M148.584 850.03 L148.584 892.298 L138.769 892.298 L138.769 888.988 L144.302 888.988 L144.302 853.34 L138.769 853.34 L138.769 850.03 L148.584 850.03 Z" fill="#000000" fill-rule="nonzero" fill-opacity="1" /><path clip-path="url(#clip070)" d="M157.681 864.521 L187.357 864.521 L187.357 868.41 L157.681 868.41 L157.681 864.521 M157.681 873.965 L187.357 873.965 L187.357 877.9 L157.681 877.9 L157.681 873.965 Z" fill="#000000" fill-rule="nonzero" fill-opacity="1" /><path clip-path="url(#clip070)" d="M222.913 854.15 L222.913 859.081 Q220.551 856.882 217.866 855.794 Q215.204 854.706 212.195 854.706 Q206.269 854.706 203.121 858.34 Q199.973 861.951 199.973 868.803 Q199.973 875.632 203.121 879.266 Q206.269 882.877 212.195 882.877 Q215.204 882.877 217.866 881.789 Q220.551 880.701 222.913 878.502 L222.913 883.386 Q220.459 885.053 217.704 885.886 Q214.973 886.72 211.917 886.72 Q204.07 886.72 199.556 881.928 Q195.042 877.113 195.042 868.803 Q195.042 860.47 199.556 855.678 Q204.07 850.863 211.917 850.863 Q215.019 850.863 217.75 851.697 Q220.505 852.507 222.913 854.15 Z" fill="#000000" fill-rule="nonzero" fill-opacity="1" /><path clip-path="url(#clip070)" d="M150.089 971.511 L150.089 976.441 Q147.728 974.242 145.043 973.154 Q142.381 972.067 139.371 972.067 Q133.445 972.067 130.297 975.701 Q127.149 979.312 127.149 986.164 Q127.149 992.992 130.297 996.627 Q133.445 1000.24 139.371 1000.24 Q142.381 1000.24 145.043 999.15 Q147.728 998.062 150.089 995.863 L150.089 1000.75 Q147.635 1002.41 144.881 1003.25 Q142.149 1004.08 139.094 1004.08 Q131.246 1004.08 126.732 999.289 Q122.219 994.474 122.219 986.164 Q122.219 977.83 126.732 973.039 Q131.246 968.224 139.094 968.224 Q142.195 968.224 144.927 969.057 Q147.681 969.867 150.089 971.511 Z" fill="#000000" fill-rule="nonzero" fill-opacity="1" /><path clip-path="url(#clip070)" d="M157.681 981.881 L187.357 981.881 L187.357 985.77 L157.681 985.77 L157.681 981.881 M157.681 991.326 L187.357 991.326 L187.357 995.261 L157.681 995.261 L157.681 991.326 Z" fill="#000000" fill-rule="nonzero" fill-opacity="1" /><path clip-path="url(#clip070)" d="M222.913 971.511 L222.913 976.441 Q220.551 974.242 217.866 973.154 Q215.204 972.067 212.195 972.067 Q206.269 972.067 203.121 975.701 Q199.973 979.312 199.973 986.164 Q199.973 992.992 203.121 996.627 Q206.269 1000.24 212.195 1000.24 Q215.204 1000.24 217.866 999.15 Q220.551 998.062 222.913 995.863 L222.913 1000.75 Q220.459 1002.41 217.704 1003.25 Q214.973 1004.08 211.917 1004.08 Q204.07 1004.08 199.556 999.289 Q195.042 994.474 195.042 986.164 Q195.042 977.83 199.556 973.039 Q204.07 968.224 211.917 968.224 Q215.019 968.224 217.75 969.057 Q220.505 969.867 222.913 971.511 Z" fill="#000000" fill-rule="nonzero" fill-opacity="1" /><path clip-path="url(#clip070)" d="M60.5523 1084.75 L70.367 1084.75 L70.367 1088.06 L64.8115 1088.06 L64.8115 1123.71 L70.367 1123.71 L70.367 1127.02 L60.5523 1127.02 L60.5523 1084.75 Z" fill="#000000" fill-rule="nonzero" fill-opacity="1" /><path clip-path="url(#clip070)" d="M105.506 1088.87 L105.506 1093.8 Q103.145 1091.6 100.459 1090.52 Q97.7974 1089.43 94.7882 1089.43 Q88.8623 1089.43 85.7142 1093.06 Q82.566 1096.67 82.566 1103.52 Q82.566 1110.35 85.7142 1113.99 Q88.8623 1117.6 94.7882 1117.6 Q97.7974 1117.6 100.459 1116.51 Q103.145 1115.42 105.506 1113.22 L105.506 1118.11 Q103.052 1119.77 100.297 1120.61 Q97.566 1121.44 94.5104 1121.44 Q86.6632 1121.44 82.1494 1116.65 Q77.6355 1111.83 77.6355 1103.52 Q77.6355 1095.19 82.1494 1090.4 Q86.6632 1085.58 94.5104 1085.58 Q97.6122 1085.58 100.344 1086.42 Q103.098 1087.23 105.506 1088.87 Z" fill="#000000" fill-rule="nonzero" fill-opacity="1" /><path clip-path="url(#clip070)" d="M112.728 1086.21 L117.404 1086.21 L117.404 1100.38 L134.394 1100.38 L134.394 1086.21 L139.07 1086.21 L139.07 1120.77 L134.394 1120.77 L134.394 1104.31 L117.404 1104.31 L117.404 1120.77 L112.728 1120.77 L112.728 1086.21 Z" fill="#000000" fill-rule="nonzero" fill-opacity="1" /><path clip-path="url(#clip070)" d="M152.82 1116.83 L169.14 1116.83 L169.14 1120.77 L147.195 1120.77 L147.195 1116.83 Q149.857 1114.08 154.441 1109.45 Q159.047 1104.8 160.228 1103.45 Q162.473 1100.93 163.353 1099.2 Q164.255 1097.44 164.255 1095.75 Q164.255 1092.99 162.311 1091.26 Q160.39 1089.52 157.288 1089.52 Q155.089 1089.52 152.635 1090.28 Q150.205 1091.05 147.427 1092.6 L147.427 1087.88 Q150.251 1086.74 152.705 1086.16 Q155.158 1085.58 157.195 1085.58 Q162.566 1085.58 165.76 1088.27 Q168.954 1090.95 168.954 1095.45 Q168.954 1097.58 168.144 1099.5 Q167.357 1101.39 165.251 1103.99 Q164.672 1104.66 161.57 1107.88 Q158.468 1111.07 152.82 1116.83 Z" fill="#000000" fill-rule="nonzero" fill-opacity="1" /><path clip-path="url(#clip070)" d="M188.306 1084.75 L188.306 1127.02 L178.491 1127.02 L178.491 1123.71 L184.024 1123.71 L184.024 1088.06 L178.491 1088.06 L178.491 1084.75 L188.306 1084.75 Z" fill="#000000" fill-rule="nonzero" fill-opacity="1" /><path clip-path="url(#clip070)" d="M222.913 1088.87 L222.913 1093.8 Q220.551 1091.6 217.866 1090.52 Q215.204 1089.43 212.195 1089.43 Q206.269 1089.43 203.121 1093.06 Q199.973 1096.67 199.973 1103.52 Q199.973 1110.35 203.121 1113.99 Q206.269 1117.6 212.195 1117.6 Q215.204 1117.6 217.866 1116.51 Q220.551 1115.42 222.913 1113.22 L222.913 1118.11 Q220.459 1119.77 217.704 1120.61 Q214.973 1121.44 211.917 1121.44 Q204.07 1121.44 199.556 1116.65 Q195.042 1111.83 195.042 1103.52 Q195.042 1095.19 199.556 1090.4 Q204.07 1085.58 211.917 1085.58 Q215.019 1085.58 217.75 1086.42 Q220.505 1087.23 222.913 1088.87 Z" fill="#000000" fill-rule="nonzero" fill-opacity="1" /><path clip-path="url(#clip070)" d="M189.811 1206.23 L189.811 1211.16 Q187.45 1208.96 184.765 1207.88 Q182.103 1206.79 179.093 1206.79 Q173.167 1206.79 170.019 1210.42 Q166.871 1214.03 166.871 1220.88 Q166.871 1227.71 170.019 1231.35 Q173.167 1234.96 179.093 1234.96 Q182.103 1234.96 184.765 1233.87 Q187.45 1232.78 189.811 1230.58 L189.811 1235.47 Q187.357 1237.13 184.603 1237.97 Q181.871 1238.8 178.816 1238.8 Q170.968 1238.8 166.454 1234.01 Q161.941 1229.2 161.941 1220.88 Q161.941 1212.55 166.454 1207.76 Q170.968 1202.95 178.816 1202.95 Q181.917 1202.95 184.649 1203.78 Q187.403 1204.59 189.811 1206.23 Z" fill="#000000" fill-rule="nonzero" fill-opacity="1" /><path clip-path="url(#clip070)" d="M222.913 1206.23 L222.913 1211.16 Q220.551 1208.96 217.866 1207.88 Q215.204 1206.79 212.195 1206.79 Q206.269 1206.79 203.121 1210.42 Q199.973 1214.03 199.973 1220.88 Q199.973 1227.71 203.121 1231.35 Q206.269 1234.96 212.195 1234.96 Q215.204 1234.96 217.866 1233.87 Q220.551 1232.78 222.913 1230.58 L222.913 1235.47 Q220.459 1237.13 217.704 1237.97 Q214.973 1238.8 211.917 1238.8 Q204.07 1238.8 199.556 1234.01 Q195.042 1229.2 195.042 1220.88 Q195.042 1212.55 199.556 1207.76 Q204.07 1202.95 211.917 1202.95 Q215.019 1202.95 217.75 1203.78 Q220.505 1204.59 222.913 1206.23 Z" fill="#000000" fill-rule="nonzero" fill-opacity="1" /><path clip-path="url(#clip070)" d="M84.6031 1324.1 Q79.5105 1324.1 76.5012 1327.9 Q73.5152 1331.69 73.5152 1338.25 Q73.5152 1344.77 76.5012 1348.57 Q79.5105 1352.37 84.6031 1352.37 Q89.6956 1352.37 92.6586 1348.57 Q95.6447 1344.77 95.6447 1338.25 Q95.6447 1331.69 92.6586 1327.9 Q89.6956 1324.1 84.6031 1324.1 M84.6031 1320.31 Q91.8715 1320.31 96.2234 1325.19 Q100.575 1330.05 100.575 1338.25 Q100.575 1346.42 96.2234 1351.3 Q91.8715 1356.16 84.6031 1356.16 Q77.3114 1356.16 72.9365 1351.3 Q68.5846 1346.44 68.5846 1338.25 Q68.5846 1330.05 72.9365 1325.19 Q77.3114 1320.31 84.6031 1320.31 Z" fill="#000000" fill-rule="nonzero" fill-opacity="1" /><path clip-path="url(#clip070)" d="M111.918 1322.2 L111.918 1329.56 L120.691 1329.56 L120.691 1332.88 L111.918 1332.88 L111.918 1346.95 Q111.918 1350.12 112.774 1351.02 Q113.654 1351.93 116.316 1351.93 L120.691 1351.93 L120.691 1355.49 L116.316 1355.49 Q111.385 1355.49 109.51 1353.66 Q107.635 1351.81 107.635 1346.95 L107.635 1332.88 L104.51 1332.88 L104.51 1329.56 L107.635 1329.56 L107.635 1322.2 L111.918 1322.2 Z" fill="#000000" fill-rule="nonzero" fill-opacity="1" /><path clip-path="url(#clip070)" d="M147.843 1339.84 L147.843 1355.49 L143.584 1355.49 L143.584 1339.98 Q143.584 1336.3 142.149 1334.47 Q140.714 1332.64 137.844 1332.64 Q134.394 1332.64 132.404 1334.84 Q130.413 1337.04 130.413 1340.84 L130.413 1355.49 L126.131 1355.49 L126.131 1319.47 L130.413 1319.47 L130.413 1333.59 Q131.941 1331.25 134.001 1330.1 Q136.084 1328.94 138.793 1328.94 Q143.26 1328.94 145.552 1331.72 Q147.843 1334.47 147.843 1339.84 Z" fill="#000000" fill-rule="nonzero" fill-opacity="1" /><path clip-path="url(#clip070)" d="M178.515 1341.46 L178.515 1343.55 L158.931 1343.55 Q159.209 1347.94 161.57 1350.26 Q163.954 1352.55 168.191 1352.55 Q170.644 1352.55 172.936 1351.95 Q175.251 1351.35 177.519 1350.14 L177.519 1354.17 Q175.228 1355.14 172.82 1355.65 Q170.413 1356.16 167.936 1356.16 Q161.732 1356.16 158.098 1352.55 Q154.487 1348.94 154.487 1342.78 Q154.487 1336.42 157.913 1332.69 Q161.362 1328.94 167.195 1328.94 Q172.427 1328.94 175.459 1332.32 Q178.515 1335.68 178.515 1341.46 M174.255 1340.21 Q174.209 1336.72 172.288 1334.63 Q170.39 1332.55 167.242 1332.55 Q163.677 1332.55 161.524 1334.56 Q159.394 1336.58 159.07 1340.24 L174.255 1340.21 Z" fill="#000000" fill-rule="nonzero" fill-opacity="1" /><path clip-path="url(#clip070)" d="M200.528 1333.55 Q199.811 1333.13 198.954 1332.94 Q198.121 1332.74 197.102 1332.74 Q193.491 1332.74 191.547 1335.1 Q189.626 1337.44 189.626 1341.83 L189.626 1355.49 L185.343 1355.49 L185.343 1329.56 L189.626 1329.56 L189.626 1333.59 Q190.968 1331.23 193.121 1330.1 Q195.274 1328.94 198.352 1328.94 Q198.792 1328.94 199.325 1329.01 Q199.857 1329.06 200.505 1329.17 L200.528 1333.55 Z" fill="#000000" fill-rule="nonzero" fill-opacity="1" /><path clip-path="url(#clip070)" d="M221.524 1330.33 L221.524 1334.36 Q219.718 1333.43 217.774 1332.97 Q215.829 1332.5 213.746 1332.5 Q210.575 1332.5 208.977 1333.48 Q207.403 1334.45 207.403 1336.39 Q207.403 1337.88 208.538 1338.73 Q209.672 1339.56 213.098 1340.33 L214.556 1340.65 Q219.093 1341.63 220.991 1343.41 Q222.913 1345.17 222.913 1348.34 Q222.913 1351.95 220.042 1354.06 Q217.195 1356.16 212.195 1356.16 Q210.112 1356.16 207.843 1355.75 Q205.598 1355.35 203.098 1354.54 L203.098 1350.14 Q205.459 1351.37 207.751 1352 Q210.042 1352.6 212.288 1352.6 Q215.297 1352.6 216.917 1351.58 Q218.538 1350.54 218.538 1348.66 Q218.538 1346.93 217.357 1346 Q216.2 1345.07 212.241 1344.22 L210.76 1343.87 Q206.801 1343.04 205.042 1341.32 Q203.283 1339.59 203.283 1336.58 Q203.283 1332.92 205.876 1330.93 Q208.468 1328.94 213.237 1328.94 Q215.598 1328.94 217.681 1329.29 Q219.764 1329.63 221.524 1330.33 Z" fill="#000000" fill-rule="nonzero" fill-opacity="1" /><path clip-path="url(#clip072)" d="M2352.76 117.66 L258.913 117.66 L258.913 211.549 L2352.76 211.549 L2352.76 117.66 L2352.76 117.66  Z" fill="#009af9" fill-rule="evenodd" fill-opacity="1"/>
<polyline clip-path="url(#clip072)" style="stroke:#000000; stroke-linecap:round; stroke-linejoin:round; stroke-width:4; stroke-opacity:1; fill:none" points="2352.76,117.66 258.913,117.66 258.913,211.549 2352.76,211.549 2352.76,117.66 "/>
<path clip-path="url(#clip072)" d="M1621.45 235.021 L258.913 235.021 L258.913 328.91 L1621.45 328.91 L1621.45 235.021 L1621.45 235.021  Z" fill="#009af9" fill-rule="evenodd" fill-opacity="1"/>
<polyline clip-path="url(#clip072)" style="stroke:#000000; stroke-linecap:round; stroke-linejoin:round; stroke-width:4; stroke-opacity:1; fill:none" points="1621.45,235.021 258.913,235.021 258.913,328.91 1621.45,328.91 1621.45,235.021 "/>
<path clip-path="url(#clip072)" d="M757.452 352.382 L258.913 352.382 L258.913 446.27 L757.452 446.27 L757.452 352.382 L757.452 352.382  Z" fill="#009af9" fill-rule="evenodd" fill-opacity="1"/>
<polyline clip-path="url(#clip072)" style="stroke:#000000; stroke-linecap:round; stroke-linejoin:round; stroke-width:4; stroke-opacity:1; fill:none" points="757.452,352.382 258.913,352.382 258.913,446.27 757.452,446.27 757.452,352.382 "/>
<path clip-path="url(#clip072)" d="M704.466 469.742 L258.913 469.742 L258.913 563.631 L704.466 563.631 L704.466 469.742 L704.466 469.742  Z" fill="#009af9" fill-rule="evenodd" fill-opacity="1"/>
<polyline clip-path="url(#clip072)" style="stroke:#000000; stroke-linecap:round; stroke-linejoin:round; stroke-width:4; stroke-opacity:1; fill:none" points="704.466,469.742 258.913,469.742 258.913,563.631 704.466,563.631 704.466,469.742 "/>
<path clip-path="url(#clip072)" d="M603.387 587.103 L258.913 587.103 L258.913 680.991 L603.387 680.991 L603.387 587.103 L603.387 587.103  Z" fill="#009af9" fill-rule="evenodd" fill-opacity="1"/>
<polyline clip-path="url(#clip072)" style="stroke:#000000; stroke-linecap:round; stroke-linejoin:round; stroke-width:4; stroke-opacity:1; fill:none" points="603.387,587.103 258.913,587.103 258.913,680.991 603.387,680.991 603.387,587.103 "/>
<path clip-path="url(#clip072)" d="M584.606 704.463 L258.913 704.463 L258.913 798.352 L584.606 798.352 L584.606 704.463 L584.606 704.463  Z" fill="#009af9" fill-rule="evenodd" fill-opacity="1"/>
<polyline clip-path="url(#clip072)" style="stroke:#000000; stroke-linecap:round; stroke-linejoin:round; stroke-width:4; stroke-opacity:1; fill:none" points="584.606,704.463 258.913,704.463 258.913,798.352 584.606,798.352 584.606,704.463 "/>
<path clip-path="url(#clip072)" d="M486.22 821.824 L258.913 821.824 L258.913 915.713 L486.22 915.713 L486.22 821.824 L486.22 821.824  Z" fill="#009af9" fill-rule="evenodd" fill-opacity="1"/>
<polyline clip-path="url(#clip072)" style="stroke:#000000; stroke-linecap:round; stroke-linejoin:round; stroke-width:4; stroke-opacity:1; fill:none" points="486.22,821.824 258.913,821.824 258.913,915.713 486.22,915.713 486.22,821.824 "/>
<path clip-path="url(#clip072)" d="M406.828 939.185 L258.913 939.185 L258.913 1033.07 L406.828 1033.07 L406.828 939.185 L406.828 939.185  Z" fill="#009af9" fill-rule="evenodd" fill-opacity="1"/>
<polyline clip-path="url(#clip072)" style="stroke:#000000; stroke-linecap:round; stroke-linejoin:round; stroke-width:4; stroke-opacity:1; fill:none" points="406.828,939.185 258.913,939.185 258.913,1033.07 406.828,1033.07 406.828,939.185 "/>
<path clip-path="url(#clip072)" d="M399.593 1056.55 L258.913 1056.55 L258.913 1150.43 L399.593 1150.43 L399.593 1056.55 L399.593 1056.55  Z" fill="#009af9" fill-rule="evenodd" fill-opacity="1"/>
<polyline clip-path="url(#clip072)" style="stroke:#000000; stroke-linecap:round; stroke-linejoin:round; stroke-width:4; stroke-opacity:1; fill:none" points="399.593,1056.55 258.913,1056.55 258.913,1150.43 399.593,1150.43 399.593,1056.55 "/>
<path clip-path="url(#clip072)" d="M350.227 1173.91 L258.913 1173.91 L258.913 1267.79 L350.227 1267.79 L350.227 1173.91 L350.227 1173.91  Z" fill="#009af9" fill-rule="evenodd" fill-opacity="1"/>
<polyline clip-path="url(#clip072)" style="stroke:#000000; stroke-linecap:round; stroke-linejoin:round; stroke-width:4; stroke-opacity:1; fill:none" points="350.227,1173.91 258.913,1173.91 258.913,1267.79 350.227,1267.79 350.227,1173.91 "/>
<path clip-path="url(#clip072)" d="M258.913 1291.27 L258.913 1291.27 L258.913 1385.16 L258.913 1385.16 L258.913 1291.27 L258.913 1291.27  Z" fill="#009af9" fill-rule="evenodd" fill-opacity="1"/>
<polyline clip-path="url(#clip072)" style="stroke:#000000; stroke-linecap:round; stroke-linejoin:round; stroke-width:4; stroke-opacity:1; fill:none" points="258.913,1291.27 258.913,1291.27 258.913,1385.16 258.913,1291.27 "/>
</svg>
