<?xml version="1.0" encoding="utf-8"?>
<svg xmlns="http://www.w3.org/2000/svg" xmlns:xlink="http://www.w3.org/1999/xlink" width="600" height="400" viewBox="0 0 2400 1600">
<defs>
  <clipPath id="clip000">
    <rect x="0" y="0" width="2400" height="1600"/>
  </clipPath>
</defs>
<path clip-path="url(#clip000)" d="M0 1600 L2400 1600 L2400 0 L0 0  Z" fill="#ffffff" fill-rule="evenodd" fill-opacity="1"/>
<defs>
  <clipPath id="clip001">
    <rect x="480" y="0" width="1681" height="1600"/>
  </clipPath>
</defs>
<path clip-path="url(#clip000)" d="M262.551 1423.18 L2352.76 1423.18 L2352.76 47.2441 L262.551 47.2441  Z" fill="#ffffff" fill-rule="evenodd" fill-opacity="1"/>
<defs>
  <clipPath id="clip002">
    <rect x="262" y="47" width="2091" height="1377"/>
  </clipPath>
</defs>
<polyline clip-path="url(#clip002)" style="stroke:#000000; stroke-linecap:round; stroke-linejoin:round; stroke-width:2; stroke-opacity:0.1; fill:none" points="321.708,1423.18 321.708,47.2441 "/>
<polyline clip-path="url(#clip002)" style="stroke:#000000; stroke-linecap:round; stroke-linejoin:round; stroke-width:2; stroke-opacity:0.1; fill:none" points="673.831,1423.18 673.831,47.2441 "/>
<polyline clip-path="url(#clip002)" style="stroke:#000000; stroke-linecap:round; stroke-linejoin:round; stroke-width:2; stroke-opacity:0.1; fill:none" points="1025.95,1423.18 1025.95,47.2441 "/>
<polyline clip-path="url(#clip002)" style="stroke:#000000; stroke-linecap:round; stroke-linejoin:round; stroke-width:2; stroke-opacity:0.1; fill:none" points="1378.08,1423.18 1378.08,47.2441 "/>
<polyline clip-path="url(#clip002)" style="stroke:#000000; stroke-linecap:round; stroke-linejoin:round; stroke-width:2; stroke-opacity:0.1; fill:none" points="1730.2,1423.18 1730.2,47.2441 "/>
<polyline clip-path="url(#clip002)" style="stroke:#000000; stroke-linecap:round; stroke-linejoin:round; stroke-width:2; stroke-opacity:0.1; fill:none" points="2082.33,1423.18 2082.33,47.2441 "/>
<polyline clip-path="url(#clip002)" style="stroke:#000000; stroke-linecap:round; stroke-linejoin:round; stroke-width:2; stroke-opacity:0.1; fill:none" points="262.551,1198.8 2352.76,1198.8 "/>
<polyline clip-path="url(#clip002)" style="stroke:#000000; stroke-linecap:round; stroke-linejoin:round; stroke-width:2; stroke-opacity:0.1; fill:none" points="262.551,827.93 2352.76,827.93 "/>
<polyline clip-path="url(#clip002)" style="stroke:#000000; stroke-linecap:round; stroke-linejoin:round; stroke-width:2; stroke-opacity:0.1; fill:none" points="262.551,457.058 2352.76,457.058 "/>
<polyline clip-path="url(#clip002)" style="stroke:#000000; stroke-linecap:round; stroke-linejoin:round; stroke-width:2; stroke-opacity:0.1; fill:none" points="262.551,86.1857 2352.76,86.1857 "/>
<polyline clip-path="url(#clip000)" style="stroke:#000000; stroke-linecap:round; stroke-linejoin:round; stroke-width:4; stroke-opacity:1; fill:none" points="262.551,1423.18 2352.76,1423.18 "/>
<polyline clip-path="url(#clip000)" style="stroke:#000000; stroke-linecap:round; stroke-linejoin:round; stroke-width:4; stroke-opacity:1; fill:none" points="321.708,1423.18 321.708,1404.28 "/>
<polyline clip-path="url(#clip000)" style="stroke:#000000; stroke-linecap:round; stroke-linejoin:round; stroke-width:4; stroke-opacity:1; fill:none" points="673.831,1423.18 673.831,1404.28 "/>
<polyline clip-path="url(#clip000)" style="stroke:#000000; stroke-linecap:round; stroke-linejoin:round; stroke-width:4; stroke-opacity:1; fill:none" points="1025.95,1423.18 1025.95,1404.28 "/>
<polyline clip-path="url(#clip000)" style="stroke:#000000; stroke-linecap:round; stroke-linejoin:round; stroke-width:4; stroke-opacity:1; fill:none" points="1378.08,1423.18 1378.08,1404.28 "/>
<polyline clip-path="url(#clip000)" style="stroke:#000000; stroke-linecap:round; stroke-linejoin:round; stroke-width:4; stroke-opacity:1; fill:none" points="1730.2,1423.18 1730.2,1404.28 "/>
<polyline clip-path="url(#clip000)" style="stroke:#000000; stroke-linecap:round; stroke-linejoin:round; stroke-width:4; stroke-opacity:1; fill:none" points="2082.33,1423.18 2082.33,1404.28 "/>
<path clip-path="url(#clip000)" d="M299.092 1454.1 Q295.481 1454.1 293.653 1457.66 Q291.847 1461.2 291.847 1468.33 Q291.847 1475.44 293.653 1479.01 Q295.481 1482.55 299.092 1482.55 Q302.727 1482.55 304.532 1479.01 Q306.361 1475.44 306.361 1468.33 Q306.361 1461.2 304.532 1457.66 Q302.727 1454.1 299.092 1454.1 M299.092 1450.39 Q304.902 1450.39 307.958 1455 Q311.037 1459.58 311.037 1468.33 Q311.037 1477.06 307.958 1481.67 Q304.902 1486.25 299.092 1486.25 Q293.282 1486.25 290.203 1481.67 Q287.148 1477.06 287.148 1468.33 Q287.148 1459.58 290.203 1455 Q293.282 1450.39 299.092 1450.39 Z" fill="#000000" fill-rule="nonzero" fill-opacity="1" /><path clip-path="url(#clip000)" d="M319.254 1479.7 L324.139 1479.7 L324.139 1485.58 L319.254 1485.58 L319.254 1479.7 Z" fill="#000000" fill-rule="nonzero" fill-opacity="1" /><path clip-path="url(#clip000)" d="M344.324 1454.1 Q340.712 1454.1 338.884 1457.66 Q337.078 1461.2 337.078 1468.33 Q337.078 1475.44 338.884 1479.01 Q340.712 1482.55 344.324 1482.55 Q347.958 1482.55 349.763 1479.01 Q351.592 1475.44 351.592 1468.33 Q351.592 1461.2 349.763 1457.66 Q347.958 1454.1 344.324 1454.1 M344.324 1450.39 Q350.134 1450.39 353.189 1455 Q356.268 1459.58 356.268 1468.33 Q356.268 1477.06 353.189 1481.67 Q350.134 1486.25 344.324 1486.25 Q338.513 1486.25 335.435 1481.67 Q332.379 1477.06 332.379 1468.33 Q332.379 1459.58 335.435 1455 Q338.513 1450.39 344.324 1450.39 Z" fill="#000000" fill-rule="nonzero" fill-opacity="1" /><path clip-path="url(#clip000)" d="M645.568 1481.64 L661.887 1481.64 L661.887 1485.58 L639.943 1485.58 L639.943 1481.64 Q642.605 1478.89 647.188 1474.26 Q651.794 1469.61 652.975 1468.27 Q655.22 1465.74 656.1 1464.01 Q657.003 1462.25 657.003 1460.56 Q657.003 1457.8 655.058 1456.07 Q653.137 1454.33 650.035 1454.33 Q647.836 1454.33 645.382 1455.09 Q642.952 1455.86 640.174 1457.41 L640.174 1452.69 Q642.998 1451.55 645.452 1450.97 Q647.906 1450.39 649.943 1450.39 Q655.313 1450.39 658.507 1453.08 Q661.702 1455.77 661.702 1460.26 Q661.702 1462.39 660.892 1464.31 Q660.105 1466.2 657.998 1468.8 Q657.419 1469.47 654.318 1472.69 Q651.216 1475.88 645.568 1481.64 Z" fill="#000000" fill-rule="nonzero" fill-opacity="1" /><path clip-path="url(#clip000)" d="M671.702 1479.7 L676.586 1479.7 L676.586 1485.58 L671.702 1485.58 L671.702 1479.7 Z" fill="#000000" fill-rule="nonzero" fill-opacity="1" /><path clip-path="url(#clip000)" d="M686.817 1451.02 L705.174 1451.02 L705.174 1454.96 L691.1 1454.96 L691.1 1463.43 Q692.118 1463.08 693.137 1462.92 Q694.155 1462.73 695.174 1462.73 Q700.961 1462.73 704.34 1465.9 Q707.72 1469.08 707.72 1474.49 Q707.72 1480.07 704.248 1483.17 Q700.776 1486.25 694.456 1486.25 Q692.28 1486.25 690.012 1485.88 Q687.766 1485.51 685.359 1484.77 L685.359 1480.07 Q687.442 1481.2 689.665 1481.76 Q691.887 1482.32 694.364 1482.32 Q698.368 1482.32 700.706 1480.21 Q703.044 1478.1 703.044 1474.49 Q703.044 1470.88 700.706 1468.77 Q698.368 1466.67 694.364 1466.67 Q692.489 1466.67 690.614 1467.08 Q688.762 1467.5 686.817 1468.38 L686.817 1451.02 Z" fill="#000000" fill-rule="nonzero" fill-opacity="1" /><path clip-path="url(#clip000)" d="M993.119 1451.02 L1011.48 1451.02 L1011.48 1454.96 L997.402 1454.96 L997.402 1463.43 Q998.42 1463.08 999.439 1462.92 Q1000.46 1462.73 1001.48 1462.73 Q1007.26 1462.73 1010.64 1465.9 Q1014.02 1469.08 1014.02 1474.49 Q1014.02 1480.07 1010.55 1483.17 Q1007.08 1486.25 1000.76 1486.25 Q998.582 1486.25 996.314 1485.88 Q994.068 1485.51 991.661 1484.77 L991.661 1480.07 Q993.744 1481.2 995.967 1481.76 Q998.189 1482.32 1000.67 1482.32 Q1004.67 1482.32 1007.01 1480.21 Q1009.35 1478.1 1009.35 1474.49 Q1009.35 1470.88 1007.01 1468.77 Q1004.67 1466.67 1000.67 1466.67 Q998.791 1466.67 996.916 1467.08 Q995.064 1467.5 993.119 1468.38 L993.119 1451.02 Z" fill="#000000" fill-rule="nonzero" fill-opacity="1" /><path clip-path="url(#clip000)" d="M1023.23 1479.7 L1028.12 1479.7 L1028.12 1485.58 L1023.23 1485.58 L1023.23 1479.7 Z" fill="#000000" fill-rule="nonzero" fill-opacity="1" /><path clip-path="url(#clip000)" d="M1048.3 1454.1 Q1044.69 1454.1 1042.86 1457.66 Q1041.06 1461.2 1041.06 1468.33 Q1041.06 1475.44 1042.86 1479.01 Q1044.69 1482.55 1048.3 1482.55 Q1051.94 1482.55 1053.74 1479.01 Q1055.57 1475.44 1055.57 1468.33 Q1055.57 1461.2 1053.74 1457.66 Q1051.94 1454.1 1048.3 1454.1 M1048.3 1450.39 Q1054.11 1450.39 1057.17 1455 Q1060.25 1459.58 1060.25 1468.33 Q1060.25 1477.06 1057.17 1481.67 Q1054.11 1486.25 1048.3 1486.25 Q1042.49 1486.25 1039.42 1481.67 Q1036.36 1477.06 1036.36 1468.33 Q1036.36 1459.58 1039.42 1455 Q1042.49 1450.39 1048.3 1450.39 Z" fill="#000000" fill-rule="nonzero" fill-opacity="1" /><path clip-path="url(#clip000)" d="M1344.4 1451.02 L1366.62 1451.02 L1366.62 1453.01 L1354.07 1485.58 L1349.19 1485.58 L1361 1454.96 L1344.4 1454.96 L1344.4 1451.02 Z" fill="#000000" fill-rule="nonzero" fill-opacity="1" /><path clip-path="url(#clip000)" d="M1375.74 1479.7 L1380.62 1479.7 L1380.62 1485.58 L1375.74 1485.58 L1375.74 1479.7 Z" fill="#000000" fill-rule="nonzero" fill-opacity="1" /><path clip-path="url(#clip000)" d="M1390.86 1451.02 L1409.21 1451.02 L1409.21 1454.96 L1395.14 1454.96 L1395.14 1463.43 Q1396.16 1463.08 1397.18 1462.92 Q1398.19 1462.73 1399.21 1462.73 Q1405 1462.73 1408.38 1465.9 Q1411.76 1469.08 1411.76 1474.49 Q1411.76 1480.07 1408.29 1483.17 Q1404.81 1486.25 1398.49 1486.25 Q1396.32 1486.25 1394.05 1485.88 Q1391.81 1485.51 1389.4 1484.77 L1389.4 1480.07 Q1391.48 1481.2 1393.7 1481.76 Q1395.93 1482.32 1398.4 1482.32 Q1402.41 1482.32 1404.74 1480.21 Q1407.08 1478.1 1407.08 1474.49 Q1407.08 1470.88 1404.74 1468.77 Q1402.41 1466.67 1398.4 1466.67 Q1396.53 1466.67 1394.65 1467.08 Q1392.8 1467.5 1390.86 1468.38 L1390.86 1451.02 Z" fill="#000000" fill-rule="nonzero" fill-opacity="1" /><path clip-path="url(#clip000)" d="M1682.27 1481.64 L1689.91 1481.64 L1689.91 1455.28 L1681.6 1456.95 L1681.6 1452.69 L1689.87 1451.02 L1694.54 1451.02 L1694.54 1481.64 L1702.18 1481.64 L1702.18 1485.58 L1682.27 1485.58 L1682.27 1481.64 Z" fill="#000000" fill-rule="nonzero" fill-opacity="1" /><path clip-path="url(#clip000)" d="M1721.63 1454.1 Q1718.01 1454.1 1716.19 1457.66 Q1714.38 1461.2 1714.38 1468.33 Q1714.38 1475.44 1716.19 1479.01 Q1718.01 1482.55 1721.63 1482.55 Q1725.26 1482.55 1727.07 1479.01 Q1728.89 1475.44 1728.89 1468.33 Q1728.89 1461.2 1727.07 1457.66 Q1725.26 1454.1 1721.63 1454.1 M1721.63 1450.39 Q1727.44 1450.39 1730.49 1455 Q1733.57 1459.58 1733.57 1468.33 Q1733.57 1477.06 1730.49 1481.67 Q1727.44 1486.25 1721.63 1486.25 Q1715.82 1486.25 1712.74 1481.67 Q1709.68 1477.06 1709.68 1468.33 Q1709.68 1459.58 1712.74 1455 Q1715.82 1450.39 1721.63 1450.39 Z" fill="#000000" fill-rule="nonzero" fill-opacity="1" /><path clip-path="url(#clip000)" d="M1741.79 1479.7 L1746.67 1479.7 L1746.67 1485.58 L1741.79 1485.58 L1741.79 1479.7 Z" fill="#000000" fill-rule="nonzero" fill-opacity="1" /><path clip-path="url(#clip000)" d="M1766.86 1454.1 Q1763.25 1454.1 1761.42 1457.66 Q1759.61 1461.2 1759.61 1468.33 Q1759.61 1475.44 1761.42 1479.01 Q1763.25 1482.55 1766.86 1482.55 Q1770.49 1482.55 1772.3 1479.01 Q1774.13 1475.44 1774.13 1468.33 Q1774.13 1461.2 1772.3 1457.66 Q1770.49 1454.1 1766.86 1454.1 M1766.86 1450.39 Q1772.67 1450.39 1775.72 1455 Q1778.8 1459.58 1778.8 1468.33 Q1778.8 1477.06 1775.72 1481.67 Q1772.67 1486.25 1766.86 1486.25 Q1761.05 1486.25 1757.97 1481.67 Q1754.91 1477.06 1754.91 1468.33 Q1754.91 1459.58 1757.97 1455 Q1761.05 1450.39 1766.86 1450.39 Z" fill="#000000" fill-rule="nonzero" fill-opacity="1" /><path clip-path="url(#clip000)" d="M2034.89 1481.64 L2042.53 1481.64 L2042.53 1455.28 L2034.22 1456.95 L2034.22 1452.69 L2042.49 1451.02 L2047.16 1451.02 L2047.16 1481.64 L2054.8 1481.64 L2054.8 1485.58 L2034.89 1485.58 L2034.89 1481.64 Z" fill="#000000" fill-rule="nonzero" fill-opacity="1" /><path clip-path="url(#clip000)" d="M2068.27 1481.64 L2084.59 1481.64 L2084.59 1485.58 L2062.65 1485.58 L2062.65 1481.64 Q2065.31 1478.89 2069.89 1474.26 Q2074.5 1469.61 2075.68 1468.27 Q2077.93 1465.74 2078.81 1464.01 Q2079.71 1462.25 2079.71 1460.56 Q2079.71 1457.8 2077.76 1456.07 Q2075.84 1454.33 2072.74 1454.33 Q2070.54 1454.33 2068.09 1455.09 Q2065.66 1455.86 2062.88 1457.41 L2062.88 1452.69 Q2065.7 1451.55 2068.16 1450.97 Q2070.61 1450.39 2072.65 1450.39 Q2078.02 1450.39 2081.21 1453.08 Q2084.41 1455.77 2084.41 1460.26 Q2084.41 1462.39 2083.6 1464.31 Q2082.81 1466.2 2080.7 1468.8 Q2080.13 1469.47 2077.02 1472.69 Q2073.92 1475.88 2068.27 1481.64 Z" fill="#000000" fill-rule="nonzero" fill-opacity="1" /><path clip-path="url(#clip000)" d="M2094.41 1479.7 L2099.29 1479.7 L2099.29 1485.58 L2094.41 1485.58 L2094.41 1479.7 Z" fill="#000000" fill-rule="nonzero" fill-opacity="1" /><path clip-path="url(#clip000)" d="M2109.52 1451.02 L2127.88 1451.02 L2127.88 1454.96 L2113.81 1454.96 L2113.81 1463.43 Q2114.82 1463.08 2115.84 1462.92 Q2116.86 1462.73 2117.88 1462.73 Q2123.67 1462.73 2127.05 1465.9 Q2130.43 1469.08 2130.43 1474.49 Q2130.43 1480.07 2126.95 1483.17 Q2123.48 1486.25 2117.16 1486.25 Q2114.99 1486.25 2112.72 1485.88 Q2110.47 1485.51 2108.07 1484.77 L2108.07 1480.07 Q2110.15 1481.2 2112.37 1481.76 Q2114.59 1482.32 2117.07 1482.32 Q2121.07 1482.32 2123.41 1480.21 Q2125.75 1478.1 2125.75 1474.49 Q2125.75 1470.88 2123.41 1468.77 Q2121.07 1466.67 2117.07 1466.67 Q2115.2 1466.67 2113.32 1467.08 Q2111.47 1467.5 2109.52 1468.38 L2109.52 1451.02 Z" fill="#000000" fill-rule="nonzero" fill-opacity="1" /><path clip-path="url(#clip000)" d="M1180.71 1520.52 L1220.9 1520.52 L1220.9 1525.93 L1204.04 1525.93 L1204.04 1568.04 L1197.57 1568.04 L1197.57 1525.93 L1180.71 1525.93 L1180.71 1520.52 Z" fill="#000000" fill-rule="nonzero" fill-opacity="1" /><path clip-path="url(#clip000)" d="M1224.85 1532.4 L1230.71 1532.4 L1230.71 1568.04 L1224.85 1568.04 L1224.85 1532.4 M1224.85 1518.52 L1230.71 1518.52 L1230.71 1525.93 L1224.85 1525.93 L1224.85 1518.52 Z" fill="#000000" fill-rule="nonzero" fill-opacity="1" /><path clip-path="url(#clip000)" d="M1270.72 1539.24 Q1272.91 1535.29 1275.97 1533.41 Q1279.02 1531.54 1283.16 1531.54 Q1288.73 1531.54 1291.76 1535.45 Q1294.78 1539.33 1294.78 1546.53 L1294.78 1568.04 L1288.89 1568.04 L1288.89 1546.72 Q1288.89 1541.59 1287.08 1539.11 Q1285.26 1536.63 1281.54 1536.63 Q1276.99 1536.63 1274.35 1539.65 Q1271.7 1542.68 1271.7 1547.9 L1271.7 1568.04 L1265.81 1568.04 L1265.81 1546.72 Q1265.81 1541.56 1264 1539.11 Q1262.19 1536.63 1258.4 1536.63 Q1253.91 1536.63 1251.27 1539.68 Q1248.63 1542.71 1248.63 1547.9 L1248.63 1568.04 L1242.74 1568.04 L1242.74 1532.4 L1248.63 1532.4 L1248.63 1537.93 Q1250.63 1534.66 1253.43 1533.1 Q1256.23 1531.54 1260.09 1531.54 Q1263.97 1531.54 1266.67 1533.51 Q1269.41 1535.48 1270.72 1539.24 Z" fill="#000000" fill-rule="nonzero" fill-opacity="1" /><path clip-path="url(#clip000)" d="M1336.95 1548.76 L1336.95 1551.62 L1310.02 1551.62 Q1310.41 1557.67 1313.65 1560.85 Q1316.93 1564 1322.76 1564 Q1326.13 1564 1329.28 1563.17 Q1332.46 1562.35 1335.58 1560.69 L1335.58 1566.23 Q1332.43 1567.57 1329.12 1568.27 Q1325.81 1568.97 1322.41 1568.97 Q1313.88 1568.97 1308.88 1564 Q1303.91 1559.04 1303.91 1550.57 Q1303.91 1541.82 1308.62 1536.69 Q1313.37 1531.54 1321.39 1531.54 Q1328.58 1531.54 1332.75 1536.18 Q1336.95 1540.8 1336.95 1548.76 M1331.1 1547.04 Q1331.03 1542.23 1328.39 1539.37 Q1325.78 1536.5 1321.45 1536.5 Q1316.55 1536.5 1313.59 1539.27 Q1310.66 1542.04 1310.22 1547.07 L1331.1 1547.04 Z" fill="#000000" fill-rule="nonzero" fill-opacity="1" /><path clip-path="url(#clip000)" d="M1377.69 1520.52 L1383.1 1520.52 L1366.55 1574.09 L1361.14 1574.09 L1377.69 1520.52 Z" fill="#000000" fill-rule="nonzero" fill-opacity="1" /><path clip-path="url(#clip000)" d="M1432.69 1533.45 L1432.69 1538.98 Q1430.21 1537.71 1427.54 1537.07 Q1424.86 1536.44 1422 1536.44 Q1417.64 1536.44 1415.44 1537.77 Q1413.28 1539.11 1413.28 1541.79 Q1413.28 1543.82 1414.84 1545 Q1416.4 1546.15 1421.11 1547.2 L1423.11 1547.64 Q1429.35 1548.98 1431.96 1551.43 Q1434.6 1553.85 1434.6 1558.21 Q1434.6 1563.17 1430.65 1566.07 Q1426.74 1568.97 1419.87 1568.97 Q1417 1568.97 1413.88 1568.39 Q1410.79 1567.85 1407.36 1566.74 L1407.36 1560.69 Q1410.6 1562.38 1413.75 1563.24 Q1416.91 1564.07 1419.99 1564.07 Q1424.13 1564.07 1426.36 1562.66 Q1428.59 1561.23 1428.59 1558.65 Q1428.59 1556.27 1426.96 1554.99 Q1425.37 1553.72 1419.93 1552.54 L1417.89 1552.07 Q1412.45 1550.92 1410.03 1548.56 Q1407.61 1546.18 1407.61 1542.04 Q1407.61 1537.01 1411.18 1534.27 Q1414.74 1531.54 1421.3 1531.54 Q1424.54 1531.54 1427.41 1532.01 Q1430.27 1532.49 1432.69 1533.45 Z" fill="#000000" fill-rule="nonzero" fill-opacity="1" /><polyline clip-path="url(#clip000)" style="stroke:#000000; stroke-linecap:round; stroke-linejoin:round; stroke-width:4; stroke-opacity:1; fill:none" points="262.551,1423.18 262.551,47.2441 "/>
<polyline clip-path="url(#clip000)" style="stroke:#000000; stroke-linecap:round; stroke-linejoin:round; stroke-width:4; stroke-opacity:1; fill:none" points="262.551,1198.8 281.449,1198.8 "/>
<polyline clip-path="url(#clip000)" style="stroke:#000000; stroke-linecap:round; stroke-linejoin:round; stroke-width:4; stroke-opacity:1; fill:none" points="262.551,827.93 281.449,827.93 "/>
<polyline clip-path="url(#clip000)" style="stroke:#000000; stroke-linecap:round; stroke-linejoin:round; stroke-width:4; stroke-opacity:1; fill:none" points="262.551,457.058 281.449,457.058 "/>
<polyline clip-path="url(#clip000)" style="stroke:#000000; stroke-linecap:round; stroke-linejoin:round; stroke-width:4; stroke-opacity:1; fill:none" points="262.551,86.1857 281.449,86.1857 "/>
<path clip-path="url(#clip000)" d="M154.862 1196.94 Q151.714 1196.94 149.862 1199.09 Q148.033 1201.24 148.033 1204.99 Q148.033 1208.72 149.862 1210.9 Q151.714 1213.05 154.862 1213.05 Q158.01 1213.05 159.839 1210.9 Q161.69 1208.72 161.69 1204.99 Q161.69 1201.24 159.839 1199.09 Q158.01 1196.94 154.862 1196.94 M164.144 1182.29 L164.144 1186.55 Q162.385 1185.71 160.579 1185.27 Q158.797 1184.83 157.038 1184.83 Q152.408 1184.83 149.954 1187.96 Q147.524 1191.08 147.177 1197.4 Q148.542 1195.39 150.603 1194.32 Q152.663 1193.24 155.14 1193.24 Q160.348 1193.24 163.357 1196.41 Q166.39 1199.55 166.39 1204.99 Q166.39 1210.32 163.241 1213.54 Q160.093 1216.75 154.862 1216.75 Q148.866 1216.75 145.695 1212.17 Q142.524 1207.56 142.524 1198.84 Q142.524 1190.64 146.413 1185.78 Q150.302 1180.9 156.853 1180.9 Q158.612 1180.9 160.394 1181.24 Q162.2 1181.59 164.144 1182.29 Z" fill="#000000" fill-rule="nonzero" fill-opacity="1" /><path clip-path="url(#clip000)" d="M184.445 1184.6 Q180.834 1184.6 179.005 1188.17 Q177.2 1191.71 177.2 1198.84 Q177.2 1205.94 179.005 1209.51 Q180.834 1213.05 184.445 1213.05 Q188.079 1213.05 189.885 1209.51 Q191.713 1205.94 191.713 1198.84 Q191.713 1191.71 189.885 1188.17 Q188.079 1184.6 184.445 1184.6 M184.445 1180.9 Q190.255 1180.9 193.311 1185.5 Q196.389 1190.09 196.389 1198.84 Q196.389 1207.56 193.311 1212.17 Q190.255 1216.75 184.445 1216.75 Q178.635 1216.75 175.556 1212.17 Q172.501 1207.56 172.501 1198.84 Q172.501 1190.09 175.556 1185.5 Q178.635 1180.9 184.445 1180.9 Z" fill="#000000" fill-rule="nonzero" fill-opacity="1" /><path clip-path="url(#clip000)" d="M214.607 1184.6 Q210.996 1184.6 209.167 1188.17 Q207.362 1191.71 207.362 1198.84 Q207.362 1205.94 209.167 1209.51 Q210.996 1213.05 214.607 1213.05 Q218.241 1213.05 220.047 1209.51 Q221.875 1205.94 221.875 1198.84 Q221.875 1191.71 220.047 1188.17 Q218.241 1184.6 214.607 1184.6 M214.607 1180.9 Q220.417 1180.9 223.473 1185.5 Q226.551 1190.09 226.551 1198.84 Q226.551 1207.56 223.473 1212.17 Q220.417 1216.75 214.607 1216.75 Q208.797 1216.75 205.718 1212.17 Q202.662 1207.56 202.662 1198.84 Q202.662 1190.09 205.718 1185.5 Q208.797 1180.9 214.607 1180.9 Z" fill="#000000" fill-rule="nonzero" fill-opacity="1" /><path clip-path="url(#clip000)" d="M154.283 828.798 Q150.95 828.798 149.028 830.58 Q147.13 832.363 147.13 835.488 Q147.13 838.613 149.028 840.395 Q150.95 842.178 154.283 842.178 Q157.616 842.178 159.538 840.395 Q161.459 838.59 161.459 835.488 Q161.459 832.363 159.538 830.58 Q157.64 828.798 154.283 828.798 M149.607 826.807 Q146.598 826.067 144.908 824.006 Q143.241 821.946 143.241 818.983 Q143.241 814.84 146.181 812.432 Q149.144 810.025 154.283 810.025 Q159.445 810.025 162.385 812.432 Q165.325 814.84 165.325 818.983 Q165.325 821.946 163.635 824.006 Q161.968 826.067 158.982 826.807 Q162.362 827.594 164.237 829.886 Q166.135 832.178 166.135 835.488 Q166.135 840.511 163.056 843.196 Q160.001 845.881 154.283 845.881 Q148.566 845.881 145.487 843.196 Q142.431 840.511 142.431 835.488 Q142.431 832.178 144.329 829.886 Q146.228 827.594 149.607 826.807 M147.894 819.423 Q147.894 822.108 149.561 823.613 Q151.251 825.118 154.283 825.118 Q157.292 825.118 158.982 823.613 Q160.695 822.108 160.695 819.423 Q160.695 816.738 158.982 815.233 Q157.292 813.729 154.283 813.729 Q151.251 813.729 149.561 815.233 Q147.894 816.738 147.894 819.423 Z" fill="#000000" fill-rule="nonzero" fill-opacity="1" /><path clip-path="url(#clip000)" d="M184.445 813.729 Q180.834 813.729 179.005 817.293 Q177.2 820.835 177.2 827.965 Q177.2 835.071 179.005 838.636 Q180.834 842.178 184.445 842.178 Q188.079 842.178 189.885 838.636 Q191.713 835.071 191.713 827.965 Q191.713 820.835 189.885 817.293 Q188.079 813.729 184.445 813.729 M184.445 810.025 Q190.255 810.025 193.311 814.631 Q196.389 819.215 196.389 827.965 Q196.389 836.692 193.311 841.298 Q190.255 845.881 184.445 845.881 Q178.635 845.881 175.556 841.298 Q172.501 836.692 172.501 827.965 Q172.501 819.215 175.556 814.631 Q178.635 810.025 184.445 810.025 Z" fill="#000000" fill-rule="nonzero" fill-opacity="1" /><path clip-path="url(#clip000)" d="M214.607 813.729 Q210.996 813.729 209.167 817.293 Q207.362 820.835 207.362 827.965 Q207.362 835.071 209.167 838.636 Q210.996 842.178 214.607 842.178 Q218.241 842.178 220.047 838.636 Q221.875 835.071 221.875 827.965 Q221.875 820.835 220.047 817.293 Q218.241 813.729 214.607 813.729 M214.607 810.025 Q220.417 810.025 223.473 814.631 Q226.551 819.215 226.551 827.965 Q226.551 836.692 223.473 841.298 Q220.417 845.881 214.607 845.881 Q208.797 845.881 205.718 841.298 Q202.662 836.692 202.662 827.965 Q202.662 819.215 205.718 814.631 Q208.797 810.025 214.607 810.025 Z" fill="#000000" fill-rule="nonzero" fill-opacity="1" /><path clip-path="url(#clip000)" d="M114.931 470.403 L122.57 470.403 L122.57 444.037 L114.26 445.704 L114.26 441.444 L122.524 439.778 L127.2 439.778 L127.2 470.403 L134.839 470.403 L134.839 474.338 L114.931 474.338 L114.931 470.403 Z" fill="#000000" fill-rule="nonzero" fill-opacity="1" /><path clip-path="url(#clip000)" d="M154.283 442.857 Q150.672 442.857 148.843 446.421 Q147.038 449.963 147.038 457.093 Q147.038 464.199 148.843 467.764 Q150.672 471.305 154.283 471.305 Q157.917 471.305 159.723 467.764 Q161.552 464.199 161.552 457.093 Q161.552 449.963 159.723 446.421 Q157.917 442.857 154.283 442.857 M154.283 439.153 Q160.093 439.153 163.149 443.759 Q166.227 448.343 166.227 457.093 Q166.227 465.819 163.149 470.426 Q160.093 475.009 154.283 475.009 Q148.473 475.009 145.394 470.426 Q142.339 465.819 142.339 457.093 Q142.339 448.343 145.394 443.759 Q148.473 439.153 154.283 439.153 Z" fill="#000000" fill-rule="nonzero" fill-opacity="1" /><path clip-path="url(#clip000)" d="M184.445 442.857 Q180.834 442.857 179.005 446.421 Q177.2 449.963 177.2 457.093 Q177.2 464.199 179.005 467.764 Q180.834 471.305 184.445 471.305 Q188.079 471.305 189.885 467.764 Q191.713 464.199 191.713 457.093 Q191.713 449.963 189.885 446.421 Q188.079 442.857 184.445 442.857 M184.445 439.153 Q190.255 439.153 193.311 443.759 Q196.389 448.343 196.389 457.093 Q196.389 465.819 193.311 470.426 Q190.255 475.009 184.445 475.009 Q178.635 475.009 175.556 470.426 Q172.501 465.819 172.501 457.093 Q172.501 448.343 175.556 443.759 Q178.635 439.153 184.445 439.153 Z" fill="#000000" fill-rule="nonzero" fill-opacity="1" /><path clip-path="url(#clip000)" d="M214.607 442.857 Q210.996 442.857 209.167 446.421 Q207.362 449.963 207.362 457.093 Q207.362 464.199 209.167 467.764 Q210.996 471.305 214.607 471.305 Q218.241 471.305 220.047 467.764 Q221.875 464.199 221.875 457.093 Q221.875 449.963 220.047 446.421 Q218.241 442.857 214.607 442.857 M214.607 439.153 Q220.417 439.153 223.473 443.759 Q226.551 448.343 226.551 457.093 Q226.551 465.819 223.473 470.426 Q220.417 475.009 214.607 475.009 Q208.797 475.009 205.718 470.426 Q202.662 465.819 202.662 457.093 Q202.662 448.343 205.718 443.759 Q208.797 439.153 214.607 439.153 Z" fill="#000000" fill-rule="nonzero" fill-opacity="1" /><path clip-path="url(#clip000)" d="M114.931 99.5305 L122.57 99.5305 L122.57 73.1649 L114.26 74.8316 L114.26 70.5723 L122.524 68.9057 L127.2 68.9057 L127.2 99.5305 L134.839 99.5305 L134.839 103.466 L114.931 103.466 L114.931 99.5305 Z" fill="#000000" fill-rule="nonzero" fill-opacity="1" /><path clip-path="url(#clip000)" d="M148.311 99.5305 L164.63 99.5305 L164.63 103.466 L142.686 103.466 L142.686 99.5305 Q145.348 96.7759 149.931 92.1463 Q154.538 87.4935 155.718 86.151 Q157.964 83.6278 158.843 81.8917 Q159.746 80.1325 159.746 78.4427 Q159.746 75.688 157.802 73.9519 Q155.88 72.2158 152.778 72.2158 Q150.579 72.2158 148.126 72.9797 Q145.695 73.7436 142.917 75.2945 L142.917 70.5723 Q145.741 69.4381 148.195 68.8594 Q150.649 68.2807 152.686 68.2807 Q158.056 68.2807 161.251 70.9658 Q164.445 73.651 164.445 78.1417 Q164.445 80.2714 163.635 82.1926 Q162.848 84.0908 160.741 86.6834 Q160.163 87.3546 157.061 90.5722 Q153.959 93.7667 148.311 99.5305 Z" fill="#000000" fill-rule="nonzero" fill-opacity="1" /><path clip-path="url(#clip000)" d="M184.445 71.9844 Q180.834 71.9844 179.005 75.5492 Q177.2 79.0908 177.2 86.2204 Q177.2 93.3268 179.005 96.8916 Q180.834 100.433 184.445 100.433 Q188.079 100.433 189.885 96.8916 Q191.713 93.3268 191.713 86.2204 Q191.713 79.0908 189.885 75.5492 Q188.079 71.9844 184.445 71.9844 M184.445 68.2807 Q190.255 68.2807 193.311 72.8871 Q196.389 77.4704 196.389 86.2204 Q196.389 94.9472 193.311 99.5537 Q190.255 104.137 184.445 104.137 Q178.635 104.137 175.556 99.5537 Q172.501 94.9472 172.501 86.2204 Q172.501 77.4704 175.556 72.8871 Q178.635 68.2807 184.445 68.2807 Z" fill="#000000" fill-rule="nonzero" fill-opacity="1" /><path clip-path="url(#clip000)" d="M214.607 71.9844 Q210.996 71.9844 209.167 75.5492 Q207.362 79.0908 207.362 86.2204 Q207.362 93.3268 209.167 96.8916 Q210.996 100.433 214.607 100.433 Q218.241 100.433 220.047 96.8916 Q221.875 93.3268 221.875 86.2204 Q221.875 79.0908 220.047 75.5492 Q218.241 71.9844 214.607 71.9844 M214.607 68.2807 Q220.417 68.2807 223.473 72.8871 Q226.551 77.4704 226.551 86.2204 Q226.551 94.9472 223.473 99.5537 Q220.417 104.137 214.607 104.137 Q208.797 104.137 205.718 99.5537 Q202.662 94.9472 202.662 86.2204 Q202.662 77.4704 205.718 72.8871 Q208.797 68.2807 214.607 68.2807 Z" fill="#000000" fill-rule="nonzero" fill-opacity="1" /><path clip-path="url(#clip000)" d="M16.4842 755.312 L16.4842 715.112 L21.895 715.112 L21.895 731.981 L64.0042 731.981 L64.0042 738.443 L21.895 738.443 L21.895 755.312 L16.4842 755.312 Z" fill="#000000" fill-rule="nonzero" fill-opacity="1" /><polyline clip-path="url(#clip002)" style="stroke:#009af9; stroke-linecap:round; stroke-linejoin:round; stroke-width:4; stroke-opacity:1; fill:none" points="321.708,1384.24 323.68,1382.94 325.652,1381.64 327.624,1380.34 329.596,1379.05 331.567,1377.75 333.539,1376.45 335.511,1375.15 337.483,1373.85 339.455,1372.56 341.427,1371.26 343.399,1369.96 345.371,1368.66 347.343,1367.36 349.314,1366.07 351.286,1364.77 353.258,1363.47 355.23,1362.17 357.202,1360.87 359.174,1359.58 361.146,1358.28 363.118,1356.98 365.09,1355.68 367.061,1354.38 369.033,1353.09 371.005,1351.79 372.977,1350.49 374.949,1349.19 376.921,1347.89 378.893,1346.59 380.865,1345.3 382.837,1344 384.808,1342.7 386.78,1341.4 388.752,1340.1 390.724,1338.81 392.696,1337.51 394.668,1336.21 396.64,1334.91 398.612,1333.61 400.584,1332.32 402.555,1331.02 404.527,1329.72 406.499,1328.42 408.471,1327.12 410.443,1325.83 412.415,1324.53 414.387,1323.23 416.359,1321.93 418.331,1320.63 420.303,1319.34 422.274,1318.04 424.246,1316.74 426.218,1315.44 428.19,1314.14 430.162,1312.85 432.134,1311.55 434.106,1310.25 436.078,1308.95 438.05,1307.65 440.021,1306.36 441.993,1305.06 443.965,1303.76 445.937,1302.46 447.909,1301.16 449.881,1299.86 451.853,1298.57 453.825,1297.27 455.797,1295.97 457.768,1294.67 459.74,1293.37 461.712,1292.08 463.684,1290.78 465.656,1289.48 467.628,1288.18 469.6,1286.88 471.572,1285.59 473.544,1284.29 475.515,1282.99 477.487,1281.69 479.459,1280.39 481.431,1279.1 483.403,1277.8 485.375,1276.5 487.347,1275.2 489.319,1273.9 491.291,1272.61 493.262,1271.31 495.234,1270.01 497.206,1268.71 499.178,1267.41 501.15,1266.12 503.122,1264.82 505.094,1263.52 507.066,1262.22 509.038,1260.92 511.01,1259.63 512.981,1258.33 514.953,1257.03 516.925,1255.73 518.897,1254.43 520.869,1253.13 522.841,1251.84 524.813,1250.54 526.785,1249.24 528.757,1247.94 530.728,1246.64 532.7,1245.35 534.672,1244.05 536.644,1242.75 538.616,1241.45 540.588,1240.15 542.56,1238.86 544.532,1237.56 546.504,1236.26 548.475,1234.96 550.447,1233.66 552.419,1232.37 554.391,1231.07 556.363,1229.77 558.335,1228.47 560.307,1227.17 562.279,1225.88 564.251,1224.58 566.222,1223.28 568.194,1221.98 570.166,1220.68 572.138,1219.39 574.11,1218.09 576.082,1216.79 578.054,1215.49 580.026,1214.19 581.998,1212.9 583.969,1211.6 585.941,1210.3 587.913,1209 589.885,1207.7 591.857,1206.41 593.829,1205.11 595.801,1203.81 597.773,1202.51 599.745,1201.21 601.717,1199.91 603.688,1198.62 605.66,1197.32 607.632,1196.02 609.604,1194.72 611.576,1193.42 613.548,1192.13 615.52,1190.83 617.492,1189.53 619.464,1188.23 621.435,1186.93 623.407,1185.64 625.379,1184.34 627.351,1183.04 629.323,1181.74 631.295,1180.44 633.267,1179.15 635.239,1177.85 637.211,1176.55 639.182,1175.25 641.154,1173.95 643.126,1172.66 645.098,1171.36 647.07,1170.06 649.042,1168.76 651.014,1167.46 652.986,1166.17 654.958,1164.87 656.929,1163.57 658.901,1162.27 660.873,1160.97 662.845,1159.68 664.817,1158.38 666.789,1157.08 668.761,1155.78 670.733,1154.48 672.705,1153.18 674.676,1151.89 676.648,1150.59 678.62,1149.29 680.592,1147.99 682.564,1146.69 684.536,1145.4 686.508,1144.1 688.48,1142.8 690.452,1141.5 692.424,1140.2 694.395,1138.91 696.367,1137.61 698.339,1136.31 700.311,1135.01 702.283,1133.71 704.255,1132.42 706.227,1131.12 708.199,1129.82 710.171,1128.52 712.142,1127.22 714.114,1125.93 716.086,1124.63 718.058,1123.33 720.03,1122.03 722.002,1120.73 723.974,1119.44 725.946,1118.14 727.918,1116.84 729.889,1115.54 731.861,1114.24 733.833,1112.95 735.805,1111.65 737.777,1110.35 739.749,1109.05 741.721,1107.75 743.693,1106.46 745.665,1105.16 747.636,1103.86 749.608,1102.56 751.58,1101.26 753.552,1099.96 755.524,1098.67 757.496,1097.37 759.468,1096.07 761.44,1094.77 763.412,1093.47 765.383,1092.18 767.355,1090.88 769.327,1089.58 771.299,1088.28 773.271,1086.98 775.243,1085.69 777.215,1084.39 779.187,1083.09 781.159,1081.79 783.131,1080.49 785.102,1079.2 787.074,1077.9 789.046,1076.6 791.018,1075.3 792.99,1074 794.962,1072.71 796.934,1071.41 798.906,1070.11 800.878,1068.81 802.849,1067.51 804.821,1066.22 806.793,1064.92 808.765,1063.62 810.737,1062.32 812.709,1061.02 814.681,1059.73 816.653,1058.43 818.625,1057.13 820.596,1055.83 822.568,1054.53 824.54,1053.23 826.512,1051.94 828.484,1050.64 830.456,1049.34 832.428,1048.04 834.4,1046.74 836.372,1045.45 838.343,1044.15 840.315,1042.85 842.287,1041.55 844.259,1040.25 846.231,1038.96 848.203,1037.66 850.175,1036.36 852.147,1035.06 854.119,1033.76 856.09,1032.47 858.062,1031.17 860.034,1029.87 862.006,1028.57 863.978,1027.27 865.95,1025.98 867.922,1024.68 869.894,1023.38 871.866,1022.08 873.837,1020.78 875.809,1019.49 877.781,1018.19 879.753,1016.89 881.725,1015.59 883.697,1014.29 885.669,1013 887.641,1011.7 889.613,1010.4 891.585,1009.1 893.556,1007.8 895.528,1006.5 897.5,1005.21 899.472,1003.91 901.444,1002.61 903.416,1001.31 905.388,1000.01 907.36,998.717 909.332,997.419 911.303,996.121 913.275,994.822 915.247,993.524 917.219,992.226 919.191,990.928 921.163,989.63 923.135,988.332 925.107,987.034 927.079,985.736 929.05,984.438 931.022,983.14 932.994,981.842 934.966,980.544 936.938,979.246 938.91,977.948 940.882,976.65 942.854,975.352 944.826,974.054 946.797,972.756 948.769,971.458 950.741,970.159 952.713,968.861 954.685,967.563 956.657,966.265 958.629,964.967 960.601,963.669 962.573,962.371 964.544,961.073 966.516,959.775 968.488,958.477 970.46,957.179 972.432,955.881 974.404,954.583 976.376,953.285 978.348,951.987 980.32,950.689 982.292,949.391 984.263,948.093 986.235,946.795 988.207,945.496 990.179,944.198 992.151,942.9 994.123,941.602 996.095,940.304 998.067,939.006 1000.04,937.708 1002.01,936.41 1003.98,935.112 1005.95,933.814 1007.93,932.516 1009.9,931.218 1011.87,929.92 1013.84,928.622 1015.81,927.324 1017.79,926.026 1019.76,924.728 1021.73,923.43 1023.7,922.132 1025.67,920.833 1027.65,919.535 1029.62,918.237 1031.59,916.939 1033.56,915.641 1035.53,914.343 1037.5,913.045 1039.48,911.747 1041.45,910.449 1043.42,909.151 1045.39,907.853 1047.36,906.555 1049.34,905.257 1051.31,903.959 1053.28,902.661 1055.25,901.363 1057.22,900.065 1059.2,898.767 1061.17,897.469 1063.14,896.17 1065.11,894.872 1067.08,893.574 1069.05,892.276 1071.03,890.978 1073,889.68 1074.97,888.382 1076.94,887.084 1078.91,885.786 1080.89,884.488 1082.86,883.19 1084.83,881.892 1086.8,880.594 1088.77,879.296 1090.75,877.998 1092.72,876.7 1094.69,875.402 1096.66,874.104 1098.63,872.806 1100.6,871.507 1102.58,870.209 1104.55,868.911 1106.52,867.613 1108.49,866.315 1110.46,865.017 1112.44,863.719 1114.41,862.421 1116.38,861.123 1118.35,859.825 1120.32,858.527 1122.3,857.229 1124.27,855.931 1126.24,854.633 1128.21,853.335 1130.18,852.037 1132.16,850.739 1134.13,849.441 1136.1,848.143 1138.07,846.844 1140.04,845.546 1142.01,844.248 1143.99,842.95 1145.96,841.652 1147.93,840.354 1149.9,839.056 1151.87,837.758 1153.85,836.46 1155.82,835.162 1157.79,833.864 1159.76,832.566 1161.73,831.268 1163.71,829.97 1165.68,828.672 1167.65,827.374 1169.62,826.076 1171.59,824.778 1173.56,823.48 1175.54,822.181 1177.51,820.883 1179.48,819.585 1181.45,818.287 1183.42,816.989 1185.4,815.691 1187.37,814.393 1189.34,813.095 1191.31,811.797 1193.28,810.499 1195.26,809.201 1197.23,807.903 1199.2,806.605 1201.17,805.307 1203.14,804.009 1205.12,802.711 1207.09,801.413 1209.06,800.115 1211.03,798.817 1213,797.518 1214.97,796.22 1216.95,794.922 1218.92,793.624 1220.89,792.326 1222.86,791.028 1224.83,789.73 1226.81,788.432 1228.78,787.134 1230.75,785.836 1232.72,784.538 1234.69,783.24 1236.67,781.942 1238.64,780.644 1240.61,779.346 1242.58,778.048 1244.55,776.75 1246.52,775.452 1248.5,774.154 1250.47,772.855 1252.44,771.557 1254.41,770.259 1256.38,768.961 1258.36,767.663 1260.33,766.365 1262.3,765.067 1264.27,763.769 1266.24,762.471 1268.22,761.173 1270.19,759.875 1272.16,758.577 1274.13,757.279 1276.1,755.981 1278.08,754.683 1280.05,753.385 1282.02,752.087 1283.99,750.789 1285.96,749.491 1287.93,748.192 1289.91,746.894 1291.88,745.596 1293.85,744.298 1295.82,743 1297.79,741.702 1299.77,740.404 1301.74,739.106 1303.71,737.808 1305.68,736.51 1307.65,735.212 1309.63,733.914 1311.6,732.616 1313.57,731.318 1315.54,730.02 1317.51,728.722 1319.48,727.424 1321.46,726.126 1323.43,724.828 1325.4,723.529 1327.37,722.231 1329.34,720.933 1331.32,719.635 1333.29,718.337 1335.26,717.039 1337.23,715.741 1339.2,714.443 1341.18,713.145 1343.15,711.847 1345.12,710.549 1347.09,709.251 1349.06,707.953 1351.04,706.655 1353.01,705.357 1354.98,704.059 1356.95,702.761 1358.92,701.463 1360.89,700.165 1362.87,698.866 1364.84,697.568 1366.81,696.27 1368.78,694.972 1370.75,693.674 1372.73,692.376 1374.7,691.078 1376.67,689.78 1378.64,688.482 1380.61,687.184 1382.59,685.886 1384.56,684.588 1386.53,683.29 1388.5,681.992 1390.47,680.694 1392.44,679.396 1394.42,678.098 1396.39,676.8 1398.36,675.502 1400.33,674.203 1402.3,672.905 1404.28,671.607 1406.25,670.309 1408.22,669.011 1410.19,667.713 1412.16,666.415 1414.14,665.117 1416.11,663.819 1418.08,662.521 1420.05,661.223 1422.02,659.925 1424,658.627 1425.97,657.329 1427.94,656.031 1429.91,654.733 1431.88,653.435 1433.85,652.137 1435.83,650.839 1437.8,649.54 1439.77,648.242 1441.74,646.944 1443.71,645.646 1445.69,644.348 1447.66,643.05 1449.63,641.752 1451.6,640.454 1453.57,639.156 1455.55,637.858 1457.52,636.56 1459.49,635.262 1461.46,633.964 1463.43,632.666 1465.4,631.368 1467.38,630.07 1469.35,628.772 1471.32,627.474 1473.29,626.176 1475.26,624.877 1477.24,623.579 1479.21,622.281 1481.18,620.983 1483.15,619.685 1485.12,618.387 1487.1,617.089 1489.07,615.791 1491.04,614.493 1493.01,613.195 1494.98,611.897 1496.96,610.599 1498.93,609.301 1500.9,608.003 1502.87,606.705 1504.84,605.407 1506.81,604.109 1508.79,602.811 1510.76,601.513 1512.73,600.214 1514.7,598.916 1516.67,597.618 1518.65,596.32 1520.62,595.022 1522.59,593.724 1524.56,592.426 1526.53,591.128 1528.51,589.83 1530.48,588.532 1532.45,587.234 1534.42,585.936 1536.39,584.638 1538.36,583.34 1540.34,582.042 1542.31,580.744 1544.28,579.446 1546.25,578.148 1548.22,576.85 1550.2,575.551 1552.17,574.253 1554.14,572.955 1556.11,571.657 1558.08,570.359 1560.06,569.061 1562.03,567.763 1564,566.465 1565.97,565.167 1567.94,563.869 1569.92,562.571 1571.89,561.273 1573.86,559.975 1575.83,558.677 1577.8,557.379 1579.77,556.081 1581.75,554.783 1583.72,553.485 1585.69,552.187 1587.66,550.889 1589.63,549.59 1591.61,548.292 1593.58,546.994 1595.55,545.696 1597.52,544.398 1599.49,543.1 1601.47,541.802 1603.44,540.504 1605.41,539.206 1607.38,537.908 1609.35,536.61 1611.32,535.312 1613.3,534.014 1615.27,532.716 1617.24,531.418 1619.21,530.12 1621.18,528.822 1623.16,527.524 1625.13,526.226 1627.1,524.927 1629.07,523.629 1631.04,522.331 1633.02,521.033 1634.99,519.735 1636.96,518.437 1638.93,517.139 1640.9,515.841 1642.88,514.543 1644.85,513.245 1646.82,511.947 1648.79,510.649 1650.76,509.351 1652.73,508.053 1654.71,506.755 1656.68,505.457 1658.65,504.159 1660.62,502.861 1662.59,501.563 1664.57,500.264 1666.54,498.966 1668.51,497.668 1670.48,496.37 1672.45,495.072 1674.43,493.774 1676.4,492.476 1678.37,491.178 1680.34,489.88 1682.31,488.582 1684.28,487.284 1686.26,485.986 1688.23,484.688 1690.2,483.39 1692.17,482.092 1694.14,480.794 1696.12,479.496 1698.09,478.198 1700.06,476.9 1702.03,475.601 1704,474.303 1705.98,473.005 1707.95,471.707 1709.92,470.409 1711.89,469.111 1713.86,467.813 1715.84,466.515 1717.81,465.217 1719.78,463.919 1721.75,462.621 1723.72,461.323 1725.69,460.025 1727.67,458.727 1729.64,457.429 1731.61,456.131 1733.58,454.833 1735.55,453.535 1737.53,452.237 1739.5,450.938 1741.47,449.64 1743.44,448.342 1745.41,447.044 1747.39,445.746 1749.36,444.448 1751.33,443.15 1753.3,441.852 1755.27,440.554 1757.24,439.256 1759.22,437.958 1761.19,436.66 1763.16,435.362 1765.13,434.064 1767.1,432.766 1769.08,431.468 1771.05,430.17 1773.02,428.872 1774.99,427.574 1776.96,426.275 1778.94,424.977 1780.91,423.679 1782.88,422.381 1784.85,421.083 1786.82,419.785 1788.8,418.487 1790.77,417.189 1792.74,415.891 1794.71,414.593 1796.68,413.295 1798.65,411.997 1800.63,410.699 1802.6,409.401 1804.57,408.103 1806.54,406.805 1808.51,405.507 1810.49,404.209 1812.46,402.911 1814.43,401.612 1816.4,400.314 1818.37,399.016 1820.35,397.718 1822.32,396.42 1824.29,395.122 1826.26,393.824 1828.23,392.526 1830.2,391.228 1832.18,389.93 1834.15,388.632 1836.12,387.334 1838.09,386.036 1840.06,384.738 1842.04,383.44 1844.01,382.142 1845.98,380.844 1847.95,379.546 1849.92,378.248 1851.9,376.949 1853.87,375.651 1855.84,374.353 1857.81,373.055 1859.78,371.757 1861.75,370.459 1863.73,369.161 1865.7,367.863 1867.67,366.565 1869.64,365.267 1871.61,363.969 1873.59,362.671 1875.56,361.373 1877.53,360.075 1879.5,358.777 1881.47,357.479 1883.45,356.181 1885.42,354.883 1887.39,353.585 1889.36,352.286 1891.33,350.988 1893.31,349.69 1895.28,348.392 1897.25,347.094 1899.22,345.796 1901.19,344.498 1903.16,343.2 1905.14,341.902 1907.11,340.604 1909.08,339.306 1911.05,338.008 1913.02,336.71 1915,335.412 1916.97,334.114 1918.94,332.816 1920.91,331.518 1922.88,330.22 1924.86,328.922 1926.83,327.623 1928.8,326.325 1930.77,325.027 1932.74,323.729 1934.71,322.431 1936.69,321.133 1938.66,319.835 1940.63,318.537 1942.6,317.239 1944.57,315.941 1946.55,314.643 1948.52,313.345 1950.49,312.047 1952.46,310.749 1954.43,309.451 1956.41,308.153 1958.38,306.855 1960.35,305.557 1962.32,304.259 1964.29,302.96 1966.27,301.662 1968.24,300.364 1970.21,299.066 1972.18,297.768 1974.15,296.47 1976.12,295.172 1978.1,293.874 1980.07,292.576 1982.04,291.278 1984.01,289.98 1985.98,288.682 1987.96,287.384 1989.93,286.086 1991.9,284.788 1993.87,283.49 1995.84,282.192 1997.82,280.894 1999.79,279.596 2001.76,278.297 2003.73,276.999 2005.7,275.701 2007.67,274.403 2009.65,273.105 2011.62,271.807 2013.59,270.509 2015.56,269.211 2017.53,267.913 2019.51,266.615 2021.48,265.317 2023.45,264.019 2025.42,262.721 2027.39,261.423 2029.37,260.125 2031.34,258.827 2033.31,257.529 2035.28,256.231 2037.25,254.933 2039.23,253.634 2041.2,252.336 2043.17,251.038 2045.14,249.74 2047.11,248.442 2049.08,247.144 2051.06,245.846 2053.03,244.548 2055,243.25 2056.97,241.952 2058.94,240.654 2060.92,239.356 2062.89,238.058 2064.86,236.76 2066.83,235.462 2068.8,234.164 2070.78,232.866 2072.75,231.568 2074.72,230.27 2076.69,228.971 2078.66,227.673 2080.63,226.375 2082.61,225.077 2084.58,223.779 2086.55,222.481 2088.52,221.183 2090.49,219.885 2092.47,218.587 2094.44,217.289 2096.41,215.991 2098.38,214.693 2100.35,213.395 2102.33,212.097 2104.3,210.799 2106.27,209.501 2108.24,208.203 2110.21,206.905 2112.19,205.607 2114.16,204.308 2116.13,203.01 2118.1,201.712 2120.07,200.414 2122.04,199.116 2124.02,197.818 2125.99,196.52 2127.96,195.222 2129.93,193.924 2131.9,192.626 2133.88,191.328 2135.85,190.03 2137.82,188.732 2139.79,187.434 2141.76,186.136 2143.74,184.838 2145.71,183.54 2147.68,182.242 2149.65,180.944 2151.62,179.645 2153.59,178.347 2155.57,177.049 2157.54,175.751 2159.51,174.453 2161.48,173.155 2163.45,171.857 2165.43,170.559 2167.4,169.261 2169.37,167.963 2171.34,166.665 2173.31,165.367 2175.29,164.069 2177.26,162.771 2179.23,161.473 2181.2,160.175 2183.17,158.877 2185.15,157.579 2187.12,156.281 2189.09,154.982 2191.06,153.684 2193.03,152.386 2195,151.088 2196.98,149.79 2198.95,148.492 2200.92,147.194 2202.89,145.896 2204.86,144.598 2206.84,143.3 2208.81,142.002 2210.78,140.704 2212.75,139.406 2214.72,138.108 2216.7,136.81 2218.67,135.512 2220.64,134.214 2222.61,132.916 2224.58,131.618 2226.55,130.319 2228.53,129.021 2230.5,127.723 2232.47,126.425 2234.44,125.127 2236.41,123.829 2238.39,122.531 2240.36,121.233 2242.33,119.935 2244.3,118.637 2246.27,117.339 2248.25,116.041 2250.22,114.743 2252.19,113.445 2254.16,112.147 2256.13,110.849 2258.11,109.551 2260.08,108.253 2262.05,106.955 2264.02,105.656 2265.99,104.358 2267.96,103.06 2269.94,101.762 2271.91,100.464 2273.88,99.1662 2275.85,97.8681 2277.82,96.5701 2279.8,95.272 2281.77,93.974 2283.74,92.6759 2285.71,91.3779 2287.68,90.0798 2289.66,88.7818 2291.63,87.4837 2293.6,86.1857 "/>
</svg>
