<?xml version="1.0" encoding="UTF-8"?>
<svg xmlns="http://www.w3.org/2000/svg" xmlns:xlink="http://www.w3.org/1999/xlink" viewBox="0 0 440.94 224.35">
  <defs>
    <style>
      .cls-1 {
        font-size: 7.91px;
      }

      .cls-1, .cls-2, .cls-3, .cls-4, .cls-5 {
        font-family: ArialMT, Arial;
      }

      .cls-1, .cls-6, .cls-7, .cls-8, .cls-9, .cls-10, .cls-5, .cls-11 {
        fill: #231f20;
      }

      .cls-12, .cls-13, .cls-14, .cls-15, .cls-16, .cls-17, .cls-18, .cls-19, .cls-7, .cls-20, .cls-21, .cls-22, .cls-23, .cls-24, .cls-25, .cls-26, .cls-27, .cls-28, .cls-29, .cls-8, .cls-9, .cls-30, .cls-31, .cls-32, .cls-33, .cls-10, .cls-34, .cls-35, .cls-36, .cls-37, .cls-38, .cls-39, .cls-40, .cls-41, .cls-11, .cls-42 {
        stroke-miterlimit: 10;
      }

      .cls-12, .cls-14, .cls-16, .cls-20, .cls-26, .cls-30, .cls-31 {
        stroke: #ed1c24;
      }

      .cls-12, .cls-14, .cls-22, .cls-41 {
        fill: #abc0d3;
      }

      .cls-12, .cls-16, .cls-31 {
        stroke-width: .85px;
      }

      .cls-13 {
        fill: #e6e7e8;
        stroke-width: 1.09px;
      }

      .cls-13, .cls-15, .cls-17, .cls-18, .cls-7, .cls-21, .cls-22, .cls-23, .cls-27, .cls-28, .cls-34, .cls-39, .cls-41, .cls-11 {
        stroke: #231f20;
      }

      .cls-14, .cls-20, .cls-26, .cls-8, .cls-34 {
        stroke-width: .56px;
      }

      .cls-15 {
        stroke-width: .99px;
      }

      .cls-15, .cls-21 {
        fill: #fff;
      }

      .cls-16, .cls-18, .cls-26 {
        fill: #36669b;
      }

      .cls-2 {
        font-size: 11.5px;
      }

      .cls-2, .cls-3, .cls-4 {
        fill: #808285;
      }

      .cls-17, .cls-18, .cls-32, .cls-37, .cls-41 {
        stroke-width: 1.12px;
      }

      .cls-17, .cls-19, .cls-25, .cls-28, .cls-29, .cls-32, .cls-33, .cls-36, .cls-37, .cls-38, .cls-39, .cls-40, .cls-42 {
        fill: none;
      }

      .cls-3 {
        letter-spacing: 0em;
      }

      .cls-3, .cls-4 {
        font-size: 9.77px;
      }

      .cls-19 {
        stroke-dasharray: 2.6 2.6;
      }

      .cls-19, .cls-25, .cls-29, .cls-32, .cls-33, .cls-36, .cls-38, .cls-40, .cls-42 {
        stroke: #808285;
      }

      .cls-19, .cls-28, .cls-33, .cls-42 {
        stroke-width: 1.28px;
      }

      .cls-7 {
        stroke-width: .28px;
      }

      .cls-20, .cls-31 {
        fill: #b069ab;
      }

      .cls-22 {
        stroke-width: .89px;
      }

      .cls-23, .cls-24, .cls-27, .cls-34 {
        fill: #3bb54b;
      }

      .cls-23, .cls-9, .cls-35, .cls-11 {
        stroke-width: .56px;
      }

      .cls-24 {
        stroke-width: .45px;
      }

      .cls-24, .cls-8, .cls-9, .cls-10, .cls-35 {
        stroke: #3ab54b;
      }

      .cls-25 {
        filter: url(#drop-shadow-3);
        stroke-width: 1.12px;
      }

      .cls-27, .cls-10 {
        stroke-width: .5px;
      }

      .cls-29 {
        filter: url(#drop-shadow-1);
        stroke-width: 1.12px;
      }

      .cls-30 {
        fill: #abc1d3;
        stroke-width: 1.42px;
      }

      .cls-33 {
        stroke-dasharray: 2.2 2.2;
      }

      .cls-35 {
        fill: #3ab54b;
      }

      .cls-36 {
        filter: url(#drop-shadow-2);
        stroke-width: 1.22px;
      }

      .cls-37 {
        stroke: #bcbec0;
      }

      .cls-5 {
        font-size: 9.35px;
      }

      .cls-40 {
        filter: url(#drop-shadow-4);
        stroke-width: 1.13px;
      }
    </style>
    <filter id="drop-shadow-1" x="395.33" y="65.67" width="23.52" height="43.68" filterUnits="userSpaceOnUse">
      <feOffset dx="-1.07" dy="1.6"/>
      <feGaussianBlur result="blur" stdDeviation="1.07"/>
      <feFlood flood-color="#231f20" flood-opacity=".94"/>
      <feComposite in2="blur" operator="in"/>
      <feComposite in="SourceGraphic"/>
    </filter>
    <filter id="drop-shadow-2" x="359.13" y="118.27" width="35.52" height="24.72" filterUnits="userSpaceOnUse">
      <feOffset dx="-.58" dy=".86"/>
      <feGaussianBlur result="blur-2" stdDeviation=".58"/>
      <feFlood flood-color="#231f20" flood-opacity=".94"/>
      <feComposite in2="blur-2" operator="in"/>
      <feComposite in="SourceGraphic"/>
    </filter>
    <filter id="drop-shadow-3" x="262.77" y="40.15" width="31.68" height="22.8" filterUnits="userSpaceOnUse">
      <feOffset dx="-.86" dy="1.28"/>
      <feGaussianBlur result="blur-3" stdDeviation=".86"/>
      <feFlood flood-color="#231f20" flood-opacity=".94"/>
      <feComposite in2="blur-3" operator="in"/>
      <feComposite in="SourceGraphic"/>
    </filter>
    <filter id="drop-shadow-4" x="301.34" y="17.04" width="32.88" height="34.8" filterUnits="userSpaceOnUse">
      <feOffset dx="-.8" dy="1.2"/>
      <feGaussianBlur result="blur-4" stdDeviation=".8"/>
      <feFlood flood-color="#231f20" flood-opacity=".94"/>
      <feComposite in2="blur-4" operator="in"/>
      <feComposite in="SourceGraphic"/>
    </filter>
  </defs>
  <g id="Layer_1" data-name="Layer 1">
    <g>
      <line class="cls-42" x1="102.48" y1="201.43" x2="102.48" y2="202.7"/>
      <line class="cls-33" x1="102.48" y1="204.91" x2="102.48" y2="212.61"/>
      <line class="cls-42" x1="102.48" y1="213.72" x2="102.48" y2="214.99"/>
    </g>
    <g>
      <line class="cls-42" x1="4.64" y1="214.99" x2="4.64" y2="213.72"/>
      <line class="cls-19" x1="4.64" y1="211.12" x2="4.64" y2="108.56"/>
      <line class="cls-42" x1="4.64" y1="107.26" x2="4.64" y2="105.98"/>
    </g>
    <circle class="cls-30" cx="102.48" cy="103.59" r="97.84"/>
    <line class="cls-28" x1="102.48" y1="97.15" x2="100.79" y2="86.87"/>
    <line class="cls-28" x1="108.21" y1="74.34" x2="100.79" y2="86.87"/>
    <line class="cls-28" x1="124.73" y1="65.7" x2="108.21" y2="74.34"/>
    <line class="cls-28" x1="117.67" y1="55" x2="124.73" y2="65.7"/>
    <line class="cls-28" x1="123.04" y1="42.61" x2="117.67" y2="55"/>
    <line class="cls-28" x1="138.44" y1="36.41" x2="123.04" y2="42.61"/>
    <line class="cls-28" x1="156.65" y1="39.23" x2="138.44" y2="36.41"/>
    <line class="cls-28" x1="153.27" y1="25.9" x2="156.65" y2="39.23"/>
    <line class="cls-28" x1="163.91" y1="31.21" x2="153.27" y2="25.9"/>
    <line class="cls-28" x1="121.35" y1="87.95" x2="133.93" y2="87.95"/>
    <line class="cls-28" x1="133.93" y1="75.65" x2="133.93" y2="87.95"/>
    <line class="cls-28" x1="149.14" y1="70.96" x2="133.93" y2="75.65"/>
    <line class="cls-28" x1="160.78" y1="79.03" x2="149.14" y2="70.96"/>
    <line class="cls-28" x1="172.23" y1="87.95" x2="160.78" y2="79.03"/>
    <line class="cls-28" x1="186.88" y1="82.41" x2="172.23" y2="87.95"/>
    <line class="cls-28" x1="194.76" y1="94.69" x2="186.88" y2="82.41"/>
    <line class="cls-28" x1="196.96" y1="106" x2="194.76" y2="94.69"/>
    <line class="cls-28" x1="114" y1="98.06" x2="121.35" y2="87.95"/>
    <line class="cls-28" x1="90.19" y1="98.8" x2="83.15" y2="92.01"/>
    <line class="cls-28" x1="87.46" y1="77.72" x2="83.15" y2="92.01"/>
    <line class="cls-28" x1="76.67" y1="70.02" x2="87.46" y2="77.72"/>
    <line class="cls-28" x1="76.67" y1="70.02" x2="80.8" y2="55"/>
    <line class="cls-28" x1="64.56" y1="55.48" x2="80.8" y2="55"/>
    <line class="cls-28" x1="54.93" y1="70.02" x2="64.56" y2="55.48"/>
    <line class="cls-28" x1="41.75" y1="80.6" x2="54.93" y2="70.02"/>
    <line class="cls-28" x1="22.67" y1="82.29" x2="41.75" y2="80.6"/>
    <line class="cls-28" x1="10.34" y1="80.4" x2="22.67" y2="82.29"/>
    <line class="cls-28" x1="76.22" y1="110.03" x2="89.49" y2="107.19"/>
    <line class="cls-28" x1="62.87" y1="105.5" x2="76.22" y2="110.03"/>
    <line class="cls-28" x1="53.24" y1="94.69" x2="62.87" y2="105.5"/>
    <line class="cls-28" x1="41.75" y1="80.6" x2="53.24" y2="94.69"/>
    <line class="cls-28" x1="37.05" y1="65.7" x2="41.75" y2="80.6"/>
    <line class="cls-28" x1="43.44" y1="50.49" x2="37.05" y2="65.7"/>
    <line class="cls-28" x1="38.74" y1="38.1" x2="43.44" y2="50.49"/>
    <line class="cls-28" x1="38.74" y1="38.1" x2="46.14" y2="27.1"/>
    <line class="cls-28" x1="91.38" y1="121.18" x2="96.82" y2="110.03"/>
    <line class="cls-28" x1="78.73" y1="128.94" x2="91.38" y2="121.18"/>
    <line class="cls-28" x1="71.91" y1="142.21" x2="78.73" y2="128.94"/>
    <line class="cls-28" x1="58.05" y1="147.34" x2="71.91" y2="142.21"/>
    <line class="cls-28" x1="46.82" y1="135.38" x2="58.05" y2="147.34"/>
    <line class="cls-28" x1="45.13" y1="120.05" x2="46.82" y2="135.38"/>
    <line class="cls-28" x1="28.86" y1="116.67" x2="45.13" y2="120.05"/>
    <line class="cls-28" x1="24.36" y1="132" x2="28.86" y2="116.67"/>
    <line class="cls-28" x1="13.19" y1="136.38" x2="24.36" y2="132"/>
    <line class="cls-28" x1="106.88" y1="123.88" x2="102.48" y2="110.03"/>
    <line class="cls-28" x1="100.79" y1="137.07" x2="106.88" y2="123.88"/>
    <line class="cls-28" x1="88" y1="147.34" x2="100.79" y2="137.07"/>
    <line class="cls-28" x1="95.79" y1="160.36" x2="88" y2="147.34"/>
    <line class="cls-28" x1="110.96" y1="168.87" x2="95.79" y2="160.36"/>
    <line class="cls-28" x1="100.79" y1="181.76" x2="110.96" y2="168.87"/>
    <line class="cls-28" x1="85.06" y1="189.14" x2="100.79" y2="181.76"/>
    <line class="cls-28" x1="67.28" y1="184.04" x2="85.06" y2="189.14"/>
    <line class="cls-28" x1="72.37" y1="193.61" x2="67.28" y2="184.04"/>
    <line class="cls-28" x1="124.73" y1="116.67" x2="114.56" y2="108.61"/>
    <line class="cls-28" x1="121.35" y1="132" x2="124.73" y2="116.67"/>
    <line class="cls-28" x1="124.36" y1="147.34" x2="121.35" y2="132"/>
    <line class="cls-28" x1="124.73" y1="162.68" x2="124.36" y2="147.34"/>
    <line class="cls-28" x1="110.96" y1="168.87" x2="124.73" y2="162.68"/>
    <line class="cls-28" x1="91.38" y1="121.18" x2="76.22" y2="110.03"/>
    <line class="cls-28" x1="80.8" y1="55" x2="90.81" y2="43.71"/>
    <line class="cls-28" x1="82.85" y1="32.55" x2="90.81" y2="43.71"/>
    <line class="cls-28" x1="69.54" y1="28.31" x2="82.85" y2="32.55"/>
    <line class="cls-28" x1="58.09" y1="27.26" x2="69.54" y2="28.31"/>
    <line class="cls-28" x1="65.15" y1="16.23" x2="58.09" y2="27.26"/>
    <line class="cls-28" x1="129.33" y1="103.1" x2="115.81" y2="103.59"/>
    <line class="cls-28" x1="140.88" y1="113.92" x2="129.33" y2="103.1"/>
    <line class="cls-28" x1="140.88" y1="127.72" x2="140.88" y2="113.92"/>
    <line class="cls-28" x1="153.27" y1="137.98" x2="140.88" y2="127.72"/>
    <line class="cls-28" x1="168.57" y1="141.36" x2="153.27" y2="137.98"/>
    <line class="cls-28" x1="181.25" y1="132.32" x2="168.57" y2="141.36"/>
    <line class="cls-28" x1="194.37" y1="124.34" x2="181.25" y2="132.32"/>
    <line class="cls-28" x1="188.88" y1="136.84" x2="194.37" y2="124.34"/>
    <line class="cls-28" x1="185.99" y1="148.73" x2="188.88" y2="136.84"/>
    <line class="cls-28" x1="140.88" y1="127.72" x2="138.81" y2="141.36"/>
    <line class="cls-28" x1="139.19" y1="155" x2="138.81" y2="141.36"/>
    <line class="cls-28" x1="124.73" y1="162.68" x2="139.19" y2="155"/>
    <line class="cls-28" x1="149.89" y1="162.05" x2="139.19" y2="155"/>
    <line class="cls-28" x1="163.41" y1="165.77" x2="149.89" y2="162.05"/>
    <line class="cls-28" x1="154.27" y1="173.38" x2="163.41" y2="165.77"/>
    <line class="cls-28" x1="153.22" y1="183.87" x2="154.27" y2="173.38"/>
    <line class="cls-28" x1="124.73" y1="116.67" x2="140.88" y2="113.92"/>
    <line class="cls-28" x1="133.93" y1="75.65" x2="124.73" y2="65.7"/>
    <line class="cls-28" x1="100.79" y1="86.87" x2="87.46" y2="77.72"/>
    <line class="cls-28" x1="108.21" y1="74.34" x2="105.19" y2="61.06"/>
    <line class="cls-28" x1="117.67" y1="55" x2="105.19" y2="61.06"/>
    <line class="cls-28" x1="108.21" y1="74.34" x2="121.35" y2="76.65"/>
    <line class="cls-28" x1="121.35" y1="87.95" x2="121.35" y2="76.65"/>
    <line class="cls-28" x1="83.15" y1="92.01" x2="70.22" y2="93.97"/>
    <line class="cls-28" x1="76.22" y1="110.03" x2="70.22" y2="93.97"/>
    <line class="cls-28" x1="133.93" y1="87.95" x2="143.23" y2="99.72"/>
    <line class="cls-28" x1="129.33" y1="103.1" x2="143.23" y2="99.72"/>
    <line class="cls-28" x1="100.79" y1="137.07" x2="109.27" y2="147.34"/>
    <line class="cls-28" x1="124.36" y1="147.34" x2="109.27" y2="147.34"/>
    <line class="cls-28" x1="87.46" y1="77.72" x2="92.41" y2="64.44"/>
    <line class="cls-28" x1="105.19" y1="61.06" x2="92.41" y2="64.44"/>
    <line class="cls-28" x1="123.04" y1="42.61" x2="114" y2="33.4"/>
    <line class="cls-28" x1="126.9" y1="25.9" x2="114" y2="33.4"/>
    <line class="cls-28" x1="117.67" y1="15.29" x2="126.9" y2="25.9"/>
    <line class="cls-28" x1="108.16" y1="8.9" x2="117.67" y2="15.29"/>
    <line class="cls-28" x1="124.73" y1="65.7" x2="135.62" y2="58.1"/>
    <line class="cls-28" x1="151.58" y1="58.86" x2="135.62" y2="58.1"/>
    <line class="cls-28" x1="149.14" y1="70.96" x2="151.58" y2="58.86"/>
    <line class="cls-28" x1="165.1" y1="53.01" x2="151.58" y2="58.86"/>
    <line class="cls-28" x1="176.25" y1="63.01" x2="165.1" y2="53.01"/>
    <line class="cls-28" x1="190.07" y1="67.7" x2="176.25" y2="63.01"/>
    <line class="cls-28" x1="183.14" y1="53.47" x2="190.07" y2="67.7"/>
    <line class="cls-28" x1="133.93" y1="87.95" x2="148.3" y2="86.26"/>
    <line class="cls-28" x1="160.78" y1="79.03" x2="148.3" y2="86.26"/>
    <line class="cls-28" x1="168.57" y1="141.36" x2="167.16" y2="125.06"/>
    <line class="cls-28" x1="176.18" y1="113.96" x2="167.16" y2="125.06"/>
    <line class="cls-28" x1="190.82" y1="111.72" x2="176.18" y2="113.96"/>
    <line class="cls-28" x1="196.96" y1="106" x2="190.82" y2="111.72"/>
    <line class="cls-28" x1="149.14" y1="162.05" x2="159.17" y2="151.7"/>
    <line class="cls-28" x1="168.57" y1="141.36" x2="159.17" y2="151.7"/>
    <line class="cls-28" x1="153.27" y1="137.98" x2="159.17" y2="151.7"/>
    <line class="cls-28" x1="129.33" y1="176.18" x2="124.73" y2="162.68"/>
    <line class="cls-28" x1="124.36" y1="186.59" x2="129.33" y2="176.18"/>
    <line class="cls-28" x1="114" y1="194.53" x2="124.36" y2="186.59"/>
    <line class="cls-28" x1="99.1" y1="195.4" x2="85.06" y2="189.14"/>
    <line class="cls-28" x1="114" y1="194.53" x2="99.1" y2="195.4"/>
    <line class="cls-28" x1="126.19" y1="195.51" x2="114" y2="194.53"/>
    <line class="cls-28" x1="91.38" y1="121.18" x2="90.63" y2="134.13"/>
    <line class="cls-28" x1="106.88" y1="123.88" x2="90.63" y2="134.13"/>
    <line class="cls-28" x1="88" y1="147.34" x2="90.63" y2="134.13"/>
    <line class="cls-28" x1="66.67" y1="159.74" x2="58.05" y2="147.34"/>
    <line class="cls-28" x1="56.62" y1="169.68" x2="66.67" y2="159.74"/>
    <line class="cls-28" x1="43.44" y1="162.05" x2="56.62" y2="169.68"/>
    <line class="cls-28" x1="43.81" y1="172.96" x2="43.44" y2="162.05"/>
    <line class="cls-28" x1="43.81" y1="172.96" x2="32.36" y2="167.5"/>
    <line class="cls-28" x1="62.87" y1="105.5" x2="44.29" y2="105.41"/>
    <line class="cls-28" x1="45.13" y1="120.05" x2="44.29" y2="105.41"/>
    <line class="cls-28" x1="28.86" y1="116.67" x2="44.29" y2="105.41"/>
    <line class="cls-28" x1="37.05" y1="65.7" x2="27.74" y2="56.34"/>
    <line class="cls-28" x1="17.14" y1="61.95" x2="27.74" y2="56.34"/>
    <line class="cls-28" x1="109.27" y1="147.34" x2="112.31" y2="156.89"/>
    <line class="cls-28" x1="95.79" y1="160.36" x2="112.31" y2="156.89"/>
    <line class="cls-28" x1="78.73" y1="128.94" x2="68.97" y2="120.59"/>
    <line class="cls-28" x1="76.22" y1="110.03" x2="68.97" y2="120.59"/>
    <line class="cls-28" x1="71.91" y1="142.21" x2="62.08" y2="132.85"/>
    <line class="cls-28" x1="46.82" y1="135.38" x2="62.08" y2="132.85"/>
    <line class="cls-28" x1="70.22" y1="93.97" x2="70.22" y2="81.45"/>
    <line class="cls-28" x1="87.46" y1="77.72" x2="70.22" y2="81.45"/>
    <line class="cls-28" x1="57.27" y1="82.29" x2="70.22" y2="81.45"/>
    <line class="cls-28" x1="54.93" y1="70.02" x2="57.27" y2="82.29"/>
    <line class="cls-28" x1="105.19" y1="61.06" x2="104.68" y2="49.35"/>
    <line class="cls-28" x1="90.81" y1="43.71" x2="104.68" y2="49.35"/>
    <line class="cls-28" x1="114" y1="33.4" x2="104.68" y2="49.35"/>
    <line class="cls-28" x1="117.67" y1="55" x2="131.59" y2="48.8"/>
    <line class="cls-28" x1="138.44" y1="36.41" x2="131.59" y2="48.8"/>
    <line class="cls-28" x1="135.62" y1="58.1" x2="131.59" y2="48.8"/>
    <line class="cls-28" x1="148.3" y1="86.26" x2="154.16" y2="94.69"/>
    <line class="cls-28" x1="140.88" y1="113.92" x2="155.5" y2="112.73"/>
    <line class="cls-28" x1="154.16" y1="94.69" x2="167.87" y2="100.96"/>
    <line class="cls-28" x1="155.5" y1="112.73" x2="167.87" y2="100.96"/>
    <line class="cls-28" x1="176.18" y1="113.96" x2="167.87" y2="100.96"/>
    <line class="cls-28" x1="83.15" y1="92.01" x2="81.72" y2="102"/>
    <line class="cls-28" x1="70.22" y1="93.97" x2="81.72" y2="102"/>
    <line class="cls-28" x1="124.73" y1="116.67" x2="113.47" y2="116.67"/>
    <line class="cls-28" x1="106.88" y1="123.88" x2="113.47" y2="116.67"/>
    <line class="cls-28" x1="121.35" y1="132" x2="112.65" y2="137.07"/>
    <line class="cls-28" x1="109.27" y1="147.34" x2="112.65" y2="137.07"/>
    <line class="cls-28" x1="124.73" y1="116.67" x2="131.59" y2="123.37"/>
    <line class="cls-28" x1="140.88" y1="127.72" x2="131.59" y2="123.37"/>
    <line class="cls-28" x1="129.33" y1="103.1" x2="128.32" y2="95.06"/>
    <line class="cls-28" x1="133.93" y1="87.95" x2="128.32" y2="95.06"/>
    <line class="cls-28" x1="100.79" y1="86.87" x2="111.78" y2="85.18"/>
    <line class="cls-28" x1="108.21" y1="74.34" x2="111.78" y2="85.18"/>
    <line class="cls-28" x1="121.35" y1="76.65" x2="111.78" y2="85.18"/>
    <line class="cls-28" x1="108.21" y1="74.34" x2="98.6" y2="74.3"/>
    <line class="cls-28" x1="92.41" y1="64.44" x2="98.6" y2="74.3"/>
    <line class="cls-28" x1="95.28" y1="54.57" x2="92.41" y2="64.44"/>
    <line class="cls-28" x1="90.81" y1="43.71" x2="95.28" y2="54.57"/>
    <line class="cls-28" x1="78.73" y1="128.94" x2="82.35" y2="139.35"/>
    <line class="cls-28" x1="71.91" y1="142.21" x2="82.35" y2="139.35"/>
    <g>
      <rect class="cls-15" x="85.1" y="95.18" width="34.78" height="16.81" rx="5.92" ry="5.92"/>
      <text class="cls-5" transform="translate(86.83 106.9)"><tspan x="0" y="0">System</tspan></text>
    </g>
    <circle class="cls-6" cx="121.35" cy="87.95" r="2.7"/>
    <circle class="cls-6" cx="133.93" cy="87.95" r="3.69"/>
    <circle class="cls-6" cx="133.93" cy="75.65" r="2.7"/>
    <circle class="cls-6" cx="149.14" cy="70.96" r="2.7"/>
    <circle class="cls-6" cx="160.78" cy="79.03" r="2.7"/>
    <circle class="cls-6" cx="172.23" cy="87.95" r="2.2"/>
    <circle class="cls-6" cx="186.88" cy="82.41" r="2.2"/>
    <circle class="cls-6" cx="194.76" cy="94.69" r="2.2"/>
    <circle class="cls-6" cx="196.96" cy="106" r="2.7"/>
    <circle class="cls-6" cx="100.79" cy="86.87" r="3.2"/>
    <circle class="cls-6" cx="108.21" cy="74.34" r="3.69"/>
    <circle class="cls-6" cx="124.73" cy="65.7" r="3.2"/>
    <circle class="cls-6" cx="117.67" cy="55" r="3.2"/>
    <circle class="cls-6" cx="123.04" cy="42.61" r="2.7"/>
    <circle class="cls-6" cx="138.44" cy="36.41" r="2.7"/>
    <circle class="cls-6" cx="156.65" cy="39.23" r="2.2"/>
    <circle class="cls-6" cx="153.27" cy="25.9" r="2.2"/>
    <circle class="cls-6" cx="163.91" cy="31.21" r="2.2"/>
    <circle class="cls-6" cx="83.15" cy="92.01" r="3.2"/>
    <circle class="cls-6" cx="87.46" cy="77.72" r="3.69"/>
    <circle class="cls-6" cx="76.67" cy="70.02" r="2.2"/>
    <circle class="cls-6" cx="80.8" cy="55" r="2.7"/>
    <circle class="cls-6" cx="64.56" cy="55.48" r="2.2"/>
    <circle class="cls-6" cx="54.93" cy="70.02" r="2.7"/>
    <circle class="cls-6" cx="41.75" cy="80.6" r="3.2"/>
    <circle class="cls-6" cx="22.67" cy="82.29" r="2.2"/>
    <circle class="cls-6" cx="10.34" cy="80.4" r="2.2"/>
    <circle class="cls-6" cx="76.22" cy="110.03" r="3.69"/>
    <circle class="cls-6" cx="62.87" cy="105.5" r="2.7"/>
    <circle class="cls-6" cx="53.24" cy="94.69" r="2.2"/>
    <circle class="cls-6" cx="37.05" cy="65.7" r="2.7"/>
    <circle class="cls-6" cx="43.44" cy="50.49" r="2.2"/>
    <circle class="cls-6" cx="38.74" cy="38.1" r="2.2"/>
    <circle class="cls-6" cx="46.14" cy="27.1" r="2.2"/>
    <circle class="cls-6" cx="91.38" cy="121.18" r="3.2"/>
    <circle class="cls-6" cx="78.73" cy="128.94" r="3.2"/>
    <circle class="cls-6" cx="71.91" cy="142.21" r="3.2"/>
    <circle class="cls-6" cx="58.05" cy="147.34" r="2.7"/>
    <circle class="cls-6" cx="46.82" cy="135.38" r="2.7"/>
    <circle class="cls-6" cx="45.13" cy="120.05" r="2.7"/>
    <circle class="cls-6" cx="28.86" cy="116.67" r="2.7"/>
    <circle class="cls-6" cx="24.36" cy="132" r="2.2"/>
    <circle class="cls-6" cx="13.34" cy="136.33" r="2.2"/>
    <circle class="cls-6" cx="106.88" cy="123.88" r="3.2"/>
    <circle class="cls-6" cx="100.79" cy="137.07" r="2.7"/>
    <circle class="cls-6" cx="88" cy="147.34" r="2.7"/>
    <circle class="cls-6" cx="95.79" cy="160.36" r="2.7"/>
    <circle class="cls-6" cx="110.96" cy="168.87" r="2.7"/>
    <circle class="cls-6" cx="100.79" cy="181.76" r="2.2"/>
    <circle class="cls-6" cx="85.06" cy="189.14" r="2.7"/>
    <circle class="cls-6" cx="67.28" cy="184.04" r="2.2"/>
    <circle class="cls-6" cx="72.37" cy="193.61" r="2.2"/>
    <circle class="cls-6" cx="124.73" cy="116.67" r="3.69"/>
    <circle class="cls-6" cx="121.35" cy="132" r="2.7"/>
    <circle class="cls-6" cx="124.36" cy="147.34" r="2.7"/>
    <circle class="cls-7" cx="124.73" cy="162.68" r="2.7"/>
    <circle class="cls-6" cx="90.81" cy="43.71" r="3.2"/>
    <circle class="cls-6" cx="82.85" cy="32.55" r="2.2"/>
    <circle class="cls-6" cx="69.54" cy="28.31" r="2.2"/>
    <circle class="cls-6" cx="58.09" cy="27.26" r="2.2"/>
    <circle class="cls-6" cx="65.15" cy="16.23" r="2.2"/>
    <circle class="cls-6" cx="129.33" cy="103.1" r="3.2"/>
    <circle class="cls-6" cx="140.88" cy="113.92" r="3.2"/>
    <circle class="cls-6" cx="140.88" cy="127.72" r="3.2"/>
    <circle class="cls-6" cx="153.27" cy="137.98" r="2.7"/>
    <circle class="cls-6" cx="168.57" cy="141.36" r="3.2"/>
    <circle class="cls-6" cx="181.25" cy="132.32" r="2.2"/>
    <circle class="cls-6" cx="194.37" cy="124.34" r="2.2"/>
    <circle class="cls-6" cx="188.88" cy="136.84" r="2.2"/>
    <circle class="cls-6" cx="185.99" cy="148.73" r="2.2"/>
    <circle class="cls-6" cx="138.81" cy="141.36" r="2.2"/>
    <circle class="cls-6" cx="139.19" cy="155" r="2.7"/>
    <circle class="cls-6" cx="149.89" cy="162.05" r="2.7"/>
    <circle class="cls-6" cx="163.41" cy="165.77" r="2.2"/>
    <circle class="cls-6" cx="154.27" cy="173.38" r="2.2"/>
    <circle class="cls-6" cx="153.22" cy="183.87" r="2.2"/>
    <circle class="cls-6" cx="121.35" cy="76.65" r="2.7"/>
    <circle class="cls-6" cx="143.23" cy="99.72" r="2.2"/>
    <circle class="cls-6" cx="109.27" cy="147.34" r="3.2"/>
    <circle class="cls-6" cx="70.22" cy="93.97" r="3.2"/>
    <circle class="cls-7" cx="105.19" cy="61.06" r="3.2"/>
    <circle class="cls-6" cx="135.62" cy="58.1" r="2.7"/>
    <circle class="cls-6" cx="151.58" cy="58.86" r="2.7"/>
    <circle class="cls-6" cx="165.1" cy="53.01" r="2.2"/>
    <circle class="cls-6" cx="176.25" cy="63.01" r="2.2"/>
    <circle class="cls-6" cx="190.07" cy="67.7" r="2.2"/>
    <circle class="cls-6" cx="183.14" cy="53.47" r="2.2"/>
    <circle class="cls-6" cx="114" cy="33.4" r="2.7"/>
    <circle class="cls-6" cx="126.9" cy="25.9" r="2.2"/>
    <circle class="cls-6" cx="117.67" cy="15.29" r="2.2"/>
    <circle class="cls-6" cx="108.16" cy="8.9" r="2.2"/>
    <circle class="cls-6" cx="92.41" cy="64.44" r="3.2"/>
    <circle class="cls-6" cx="27.74" cy="56.34" r="2.2"/>
    <circle class="cls-6" cx="17.14" cy="61.95" r="2.2"/>
    <circle class="cls-6" cx="44.29" cy="105.41" r="2.7"/>
    <circle class="cls-6" cx="90.63" cy="134.13" r="2.7"/>
    <circle class="cls-6" cx="66.67" cy="159.74" r="2.2"/>
    <circle class="cls-6" cx="56.62" cy="169.68" r="2.2"/>
    <circle class="cls-6" cx="43.44" cy="162.05" r="2.2"/>
    <circle class="cls-6" cx="43.81" cy="172.96" r="2.2"/>
    <circle class="cls-6" cx="32.36" cy="167.5" r="2.2"/>
    <circle class="cls-6" cx="129.33" cy="176.18" r="2.2"/>
    <circle class="cls-6" cx="124.36" cy="186.59" r="2.2"/>
    <circle class="cls-6" cx="114" cy="194.53" r="2.7"/>
    <circle class="cls-6" cx="99.1" cy="195.4" r="2.2"/>
    <circle class="cls-6" cx="126.19" cy="195.51" r="2.2"/>
    <circle class="cls-6" cx="159.17" cy="151.7" r="2.7"/>
    <circle class="cls-6" cx="167.16" cy="125.06" r="2.2"/>
    <circle class="cls-6" cx="176.18" cy="113.96" r="2.7"/>
    <circle class="cls-6" cx="190.82" cy="111.72" r="2.2"/>
    <circle class="cls-6" cx="148.3" cy="86.26" r="2.7"/>
    <circle class="cls-6" cx="70.22" cy="81.45" r="2.7"/>
    <circle class="cls-6" cx="57.27" cy="82.29" r="2.2"/>
    <circle class="cls-6" cx="68.97" cy="120.59" r="2.2"/>
    <circle class="cls-6" cx="62.08" cy="132.85" r="2.2"/>
    <circle class="cls-6" cx="155.5" cy="112.73" r="2.2"/>
    <circle class="cls-6" cx="167.87" cy="100.96" r="2.7"/>
    <circle class="cls-6" cx="154.16" cy="94.69" r="2.2"/>
    <circle class="cls-6" cx="131.59" cy="48.8" r="2.7"/>
    <circle class="cls-6" cx="104.68" cy="49.35" r="2.7"/>
    <circle class="cls-6" cx="112.31" cy="156.89" r="2.2"/>
    <circle class="cls-6" cx="113.47" cy="116.67" r="2.2"/>
    <circle class="cls-6" cx="128.32" cy="95.06" r="2.2"/>
    <circle class="cls-6" cx="131.59" cy="123.37" r="2.2"/>
    <circle class="cls-6" cx="111.78" cy="85.18" r="2.7"/>
    <circle class="cls-6" cx="98.6" cy="74.3" r="2.2"/>
    <circle class="cls-6" cx="81.72" cy="102" r="2.2"/>
    <circle class="cls-6" cx="82.35" cy="139.35" r="2.2"/>
    <circle class="cls-6" cx="112.65" cy="137.07" r="2.2"/>
    <circle class="cls-6" cx="95.28" cy="54.57" r="2.2"/>
    <line class="cls-42" x1="4.01" y1="216.86" x2="102.99" y2="216.86"/>
    <text class="cls-4" transform="translate(46.82 212.12)"><tspan x="0" y="0">n</tspan></text>
    <text class="cls-3" transform="translate(52.26 215.37) scale(.58)"><tspan x="0" y="0">r</tspan></text>
  </g>
  <g id="Layer_2" data-name="Layer 2">
    <g>
      <circle class="cls-31" cx="283.91" cy="143.93" r="77.7"/>
      <circle class="cls-18" cx="283.55" cy="143.24" r="47.85"/>
      <line class="cls-37" x1="268.76" y1="123.9" x2="259.68" y2="105.78"/>
      <line class="cls-37" x1="274.63" y1="99.77" x2="268.76" y2="123.9"/>
      <line class="cls-37" x1="248.2" y1="116.4" x2="268.76" y2="123.9"/>
      <line class="cls-37" x1="242.14" y1="126.9" x2="268.76" y2="123.9"/>
      <line class="cls-37" x1="239.14" y1="140.39" x2="268.76" y2="123.9"/>
      <line class="cls-37" x1="288.55" y1="98.99" x2="268.76" y2="123.9"/>
      <line class="cls-37" x1="304.24" y1="129.75" x2="288.55" y2="98.99"/>
      <line class="cls-37" x1="303.44" y1="98.99" x2="304.24" y2="129.75"/>
      <line class="cls-37" x1="314.82" y1="111.85" x2="304.24" y2="129.75"/>
      <line class="cls-37" x1="322.07" y1="121.54" x2="304.24" y2="129.75"/>
      <line class="cls-37" x1="326.85" y1="133.84" x2="304.24" y2="129.75"/>
      <line class="cls-37" x1="327.62" y1="147.47" x2="304.24" y2="129.75"/>
      <line class="cls-37" x1="325.07" y1="159.05" x2="304.24" y2="129.75"/>
      <line class="cls-37" x1="325.54" y1="166.56" x2="292.17" y2="166.56"/>
      <line class="cls-37" x1="316.07" y1="173.56" x2="292.17" y2="166.56"/>
      <line class="cls-37" x1="308.82" y1="179.56" x2="292.17" y2="166.56"/>
      <line class="cls-37" x1="298.19" y1="189.06" x2="292.17" y2="166.56"/>
      <line class="cls-37" x1="285.8" y1="187.73" x2="292.17" y2="166.56"/>
      <line class="cls-37" x1="275.68" y1="187.17" x2="265.79" y2="160.34"/>
      <line class="cls-37" x1="266.51" y1="184.17" x2="265.79" y2="160.34"/>
      <line class="cls-37" x1="257.56" y1="184.17" x2="265.79" y2="160.34"/>
      <line class="cls-37" x1="251.2" y1="174.01" x2="265.79" y2="160.34"/>
      <line class="cls-37" x1="239.11" y1="161.22" x2="265.79" y2="160.34"/>
      <line class="cls-37" x1="240.2" y1="153.11" x2="265.79" y2="160.34"/>
      <line class="cls-37" x1="268.76" y1="123.9" x2="240.2" y2="153.11"/>
      <line class="cls-37" x1="292.17" y1="166.56" x2="275.68" y2="187.17"/>
      <line class="cls-37" x1="266.51" y1="184.17" x2="292.17" y2="166.56"/>
      <line class="cls-37" x1="285.8" y1="187.73" x2="265.79" y2="160.34"/>
      <line class="cls-37" x1="298.19" y1="189.06" x2="265.79" y2="160.34"/>
      <line class="cls-37" x1="292.17" y1="166.56" x2="325.07" y2="159.05"/>
      <line class="cls-37" x1="327.62" y1="147.47" x2="292.17" y2="166.56"/>
      <circle class="cls-41" cx="283.55" cy="143.24" r="24.55"/>
      <line class="cls-32" x1="268.76" y1="123.9" x2="274.06" y2="134.71"/>
      <line class="cls-32" x1="283.55" y1="121.54" x2="284.22" y2="134.71"/>
      <line class="cls-32" x1="293.56" y1="123.79" x2="289.56" y2="134.71"/>
      <line class="cls-32" x1="304.68" y1="129.31" x2="298.19" y2="135.48"/>
      <line class="cls-32" x1="300.44" y1="156.93" x2="297.14" y2="151.57"/>
      <line class="cls-32" x1="292.17" y1="166.56" x2="288.31" y2="151.88"/>
      <line class="cls-32" x1="277.93" y1="164.3" x2="282.06" y2="151.88"/>
      <line class="cls-32" x1="265.79" y1="160.34" x2="271.84" y2="151.88"/>
      <line class="cls-32" x1="262.43" y1="144.36" x2="265.79" y2="143.86"/>
      <line class="cls-17" x1="303.44" y1="98.99" x2="292.17" y2="71.51"/>
      <line class="cls-17" x1="305.81" y1="73.99" x2="303.44" y2="98.99"/>
      <line class="cls-17" x1="319.07" y1="79.65" x2="303.44" y2="98.99"/>
      <line class="cls-17" x1="330.62" y1="87.27" x2="303.44" y2="98.99"/>
      <line class="cls-17" x1="339.44" y1="95.99" x2="303.44" y2="98.99"/>
      <line class="cls-17" x1="349.15" y1="110.56" x2="303.44" y2="98.99"/>
      <line class="cls-17" x1="354" y1="122.51" x2="303.44" y2="98.99"/>
      <line class="cls-17" x1="280" y1="70.75" x2="303.44" y2="98.99"/>
      <line class="cls-17" x1="267.92" y1="72.06" x2="268.76" y2="123.9"/>
      <line class="cls-17" x1="254.48" y1="75.84" x2="268.76" y2="123.9"/>
      <line class="cls-17" x1="239.11" y1="161.22" x2="210.9" y2="138.61"/>
      <line class="cls-17" x1="211.65" y1="155.7" x2="239.11" y2="161.22"/>
      <line class="cls-17" x1="215.09" y1="168.81" x2="239.11" y2="161.22"/>
      <line class="cls-17" x1="223.08" y1="184.73" x2="239.11" y2="161.22"/>
      <line class="cls-17" x1="233.43" y1="197.03" x2="239.11" y2="161.22"/>
      <line class="cls-17" x1="210.9" y1="138.61" x2="268.76" y2="123.9"/>
      <line class="cls-17" x1="257.56" y1="184.17" x2="233.43" y2="197.03"/>
      <line class="cls-17" x1="223.08" y1="184.73" x2="257.56" y2="184.17"/>
      <line class="cls-17" x1="248.34" y1="207.92" x2="257.56" y2="184.17"/>
      <line class="cls-17" x1="261.93" y1="213.57" x2="257.56" y2="184.17"/>
      <line class="cls-17" x1="274.89" y1="216.67" x2="257.56" y2="184.17"/>
      <line class="cls-17" x1="298.19" y1="189.06" x2="274.89" y2="216.67"/>
      <line class="cls-17" x1="293.24" y1="216.67" x2="298.19" y2="189.06"/>
      <line class="cls-17" x1="308.82" y1="212.86" x2="298.19" y2="189.06"/>
      <line class="cls-17" x1="293.24" y1="216.67" x2="257.56" y2="184.17"/>
      <line class="cls-17" x1="323.81" y1="205.08" x2="298.19" y2="189.06"/>
      <line class="cls-17" x1="325.54" y1="166.56" x2="323.81" y2="205.08"/>
      <line class="cls-17" x1="333.66" y1="197.82" x2="325.54" y2="166.56"/>
      <line class="cls-17" x1="341.29" y1="189.87" x2="325.54" y2="166.56"/>
      <line class="cls-17" x1="348.16" y1="179.17" x2="325.54" y2="166.56"/>
      <line class="cls-17" x1="354" y1="165.03" x2="325.54" y2="166.56"/>
      <line class="cls-17" x1="356.77" y1="152.24" x2="325.54" y2="166.56"/>
      <line class="cls-17" x1="356.31" y1="133.84" x2="325.54" y2="166.56"/>
      <line class="cls-17" x1="303.44" y1="98.99" x2="356.31" y2="133.84"/>
      <line class="cls-17" x1="215.09" y1="168.81" x2="268.76" y2="123.9"/>
      <line class="cls-17" x1="298.19" y1="189.06" x2="333.66" y2="197.82"/>
      <line class="cls-17" x1="303.44" y1="98.99" x2="267.92" y2="72.06"/>
      <line class="cls-17" x1="254.48" y1="75.84" x2="303.44" y2="98.99"/>
      <g>
        <rect class="cls-21" x="265.79" y="134.71" width="35.51" height="17.16" rx="6.71" ry="6.71"/>
        <text class="cls-5" transform="translate(267.96 146.35)"><tspan x="0" y="0">System</tspan></text>
      </g>
      <circle class="cls-6" cx="283.55" cy="121.54" r="2.25"/>
      <circle class="cls-6" cx="293.56" cy="123.79" r="2.25"/>
      <circle class="cls-9" cx="268.76" cy="123.9" r="2.25"/>
      <circle class="cls-11" cx="265.79" cy="160.34" r="2.25"/>
      <circle class="cls-11" cx="292.17" cy="166.56" r="2.25"/>
      <circle class="cls-6" cx="277.93" cy="164.3" r="2.25"/>
      <circle class="cls-6" cx="300.44" cy="156.93" r="2.25"/>
      <circle class="cls-6" cx="261.93" cy="144.46" r="2.25"/>
      <circle class="cls-11" cx="304.24" cy="129.75" r="2.25"/>
      <circle class="cls-6" cx="274.63" cy="99.77" r="3"/>
      <circle class="cls-6" cx="288.55" cy="98.99" r="3"/>
      <circle class="cls-6" cx="322.07" cy="121.54" r="3"/>
      <circle class="cls-6" cx="314.82" cy="111.85" r="3"/>
      <circle class="cls-6" cx="326.85" cy="133.84" r="3"/>
      <circle class="cls-6" cx="327.62" cy="147.47" r="3"/>
      <circle class="cls-6" cx="325.07" cy="159.05" r="3"/>
      <circle class="cls-6" cx="316.07" cy="173.56" r="3"/>
      <circle class="cls-6" cx="308.82" cy="179.56" r="3"/>
      <circle class="cls-6" cx="285.8" cy="187.73" r="3"/>
      <circle class="cls-6" cx="275.68" cy="187.17" r="3"/>
      <circle class="cls-9" cx="303.44" cy="98.99" r="3"/>
      <circle class="cls-9" cx="325.54" cy="166.56" r="3"/>
      <circle class="cls-9" cx="298.19" cy="189.06" r="3"/>
      <circle class="cls-35" cx="239.11" cy="161.22" r="3"/>
      <circle class="cls-9" cx="257.56" cy="184.17" r="3"/>
      <circle class="cls-6" cx="266.51" cy="184.17" r="3"/>
      <circle class="cls-6" cx="251.2" cy="174.01" r="3"/>
      <circle class="cls-6" cx="240.2" cy="153.11" r="3"/>
      <circle class="cls-6" cx="239.14" cy="140.39" r="3"/>
      <circle class="cls-6" cx="242.14" cy="126.9" r="3"/>
      <circle class="cls-6" cx="248.2" cy="116.4" r="3"/>
      <circle class="cls-6" cx="259.68" cy="105.78" r="3"/>
      <circle class="cls-23" cx="292.17" cy="71.51" r="3.81"/>
      <circle class="cls-23" cx="339.44" cy="95.99" r="3.81"/>
      <circle class="cls-23" cx="356.31" cy="133.84" r="3.81"/>
      <circle class="cls-23" cx="323.81" cy="205.08" r="3.81"/>
      <circle class="cls-23" cx="261.93" cy="213.57" r="3.81"/>
      <circle class="cls-6" cx="210.9" cy="138.61" r="3.81"/>
      <circle class="cls-6" cx="211.65" cy="155.7" r="3.81"/>
      <circle class="cls-6" cx="215.09" cy="168.81" r="3.81"/>
      <circle class="cls-6" cx="223.08" cy="184.73" r="3.81"/>
      <circle class="cls-6" cx="233.43" cy="197.03" r="3.81"/>
      <circle class="cls-6" cx="248.34" cy="207.92" r="3.81"/>
      <circle class="cls-6" cx="274.89" cy="216.67" r="3.81"/>
      <circle class="cls-6" cx="293.24" cy="216.67" r="3.81"/>
      <circle class="cls-6" cx="308.82" cy="212.86" r="3.81"/>
      <circle class="cls-6" cx="333.66" cy="197.82" r="3.81"/>
      <circle class="cls-6" cx="341.29" cy="189.87" r="3.81"/>
      <circle class="cls-6" cx="348.16" cy="179.17" r="3.81"/>
      <circle class="cls-6" cx="354" cy="165.03" r="3.81"/>
      <circle class="cls-6" cx="356.77" cy="152.24" r="3.81"/>
      <circle class="cls-6" cx="354" cy="122.51" r="3.81"/>
      <circle class="cls-6" cx="349.15" cy="110.56" r="3.81"/>
      <circle class="cls-6" cx="330.62" cy="87.27" r="3.81"/>
      <circle class="cls-6" cx="319.07" cy="79.65" r="3.81"/>
      <circle class="cls-6" cx="305.81" cy="73.99" r="3.81"/>
      <circle class="cls-6" cx="280" cy="70.75" r="3.81"/>
      <circle class="cls-6" cx="267.92" cy="72.06" r="3.81"/>
      <circle class="cls-23" cx="255.13" cy="76.53" r="3.81"/>
    </g>
    <path class="cls-29" d="M399.94,67.98c.62.26,9.8,4.26,12.86,15.21,2.18,7.79.39,15.99-4.59,21.05"/>
    <path class="cls-36" d="M392.63,119.41c-.08.91-.82,7.81-9.33,12.72-9.89,5.71-21.11,3.48-21.82,3.32"/>
    <g>
      <circle class="cls-16" cx="372.58" cy="49.58" r="48.39"/>
      <line class="cls-39" x1="357.63" y1="30.02" x2="348.44" y2="11.69"/>
      <line class="cls-39" x1="363.56" y1="5.62" x2="357.63" y2="30.02"/>
      <line class="cls-39" x1="336.84" y1="22.43" x2="357.63" y2="30.02"/>
      <line class="cls-39" x1="330.71" y1="33.05" x2="357.63" y2="30.02"/>
      <line class="cls-39" x1="327.67" y1="46.69" x2="357.63" y2="30.02"/>
      <line class="cls-39" x1="377.64" y1="4.83" x2="357.63" y2="30.02"/>
      <line class="cls-39" x1="393.51" y1="35.93" x2="377.64" y2="4.83"/>
      <line class="cls-39" x1="392.7" y1="9.75" x2="393.51" y2="35.93"/>
      <line class="cls-39" x1="404.21" y1="17.83" x2="393.51" y2="35.93"/>
      <line class="cls-39" x1="411.54" y1="27.63" x2="393.51" y2="35.93"/>
      <line class="cls-39" x1="416.38" y1="40.07" x2="393.51" y2="35.93"/>
      <line class="cls-39" x1="417.15" y1="53.85" x2="393.51" y2="35.93"/>
      <line class="cls-39" x1="414.58" y1="65.56" x2="393.51" y2="35.93"/>
      <line class="cls-39" x1="410.72" y1="73.15" x2="381.3" y2="73.15"/>
      <line class="cls-39" x1="405.47" y1="80.23" x2="381.3" y2="73.15"/>
      <line class="cls-39" x1="398.14" y1="86.3" x2="381.3" y2="73.15"/>
      <line class="cls-39" x1="385.75" y1="92.37" x2="381.3" y2="73.15"/>
      <line class="cls-39" x1="374.86" y1="94.56" x2="381.3" y2="73.15"/>
      <line class="cls-39" x1="364.63" y1="94" x2="354.63" y2="66.87"/>
      <line class="cls-39" x1="355.36" y1="90.96" x2="354.63" y2="66.87"/>
      <line class="cls-39" x1="347.76" y1="86.76" x2="354.63" y2="66.87"/>
      <line class="cls-39" x1="339.88" y1="80.69" x2="354.63" y2="66.87"/>
      <line class="cls-39" x1="331.63" y1="67.63" x2="354.63" y2="66.87"/>
      <line class="cls-39" x1="328.75" y1="59.55" x2="354.63" y2="66.87"/>
      <line class="cls-39" x1="357.63" y1="30.02" x2="328.75" y2="59.55"/>
      <line class="cls-39" x1="381.3" y1="73.15" x2="364.63" y2="94"/>
      <line class="cls-39" x1="355.36" y1="90.96" x2="381.3" y2="73.15"/>
      <line class="cls-39" x1="374.86" y1="94.56" x2="354.63" y2="66.87"/>
      <line class="cls-39" x1="385.75" y1="92.37" x2="354.63" y2="66.87"/>
      <line class="cls-39" x1="381.3" y1="73.15" x2="414.58" y2="65.56"/>
      <line class="cls-39" x1="417.15" y1="53.85" x2="381.3" y2="73.15"/>
      <g>
        <circle class="cls-22" cx="372.58" cy="49.58" r="24.83"/>
        <line class="cls-38" x1="357.63" y1="30.02" x2="362.99" y2="40.95"/>
        <line class="cls-38" x1="372.58" y1="27.63" x2="373.27" y2="40.95"/>
        <line class="cls-38" x1="382.71" y1="29.91" x2="378.67" y2="40.95"/>
        <line class="cls-38" x1="393.96" y1="35.48" x2="387.39" y2="41.72"/>
        <line class="cls-38" x1="389.67" y1="63.41" x2="386.32" y2="58"/>
        <line class="cls-38" x1="381.3" y1="73.15" x2="377.4" y2="58.31"/>
        <line class="cls-38" x1="366.91" y1="70.88" x2="371.08" y2="58.31"/>
        <line class="cls-38" x1="354.63" y1="66.87" x2="360.74" y2="58.31"/>
        <line class="cls-38" x1="351.23" y1="50.71" x2="354.63" y2="50.2"/>
        <g>
          <rect class="cls-21" x="354.63" y="40.95" width="35.91" height="17.36" rx="6.53" ry="6.53"/>
          <text class="cls-5" transform="translate(357 52.5)"><tspan x="0" y="0">System</tspan></text>
        </g>
        <circle class="cls-6" cx="372.58" cy="27.63" r="2.28"/>
        <circle class="cls-6" cx="382.71" cy="29.91" r="2.28"/>
        <circle class="cls-24" cx="357.63" cy="30.02" r="2.28"/>
        <circle class="cls-10" cx="354.63" cy="66.87" r="2.28"/>
        <circle class="cls-10" cx="381.3" cy="73.15" r="2.28"/>
        <circle class="cls-6" cx="366.91" cy="70.88" r="2.28"/>
        <circle class="cls-6" cx="389.67" cy="63.41" r="2.28"/>
        <circle class="cls-6" cx="350.72" cy="50.81" r="2.28"/>
        <circle class="cls-10" cx="393.51" cy="35.93" r="2.28"/>
      </g>
      <circle class="cls-6" cx="363.56" cy="5.62" r="3.03"/>
      <circle class="cls-6" cx="377.64" cy="4.83" r="3.03"/>
      <circle class="cls-6" cx="411.54" cy="27.63" r="3.03"/>
      <circle class="cls-6" cx="404.21" cy="17.83" r="3.03"/>
      <circle class="cls-6" cx="416.38" cy="40.07" r="3.03"/>
      <circle class="cls-6" cx="417.15" cy="53.85" r="3.03"/>
      <circle class="cls-6" cx="414.58" cy="65.56" r="3.03"/>
      <circle class="cls-6" cx="405.47" cy="80.23" r="3.03"/>
      <circle class="cls-6" cx="398.14" cy="86.3" r="3.03"/>
      <circle class="cls-6" cx="374.86" cy="94.56" r="3.03"/>
      <circle class="cls-6" cx="364.63" cy="94" r="3.03"/>
      <circle class="cls-27" cx="392.7" cy="9.75" r="3.03"/>
      <circle class="cls-27" cx="410.72" cy="73.15" r="3.03"/>
      <circle class="cls-27" cx="385.75" cy="92.37" r="3.03"/>
      <circle class="cls-27" cx="331.63" cy="67.63" r="3.03"/>
      <circle class="cls-27" cx="347.76" cy="86.76" r="3.03"/>
      <circle class="cls-6" cx="355.36" cy="90.96" r="3.03"/>
      <circle class="cls-6" cx="339.88" cy="80.69" r="3.03"/>
      <circle class="cls-6" cx="328.75" cy="59.55" r="3.03"/>
      <circle class="cls-6" cx="327.67" cy="46.69" r="3.03"/>
      <circle class="cls-6" cx="330.71" cy="33.05" r="3.03"/>
      <circle class="cls-6" cx="336.84" cy="22.43" r="3.03"/>
      <circle class="cls-6" cx="348.44" cy="11.69" r="3.03"/>
    </g>
    <g>
      <circle class="cls-21" cx="398.14" cy="114.97" r="13.86"/>
      <circle class="cls-27" cx="396.15" cy="106.86" r="2.89"/>
      <circle class="cls-27" cx="400.74" cy="123.29" r="2.89"/>
      <circle class="cls-27" cx="389.64" cy="112.89" r="2.89"/>
      <circle class="cls-27" cx="404.46" cy="108.77" r="2.89"/>
      <circle class="cls-27" cx="392.12" cy="121.24" r="2.89"/>
      <circle class="cls-27" cx="406.55" cy="116.97" r="2.89"/>
    </g>
    <path class="cls-25" d="M266.81,41.9c.86,1.81,3.31,6.38,8.42,9.67,8.08,5.21,16.08,2.9,17.2,2.55"/>
    <path class="cls-40" d="M305.19,48.07c-.14-1.86-.59-10.57,5.72-18.04,8.11-9.59,20.29-8.77,21.51-8.66"/>
    <g>
      <circle class="cls-12" cx="254.11" cy="29.51" r="24.86"/>
      <line class="cls-39" x1="240.45" y1="12.59" x2="244.5" y2="20.87"/>
      <line class="cls-39" x1="254.11" y1="7.53" x2="254.8" y2="20.87"/>
      <line class="cls-39" x1="264.26" y1="9.81" x2="260.2" y2="20.87"/>
      <line class="cls-39" x1="272.87" y1="17.91" x2="268.94" y2="21.64"/>
      <line class="cls-39" x1="271.22" y1="43.37" x2="267.88" y2="37.94"/>
      <line class="cls-39" x1="261.98" y1="49.83" x2="258.94" y2="38.25"/>
      <line class="cls-39" x1="248.43" y1="50.84" x2="252.61" y2="38.25"/>
      <line class="cls-39" x1="238.17" y1="44.25" x2="242.25" y2="38.25"/>
      <line class="cls-39" x1="232.72" y1="30.64" x2="236.13" y2="30.13"/>
      <g>
        <rect class="cls-21" x="236.13" y="20.87" width="35.97" height="17.38" rx="6.7" ry="6.7"/>
        <text class="cls-5" transform="translate(238.53 32.46)"><tspan x="0" y="0">System</tspan></text>
      </g>
      <circle class="cls-6" cx="254.11" cy="7.53" r="2.28"/>
      <circle class="cls-6" cx="264.26" cy="9.81" r="2.28"/>
      <circle class="cls-27" cx="240.45" cy="12.59" r="2.28"/>
      <circle class="cls-27" cx="238.17" cy="44.25" r="2.28"/>
      <circle class="cls-27" cx="261.98" cy="49.83" r="2.28"/>
      <circle class="cls-6" cx="248.43" cy="50.84" r="2.28"/>
      <circle class="cls-6" cx="271.22" cy="43.37" r="2.28"/>
      <circle class="cls-6" cx="232.22" cy="30.74" r="2.28"/>
      <circle class="cls-27" cx="272.83" cy="17.95" r="2.28"/>
    </g>
    <g>
      <circle class="cls-21" cx="303.55" cy="50.28" r="11.26"/>
      <circle class="cls-27" cx="300.6" cy="44.68" r="3"/>
      <circle class="cls-27" cx="306.72" cy="55.92" r="3"/>
      <circle class="cls-27" cx="298.11" cy="53.49" r="3"/>
      <circle class="cls-27" cx="309.2" cy="47.12" r="3"/>
    </g>
    <g>
      <rect class="cls-13" x="367.07" y="148.37" width="71.14" height="73.74" rx="8.17" ry="8.17"/>
      <circle class="cls-14" cx="376.71" cy="157.12" r="6.39"/>
      <circle class="cls-26" cx="376.71" cy="171.61" r="6.39"/>
      <circle class="cls-20" cx="376.74" cy="186.4" r="6.39"/>
      <text class="cls-1" transform="translate(384.94 160.19)"><tspan x="0" y="0">Level 1</tspan></text>
      <text class="cls-1" transform="translate(384.94 174.67)"><tspan x="0" y="0">Level 2</tspan></text>
      <text class="cls-1" transform="translate(384.94 189.46)"><tspan x="0" y="0">Level 3</tspan></text>
      <circle class="cls-34" cx="376.71" cy="200.79" r="3.85"/>
      <text class="cls-1" transform="translate(383.14 203.64)"><tspan x="0" y="0">Active Seed</tspan></text>
      <circle class="cls-8" cx="376.74" cy="213.41" r="3.85"/>
      <text class="cls-1" transform="translate(383.11 216.41)"><tspan x="0" y="0">Previous Seed</tspan></text>
    </g>
  </g>
  <g id="Layer_3" data-name="Layer 3">
    <text class="cls-2" transform="translate(213.51 13.67)"><tspan x="0" y="0">b)</tspan></text>
    <text class="cls-2" transform="translate(4.99 12.3)"><tspan x="0" y="0">a)</tspan></text>
  </g>
</svg>